<svg width="100" height="100" viewBox="0 0 100 100" fill="none" xmlns="http://www.w3.org/2000/svg">
<path d="M22.7307 24.1394C23.9459 24.8959 24.8016 25.8259 25.31 26.9048C26.0665 28.6409 26.9097 30.5258 27.8274 32.5719C28.745 34.6181 29.6751 36.689 30.5928 38.7847C31.5104 40.8805 32.4033 42.9266 33.2465 44.9107C34.0898 46.8949 34.8586 48.7178 35.5283 50.3671C36.1979 52.0164 36.7312 53.4177 37.128 54.571C37.5248 55.7242 37.7232 56.4931 37.7232 56.8527C37.7232 57.4727 37.6364 58.068 37.4752 58.6632C37.314 59.2585 37.0164 59.8041 36.5823 60.2877C36.1483 60.7714 35.5407 61.1682 34.7718 61.4534C33.9906 61.7386 32.9861 61.8874 31.7584 61.8874C30.4564 61.8874 29.4023 61.7138 28.5838 61.3666C27.7654 61.0194 27.0957 60.5853 26.5501 60.0397C26.0045 59.4941 25.558 58.9236 25.1984 58.3284C24.8388 57.7332 24.4668 57.1627 24.0823 56.6171C23.6979 56.0715 23.2639 55.6374 22.7803 55.2902C22.2966 54.943 21.627 54.7694 20.7961 54.7694H17.3239C16.307 54.7694 15.5134 54.943 14.9058 55.2902C14.3105 55.6374 13.8269 56.0715 13.4425 56.6171C13.058 57.1627 12.7108 57.7332 12.3884 58.3284C12.066 58.9236 11.6443 59.4941 11.1359 60.0397C10.6275 60.5853 9.97024 61.0194 9.15179 61.3666C8.33333 61.7138 7.24206 61.8874 5.86558 61.8874C3.84425 61.8874 2.35615 61.441 1.41369 60.5357C0.47123 59.6305 0 58.564 0 57.3363C0 56.8651 0.186012 56.0466 0.570436 54.8686C0.954861 53.6905 1.46329 52.2892 2.12054 50.6647C2.80258 49.0278 3.54663 47.2297 4.37748 45.2332C5.20833 43.249 6.08879 41.1905 7.03125 39.0824C7.97371 36.9618 8.91617 34.8537 9.84623 32.7332C10.7887 30.6126 11.6939 28.5789 12.562 26.632C13.0704 25.5159 13.9137 24.623 15.0794 23.9782C16.2574 23.3334 17.5595 22.9985 19.0104 22.9985C20.2753 22.9985 21.5154 23.383 22.7307 24.1394ZM66.5923 24.3254C67.5347 25.1811 68.006 26.2723 68.006 27.6116C68.006 28.3681 67.8199 29.3601 67.4355 30.6002C67.0511 31.8279 66.5675 33.2168 65.9722 34.7793C65.377 36.3294 64.6825 38.0159 63.9137 39.8264C63.1324 41.6369 62.3512 43.4722 61.5575 45.3572C60.4787 47.9241 59.5362 50.2307 58.7674 52.2768C57.9861 54.3229 57.1925 56.0591 56.3864 57.4851C55.568 58.9112 54.6875 60.0149 53.7326 60.7962C52.7778 61.5774 51.5873 61.9618 50.186 61.9618C48.7351 61.9618 47.5322 61.6518 46.5774 61.007C45.6225 60.3745 44.7545 59.4197 43.9732 58.13C43.192 56.8527 42.4355 55.2282 41.6915 53.2813C40.9474 51.3344 40.0794 49.0154 39.0625 46.3368C38.3061 44.3155 37.5248 42.3314 36.7312 40.3968C35.9375 38.4623 35.2183 36.6766 34.561 35.0521C33.9162 33.4276 33.3829 31.9643 32.9613 30.687C32.5521 29.4097 32.3413 28.4053 32.3413 27.6736C32.3413 26.0119 32.8993 24.8215 34.0278 24.0898C35.1438 23.3706 36.5451 23.0109 38.2068 23.0109C39.7197 23.0109 40.9102 23.1969 41.7535 23.5814C42.5967 23.9658 43.3408 24.4618 43.9484 25.0695C44.3824 25.5035 44.8165 26.1359 45.2505 26.9668C45.6845 27.7976 46.0938 28.7153 46.4658 29.7074C46.8502 30.6994 47.2222 31.7039 47.6066 32.7208C47.9911 33.7376 48.3383 34.6677 48.6607 35.5109C48.9831 36.3666 49.3056 37.0486 49.6156 37.5695C49.9256 38.0903 50.1984 38.3507 50.4588 38.3507C50.744 38.3507 51.0417 38.0903 51.3517 37.5695C51.6617 37.0486 51.9717 36.3666 52.3066 35.5357C52.629 34.7049 52.9638 33.7872 53.311 32.7952C53.6582 31.8031 54.0179 30.811 54.3899 29.8438C54.7619 28.8765 55.1711 27.9713 55.5804 27.1652C55.9896 26.3467 56.4236 25.7267 56.8576 25.2927C57.2545 24.8959 57.6389 24.561 58.0233 24.2882C58.4077 24.0154 58.817 23.7922 59.2758 23.6062C59.7222 23.4202 60.2431 23.2962 60.8259 23.1969C61.4087 23.1101 62.1032 23.0605 62.9464 23.0605C64.4221 23.0605 65.6498 23.4822 66.5923 24.3254ZM85.0074 24.1394C86.2227 24.8959 87.0784 25.8259 87.5868 26.9048C88.3433 28.6409 89.1865 30.5258 90.1042 32.5719C91.0218 34.6181 91.9519 36.689 92.8695 38.7847C93.7872 40.8805 94.6801 42.9266 95.5233 44.9107C96.3666 46.8949 97.1354 48.7178 97.8051 50.3671C98.4747 52.0164 99.0079 53.4177 99.4048 54.571C99.8016 55.7242 100 56.4931 100 56.8527C100 57.4727 99.9132 58.068 99.752 58.6632C99.5908 59.2585 99.2932 59.8041 98.8591 60.2877C98.4251 60.7714 97.8175 61.1682 97.0486 61.4534C96.2674 61.7386 95.2629 61.8874 94.0352 61.8874C92.7331 61.8874 91.6791 61.7138 90.8606 61.3666C90.0422 61.0194 89.3725 60.5853 88.8269 60.0397C88.2812 59.4941 87.8348 58.9236 87.4752 58.3284C87.1156 57.7332 86.7436 57.1627 86.3591 56.6171C85.9747 56.0715 85.5407 55.6374 85.057 55.2902C84.5734 54.943 83.9038 54.7694 83.0729 54.7694H79.6007C78.5838 54.7694 77.7902 54.943 77.1825 55.2902C76.5873 55.6374 76.1037 56.0715 75.7192 56.6171C75.3348 57.1627 74.9876 57.7332 74.6652 58.3284C74.3428 58.9236 73.9211 59.4941 73.4127 60.0397C72.9043 60.5853 72.247 61.0194 71.4286 61.3666C70.6101 61.7138 69.5189 61.8874 68.1424 61.8874C66.121 61.8874 64.6329 61.441 63.6905 60.5357C62.748 59.6305 62.2768 58.564 62.2768 57.3363C62.2768 56.8651 62.4628 56.0466 62.8472 54.8686C63.2317 53.6905 63.7401 52.2892 64.3973 50.6647C65.0422 49.0402 65.7862 47.2297 66.6171 45.2456C67.4479 43.2614 68.3284 41.2029 69.2708 39.0948C70.2133 36.9742 71.1558 34.8661 72.0858 32.7456C73.0283 30.625 73.9335 28.5913 74.8016 26.6444C75.31 25.5283 76.1533 24.6354 77.319 23.9906C78.497 23.3458 79.7991 23.0109 81.25 23.0109C82.5521 22.9985 83.7922 23.383 85.0074 24.1394Z" fill="#4B4B77"/>
<path d="M18.8864 77.5496C19.184 77.5496 19.4692 77.3884 19.6056 77.1156C19.6056 77.1032 20.7837 74.9331 21.9494 72.3661C22.5322 71.0764 23.1274 69.6999 23.5739 68.4226C23.7971 67.7778 23.9831 67.1702 24.1195 66.6121C24.2559 66.0417 24.3427 65.5209 24.3427 65.0496C24.3427 63.2019 23.6607 61.5526 22.5198 60.4117C21.5649 59.4569 20.2753 58.874 18.874 58.874C17.4727 58.874 16.183 59.4569 15.2281 60.4117C14.0997 61.5402 13.4052 63.1895 13.4052 65.0496C13.4052 65.5333 13.492 66.0541 13.6284 66.6121C13.864 67.6042 14.2733 68.7327 14.7321 69.8983C16.1334 73.383 18.1423 77.1032 18.1423 77.128C18.3035 77.376 18.5763 77.5496 18.8864 77.5496ZM81.1632 77.5496C81.4608 77.5496 81.746 77.3884 81.8824 77.1156C81.8824 77.1032 83.0605 74.9331 84.2262 72.3661C84.809 71.0764 85.4042 69.6999 85.8507 68.4226C86.0739 67.7778 86.2599 67.1702 86.3963 66.6121C86.5327 66.0417 86.6195 65.5209 86.6195 65.0496C86.6195 63.2019 85.9375 61.5526 84.7966 60.4117C83.8417 59.4569 82.552 58.874 81.1507 58.874C79.7495 58.874 78.4598 59.4569 77.5049 60.4117C76.3764 61.5402 75.682 63.1895 75.682 65.0496C75.682 65.5333 75.7688 66.0541 75.9052 66.6121C76.1408 67.6042 76.5501 68.7327 77.0089 69.8983C78.4102 73.383 80.4191 77.1032 80.4191 77.128C80.5803 77.376 80.8531 77.5496 81.1632 77.5496Z" fill="#E0C7C1"/>
</svg>
