<svg width="100" height="100" viewBox="0 0 100 100" fill="none" xmlns="http://www.w3.org/2000/svg">
<path d="M49.9999 24.999L75.9807 69.999" stroke="white" stroke-width="1.25"/>
<path d="M24.0193 69.999L50 24.999" stroke="white" stroke-width="1.25"/>
<path d="M24.0193 79.999C29.5421 79.999 34.0193 75.5219 34.0193 69.999C34.0193 64.4762 29.5421 59.999 24.0193 59.999C18.4964 59.999 14.0193 64.4762 14.0193 69.999C14.0193 75.5219 18.4964 79.999 24.0193 79.999Z" fill="#FF0000" stroke="white" stroke-width="1.25"/>
<path d="M49.9999 34.999C55.5228 34.999 59.9999 30.5219 59.9999 24.999C59.9999 19.4762 55.5228 14.999 49.9999 14.999C44.4771 14.999 39.9999 19.4762 39.9999 24.999C39.9999 30.5219 44.4771 34.999 49.9999 34.999Z" fill="#00FF00" stroke="white" stroke-width="1.25"/>
<path d="M75.9806 79.999C81.5035 79.999 85.9806 75.5219 85.9806 69.999C85.9806 64.4762 81.5035 59.999 75.9806 59.999C70.4578 59.999 65.9806 64.4762 65.9806 69.999C65.9806 75.5219 70.4578 79.999 75.9806 79.999Z" fill="#0000FF" stroke="white" stroke-width="1.25"/>
</svg>
