<svg width="100" height="100" viewBox="0 0 100 100" fill="none" xmlns="http://www.w3.org/2000/svg">
<g clip-path="url(#clip0_33_331)">
<path d="M60.6689 43.9693L49.876 37.739L39.0832 43.9699L39.083 56.4345L49.876 62.6676L60.6689 56.4345L60.6689 43.9693Z" fill="white"/>
<path d="M39.0669 5.33936L44.9035 1.96964C46.4143 1.09235 48.1297 0.628883 49.8768 0.625977C51.6275 0.629331 53.3462 1.09504 54.8591 1.97598L89.2134 21.8105C90.8554 22.7583 92.1032 24.0158 92.9398 25.5353C93.756 27.0184 94.1803 28.7492 94.1803 30.6901V70.1478C94.1803 73.8774 92.4923 76.8105 89.2909 78.6584L54.9965 98.4591C51.6683 100.38 48.0662 100.371 44.719 98.4379C38.6974 94.9621 32.6765 91.4857 26.6556 88.0094L26.5555 87.9516C21.2064 84.8631 15.8573 81.7746 10.5078 78.6865C9.07692 77.8598 7.78476 76.5889 6.87914 74.9905C6.07069 73.5616 5.57031 71.8738 5.57031 69.9977V28.9414C5.57031 25.3343 7.27172 23.5132 10.4576 21.6738L24.1583 13.7618V65.0611L24.1578 65.1048L49.8761 79.952L75.5916 65.1048V35.5055L75.5915 35.4098L49.876 20.5647L39.0669 26.8048V5.33936Z" fill="white"/>
</g>
<defs>
<clipPath id="clip0_33_331">
<rect width="89.4366" height="100" fill="white" transform="translate(5 -0.000854492)"/>
</clipPath>
</defs>
</svg>
