<svg width="100" height="100" viewBox="0 0 100 100" fill="none" xmlns="http://www.w3.org/2000/svg">
<path d="M71.5312 37.812L92.9375 50.4683V75.4683L71.5312 87.812L49.9688 75.4683V50.4683L71.5312 37.812Z" fill="#00B46F"/>
<path d="M49.9688 -0.000854492L71.5312 12.8116V37.8116L49.9688 49.9991L28.4062 37.8116V12.8116L49.9688 -0.000854492Z" fill="#2294D9"/>
<path d="M71.5312 12.812L92.9375 25.4683V50.4683L71.5312 62.812L49.9688 50.4683V25.4683L71.5312 12.812Z" fill="#2294D9"/>
<path d="M28.4063 12.812L49.9688 25.4683V50.4683L28.4063 62.812L7 50.4683V25.4683L28.4063 12.812Z" fill="#F85551"/>
<path d="M28.4063 37.812L49.9688 50.4683V75.4683L28.4063 87.812L7 75.4683V50.4683L28.4063 37.812Z" fill="#F85551"/>
<path d="M49.9688 49.999L71.5312 62.8115V87.8115L49.9688 99.999L28.4062 87.8115V62.8115L49.9688 49.999Z" fill="#00B46F"/>
<path d="M71.5312 12.8116L49.9687 25.4679L28.4062 12.8116L49.9687 -0.000854492L71.5312 12.8116ZM92.9375 25.4679L71.375 38.2804L49.9687 25.4679L71.5312 12.6554L92.9375 25.4679Z" fill="#30B2E9"/>
<path d="M49.9688 74.999V49.999L28.4062 62.8115V87.8115L49.9688 74.999Z" fill="#00AB64"/>
<path d="M71.5312 62.8115L49.9688 74.999L28.4062 62.8115L49.9688 49.999L71.5312 62.8115Z" fill="#00CE8E"/>
<path d="M49.9688 74.999L28.4062 62.8115L49.9688 49.999V74.999Z" fill="#00C783"/>
<path d="M49.9688 25.4679L28.4062 12.8116L49.9688 -0.000854492V25.4679Z" fill="#2CAEE7"/>
<path d="M49.9688 25.4683L28.4063 38.2808L7 25.4683L28.4063 12.812L49.9688 25.4683Z" fill="#FB716C"/>
<path d="M92.9375 50.4678L71.5312 62.8115L49.9688 49.999L71.5312 38.2803L92.9375 50.4678Z" fill="#1F8ED6"/>
<path d="M28.0938 87.499L7 75.3115L28.0938 62.499V87.499Z" fill="#F64743"/>
<path d="M28.4062 38.2808V12.812L49.9688 25.4683V49.9995L28.4062 38.2808Z" fill="#F96560"/>
<path d="M49.9688 49.9985V25.4673L28.4062 38.2798V62.811L49.9688 49.9985Z" fill="#B71D1D"/>
<path d="M49.9688 49.9985L28.4062 38.2798L49.9688 25.4673V49.9985Z" fill="#B21A1A"/>
<path d="M92.9375 75.4673L71.5312 62.811L92.9375 50.4673V75.4673Z" fill="#10161A" fill-opacity="0.2"/>
<path d="M71.5312 87.811V62.811L49.9688 74.9985V99.9985L71.5312 87.811ZM92.9375 75.4673V50.4673L71.375 62.6548V87.6548L92.9375 75.4673Z" fill="#007233"/>
<path d="M92.9375 75.4673L71.5312 62.811L92.9375 50.4673V75.4673Z" fill="#00682C"/>
<path d="M92.9375 50.4673V25.4673L71.5312 38.2798V62.811L92.9375 50.4673Z" fill="#0759BA"/>
<path d="M92.9375 50.4673L71.5312 38.2798L92.9375 25.4673V50.4673Z" fill="#0860BF"/>
<path opacity="0.78" d="M7 25.4673L28.5625 37.6548L49.9688 25.4673L29.0312 38.436L28.5625 62.6548L28.0938 38.436L7 25.4673Z" fill="#FEBCB7"/>
<path opacity="0.78" d="M49.9688 25.4673L71.5312 37.811L92.9375 25.4673L72 38.436L71.5312 62.811L70.9063 38.436L49.9688 25.4673Z" fill="#4EDCF8"/>
<path opacity="0.78" d="M28.4062 62.812L49.9688 74.5308L71.5312 62.812L50.5938 75.312L49.9688 99.9995L49.5 75.312L28.4062 62.812Z" fill="#00F3C9"/>
</svg>
