<svg width="100" height="100" viewBox="0 0 100 100" fill="none" xmlns="http://www.w3.org/2000/svg">
<path d="M92.0498 32.2591L88.9601 23.9203L91.0864 19.1362C91.3522 18.505 91.2193 17.8073 90.7542 17.309L84.9402 11.4286C82.3821 8.87043 78.5947 7.97342 75.1728 9.16943L73.5449 9.73422L64.6412 0.0996678L49.5914 0H49.4917L34.3422 0.13289L25.4718 9.83389L23.8771 9.2691C20.4219 8.03987 16.6013 8.93688 14.0432 11.5615L8.12957 17.5415C7.7309 17.9402 7.63123 18.505 7.83056 19.0033L10.0565 23.9867L7 32.3256L8.99336 39.8671L18.0299 74.186C19.0598 78.1395 21.4518 81.5947 24.8073 83.9867C24.8073 83.9867 35.7708 91.7276 46.5681 98.7375C47.5316 99.3688 48.5282 99.8007 49.5914 99.8007C50.6545 99.8007 51.6512 99.3688 52.6146 98.7375C64.7741 90.7641 74.3754 83.9535 74.3754 83.9535C77.6977 81.5615 80.0897 78.1063 81.1196 74.1528L90.0897 39.8339L92.0498 32.2591Z" fill="#F15A22"/>
<path style="mix-blend-mode:lighten" opacity="0.15" d="M18.4618 75.6479L7 33.0566L10.3555 24.7177L8.0299 18.5383L13.5781 12.8905C15.4053 11.2625 18.9934 10.6978 20.6545 11.6612L29.3256 16.6446L40.6213 19.2692L49.4252 15.6147L50.1561 91.2625C50.0233 102.16 50.7209 100.997 42.7143 95.8473L22.9468 82.5914C20.8206 80.5649 19.1927 78.2725 18.4618 75.6479Z" fill="url(#paint0_linear_33_369)"/>
<path style="mix-blend-mode:darken" opacity="0.4" d="M74.176 83.8025L57.3653 95.2975C52.681 97.8557 50.4218 100.381 50.0564 99.1514C49.7574 98.1879 49.9899 95.364 49.8903 90.9786L49.6909 16.9919C49.7241 16.261 50.2225 15.0318 51.0863 15.1647L59.6577 17.756L72.0165 15.8291L80.1893 9.81582C81.053 9.15137 82.3155 9.21782 83.1128 9.98194L90.4218 16.9587C91.0863 17.6564 91.1195 19.0185 90.7208 19.8823L88.6942 23.6364L92.0497 32.3075L80.4883 75.2976C78.6942 80.6464 76.1693 82.0417 74.176 83.8025Z" fill="url(#paint1_linear_33_369)"/>
<path d="M51.5182 61.3957C51.1195 61.2296 50.6876 61.0967 50.5547 61.0967H50.0232H49.4916C49.3587 61.0967 48.9268 61.2296 48.5281 61.3957L44.2092 63.1897C43.8105 63.3558 43.1461 63.6548 42.7474 63.8542L36.2358 67.2429C35.8371 67.4422 35.8039 67.8076 36.1693 68.0734L41.9168 72.1266C42.2823 72.3924 42.8471 72.8243 43.1793 73.1233L45.7374 75.316C46.0697 75.615 46.6012 76.0801 46.9335 76.3791L49.3919 78.5718C49.7242 78.8708 50.2557 78.8708 50.5879 78.5718L53.1129 76.3791C53.4451 76.0801 53.9766 75.615 54.3089 75.316L56.867 73.09C57.1992 72.791 57.764 72.3591 58.1295 72.0934L63.877 68.007C64.2424 67.7412 64.2092 67.3758 63.8105 67.1764L57.2989 63.8542C56.9002 63.6548 56.2358 63.3558 55.8371 63.1897L51.5182 61.3957Z" fill="white"/>
<path d="M82.6856 33.74C82.8185 33.3081 82.8185 33.142 82.8185 33.142C82.8185 32.7101 82.7852 31.9792 82.7188 31.5473L82.3866 30.5838C82.1872 30.1852 81.855 29.5539 81.5892 29.1885L77.8351 23.6403C77.6025 23.2749 77.1706 22.7101 76.8716 22.3446L72.0211 16.2649C71.7553 15.9327 71.4896 15.6337 71.4563 15.6669H71.3899C71.3899 15.6669 71.0244 15.7333 70.5925 15.7998L63.1839 17.2616C62.752 17.3613 62.0543 17.4941 61.6224 17.5606L61.4896 17.5938C61.0577 17.6603 60.36 17.627 59.9281 17.4941L53.7155 15.5008C53.2836 15.3679 52.5859 15.1686 52.1872 15.0689C52.1872 15.0689 50.9248 14.7699 49.8949 14.8031C48.865 14.8031 47.6025 15.0689 47.6025 15.0689C47.1706 15.1686 46.4729 15.3679 46.0743 15.5008L39.8616 17.4941C39.4298 17.627 38.7321 17.6603 38.3002 17.5938L38.1673 17.5606C37.7354 17.4941 37.0377 17.328 36.6058 17.2616L29.1307 15.8662C28.6989 15.7666 28.3334 15.7333 28.3334 15.7333H28.267C28.2337 15.7333 27.968 15.9991 27.7022 16.3314L22.8517 22.4111C22.5859 22.7433 22.154 23.3413 21.8882 23.7068L18.1341 29.2549C17.9015 29.6204 17.5361 30.2516 17.3367 30.6503L17.0045 31.6137C16.9381 32.0456 16.8716 32.7765 16.9048 33.2084C16.9048 33.2084 16.9048 33.3413 17.0377 33.8064C17.2703 34.6038 17.8351 35.3347 17.8351 35.3347C18.1008 35.6669 18.5992 36.2317 18.8982 36.5307L29.8949 48.225C30.1939 48.5573 30.2935 49.1553 30.1274 49.5539L27.8351 54.9692C27.669 55.3679 27.6357 56.0323 27.8018 56.4642L28.4331 58.1586C28.9646 59.5872 29.8616 60.8496 31.0577 61.8131L33.2836 63.6071C33.6158 63.8729 34.2138 63.9725 34.6125 63.7732L41.6557 60.4177C42.0543 60.2184 42.6523 59.8197 42.9846 59.5207L48.0344 54.9692C48.7653 54.3048 48.7985 53.1752 48.1341 52.4443L37.5361 45.3015C37.1706 45.0689 37.0377 44.5373 37.2371 44.1387L41.8882 35.3679C42.0876 34.9692 42.1208 34.338 41.9547 33.9393L41.3899 32.6436C41.2238 32.245 40.7254 31.7799 40.3268 31.6137L26.6723 26.4975C26.2736 26.3314 26.2736 26.1652 26.7055 26.132L35.5095 25.3015C35.9414 25.2682 36.6391 25.3347 37.0709 25.4343L44.9115 27.627C45.3434 27.7599 45.6092 28.1918 45.5427 28.6237L42.8185 43.5407C42.752 43.9726 42.752 44.5706 42.8517 44.9028C42.9513 45.235 43.3832 45.534 43.8151 45.6337L49.2636 46.7965C49.6955 46.8961 50.3932 46.8961 50.8251 46.7965L55.9082 45.6337C56.34 45.534 56.7719 45.2018 56.8716 44.9028C56.9713 44.6038 57.0045 43.9726 56.9048 43.5407L54.2138 28.6237C54.1474 28.1918 54.4131 27.7267 54.845 27.627L62.6856 25.4343C63.1175 25.3015 63.8151 25.2682 64.247 25.3015L73.051 26.132C73.4829 26.1652 73.5161 26.3314 73.0842 26.4975L59.4297 31.6802C59.0311 31.8463 58.5327 32.2782 58.3666 32.7101L57.8018 34.0058C57.6357 34.4044 57.6357 35.0689 57.8683 35.4343L62.5527 44.2051C62.752 44.6038 62.6191 45.1021 62.2537 45.3679L51.6557 52.544C50.958 53.2417 51.0244 54.4044 51.7553 55.0689L56.8052 59.6204C57.1374 59.9194 57.7354 60.3181 58.1341 60.4842L65.2105 63.8397C65.6092 64.039 66.2072 63.9393 66.5394 63.6735L68.7653 61.8463C69.9613 60.8829 70.8583 59.6204 71.3567 58.1918L71.9879 56.4975C72.154 56.0988 72.1208 55.4011 71.9547 55.0025L69.6623 49.5872C69.4962 49.1885 69.5959 48.5905 69.8949 48.2583L80.8915 36.5639C81.1906 36.2317 81.6557 35.7001 81.9547 35.3679C81.8882 35.2682 82.4862 34.5373 82.6856 33.74Z" fill="white"/>
<defs>
<linearGradient id="paint0_linear_33_369" x1="7" y1="4435.38" x2="4326.8" y2="4435.38" gradientUnits="userSpaceOnUse">
<stop stop-color="white"/>
<stop offset="0.1413" stop-color="white" stop-opacity="0.9576"/>
<stop offset="1" stop-color="white" stop-opacity="0.7"/>
</linearGradient>
<linearGradient id="paint1_linear_33_369" x1="48.0364" y1="4513.4" x2="4285.57" y2="4513.4" gradientUnits="userSpaceOnUse">
<stop stop-color="#F1F1F2"/>
<stop offset="0.0919144" stop-color="#E4E5E6"/>
<stop offset="0.2357" stop-color="#D9DADB"/>
<stop offset="0.438" stop-color="#D2D4D5"/>
<stop offset="1" stop-color="#D0D2D3"/>
</linearGradient>
</defs>
</svg>
