<svg width="100" height="100" viewBox="0 0 100 100" fill="none" xmlns="http://www.w3.org/2000/svg">
<path d="M89.2374 32.2996C89.0374 32.0871 88.8249 31.8746 88.6124 31.6746C88.3999 31.4746 88.1999 31.2496 87.9874 31.0496C87.7749 30.8496 87.5749 30.6246 87.3624 30.4246C87.1499 30.2246 86.9499 29.9996 86.7374 29.7996C86.5249 29.5996 86.3249 29.3746 86.1124 29.1746C85.8999 28.9746 85.6999 28.7496 85.4874 28.5496C85.2749 28.3496 85.0749 28.1246 84.8624 27.9246C91.0626 34.018 94.6146 42.3074 94.7499 50.9996C94.7499 71.7121 73.7249 88.5621 47.8749 88.5621C33.3999 88.5621 20.4499 83.2746 11.8374 74.9871L12.4624 75.6121L13.0874 76.2371L13.7124 76.8621L14.3374 77.4871L14.9624 78.1121L15.5874 78.7371L16.2124 79.3621C24.8124 87.9996 38.0499 93.5621 52.8749 93.5621C78.7249 93.5621 99.7499 76.7121 99.7499 56.0621C99.7499 47.2371 95.9499 38.8746 89.2374 32.2996Z" fill="black"/>
<path d="M91.625 50.9995C91.625 70.012 72.0375 85.4245 47.875 85.4245C23.7125 85.4245 4.125 70.012 4.125 50.9995C4.125 39.212 11.625 28.7995 23.15 22.6245C34.675 16.4495 41.85 10.1245 47.875 10.1245C53.9 10.1245 59.05 15.287 72.6 22.6245C84.125 28.7995 91.625 39.212 91.625 50.9995Z" fill="#FBF0DF"/>
<path d="M91.6251 50.9994C91.619 48.557 91.2826 46.1266 90.6251 43.7744C87.2126 85.3994 36.4376 87.3994 16.4751 74.9494C25.4489 81.9049 36.5227 85.5991 47.8751 85.4244C72.0001 85.4244 91.6251 69.9869 91.6251 50.9994Z" fill="#F6DECE"/>
<path d="M31.0375 20.337C36.625 16.987 44.05 10.6995 51.35 10.687C50.227 10.324 49.0552 10.1343 47.875 10.1245C44.85 10.1245 41.625 11.687 37.5625 14.037C36.15 14.862 34.6875 15.7745 33.1375 16.7245C30.225 18.5245 26.8875 20.562 23.1375 22.5995C11.2375 29.037 4.125 39.6495 4.125 50.9995C4.125 51.4995 4.125 51.9995 4.125 52.487C11.7 25.7245 25.4625 23.687 31.0375 20.337Z" fill="#FFFEFC"/>
<path fill-rule="evenodd" clip-rule="evenodd" d="M44.2751 13.2871C44.2926 16.2386 43.6729 19.1591 42.4584 21.8492C41.2438 24.5394 39.463 26.9357 37.2376 28.8746C36.8876 29.1871 37.1626 29.7871 37.6126 29.6121C41.8251 27.9746 47.5126 23.0746 45.1126 13.1871C45.0126 12.6246 44.2751 12.7746 44.2751 13.2871ZM47.1126 13.2871C48.6421 15.7826 49.6138 18.5794 49.9612 21.4856C50.3085 24.3919 50.0233 27.3389 49.1251 30.1246C48.9751 30.5621 49.5126 30.9371 49.8126 30.5746C52.5501 27.0746 54.9376 20.1246 47.7876 12.6246C47.4251 12.2996 46.8626 12.7996 47.1126 13.2371V13.2871ZM50.5626 13.0746C52.9578 14.7703 54.9615 16.9599 56.4385 19.4957C57.9156 22.0315 58.8317 24.8546 59.1251 27.7746C59.1124 27.8798 59.1408 27.9858 59.2042 28.0707C59.2676 28.1556 59.3613 28.2129 59.4658 28.2305C59.5703 28.2482 59.6776 28.225 59.7654 28.1657C59.8533 28.1064 59.9149 28.0156 59.9376 27.9121C61.0876 23.5496 60.4376 16.1121 50.9751 12.2496C50.4751 12.0496 50.1501 12.7246 50.5626 13.0246V13.0746ZM27.4876 26.0746C30.3367 25.2234 32.9746 23.7817 35.2295 21.8434C37.4844 19.9051 39.3058 17.5135 40.5751 14.8246C40.8001 14.3746 41.5126 14.5496 41.4001 15.0496C39.2376 25.0496 32.0001 27.1371 27.5001 26.8621C27.0251 26.8746 27.0376 26.2121 27.4876 26.0746Z" fill="#CCBEA7"/>
<path d="M47.875 88.562C22.025 88.562 1 71.712 1 50.9995C1 38.4995 8.725 26.837 21.6625 19.8495C25.4125 17.8495 28.625 15.837 31.4875 14.0745C33.0625 13.0995 34.55 12.187 35.9875 11.337C40.375 8.73701 44.125 6.99951 47.875 6.99951C51.625 6.99951 54.9 8.49951 59 10.9245C60.25 11.637 61.5 12.412 62.8375 13.262C65.95 15.187 69.4625 17.362 74.0875 19.8495C87.025 26.837 94.75 38.487 94.75 50.9995C94.75 71.712 73.725 88.562 47.875 88.562ZM47.875 10.1245C44.85 10.1245 41.625 11.687 37.5625 14.037C36.15 14.862 34.6875 15.7745 33.1375 16.7245C30.225 18.5245 26.8875 20.562 23.1375 22.5995C11.2375 29.037 4.125 39.6495 4.125 50.9995C4.125 69.987 23.75 85.437 47.875 85.437C72 85.437 91.625 69.987 91.625 50.9995C91.625 39.6495 84.5125 29.037 72.6 22.6245C67.875 20.1245 64.1875 17.7745 61.2 15.9245C59.8375 15.087 58.5875 14.312 57.45 13.6245C53.6625 11.3745 50.9 10.1245 47.875 10.1245Z" fill="black"/>
<path d="M56.6875 60.1245C56.126 62.4244 54.8477 64.4862 53.0375 66.012C51.6784 67.3294 49.9191 68.1563 48.0375 68.362C46.0994 68.1889 44.2783 67.3599 42.875 66.012C41.0833 64.479 39.823 62.4179 39.275 60.1245C39.2568 59.9883 39.2701 59.8498 39.3137 59.7196C39.3574 59.5893 39.4302 59.4708 39.5268 59.373C39.6233 59.2753 39.7409 59.201 39.8706 59.1557C40.0003 59.1105 40.1386 59.0955 40.275 59.112H55.7C55.8354 59.0976 55.9723 59.1141 56.1004 59.1602C56.2285 59.2064 56.3444 59.281 56.4395 59.3785C56.5346 59.476 56.6063 59.5938 56.6492 59.723C56.6922 59.8522 56.7053 59.9895 56.6875 60.1245Z" fill="#B71422"/>
<path d="M42.8749 66.112C44.2753 67.4607 46.0898 68.2975 48.0248 68.487C49.9555 68.2948 51.7652 67.4582 53.1624 66.112C53.6093 65.6954 54.0269 65.2485 54.4124 64.7745C53.6423 63.9009 52.7017 63.1941 51.6484 62.6975C50.595 62.2009 49.4512 61.9251 48.2874 61.887C47.042 61.9165 45.8224 62.2481 44.7337 62.8535C43.6449 63.4588 42.7196 64.3197 42.0374 65.362C42.3249 65.6245 42.5749 65.8745 42.8749 66.112Z" fill="#FF6164"/>
<path d="M43.075 65.1245C43.6947 64.3234 44.4879 63.6733 45.3951 63.2229C46.3023 62.7726 47.2997 62.5338 48.3124 62.5245C50.1844 62.5797 51.968 63.3332 53.3124 64.637C53.5999 64.3245 53.8749 63.9995 54.1374 63.6745C52.5472 62.16 50.4457 61.2988 48.25 61.262C47.0765 61.2721 45.9199 61.5418 44.8631 62.0519C43.8062 62.5619 42.8754 63.2996 42.1375 64.212C42.433 64.5331 42.746 64.8377 43.075 65.1245Z" fill="black"/>
<path d="M47.9874 69.112C45.9045 68.9295 43.9443 68.0485 42.4249 66.612C40.49 64.9754 39.1281 62.7639 38.5374 60.2995C38.4951 60.0801 38.5023 59.854 38.5585 59.6377C38.6147 59.4215 38.7186 59.2205 38.8624 59.0495C39.0338 58.8426 39.2501 58.6777 39.4949 58.5672C39.7397 58.4567 40.0065 58.4036 40.2749 58.412H55.6999C55.968 58.4063 56.2339 58.4607 56.4783 58.571C56.7227 58.6812 56.9393 58.8447 57.1124 59.0495C57.2549 59.2211 57.357 59.4225 57.4111 59.6389C57.4652 59.8553 57.4699 60.081 57.4249 60.2995C56.8343 62.7639 55.4724 64.9754 53.5374 66.612C52.0214 68.0459 50.066 68.9267 47.9874 69.112ZM40.2749 59.862C40.0749 59.862 40.0249 59.9495 40.0124 59.9745C40.5408 62.1116 41.7361 64.0249 43.4249 65.437C44.6599 66.6537 46.2655 67.4235 47.9874 67.6245C49.7049 67.4258 51.3088 66.6656 52.5499 65.462C54.2335 64.0475 55.4241 62.1346 55.9499 59.9995C55.9227 59.9595 55.8849 59.9279 55.8408 59.908C55.7967 59.8882 55.7479 59.8809 55.6999 59.887L40.2749 59.862Z" fill="black"/>
<path d="M66.8999 60.8996C70.9385 60.8996 74.2124 58.9744 74.2124 56.5996C74.2124 54.2247 70.9385 52.2996 66.8999 52.2996C62.8613 52.2996 59.5874 54.2247 59.5874 56.5996C59.5874 58.9744 62.8613 60.8996 66.8999 60.8996Z" fill="#FEBBD0"/>
<path d="M29.0625 60.8996C33.1011 60.8996 36.375 58.9744 36.375 56.5996C36.375 54.2247 33.1011 52.2996 29.0625 52.2996C25.0239 52.2996 21.75 54.2247 21.75 56.5996C21.75 58.9744 25.0239 60.8996 29.0625 60.8996Z" fill="#FEBBD0"/>
<path fill-rule="evenodd" clip-rule="evenodd" d="M32.5 54.8746C33.8627 54.8771 35.1956 54.4752 36.3299 53.7199C37.4642 52.9646 38.3489 51.8898 38.8721 50.6315C39.3953 49.3732 39.5335 47.988 39.2692 46.6511C39.0048 45.3142 38.3499 44.0858 37.3871 43.1213C36.4244 42.1569 35.1972 41.4996 33.8608 41.2329C32.5244 40.9661 31.1389 41.1018 29.8797 41.6227C28.6204 42.1436 27.544 43.0264 26.7866 44.1593C26.0293 45.2922 25.625 46.6244 25.625 47.9871C25.625 49.8116 26.3489 51.5616 27.6379 52.8529C28.9268 54.1442 30.6755 54.8713 32.5 54.8746ZM63.4625 54.8746C64.8268 54.8845 66.1633 54.489 67.3025 53.7382C68.4417 52.9875 69.3323 51.9153 69.8613 50.6577C70.3902 49.4 70.5338 48.0136 70.2737 46.6743C70.0136 45.335 69.3616 44.1031 68.4004 43.1349C67.4392 42.1666 66.2121 41.5057 64.8747 41.2358C63.5373 40.966 62.1499 41.0994 60.8884 41.6192C59.627 42.139 58.5484 43.0218 57.7893 44.1555C57.0303 45.2892 56.625 46.6228 56.625 47.9871C56.6217 49.8062 57.3394 51.5524 58.6209 52.8433C59.9025 54.1343 61.6435 54.8647 63.4625 54.8746Z" fill="black"/>
<path fill-rule="evenodd" clip-rule="evenodd" d="M30.375 48.4245C30.8873 48.427 31.3888 48.2773 31.816 47.9945C32.2431 47.7117 32.5767 47.3085 32.7745 46.8359C32.9722 46.3633 33.0253 45.8426 32.9268 45.3399C32.8284 44.8371 32.583 44.3749 32.2216 44.0118C31.8602 43.6487 31.3992 43.401 30.897 43.3002C30.3947 43.1993 29.8738 43.2498 29.4003 43.4453C28.9267 43.6407 28.5219 43.9724 28.237 44.3982C27.9521 44.8239 27.8001 45.3247 27.8 45.837C27.8 46.5211 28.0709 47.1773 28.5535 47.6622C29.036 48.1471 29.691 48.4212 30.375 48.4245ZM61.3375 48.4245C61.8498 48.427 62.3513 48.2773 62.7785 47.9945C63.2056 47.7117 63.5392 47.3085 63.737 46.8359C63.9347 46.3633 63.9878 45.8426 63.8893 45.3399C63.7909 44.8371 63.5455 44.3749 63.1841 44.0118C62.8227 43.6487 62.3617 43.401 61.8595 43.3002C61.3572 43.1993 60.8363 43.2498 60.3628 43.4453C59.8892 43.6407 59.4844 43.9724 59.1995 44.3982C58.9146 44.8239 58.7626 45.3247 58.7625 45.837C58.7625 46.5168 59.0299 47.1693 59.5071 47.6535C59.9843 48.1377 60.6328 48.4146 61.3125 48.4245H61.3375Z" fill="white"/>
</svg>
