<svg width="100" height="100" viewBox="0 0 100 100" fill="none" xmlns="http://www.w3.org/2000/svg">
<path d="M100 73.3411V57.5078C100 61.237 95.9167 64.662 89.1 67.3703L50 57.5078V73.3411L89.1 83.2036C95.9167 80.4995 100 77.0745 100 73.3411Z" fill="#D32F2F"/>
<path d="M89.1 51.5495C95.9167 48.8245 100 45.4162 100 41.6828V25.8287C100 17.1037 77.6042 9.99951 50 9.99951C22.375 9.99951 0 17.0995 0 25.8245V41.6828C0 50.4203 22.3875 57.512 50 57.512V41.6912L89.1 51.5495ZM50 89.1662V73.3412C22.375 73.3412 0 66.237 0 57.5162V73.3412C0 82.0787 22.375 89.1662 50 89.1662Z" fill="#D32F2F"/>
</svg>
