<svg width="100" height="100" viewBox="0 0 100 100" fill="none" xmlns="http://www.w3.org/2000/svg">
<path d="M79.027 41.1322C79.7362 49.3938 66.7345 57.2569 49.9875 58.6937C33.2405 60.1304 19.0894 54.5965 18.3811 46.3353C17.6719 38.0724 30.6736 30.2098 47.4206 28.773C64.1676 27.3367 78.3187 32.8693 79.027 41.1322Z" fill="#BBE6FB"/>
<path opacity="0.4" d="M47.9122 29.742C41.5239 29.6381 34.0486 32.1746 28.4864 34.5498C27.9074 36.218 27.5958 37.9924 27.5958 39.8317C27.5958 49.6317 36.4448 57.5771 47.361 57.5771C58.2772 57.5771 67.1262 49.6317 67.1262 39.8317C67.1262 36.7302 66.2379 33.8164 64.6802 31.2795C60.2302 30.5878 54.1097 29.8428 47.9122 29.742Z" fill="white"/>
<path d="M47.3608 29.7402C43.8241 29.5244 37.7282 31.3695 32.6451 33.2101C31.8728 35.0329 31.4438 37.0275 31.4438 39.1207C31.4438 47.7073 39.229 54.6682 47.4646 54.6682C55.6461 54.6682 62.8846 47.6961 63.4854 39.1207C63.6806 36.3282 62.7194 33.6968 61.3847 31.4282C56.1148 30.5 50.5222 29.9332 47.3608 29.7402Z" fill="white"/>
<path d="M38.285 37.9932C38.7189 37.0324 39.3761 36.5618 40.0128 35.7564C39.9421 35.5656 39.7871 34.9419 39.7871 34.7257C39.7871 33.7604 40.5702 32.9768 41.536 32.9768C41.7639 32.9768 41.9815 33.0221 42.1807 33.1013C45.0753 30.8953 48.886 29.9336 52.7154 30.7897C53.0651 30.8685 53.4081 30.9638 53.7448 31.0686C49.9601 30.5439 45.6941 31.8844 42.7923 34.2265C42.881 34.4356 43.1268 35.0333 43.1268 35.2737C43.1268 36.2395 42.5017 36.4745 41.536 36.4745C41.3166 36.4745 41.1071 36.4324 40.9132 36.3586C40.2577 37.2388 39.4545 38.9156 39.0614 39.9637C40.666 41.3991 42.1158 41.9194 44.0052 42.6255C44.0003 42.5355 44.0702 42.4522 44.0702 42.3604C44.0702 39.4488 46.6334 37.0826 49.5455 37.0826C52.1549 37.0826 54.3156 38.98 54.7374 41.4694C56.0394 40.6411 57.2984 40.0062 58.2579 38.7786C58.0341 38.5054 57.7927 37.7322 57.7927 37.3516C57.7927 36.4754 58.5037 35.7649 59.3799 35.7649C59.504 35.7649 59.6231 35.7828 59.739 35.8096C60.2262 34.8085 60.5938 33.7474 60.8288 32.6531C56.2754 29.2821 47.4653 29.742 47.4653 29.742C47.4653 29.742 40.4547 29.3762 35.7087 31.6892C36.0253 33.9775 36.9382 36.1531 38.285 37.9932Z" fill="white"/>
<path d="M60.0486 36.6799C60.3706 36.97 60.5461 37.2248 60.6844 37.4728C61.1102 38.2384 60.2559 38.9391 59.3797 38.9391C59.2906 38.9391 59.2047 38.927 59.1191 38.9127C58.1319 40.4556 56.4027 42.4341 54.8666 43.4299C57.2221 43.8158 59.4433 44.7592 61.211 46.217C62.4982 43.9108 63.4854 40.5805 63.4854 37.7517C63.4854 35.5986 62.5349 34.0203 61.0999 32.8625C61.0247 34.0159 60.4091 35.629 60.0486 36.6799Z" fill="white"/>
<path d="M40.9276 51.2871C41.7125 49.1196 43.6431 47.4402 45.4694 45.9627C45.2021 45.5969 44.8014 44.6911 44.6344 44.2622C42.4069 43.5848 40.436 42.3168 38.9074 40.6382C38.8962 40.687 38.8824 40.7345 38.8707 40.7833C38.5828 42.0732 38.53 43.3658 38.6733 44.6266C39.7398 44.8254 40.547 45.7598 40.547 46.8841C40.547 47.5508 39.9627 48.517 39.5092 48.9374C40.0021 50.0012 40.3384 50.5143 40.9276 51.2871Z" fill="white"/>
<path d="M40.7894 53.1066C39.8532 52.1758 39.2058 50.319 38.5982 49.1531C38.4845 49.1706 38.368 49.1827 38.2489 49.1827C36.9792 49.1827 35.649 48.1171 35.9498 46.884C36.1164 46.2016 36.5874 45.7553 37.3544 45.3827C37.1798 43.9693 37.1323 41.9374 37.4605 40.468C37.5545 40.0476 37.7538 39.8506 37.8858 39.4503C36.4849 37.4001 35.5796 34.7092 35.5796 32.0394C35.5796 31.9418 35.5845 31.8455 35.5867 31.7488C33.2191 32.9362 31.4438 34.8068 31.4438 37.7516C31.4438 44.2652 35.1954 50.6548 40.7773 53.1594C40.7813 53.142 40.7849 53.1241 40.7894 53.1066Z" fill="white"/>
<path d="M54.5151 44.1019C53.7938 46.1534 51.8434 47.6269 49.5452 47.6269C48.3158 47.6269 47.1879 47.2029 46.2915 46.4982C44.4438 47.9372 42.7674 50.4651 41.9154 52.6581C42.2978 53.0696 42.5642 53.4081 42.9931 53.773C44.2857 54.1097 46.0659 53.773 47.4651 53.773C53.0931 53.773 58.0777 51.2692 60.9356 46.8788C59.0354 45.5629 56.794 44.3106 54.5151 44.1019Z" fill="white"/>
<path d="M38.1406 38.7545C38.5744 37.7936 39.1184 36.9044 39.7547 36.099C39.6839 35.9087 39.6427 35.7032 39.6427 35.4869C39.6427 34.5216 40.4258 33.7381 41.3916 33.7381C41.6195 33.7381 41.8371 33.7833 42.0363 33.8625C44.9309 31.6566 48.7416 30.6948 52.571 31.5509C52.9207 31.6297 53.2637 31.7251 53.6004 31.8298C49.8157 31.3051 45.9052 32.4652 43.0034 34.8077C43.0921 35.0163 43.1404 35.2465 43.1404 35.4869C43.1404 36.4527 42.3573 37.2358 41.3916 37.2358C41.1722 37.2358 40.9627 37.1937 40.7688 37.1198C40.1133 38 39.5774 38.9725 39.1843 40.0211C40.5624 41.5062 42.2539 42.6806 44.1429 43.3867C44.1384 43.2967 44.129 43.2076 44.129 43.1158C44.129 40.2042 46.489 37.8438 49.4011 37.8438C52.0105 37.8438 54.1712 39.7413 54.593 42.2307C55.895 41.4024 57.0519 40.3386 58.011 39.1109C57.7871 38.8377 57.6483 38.4934 57.6483 38.1129C57.6483 37.2367 58.3593 36.5261 59.2355 36.5261C59.3596 36.5261 59.4787 36.544 59.5946 36.5709C60.0818 35.5697 60.4493 34.5086 60.6844 33.4144C56.131 30.0434 47.3209 30.5032 47.3209 30.5032C47.3209 30.5032 40.3103 30.1374 35.5643 32.4504C35.8809 34.7388 36.7938 36.9143 38.1406 38.7545Z" fill="#1287B1"/>
<path d="M60.2943 36.9394C60.6162 37.2295 60.8226 37.6455 60.8226 38.1129C60.8226 38.9891 60.1116 39.7001 59.2354 39.7001C59.1463 39.7001 59.0604 39.688 58.9748 39.6737C57.9876 41.2166 56.6793 42.532 55.1427 43.5278C57.4136 43.8829 59.5511 44.8464 61.3183 46.3042C62.6055 43.9979 63.3411 41.3415 63.3411 38.5127C63.3411 36.3596 62.3906 34.7813 60.9556 33.6235C60.8804 34.7769 60.6547 35.8886 60.2943 36.9394Z" fill="#1287B1"/>
<path d="M41.1698 51.8079C41.9546 49.6404 43.3184 47.6954 45.1447 46.2184C44.8774 45.8521 44.6572 45.4523 44.4902 45.0234C42.2622 44.3459 40.2918 43.078 38.7632 41.3994C38.752 41.4482 38.7377 41.4957 38.7265 41.5445C38.4381 42.8344 38.3853 44.127 38.529 45.3878C39.5951 45.5866 40.4028 46.521 40.4028 47.6453C40.4028 48.312 40.1167 48.9115 39.6631 49.3319C40.0746 50.2041 40.5806 51.0351 41.1698 51.8079Z" fill="#1287B1"/>
<path d="M40.7832 53.0802C39.847 52.1494 39.0612 51.0802 38.4541 49.9148C38.3399 49.9322 38.2235 49.9439 38.1049 49.9439C36.8351 49.9439 35.8058 48.9145 35.8058 47.6452C35.8058 46.7354 36.3359 45.951 37.1028 45.5785C36.9287 44.1654 36.9878 42.6986 37.3164 41.2292C37.4104 40.8092 37.525 40.3991 37.6571 39.9984C36.2562 37.9486 35.4355 35.4704 35.4355 32.8006C35.4355 32.703 35.44 32.6067 35.4422 32.5105C33.0746 33.6974 31.2993 35.5685 31.2993 38.5128C31.2993 45.0268 35.1892 50.6284 40.7711 53.1331C40.7751 53.1156 40.7787 53.0977 40.7832 53.0802Z" fill="#1287B1"/>
<path d="M54.3708 44.8631C53.6495 46.9147 51.6992 48.3881 49.401 48.3881C48.1715 48.3881 47.0437 47.9641 46.1473 47.2594C44.2995 48.6984 42.9048 50.6599 42.0532 52.8534C42.4351 53.2649 42.8435 53.6526 43.2724 54.017C44.5655 54.3537 45.9216 54.5342 47.3208 54.5342C52.9488 54.5342 57.8967 51.6284 60.7546 47.2384C58.8544 45.922 56.6498 45.0718 54.3708 44.8631Z" fill="#1287B1"/>
<path d="M54.5557 43.5036L59.4266 42.3417L54.5374 42.0924L58.5164 39.0514L54.0014 40.6699L57.0697 36.4178L52.8319 39.2345L54.3135 34.257L51.4032 38.3596L51.337 33.1753L49.422 37.7932L47.8254 33.1202L47.9118 38.6251L45.1524 33.6906L46.6456 38.93L42.1696 35.675L45.6758 40.0807L40.119 38.0372L44.5046 41.282L38.881 41.4548L44.6308 42.9386L38.8761 44.1828L44.5565 44.5947L39.7662 47.6622L44.6989 45.8739L41.2764 50.2084L45.6011 46.7206L44.0438 52.5371L47.3826 47.8036L46.9147 53.394L48.81 48.3261L50.4231 53.6528L50.8154 48.31L53.2098 52.8684L51.795 47.6546L56.1796 51.0511L53.3491 46.7206L58.1595 48.5948L54.4814 44.9802L59.4136 45.368L54.5557 43.5036Z" fill="white"/>
<path opacity="0.3" d="M2.69958 52.8242C17.8061 37.7181 29.8712 33.0546 40.8209 30.9256C42.2698 30.644 42.5438 27.478 42.5438 27.478C42.5438 27.478 42.7466 29.8098 43.7607 30.1138C44.7744 30.4183 46.0921 26.4639 46.0921 26.4639C46.0921 26.4639 44.8756 30.0127 46.0921 30.2155C47.309 30.4183 49.5392 26.7684 49.5392 26.7684C49.5392 26.7684 48.6272 29.911 49.2356 30.1138C49.8432 30.3167 52.8847 25.5519 52.8847 25.5519C52.8847 25.5519 51.0597 28.6945 52.7835 28.999C54.5077 29.303 57.0222 26.8539 57.0222 26.8539C57.0222 26.8539 55.045 29.0948 55.9261 29.4042C59.6777 30.7228 62.7133 25.847 62.7133 25.847C62.7133 25.847 62.0099 27.9849 60.1849 30.3167C64.1384 31.3303 67.0751 25.3741 67.0751 25.3741L64.1384 31.3303C65.6594 32.1421 71.7432 25.1462 71.7432 25.1462C71.7432 25.1462 68.6001 30.6211 66.7751 31.736C67.7888 32.5473 71.4387 29.303 71.4387 29.303C71.4387 29.303 68.4985 32.9525 69.6138 33.1553C71.2359 34.4734 77.2172 26.3627 77.2172 26.3627C77.2172 26.3627 74.8858 31.1275 71.4387 34.8791C74.3199 36.3203 81.476 27.0724 81.476 27.0724C81.476 27.0724 81.2732 30.0127 76.1023 34.6762C79.9551 34.1694 84.9231 26.8696 84.9231 26.8696C84.9231 26.8696 83.0981 32.3445 78.7381 36.1968C82.521 35.8032 88.5721 26.4639 88.5721 26.4639C88.5721 26.4639 86.2408 32.9525 81.476 36.704C86.7481 37.8699 94.3519 30.0127 94.3519 30.0127C94.3519 30.0127 91.3611 35.5892 87.4573 37.8699C91.8173 39.5427 97.799 32.6485 97.799 32.6485C97.799 32.6485 91.8173 41.8749 82.2873 41.4693C79.1603 41.3363 69.702 31.9827 49.438 32.7501C22.6725 33.7642 16.9953 45.1192 2.69958 52.8242Z" fill="white"/>
<path d="M3.31873 51.677C18.4252 36.5709 30.4899 31.9078 41.4396 29.7784C42.8889 29.4967 43.163 26.3313 43.163 26.3313C43.163 26.3313 43.3653 28.6635 44.3799 28.9671C45.3936 29.2711 46.7112 25.3176 46.7112 25.3176C46.7112 25.3176 45.4947 28.8663 46.7112 29.0687C47.9282 29.2711 50.1583 25.6216 50.1583 25.6216C50.1583 25.6216 49.2463 28.7643 49.8539 28.9671C50.4623 29.1699 53.5038 24.4047 53.5038 24.4047C53.5038 24.4047 51.6788 27.5478 53.4026 27.8518C55.1259 28.1562 57.6413 25.7071 57.6413 25.7071C57.6413 25.7071 55.6641 27.948 56.5452 28.2574C60.2968 29.5755 63.3315 24.7002 63.3315 24.7002C63.3315 24.7002 62.6282 26.8381 60.8041 29.1699C64.7576 30.184 67.6943 24.2269 67.6943 24.2269L64.7576 30.184C66.2785 30.9949 72.3614 23.9999 72.3614 23.9999C72.3614 23.9999 69.2192 29.4739 67.3943 30.5892C68.4079 31.4005 72.0579 28.1562 72.0579 28.1562C72.0579 28.1562 69.1176 31.8062 70.2329 32.0085C71.855 33.3271 77.8363 25.216 77.8363 25.216C77.8363 25.216 75.5041 29.9812 72.0579 33.7323C74.939 35.174 82.0952 25.9256 82.0952 25.9256C82.0952 25.9256 81.8923 28.8663 76.7215 33.5299C80.5742 33.0226 85.5422 25.7228 85.5422 25.7228C85.5422 25.7228 83.7173 31.1977 79.3573 35.0504C83.1402 34.6569 89.1913 25.3176 89.1913 25.3176C89.1913 25.3176 86.8599 31.8062 82.0952 35.5573C87.3672 36.7232 94.9711 28.8663 94.9711 28.8663C94.9711 28.8663 91.9802 34.442 88.0764 36.7232C92.4364 38.3959 98.4182 31.5017 98.4182 31.5017C98.4182 31.5017 92.4364 40.7281 82.9055 40.3225C79.7795 40.1891 70.3211 30.8355 50.0567 31.6033C23.2917 32.617 17.614 43.972 3.31873 51.677Z" fill="white"/>
<path opacity="0.3" d="M2.30371 54.4765C10.2877 58.4815 17.588 53.8685 26.7885 56.4613C33.7834 58.4331 42.3002 60.8638 53.8575 59.1907C65.4153 57.5184 75.3008 52.4997 80.0159 43.5267C81.4858 39.5226 87.467 44.4396 87.467 44.4396C87.467 44.4396 83.1079 42.6147 83.2096 43.4766C83.3107 44.338 89.7487 47.3289 89.7487 47.3289C89.7487 47.3289 83.9188 45.5039 84.2738 46.8726C84.6289 48.2413 91.5728 53.7162 91.5728 53.7162C91.5728 53.7162 83.7159 47.7345 83.0573 48.5454C82.3978 49.3566 86.4028 52.652 86.4028 52.652C86.4028 52.652 79.762 48.5454 77.4298 49.7565C75.7526 50.6264 84.3244 56.2513 84.3244 56.2513C84.3244 56.2513 78.7479 51.9925 77.4298 53.1078C76.1121 54.2235 83.7159 63.3479 83.7159 63.3479C83.7159 63.3479 75.0975 54.0202 74.2365 54.4765C73.3742 54.9327 76.6185 59.3939 76.6185 59.3939C76.6185 59.3939 72.3605 54.7299 71.1951 55.5412C70.0292 56.3525 77.278 68.4677 77.278 68.4677C77.278 68.4677 69.4207 56.0485 66.1764 58.1259C71.2712 69.3041 69.3701 70.9011 69.3701 70.9011C69.3701 70.9011 68.72 59.4974 62.3743 59.7991C59.1806 59.9514 63.8948 68.3155 63.8948 68.3155C63.8948 68.3155 59.5558 60.6762 56.6661 60.8285C61.9919 70.9074 60.0935 75.0068 60.0935 75.0068C60.0935 75.0068 60.9742 66.3987 53.7509 61.6084C56.4879 64.041 52.0334 75.0068 52.0334 75.0068C52.0334 75.0068 55.952 58.8477 49.1433 61.9285C48.0674 62.4143 49.0672 69.9886 49.0672 69.9886C49.0672 69.9886 47.6985 61.3196 45.6461 61.7763C44.4493 62.0418 38.0418 73.7903 38.0418 73.7903C38.0418 73.7903 43.2888 61.0917 41.6921 61.6241C40.5289 62.0123 38.3462 67.2512 38.3462 67.2512C38.3462 67.2512 39.4105 62.0803 38.3462 61.7763C37.282 61.4719 31.3504 67.2512 31.3504 67.2512C31.3504 67.2512 35.761 62.0803 35.0003 61.0156C33.8479 59.4024 32.497 59.3268 30.8942 59.9514C28.5619 60.8603 25.4197 65.1218 25.4197 65.1218C25.4197 65.1218 28.5521 60.807 28.0045 59.1907C27.1256 56.5938 18.1199 64.2093 18.1199 64.2093C18.1199 64.2093 23.4425 59.1907 22.226 58.1259C21.0096 57.0617 14.4037 57.3908 12.341 57.385C6.25809 57.3661 4.15016 55.9392 2.30371 54.4765Z" fill="white"/>
<path d="M2 53.5639C9.98398 57.5689 17.2838 52.9559 26.4843 55.5491C33.4792 57.5201 41.9965 59.9512 53.5542 58.2781C65.112 56.6053 74.9966 51.5867 79.7117 42.6146C81.1816 38.61 87.1629 43.5266 87.1629 43.5266C87.1629 43.5266 82.8037 41.7021 82.9054 42.564C83.0066 43.4254 89.4445 46.4163 89.4445 46.4163C89.4445 46.4163 83.6146 44.5918 83.9697 45.9605C84.3247 47.3287 91.2695 52.8036 91.2695 52.8036C91.2695 52.8036 83.4118 46.8215 82.7532 47.6332C82.0945 48.4441 86.0991 51.7389 86.0991 51.7389C86.0991 51.7389 79.4578 47.6332 77.1261 48.8434C75.4484 49.7138 84.0202 55.3382 84.0202 55.3382C84.0202 55.3382 78.4437 51.0799 77.1261 52.1952C75.8079 53.3109 83.4127 62.4353 83.4127 62.4353C83.4127 62.4353 74.7938 53.1076 73.9324 53.5639C73.0709 54.0206 76.3152 58.4809 76.3152 58.4809C76.3152 58.4809 72.0564 53.8173 70.8909 54.6286C69.725 55.4394 76.9738 67.5551 76.9738 67.5551C76.9738 67.5551 69.1165 55.1354 65.8723 57.2138C70.967 68.3915 69.0659 69.9885 69.0659 69.9885C69.0659 69.9885 68.4158 58.5848 62.0701 58.887C58.8764 59.0392 63.5906 67.4029 63.5906 67.4029C63.5906 67.4029 59.2516 59.7632 56.3624 59.9154C61.6887 69.9948 59.7894 74.0942 59.7894 74.0942C59.7894 74.0942 60.6701 65.4857 53.4468 60.6954C56.1838 63.1284 51.7293 74.0942 51.7293 74.0942C51.7293 74.0942 55.6487 57.9351 48.8401 61.016C47.7642 61.5022 48.7639 69.076 48.7639 69.076C48.7639 69.076 47.3943 60.4075 45.3424 60.8637C44.1451 61.1292 37.7376 72.8777 37.7376 72.8777C37.7376 72.8777 42.9846 60.1791 41.388 60.7119C40.2248 61.0992 38.0421 66.3382 38.0421 66.3382C38.0421 66.3382 39.1068 61.1677 38.0421 60.8637C36.9778 60.5597 31.0467 66.3382 31.0467 66.3382C31.0467 66.3382 35.4573 61.1677 34.6962 60.103C33.5437 58.4898 32.1929 58.4146 30.5905 59.0392C28.2578 59.9477 25.1156 64.2092 25.1156 64.2092C25.1156 64.2092 28.2479 59.8939 27.7008 58.2781C26.8214 55.6817 17.8162 63.2967 17.8162 63.2967C17.8162 63.2967 23.1388 58.2781 21.9219 57.2138C20.7054 56.1491 14.0995 56.4786 12.0368 56.4724C5.95393 56.4531 3.84645 55.0266 2 53.5639Z" fill="white"/>
</svg>
