<svg width="100" height="100" viewBox="0 0 100 100" fill="none" xmlns="http://www.w3.org/2000/svg">
<g clip-path="url(#clip0_33_439)">
<path d="M50 74.9895C63.8071 74.9895 75 63.7966 75 49.9895C75 36.1824 63.8071 24.9895 50 24.9895C36.1929 24.9895 25 36.1824 25 49.9895C25 63.7966 36.1929 74.9895 50 74.9895Z" fill="white"/>
<path d="M50 25.0006H93.2942C88.9071 17.3993 82.596 11.087 74.9955 6.6985C67.3951 2.30998 58.7731 -0.000123949 49.9967 0.000488403C41.2202 0.00110075 32.5986 2.3124 24.9988 6.70199C17.3989 11.0916 11.0887 17.4047 6.7027 25.0066L28.3498 62.5006L28.3692 62.4956C26.1671 58.6982 25.005 54.3874 25.0001 49.9978C24.9951 45.6081 26.1475 41.2948 28.3411 37.4925C30.5346 33.6902 33.6918 30.5333 37.4943 28.3402C41.2968 26.1471 45.6103 24.9952 50 25.0006Z" fill="url(#paint0_linear_33_439)"/>
<path d="M50 69.7921C60.9306 69.7921 69.7916 60.931 69.7916 50.0004C69.7916 39.0698 60.9306 30.2087 50 30.2087C39.0693 30.2087 30.2083 39.0698 30.2083 50.0004C30.2083 60.931 39.0693 69.7921 50 69.7921Z" fill="#1A73E8"/>
<path d="M71.6485 62.5064L50.0014 100C58.7779 100.002 67.3999 97.6921 75.0007 93.3041C82.6014 88.9161 88.9129 82.6044 93.3006 75.0034C97.6882 67.4025 99.9974 58.7804 99.9958 50.0039C99.9942 41.2275 97.682 32.6062 93.2917 25.0068H49.9977L49.9925 25.0262C54.3822 25.0177 58.6965 26.1667 62.5005 28.3572C66.3046 30.5477 69.4639 33.7024 71.66 37.5033C73.8561 41.3041 75.0114 45.6167 75.0094 50.0064C75.0074 54.396 73.8481 58.7076 71.6485 62.5064Z" fill="url(#paint1_linear_33_439)"/>
<path d="M28.3512 62.5069L6.70414 25.0129C2.31482 32.6129 0.00380611 41.2346 0.00347904 50.0111C0.00315197 58.7875 2.31352 67.4094 6.70228 75.0097C11.091 82.61 17.4035 88.9209 25.0049 93.3078C32.6063 97.6947 41.2287 100.003 50.0052 100L71.6523 62.5065L71.6383 62.4923C69.4507 66.2981 66.2985 69.4598 62.4994 71.6589C58.7003 73.858 54.3886 75.0167 49.999 75.0182C45.6093 75.0197 41.2968 73.8639 37.4963 71.6674C33.6957 69.4708 30.5414 66.3112 28.3512 62.5069Z" fill="url(#paint2_linear_33_439)"/>
</g>
<defs>
<linearGradient id="paint0_linear_33_439" x1="6.7027" y1="31.2506" x2="93.2942" y2="31.2506" gradientUnits="userSpaceOnUse">
<stop stop-color="#D93025"/>
<stop offset="1" stop-color="#EA4335"/>
</linearGradient>
<linearGradient id="paint1_linear_33_439" x1="43.1706" y1="99.3318" x2="86.4664" y2="24.3414" gradientUnits="userSpaceOnUse">
<stop stop-color="#FCC934"/>
<stop offset="1" stop-color="#FBBC04"/>
</linearGradient>
<linearGradient id="paint2_linear_33_439" x1="55.4127" y1="96.8786" x2="12.1169" y2="21.8879" gradientUnits="userSpaceOnUse">
<stop stop-color="#1E8E3E"/>
<stop offset="1" stop-color="#34A853"/>
</linearGradient>
<clipPath id="clip0_33_439">
<rect width="100" height="100" fill="white" transform="translate(0 0.000488281)"/>
</clipPath>
</defs>
</svg>
