<svg width="100" height="100" viewBox="0 0 100 100" fill="none" xmlns="http://www.w3.org/2000/svg">
<path fill-rule="evenodd" clip-rule="evenodd" d="M49.4063 -0.0012207C26.1122 -0.0012207 6.56423 15.9901 1.06267 37.61C1.02539 37.7673 1.00005 37.9277 1.00005 38.095C1.00005 39.4097 2.06417 40.4756 3.37681 40.4756H23.4894C24.4471 40.4756 25.2667 39.9027 25.645 39.085C29.7772 30.0717 38.8574 23.8068 49.4063 23.8068C63.8383 23.8068 75.544 35.5358 75.544 49.9994C75.544 64.4634 63.8383 76.1921 49.4063 76.1921C38.8574 76.1921 29.7807 69.9264 25.6484 60.9104L25.645 60.9156C25.2667 60.0963 24.4471 59.5244 23.4894 59.5244H3.37681C2.06417 59.5244 1.00005 60.5873 1.00005 61.9055C1.00005 62.0683 1.02539 62.2238 1.05919 62.3797C6.55926 84.0008 26.1077 99.9988 49.4063 99.9988C76.9633 99.9988 99.3071 77.6101 99.3071 49.9994C99.3071 22.3855 76.9633 -0.0012207 49.4063 -0.0012207ZM37.5238 49.9994C37.5238 43.4263 42.8452 38.095 49.4063 38.095C55.967 38.095 61.286 43.4263 61.286 49.9994C61.286 56.5729 55.967 61.9055 49.4063 61.9055C42.8452 61.9055 37.5238 56.5729 37.5238 49.9994Z" fill="white"/>
</svg>
