<svg width="100" height="100" viewBox="0 0 100 100" fill="none" xmlns="http://www.w3.org/2000/svg">
<path d="M9.94252 -0.000244141H1.16892C0.52344 -0.000244141 0.000171661 0.523023 0.000171661 1.16851V98.831C0.000171661 99.4765 0.52344 99.9998 1.16892 99.9998H9.94252C10.588 99.9998 11.1113 99.4765 11.1113 98.831V1.16851C11.1113 0.523023 10.588 -0.000244141 9.94252 -0.000244141Z" fill="white"/>
<path d="M32.1654 -0.000244141H23.3918C22.7463 -0.000244141 22.2231 0.523023 22.2231 1.16851V98.831C22.2231 99.4765 22.7463 99.9998 23.3918 99.9998H32.1654C32.8109 99.9998 33.3342 99.4765 33.3342 98.831V1.16851C33.3342 0.523023 32.8109 -0.000244141 32.1654 -0.000244141Z" fill="white"/>
<path d="M54.3883 -0.000244141H45.6147C44.9692 -0.000244141 44.446 0.523023 44.446 1.16851V98.831C44.446 99.4765 44.9692 99.9998 45.6147 99.9998H54.3883C55.0338 99.9998 55.5571 99.4765 55.5571 98.831V1.16851C55.5571 0.523023 55.0338 -0.000244141 54.3883 -0.000244141Z" fill="white"/>
<path d="M76.6066 -0.000244141H67.833C67.1875 -0.000244141 66.6642 0.523023 66.6642 1.16851V98.831C66.6642 99.4765 67.1875 99.9998 67.833 99.9998H76.6066C77.2521 99.9998 77.7753 99.4765 77.7753 98.831V1.16851C77.7753 0.523023 77.2521 -0.000244141 76.6066 -0.000244141Z" fill="white"/>
<path d="M98.8368 38.8896H90.0632C89.4177 38.8896 88.8944 39.4129 88.8944 40.0584V59.9431C88.8944 60.5886 89.4177 61.1119 90.0632 61.1119H98.8368C99.4823 61.1119 100.006 60.5886 100.006 59.9431V40.0584C100.006 39.4129 99.4823 38.8896 98.8368 38.8896Z" fill="white"/>
</svg>
