<svg width="100" height="100" viewBox="0 0 100 100" fill="none" xmlns="http://www.w3.org/2000/svg">
<path d="M81.1132 40.2865C78.97 33.5662 74.7572 27.6954 69.0769 23.5133C63.3966 19.3312 56.5397 17.0519 49.4861 17.001C43.5225 16.9668 37.6623 18.5582 32.5352 21.6041C27.408 24.6501 23.2077 29.0354 20.3855 34.2891C15.1986 35.2186 10.4438 37.7793 6.81302 41.5983C3.18224 45.4174 0.865056 50.2955 0.198717 55.5227C-0.467622 60.7499 0.551666 66.0534 3.10823 70.6611C5.66478 75.2689 9.62518 78.9405 14.413 81.1416L15.0343 81.4232H15.0757V74.3821C11.7912 72.366 9.21997 69.3726 7.72227 65.8217C6.22458 62.2707 5.87551 58.3401 6.724 54.5808C7.5725 50.8215 9.57602 47.4219 12.4538 44.8585C15.3315 42.2951 18.9392 40.6964 22.7712 40.2865L24.5108 40.1042L25.2729 38.5386C27.4367 33.9528 30.8648 30.0801 35.154 27.3756C39.4433 24.6712 44.4155 23.2474 49.4861 23.2718C55.528 23.3144 61.3823 25.3758 66.1179 29.1283C70.8534 32.8808 74.1985 38.1088 75.6211 43.981L76.2175 46.3501H78.7027C82.7088 46.4323 86.524 48.0777 89.3333 50.935C92.1426 53.7923 93.7232 57.6348 93.7375 61.6418C93.7375 67.4818 90.3661 72.2615 84.6255 74.6803V81.357L85.0397 81.2244C94.2677 78.2009 100 70.6959 100 61.6418C99.962 56.4014 98.0285 51.3519 94.5567 47.4264C91.085 43.5009 86.3096 40.9647 81.1132 40.2865Z" fill="#3448C5"/>
<path d="M37.3417 80.6118L38.7168 81.9869C38.7539 82.0251 38.7791 82.0733 38.7892 82.1256C38.7993 82.1779 38.7939 82.232 38.7736 82.2813C38.7534 82.3306 38.7192 82.3729 38.6753 82.403C38.6313 82.4331 38.5795 82.4497 38.5262 82.4508H27.6746C26.3564 82.4508 25.0922 81.9271 24.1601 80.995C23.228 80.0629 22.7044 78.7987 22.7044 77.4806V56.4069C22.7044 56.3344 22.6756 56.2648 22.6243 56.2136C22.5731 56.1623 22.5035 56.1335 22.431 56.1335H20.1116C20.0576 56.1341 20.0047 56.1186 19.9595 56.0891C19.9143 56.0596 19.8788 56.0174 19.8576 55.9678C19.8363 55.9182 19.8302 55.8634 19.84 55.8104C19.8499 55.7573 19.8752 55.7083 19.9128 55.6696L29.1243 46.4582C29.1497 46.4324 29.18 46.4119 29.2134 46.3979C29.2468 46.3839 29.2827 46.3767 29.3189 46.3767C29.3551 46.3767 29.391 46.3839 29.4244 46.3979C29.4578 46.4119 29.4882 46.4324 29.5136 46.4582L38.7168 55.6696C38.7539 55.7078 38.7791 55.756 38.7892 55.8083C38.7993 55.8606 38.7939 55.9148 38.7736 55.964C38.7534 56.0133 38.7192 56.0556 38.6753 56.0857C38.6313 56.1158 38.5795 56.1324 38.5262 56.1335H36.1737C36.1004 56.1335 36.03 56.162 35.9774 56.213C35.9248 56.2641 35.8942 56.3336 35.892 56.4069V77.1161C35.8954 78.4269 36.4164 79.6833 37.3417 80.6118ZM57.6947 80.6118L59.0781 81.9869C59.1157 82.0256 59.141 82.0746 59.1508 82.1276C59.1607 82.1807 59.1546 82.2355 59.1333 82.2851C59.112 82.3347 59.0766 82.3769 59.0314 82.4064C58.9861 82.4359 58.9332 82.4513 58.8792 82.4508H48.0525C46.7343 82.4508 45.4701 81.9271 44.538 80.995C43.6059 80.0629 43.0823 78.7987 43.0823 77.4806V61.7333C43.0823 61.66 43.0538 61.5896 43.0027 61.537C42.9517 61.4844 42.8821 61.4538 42.8089 61.4516H40.4646C40.4114 61.4506 40.3596 61.434 40.3156 61.4039C40.2716 61.3737 40.2374 61.3315 40.2172 61.2822C40.197 61.2329 40.1916 61.1788 40.2017 61.1265C40.2118 61.0741 40.2369 61.0259 40.2741 60.9877L49.4773 51.7928C49.5027 51.7671 49.533 51.7466 49.5664 51.7326C49.5998 51.7186 49.6357 51.7114 49.6719 51.7114C49.7082 51.7114 49.744 51.7186 49.7774 51.7326C49.8109 51.7466 49.8412 51.7671 49.8666 51.7928L59.0781 60.9712C59.1157 61.0099 59.141 61.0588 59.1508 61.1119C59.1607 61.165 59.1546 61.2198 59.1333 61.2694C59.112 61.319 59.0766 61.3612 59.0314 61.3907C58.9861 61.4202 58.9332 61.4356 58.8792 61.4351H56.5267C56.4534 61.4372 56.3839 61.4678 56.3329 61.5204C56.2818 61.573 56.2533 61.6434 56.2533 61.7167V77.1161C56.2545 78.4257 56.7724 79.6819 57.6947 80.6118ZM78.056 80.6118L79.4311 81.9869C79.4682 82.0251 79.4934 82.0733 79.5035 82.1256C79.5136 82.1779 79.5082 82.232 79.488 82.2813C79.4677 82.3306 79.4335 82.3729 79.3896 82.403C79.3456 82.4331 79.2938 82.4497 79.2405 82.4508H68.3806C67.0625 82.4508 65.7983 81.9271 64.8662 80.995C63.9341 80.0629 63.4104 78.7987 63.4104 77.4806V67.0183C63.4104 66.9458 63.3816 66.8762 63.3304 66.825C63.2791 66.7737 63.2096 66.7449 63.1371 66.7449H60.8176C60.7626 66.7455 60.7088 66.7295 60.663 66.699C60.6173 66.6684 60.5818 66.6248 60.5612 66.5738C60.5406 66.5228 60.5359 66.4668 60.5477 66.4131C60.5594 66.3594 60.5871 66.3105 60.6271 66.2727L69.8386 57.0696C69.8633 57.044 69.8929 57.0237 69.9256 57.0098C69.9583 56.9959 69.9935 56.9888 70.0291 56.9888C70.0646 56.9888 70.0998 56.9959 70.1326 57.0098C70.1653 57.0237 70.1949 57.044 70.2196 57.0696L79.4311 66.2727C79.4711 66.3105 79.4987 66.3594 79.5105 66.4131C79.5223 66.4668 79.5175 66.5228 79.497 66.5738C79.4764 66.6248 79.4409 66.6684 79.3952 66.699C79.3494 66.7295 79.2955 66.7455 79.2405 66.7449H76.8797C76.8072 66.7449 76.7377 66.7737 76.6864 66.825C76.6351 66.8762 76.6063 66.9458 76.6063 67.0183V77.1161C76.6097 78.4269 77.1307 79.6833 78.056 80.6118Z" fill="#3448C5"/>
</svg>
