<svg width="100" height="100" viewBox="0 0 100 100" fill="none" xmlns="http://www.w3.org/2000/svg">
<path d="M51.9462 36.7208C58.4801 44.3668 61.1677 54.5614 59.1751 64.4316C69.4161 60.3538 73.4013 53.4956 74.6061 46.6374C74.6061 46.6374 78.0815 33.6161 83.5495 28.2407C72.8452 29.8626 71.7794 25.6457 51.9462 36.7208Z" fill="#19B99A"/>
<path d="M35.5422 50.0199C33.4106 43.3934 29.7035 37.3693 24.7452 32.4574C24.7452 32.4574 39.6664 36.3962 48.2855 64.246C40.1761 61.7901 36.7007 53.7734 35.5422 50.0199ZM54.0315 68.2312C54.2632 66.8874 58.2484 53.4027 50.3707 42.4666C37.2568 27.9161 17.4236 25.8772 17.4236 25.8772C21.2697 33.3378 21.4088 40.335 25.6256 54.5612C30.7229 69.297 49.6293 70.2701 51.0195 70.3165C52.2706 72.3091 55.19 74.9967 61.8628 76.3869L62.6043 72.8651C56.8582 71.6603 54.773 69.436 54.0315 68.2312Z" fill="#19B99A"/>
<path d="M19.5551 21.614C11.2141 25.5528 7.87766 35.145 7.87766 49.8345C7.87766 64.246 11.2141 73.8846 19.5551 78.1014L18.6284 81.7159C5.7924 77.221 0 67.2117 0 49.8809C0 32.411 5.7924 22.4017 18.6284 17.9995L19.5551 21.614Z" fill="white"/>
<path d="M81.3718 17.9995C94.2077 22.4017 100 32.411 100 49.8345C100 67.1654 94.2077 77.1746 81.3718 81.6232L80.3523 78.0087C88.6933 73.7919 92.0298 64.1533 92.0298 49.7418C92.0298 35.0523 88.6933 25.4601 80.3523 21.5676L81.3718 17.9995Z" fill="white"/>
</svg>
