<svg width="100" height="100" viewBox="0 0 100 100" fill="none" xmlns="http://www.w3.org/2000/svg">
<path d="M4.77921 63.2465C3.60024 58.953 3 54.4934 3 50.0017C3 29.4974 15.8776 10.749 35.0467 3.35571L37.56 9.86034C21.0597 16.2258 9.97739 32.3561 9.97739 50.0017C9.97739 53.8724 10.4918 57.7055 11.5047 61.3994L4.77921 63.2465Z" fill="#69D3A7"/>
<path d="M91.4391 30.1934C83.9796 15.8725 69.2958 6.97477 53.1279 6.97477C47.3991 6.97477 41.8312 8.07761 36.5902 10.2458L33.916 3.80542C40.0091 1.28388 46.4721 -0.000976562 53.1279 -0.000976562C71.911 -0.000976562 88.9633 10.3315 97.6287 26.9705L91.4391 30.1934Z" fill="url(#paint0_linear_33_520)"/>
<path d="M38.1605 39.6853C42.2063 39.6853 45.5022 41.8428 47.1957 45.6063L47.3297 45.9009L54.1247 43.5934L53.9801 43.2455C51.3488 36.8371 45.2878 32.854 38.1605 32.854C33.1497 32.854 29.0769 34.4603 25.7115 37.758C22.3674 41.0344 20.6741 45.1567 20.6741 50.0123C20.6741 54.8252 22.3674 58.9261 25.7115 62.2025C29.0769 65.5005 33.1497 67.1065 38.1605 67.1065C45.2878 67.1065 51.3488 63.1234 53.9801 56.7205L54.1247 56.3725L47.3188 54.0596L47.1903 54.3648C45.6736 58.0642 42.2976 60.2752 38.1605 60.2752C35.3415 60.2752 32.9622 59.2902 31.0757 57.3521C29.168 55.3873 28.2034 52.9194 28.2034 50.0178C28.2034 47.0946 29.1465 44.6748 31.0757 42.619C32.9567 40.6705 35.3415 39.6853 38.1605 39.6853Z" fill="white"/>
<path d="M80.721 33.4858L71.0375 57.9892L61.2896 33.4858H53.3154L66.9861 66.9298L57.2596 90.5177L64.2317 91.9044L88.2558 33.4858H80.721Z" fill="white"/>
<path d="M58.5071 87.4769L56.8083 91.5886C56.4706 92.4024 55.6989 92.9536 54.8308 92.9911C54.2575 93.0126 53.6787 93.0286 53.0946 93.0286C33.1002 93.018 15.4103 78.9219 11.0266 59.499L4.2207 61.0355C6.68048 71.9301 12.854 81.8182 21.6052 88.8851C30.4583 96.0319 41.6102 99.9776 53.0196 99.999C53.0356 99.999 53.1212 99.999 53.1212 99.999C53.7912 99.999 54.4556 99.983 55.1202 99.9563C58.7 99.8063 61.8994 97.5632 63.2658 94.2386L65.4844 88.8636L58.5071 87.4769Z" fill="url(#paint1_linear_33_520)"/>
<defs>
<linearGradient id="paint0_linear_33_520" x1="47.9118" y1="-3.22893" x2="85.9637" y2="37.4413" gradientUnits="userSpaceOnUse">
<stop offset="0.0939" stop-color="#58D09E"/>
<stop offset="0.9883" stop-color="#58D09E" stop-opacity="0"/>
</linearGradient>
<linearGradient id="paint1_linear_33_520" x1="2.4658" y1="72.7521" x2="75.1625" y2="92.1015" gradientUnits="userSpaceOnUse">
<stop offset="0.0774" stop-color="#58D09E"/>
<stop offset="0.7617" stop-color="#1B1E2E"/>
</linearGradient>
</defs>
</svg>
