<svg width="100" height="100" viewBox="0 0 100 100" fill="none" xmlns="http://www.w3.org/2000/svg">
<g clip-path="url(#clip0_33_527)">
<path d="M26.8778 27.0584L20.4525 20.6331V66.9679L20.543 69.1398C20.543 70.1353 20.724 71.3118 21.086 72.4882L71.9457 90.4068L84.6154 84.7959L26.8778 27.0584Z" fill="#00C4B3"/>
<path d="M84.6153 84.796L71.9456 90.4069L21.1764 72.4883C22.1719 76.1987 24.2533 80.3616 26.6063 82.7145L43.1673 99.1851L80.0904 99.2756L84.6153 84.796Z" fill="#22D3C5"/>
<path d="M20.6335 20.6331L0.905039 50.4973C-0.723921 52.2168 0.090559 55.8367 2.71499 58.5516L14.1177 70.0448L21.267 72.5788C20.9955 71.4023 20.724 70.2258 20.724 69.2303L20.6335 67.0584V20.6331Z" fill="#0075C9"/>
<path d="M72.3077 21.176C71.1312 20.9045 69.9548 20.7235 68.9593 20.633L66.6969 20.5425H20.4525L84.6154 84.7054L90.2263 72.0357L72.3077 21.176Z" fill="#0075C9"/>
<path d="M82.534 26.6059C80.1811 24.2529 76.1087 22.081 72.3078 21.176L90.2264 72.0357L84.6155 84.7054L98.3712 80.271V42.5335L82.534 26.6059Z" fill="#00A8E1"/>
<path d="M69.7737 14.1172L58.2805 2.71451C55.6561 0.0900707 52.0361 -0.724409 50.2262 0.90455L20.3619 20.6331H66.6063L68.8687 20.7236C69.8642 20.7236 71.0407 20.9045 72.2171 21.2665L69.7737 14.1172Z" fill="#00C4B3"/>
</g>
<defs>
<clipPath id="clip0_33_527">
<rect width="100" height="100" fill="white" transform="translate(0 -0.000488281)"/>
</clipPath>
</defs>
</svg>
