<svg width="100" height="100" viewBox="0 0 100 100" fill="none" xmlns="http://www.w3.org/2000/svg">
<path d="M50 0.000488281C77.6143 0.000488281 100 22.3862 100 50.0005C100 77.6148 77.6143 100 50 100C22.3857 100 0 77.6148 0 50.0005C0 22.3862 22.3857 0.000488281 50 0.000488281Z" fill="black"/>
<path d="M48.8784 74.4653C47.596 74.1196 46.277 74.8619 45.9017 76.1276L45.885 76.1866L42.5647 88.4913L42.5497 88.5506C42.237 89.8333 43.0037 91.1386 44.286 91.4843C45.568 91.8306 46.887 91.0883 47.2624 89.8223L47.279 89.7636L50.599 77.4589L50.6144 77.3993C50.637 77.3069 50.654 77.2139 50.6657 77.1213L50.6754 77.0286L50.5967 76.6299L50.4817 76.0559L50.409 75.6976C50.2534 75.3973 50.037 75.1326 49.7734 74.9203C49.51 74.7083 49.205 74.5533 48.8784 74.4653ZM25.7414 61.7936C25.6808 61.9143 25.6295 62.0416 25.5886 62.1746L25.5656 62.2549L22.2453 74.5596L22.23 74.6193C21.9175 75.9019 22.6842 77.2069 23.9664 77.5529C25.2484 77.8989 26.5676 77.1569 26.9429 75.8909L26.9593 75.8319L29.9699 64.6749C28.3931 63.8399 26.9779 62.8766 25.7414 61.7936ZM17.8236 47.6436C16.5414 47.2976 15.2222 48.0396 14.847 49.3056L14.8304 49.3646L11.5101 61.6693L11.4949 61.7286C11.1824 63.0113 11.949 64.3163 13.2312 64.6623C14.5133 65.0083 15.8324 64.2663 16.2078 63.0003L16.2242 62.9413L19.5445 50.6366L19.5597 50.5773C19.8722 49.2946 19.1058 47.9896 17.8236 47.6436ZM92.2734 44.8493C90.991 44.5033 89.6717 45.2453 89.2967 46.5113L89.28 46.5703L85.9597 58.8749L85.9444 58.9343C85.632 60.2169 86.3987 61.5219 87.6807 61.8679C88.963 62.2139 90.282 61.4719 90.6574 60.2059L90.6737 60.1469L93.994 47.8423L94.0094 47.7829C94.3217 46.5003 93.5554 45.1953 92.2734 44.8493ZM10.5927 28.4182C7.81207 33.4819 6.04147 39.0379 5.37927 44.7769C5.69604 45.1379 6.11274 45.3973 6.57674 45.5216C7.85897 45.8679 9.17811 45.1256 9.55331 43.8596L9.56991 43.8009L12.8902 31.4961L12.9054 31.4367C13.2179 30.1539 12.4513 28.8488 11.1691 28.5029C10.981 28.4522 10.7875 28.4237 10.5927 28.4182ZM83.8634 28.5029C82.5814 28.1568 81.262 28.899 80.8867 30.165L80.8704 30.2238L77.55 42.5286L77.5347 42.5879C77.2224 43.8706 77.9887 45.1759 79.271 45.5216C80.553 45.8679 81.8724 45.1256 82.2477 43.8596L82.264 43.8009L85.5844 31.4961L85.5997 31.4367C85.912 30.1539 85.1454 28.8488 83.8634 28.5029Z" fill="white"/>
<path d="M25.0429 16.8028C23.7608 16.4567 22.4417 17.1989 22.0663 18.4649L22.0499 18.5237L18.7296 30.8284L18.7143 30.8878C18.4018 32.1706 19.1684 33.4756 20.4507 33.8216C21.7327 34.1676 23.0518 33.4253 23.4272 32.1594L23.4436 32.1007L26.7639 19.796L26.7792 19.7366C27.0917 18.4538 26.3251 17.1487 25.0429 16.8028ZM67.7054 19.1288C66.423 18.7827 65.104 19.5249 64.7287 20.7909L64.712 20.8497L62.481 29.1173C63.9264 29.8311 65.3057 30.6715 66.603 31.6286L66.8177 31.7887L69.4264 22.1219L69.4414 22.0626C69.754 20.7798 68.9877 19.4747 67.7054 19.1288ZM45.9894 5.25537C44.432 5.393 42.8824 5.6119 41.3477 5.9112L41.022 5.97607L37.9274 17.4479L37.912 17.5073C37.5997 18.7901 38.3664 20.0952 39.6484 20.4411C40.9307 20.7872 42.2497 20.045 42.625 18.779L42.6414 18.7202L45.9617 6.4155L45.977 6.35614C46.0654 5.995 46.0697 5.6184 45.9894 5.25537ZM76.542 13.755L75.8897 16.1729L75.8744 16.2321C75.562 17.5149 76.3287 18.82 77.6107 19.1659C78.8927 19.512 80.212 18.7698 80.5874 17.5038L80.6037 17.445L80.675 17.1827C79.454 16.0408 78.1704 14.9676 76.8304 13.968L76.542 13.755ZM57.224 5.65654L56.0464 10.0204L56.0314 10.0798C55.7187 11.3626 56.4854 12.6677 57.7677 13.0136C59.0497 13.3596 60.3687 12.6175 60.7444 11.3514L60.7607 11.2927L62 6.6995C60.5414 6.2962 59.0634 5.96734 57.5714 5.71414L57.224 5.65654Z" fill="white"/>
<path d="M32.3028 82.0848C32.678 80.8188 33.9973 80.0768 35.2793 80.4225C36.5617 80.7681 37.328 82.0734 37.0157 83.3564L37.0003 83.4158L34.624 92.2218L34.292 92.0995C32.8612 91.5651 31.4588 90.9581 30.0903 90.2801L32.2862 82.1435L32.3028 82.0848Z" fill="white"/>
<path d="M48.047 28.3032C33.5073 28.3032 22.1973 37.4565 22.1973 48.8395C22.1973 59.5902 32.6041 66.4545 48.737 66.1108C50.109 66.0815 50.5057 67.0032 50.952 68.2452C51.3987 69.4872 52.5987 76.0328 53.555 81.0395C54.411 85.5205 55.2807 90.0178 55.9447 94.5325C66.4797 93.1398 76.221 87.9362 83.3587 80.0875L75.7457 51.6965C73.848 44.8398 71.63 38.5218 65.761 33.9318C61.0393 30.2394 55.0407 28.3032 48.047 28.3032Z" fill="white"/>
<path d="M51.172 36.5239C52.898 36.5239 54.297 37.9229 54.297 39.6489C54.297 41.3749 52.898 42.7739 51.172 42.7739C49.446 42.7739 48.047 41.3749 48.047 39.6489C48.047 37.9229 49.446 36.5239 51.172 36.5239Z" fill="black"/>
</svg>
