<svg width="100" height="100" viewBox="0 0 100 100" fill="none" xmlns="http://www.w3.org/2000/svg">
<path fill-rule="evenodd" clip-rule="evenodd" d="M49.2308 24.8315H92.3077V42.2674H49.2308V24.8315Z" fill="white"/>
<path fill-rule="evenodd" clip-rule="evenodd" d="M10.2564 81.7547C6.46256 81.7547 3.15744 79.6895 1.38308 76.6265C0.477173 78.1837 -3.95195e-05 79.9531 2.45466e-09 81.7547C2.45465e-09 87.4193 4.5918 92.0111 10.2564 92.0111H20.5128V81.7547H10.2564Z" fill="#3ECC5F"/>
<path fill-rule="evenodd" clip-rule="evenodd" d="M56.3999 27.5886L92.3076 25.3445V20.2163C92.3076 14.5517 87.7158 9.95992 82.0512 9.95992H35.8973L34.6153 7.73941C34.045 6.75223 32.6209 6.75223 32.0512 7.73941L30.7691 9.95992L29.4871 7.73941C28.9173 6.75223 27.4927 6.75223 26.923 7.73941L25.6409 9.95992L24.3589 7.73941C23.7891 6.75223 22.3645 6.75223 21.7948 7.73941L20.5127 9.95992C20.5014 9.95992 20.4912 9.96146 20.4794 9.96146L18.3553 7.83787C17.5502 7.03223 16.1748 7.40043 15.8794 8.50146L15.1773 11.1189L12.5148 10.405C11.4132 10.1102 10.4066 11.1174 10.7019 12.2184L11.4148 14.8815L8.79836 15.5825C7.69682 15.8779 7.3281 17.2538 8.13374 18.0594L10.2578 20.1835C10.2578 20.1943 10.2563 20.205 10.2563 20.2163L8.03579 21.4984C7.04862 22.0681 7.04862 23.4927 8.03579 24.0625L10.2563 25.3445L8.03579 26.6266C7.04862 27.1963 7.04862 28.6209 8.03579 29.1907L10.2563 30.4727L8.03579 31.7548C7.04862 32.3245 7.04862 33.7492 8.03579 34.3189L10.2563 35.6009L8.03579 36.883C7.04862 37.4527 7.04862 38.8774 8.03579 39.4471L10.2563 40.7292L8.03579 42.0112C7.04862 42.5809 7.04862 44.0056 8.03579 44.5753L10.2563 45.8574L8.03579 47.1394C7.04862 47.7092 7.04862 49.1338 8.03579 49.7035L10.2563 50.9856L8.03579 52.2676C7.04862 52.8374 7.04862 54.262 8.03579 54.8317L10.2563 56.1138L8.03579 57.3958C7.04862 57.9656 7.04862 59.3902 8.03579 59.9599L10.2563 61.242L8.03579 62.524C7.04862 63.0938 7.04862 64.5184 8.03579 65.0881L10.2563 66.3702L8.03579 67.6522C7.04862 68.222 7.04862 69.6466 8.03579 70.2163L10.2563 71.4984L8.03579 72.7804C7.04862 73.3502 7.04862 74.7748 8.03579 75.3445L10.2563 76.6266L8.03579 77.9086C7.04862 78.4784 7.04862 79.903 8.03579 80.4727L10.2563 81.7548C10.2563 87.4194 14.8481 92.0112 20.5127 92.0112H82.0512C87.7158 92.0112 92.3076 87.4194 92.3076 81.7548V40.7292L56.3999 38.4851C55.0139 38.3983 53.713 37.7865 52.7621 36.7743C51.8113 35.7621 51.282 34.4256 51.282 33.0368C51.282 30.1543 53.523 27.7686 56.3999 27.5886Z" fill="#3ECC5F"/>
<path fill-rule="evenodd" clip-rule="evenodd" d="M71.7949 92.0111H87.1795V71.4983H71.7949V92.0111Z" fill="#3ECC5F"/>
<path fill-rule="evenodd" clip-rule="evenodd" d="M97.4359 79.1905C97.3236 79.1905 97.2164 79.2095 97.1082 79.2233C97.0887 79.1464 97.0703 79.069 97.0487 78.992C97.5952 78.7635 98.0457 78.3529 98.3237 77.8299C98.6017 77.3069 98.6901 76.7037 98.5738 76.1229C98.4575 75.5421 98.1437 75.0195 97.6857 74.6439C97.2278 74.2682 96.6539 74.0627 96.0616 74.0623C95.5016 74.0643 94.9579 74.251 94.5149 74.5936C94.4581 74.5356 94.4009 74.4782 94.3431 74.4213C94.6781 73.9807 94.8602 73.4429 94.8616 72.8895C94.8612 72.2987 94.6569 71.7262 94.2831 71.2687C93.9093 70.8112 93.389 70.4968 92.8102 70.3787C92.2313 70.2605 91.6295 70.3459 91.1063 70.6203C90.5831 70.8948 90.1708 71.3415 89.939 71.8849C89.8631 71.8633 89.7867 71.8454 89.7108 71.8259C89.7246 71.7177 89.7436 71.6105 89.7436 71.4982C89.7436 70.8181 89.4735 70.166 88.9926 69.6851C88.5117 69.2042 87.8595 68.9341 87.1795 68.9341C86.4995 68.9341 85.8473 69.2042 85.3664 69.6851C84.8855 70.166 84.6154 70.8181 84.6154 71.4982C84.6154 71.6105 84.6344 71.7177 84.6482 71.8259C84.5723 71.8454 84.4959 71.8633 84.42 71.8849C84.189 71.3404 83.7769 70.8926 83.2534 70.6174C82.73 70.3421 82.1275 70.2564 81.548 70.3746C80.9686 70.4929 80.4478 70.8079 80.0741 71.2662C79.7004 71.7246 79.4966 72.2981 79.4975 72.8895C79.4975 73.4664 79.6944 73.9925 80.0159 74.4213C78.1098 76.2838 76.9231 78.8792 76.9231 81.7546C76.9231 87.4192 81.5149 92.011 87.1795 92.011C91.9687 92.011 95.9795 88.7238 97.1082 84.2859C97.2164 84.2997 97.3236 84.3187 97.4359 84.3187C98.116 84.3187 98.7682 84.0486 99.249 83.5677C99.7299 83.0868 100 82.4346 100 81.7546C100 81.0746 99.7299 80.4224 99.249 79.9415C98.7682 79.4606 98.116 79.1905 97.4359 79.1905Z" fill="#44D860"/>
<path fill-rule="evenodd" clip-rule="evenodd" d="M76.9231 61.2418H92.3077V50.9854H76.9231V61.2418Z" fill="#3ECC5F"/>
<path fill-rule="evenodd" clip-rule="evenodd" d="M97.4359 57.3959C97.7759 57.3959 98.102 57.2609 98.3425 57.0204C98.5829 56.78 98.718 56.4539 98.718 56.1139C98.718 55.7739 98.5829 55.4478 98.3425 55.2073C98.102 54.9669 97.7759 54.8318 97.4359 54.8318C97.38 54.8318 97.3262 54.8416 97.2723 54.8482C97.2621 54.8098 97.2534 54.7713 97.2426 54.7329C97.5155 54.6183 97.7404 54.4128 97.8791 54.1514C98.0178 53.8899 98.0618 53.5886 98.0037 53.2984C97.9455 53.0081 97.7888 52.747 97.5601 52.5591C97.3314 52.3713 97.0447 52.2683 96.7487 52.2677C96.4569 52.2677 96.1908 52.3688 95.9754 52.5334C95.9472 52.5041 95.9185 52.4754 95.8892 52.4472C96.0503 52.2334 96.1487 51.9698 96.1487 51.6811C96.1486 51.3856 96.0465 51.0992 95.8596 50.8704C95.6726 50.6416 95.4124 50.4843 95.1229 50.4253C94.8334 50.3662 94.5324 50.409 94.2707 50.5463C94.0091 50.6837 93.803 50.9072 93.6872 51.179C93.2383 51.052 92.7742 50.987 92.3077 50.9857C89.4759 50.9857 87.1795 53.2821 87.1795 56.1139C87.1795 58.9457 89.4759 61.2421 92.3077 61.2421C92.7867 61.2421 93.2477 61.1713 93.6872 61.0488C93.803 61.3206 94.0091 61.5441 94.2707 61.6814C94.5324 61.8188 94.8334 61.8615 95.1229 61.8025C95.4124 61.7434 95.6726 61.5862 95.8596 61.3574C96.0465 61.1285 96.1486 60.8422 96.1487 60.5467C96.1487 60.258 96.0503 59.9944 95.8892 59.7805C95.9185 59.7523 95.9472 59.7236 95.9754 59.6944C96.1908 59.859 96.4569 59.96 96.7487 59.96C97.045 59.96 97.3322 59.8574 97.5613 59.6695C97.7905 59.4817 97.9475 59.2203 98.0057 58.9298C98.0639 58.6393 98.0197 58.3376 97.8806 58.076C97.7414 57.8144 97.516 57.6091 97.2426 57.4949C97.2534 57.457 97.2621 57.418 97.2723 57.3795C97.3262 57.3862 97.38 57.3959 97.4359 57.3959Z" fill="#44D860"/>
<path fill-rule="evenodd" clip-rule="evenodd" d="M30.7692 26.6264C30.4292 26.6264 30.1031 26.4913 29.8627 26.2509C29.6223 26.0105 29.4872 25.6844 29.4872 25.3443C29.4872 23.2233 27.7621 21.4982 25.641 21.4982C23.52 21.4982 21.7949 23.2233 21.7949 25.3443C21.7949 25.6844 21.6598 26.0105 21.4194 26.2509C21.1789 26.4913 20.8528 26.6264 20.5128 26.6264C20.1728 26.6264 19.8467 26.4913 19.6063 26.2509C19.3658 26.0105 19.2308 25.6844 19.2308 25.3443C19.2308 21.8095 22.1062 18.9341 25.641 18.9341C29.1759 18.9341 32.0513 21.8095 32.0513 25.3443C32.0513 25.6844 31.9162 26.0105 31.6758 26.2509C31.4354 26.4913 31.1093 26.6264 30.7692 26.6264Z" fill="black"/>
<path fill-rule="evenodd" clip-rule="evenodd" d="M51.282 92.011H82.0513C87.7159 92.011 92.3077 87.4192 92.3077 81.7546V45.8572H61.5385C55.8738 45.8572 51.282 50.449 51.282 56.1136V92.011Z" fill="#FFFF50"/>
<path fill-rule="evenodd" clip-rule="evenodd" d="M84.6257 61.755H58.9642C58.8282 61.755 58.6977 61.701 58.6016 61.6048C58.5054 61.5087 58.4514 61.3782 58.4514 61.2422C58.4514 61.1062 58.5054 60.9758 58.6016 60.8796C58.6977 60.7834 58.8282 60.7294 58.9642 60.7294H84.6257C84.7617 60.7294 84.8922 60.7834 84.9883 60.8796C85.0845 60.9758 85.1385 61.1062 85.1385 61.2422C85.1385 61.3782 85.0845 61.5087 84.9883 61.6048C84.8922 61.701 84.7617 61.755 84.6257 61.755ZM84.6257 72.0114H58.9642C58.8282 72.0114 58.6977 71.9574 58.6016 71.8612C58.5054 71.7651 58.4514 71.6346 58.4514 71.4986C58.4514 71.3626 58.5054 71.2322 58.6016 71.136C58.6977 71.0398 58.8282 70.9858 58.9642 70.9858H84.6257C84.7617 70.9858 84.8922 71.0398 84.9883 71.136C85.0845 71.2322 85.1385 71.3626 85.1385 71.4986C85.1385 71.6346 85.0845 71.7651 84.9883 71.8612C84.8922 71.9574 84.7617 72.0114 84.6257 72.0114ZM84.6257 82.2679H58.9642C58.8282 82.2679 58.6977 82.2138 58.6016 82.1177C58.5054 82.0215 58.4514 81.891 58.4514 81.755C58.4514 81.619 58.5054 81.4886 58.6016 81.3924C58.6977 81.2962 58.8282 81.2422 58.9642 81.2422H84.6257C84.7617 81.2422 84.8922 81.2962 84.9883 81.3924C85.0845 81.4886 85.1385 81.619 85.1385 81.755C85.1385 81.891 85.0845 82.0215 84.9883 82.1177C84.8922 82.2138 84.7617 82.2679 84.6257 82.2679ZM84.6257 56.7222H58.9642C58.8282 56.7222 58.6977 56.6682 58.6016 56.572C58.5054 56.4758 58.4514 56.3454 58.4514 56.2094C58.4514 56.0734 58.5054 55.9429 58.6016 55.8468C58.6977 55.7506 58.8282 55.6966 58.9642 55.6966H84.6257C84.7617 55.6966 84.8922 55.7506 84.9883 55.8468C85.0845 55.9429 85.1385 56.0734 85.1385 56.2094C85.1385 56.3454 85.0845 56.4758 84.9883 56.572C84.8922 56.6682 84.7617 56.7222 84.6257 56.7222ZM84.6257 66.8832H58.9642C58.8282 66.8832 58.6977 66.8292 58.6016 66.733C58.5054 66.6369 58.4514 66.5064 58.4514 66.3704C58.4514 66.2344 58.5054 66.104 58.6016 66.0078C58.6977 65.9116 58.8282 65.8576 58.9642 65.8576H84.6257C84.7617 65.8576 84.8922 65.9116 84.9883 66.0078C85.0845 66.104 85.1385 66.2344 85.1385 66.3704C85.1385 66.5064 85.0845 66.6369 84.9883 66.733C84.8922 66.8292 84.7617 66.8832 84.6257 66.8832ZM84.6257 77.1396H58.9642C58.8282 77.1396 58.6977 77.0856 58.6016 76.9894C58.5054 76.8933 58.4514 76.7628 58.4514 76.6268C58.4514 76.4908 58.5054 76.3604 58.6016 76.2642C58.6977 76.168 58.8282 76.114 58.9642 76.114H84.6257C84.7617 76.114 84.8922 76.168 84.9883 76.2642C85.0845 76.3604 85.1385 76.4908 85.1385 76.6268C85.1385 76.7628 85.0845 76.8933 84.9883 76.9894C84.8922 77.0856 84.7617 77.1396 84.6257 77.1396ZM92.3078 29.7607C92.3016 29.7607 92.2965 29.7576 92.2903 29.7581C90.7057 29.812 89.956 31.3971 89.2944 32.7956C88.6042 34.2571 88.0703 35.2073 87.1955 35.1786C86.2268 35.1438 85.6729 34.0494 85.0862 32.8914C84.4124 31.5612 83.6432 30.0525 82.0283 30.1089C80.4662 30.1622 79.7139 31.5417 79.0503 32.7586C78.3442 34.055 77.8637 34.8432 76.937 34.8068C75.9488 34.7709 75.4237 33.8812 74.816 32.8514C74.1385 31.7048 73.3555 30.4156 71.7719 30.4597C70.2365 30.5125 69.4821 31.6827 68.8165 32.7161C68.1124 33.8084 67.6191 34.474 66.6806 34.4345C65.6688 34.3986 65.1462 33.6602 64.5416 32.8053C63.8626 31.8448 63.0975 30.7576 61.5185 30.8104C60.017 30.8617 59.2626 31.8207 58.5975 32.6658C57.9657 33.4679 57.4724 34.1027 56.4288 34.0627C56.2928 34.0578 56.1604 34.1072 56.0608 34.1999C55.9611 34.2926 55.9024 34.4211 55.8975 34.5571C55.8926 34.6931 55.942 34.8255 56.0347 34.9251C56.1274 35.0247 56.2559 35.0835 56.3919 35.0884C57.9391 35.1402 58.7226 34.1653 59.4032 33.3002C60.0067 32.533 60.5278 31.8709 61.5534 31.8361C62.5411 31.794 63.0042 32.4079 63.7047 33.3976C64.3698 34.3381 65.1247 35.4048 66.6437 35.4597C68.235 35.513 69.0006 34.3238 69.6785 33.2714C70.2847 32.3309 70.8078 31.5191 71.8067 31.4848C72.7262 31.4504 73.2267 32.1771 73.9324 33.3725C74.5975 34.4991 75.3509 35.7755 76.9001 35.832C78.5026 35.8873 79.2765 34.4884 79.9509 33.2499C80.535 32.1791 81.0862 31.1679 82.0632 31.134C82.9826 31.1125 83.4621 31.952 84.1714 33.3545C84.8339 34.6638 85.5852 36.1468 87.1585 36.2038L87.2452 36.2053C88.8165 36.2053 89.5621 34.6284 90.2221 33.234C90.8062 31.9981 91.3591 30.834 92.3078 30.7863V29.7607Z" fill="black"/>
<path fill-rule="evenodd" clip-rule="evenodd" d="M41.0256 92.0111H61.5385V71.4983H41.0256V92.0111Z" fill="#3ECC5F"/>
<path d="M92.184 38.7917L52.2977 49.4792C51.7506 49.6258 51.4259 50.1882 51.5725 50.7353L55.4703 65.2822C55.6169 65.8293 56.1793 66.154 56.7265 66.0074L96.6128 55.3199C97.1599 55.1733 97.4846 54.6109 97.338 54.0638L93.4402 39.5169C93.2936 38.9698 92.7312 38.6451 92.184 38.7917Z" fill="#D8D8D8"/>
<path d="M64.3358 57.4424L62.9077 57.825C62.6341 57.8983 62.4718 58.1795 62.5451 58.4531L62.9277 59.8812C63.001 60.1548 63.2822 60.3171 63.5558 60.2438L64.9839 59.8612C65.2575 59.7879 65.4198 59.5067 65.3465 59.2331L64.9639 57.805C64.8906 57.5314 64.6094 57.3691 64.3358 57.4424Z" fill="#4A4A4A"/>
<path d="M67.2023 56.6741L65.7742 57.0567C65.5007 57.13 65.3383 57.4112 65.4116 57.6848L65.7943 59.1129C65.8676 59.3865 66.1488 59.5488 66.4224 59.4755L67.8504 59.0928C68.124 59.0195 68.2864 58.7383 68.2131 58.4648L67.8304 57.0367C67.7571 56.7631 67.4759 56.6008 67.2023 56.6741Z" fill="#4A4A4A"/>
<path d="M70.0689 55.9062L68.6408 56.2889C68.3673 56.3622 68.2049 56.6434 68.2782 56.917L68.6609 58.3451C68.7342 58.6186 69.0154 58.781 69.2889 58.7077L70.717 58.325C70.9906 58.2517 71.1529 57.9705 71.0796 57.697L70.697 56.2689C70.6237 55.9953 70.3425 55.8329 70.0689 55.9062Z" fill="#4A4A4A"/>
<path d="M72.9355 55.1382L71.5074 55.5208C71.2338 55.5941 71.0715 55.8753 71.1448 56.1489L71.5274 57.577C71.6007 57.8506 71.8819 58.0129 72.1555 57.9396L73.5836 57.557C73.8572 57.4837 74.0195 57.2025 73.9462 56.9289L73.5636 55.5008C73.4903 55.2272 73.2091 55.0649 72.9355 55.1382Z" fill="#4A4A4A"/>
<path d="M75.8021 54.3699L74.374 54.7525C74.1004 54.8258 73.9381 55.107 74.0114 55.3806L74.394 56.8087C74.4673 57.0823 74.7485 57.2446 75.0221 57.1713L76.4502 56.7886C76.7238 56.7153 76.8861 56.4341 76.8128 56.1606L76.4302 54.7325C76.3569 54.4589 76.0757 54.2966 75.8021 54.3699Z" fill="#4A4A4A"/>
<path d="M78.6687 53.6023L77.2406 53.9849C76.967 54.0583 76.8047 54.3394 76.878 54.613L77.2606 56.0411C77.3339 56.3147 77.6151 56.477 77.8887 56.4037L79.3168 56.0211C79.5904 55.9478 79.7527 55.6666 79.6794 55.393L79.2967 53.9649C79.2234 53.6913 78.9422 53.529 78.6687 53.6023Z" fill="#4A4A4A"/>
<path d="M81.5352 52.834L80.1071 53.2166C79.8335 53.2899 79.6712 53.5711 79.7445 53.8447L80.1271 55.2728C80.2004 55.5464 80.4816 55.7087 80.7552 55.6354L82.1833 55.2528C82.4569 55.1795 82.6192 54.8983 82.5459 54.6247L82.1633 53.1966C82.09 52.923 81.8088 52.7607 81.5352 52.834Z" fill="#4A4A4A"/>
<path d="M84.4018 52.0659L82.9737 52.4486C82.7001 52.5219 82.5378 52.8031 82.6111 53.0766L82.9937 54.5047C83.067 54.7783 83.3482 54.9407 83.6218 54.8673L85.0499 54.4847C85.3234 54.4114 85.4858 54.1302 85.4125 53.8566L85.0298 52.4285C84.9565 52.155 84.6753 51.9926 84.4018 52.0659Z" fill="#4A4A4A"/>
<path d="M87.2684 51.2976L85.8403 51.6803C85.5668 51.7536 85.4044 52.0348 85.4777 52.3083L85.8604 53.7364C85.9337 54.01 86.2149 54.1723 86.4885 54.099L87.9165 53.7164C88.1901 53.6431 88.3525 53.3619 88.2792 53.0883L87.8965 51.6602C87.8232 51.3867 87.542 51.2243 87.2684 51.2976Z" fill="#4A4A4A"/>
<path fill-rule="evenodd" clip-rule="evenodd" d="M55.2939 59.8661L61.3797 58.2354C61.5111 58.2002 61.6511 58.2186 61.7689 58.2866C61.8867 58.3546 61.9726 58.4666 62.0078 58.598L62.3903 60.0256C62.4255 60.1569 62.4071 60.2969 62.3391 60.4147C62.2711 60.5325 62.1591 60.6184 62.0277 60.6536L55.9419 62.2843C55.8105 62.3195 55.6705 62.3011 55.5527 62.2331C55.435 62.1651 55.349 62.0531 55.3138 61.9217L54.9312 60.4936C54.896 60.3623 54.9144 60.2223 54.9824 60.1045C55.0504 59.9867 55.1624 59.9008 55.2938 59.8656L55.2939 59.8661ZM88.7962 50.8892L94.8825 49.2583C95.0139 49.2231 95.1539 49.2416 95.2716 49.3096C95.3894 49.3776 95.4754 49.4896 95.5106 49.6209L95.8931 51.0485C95.9283 51.1799 95.9099 51.3199 95.8419 51.4377C95.7739 51.5555 95.6619 51.6414 95.5305 51.6766L89.4437 53.3076C89.3123 53.3428 89.1723 53.3243 89.0545 53.2563C88.9367 53.1883 88.8508 53.0763 88.8156 52.9449L88.4329 51.5169C88.3977 51.3855 88.4162 51.2455 88.4842 51.1277C88.5522 51.0099 88.6642 50.924 88.7956 50.8888L88.7962 50.8892Z" fill="#4A4A4A"/>
<path fill-rule="evenodd" clip-rule="evenodd" d="M53.7428 54.0772L56.066 53.4547C56.1973 53.4195 56.3373 53.438 56.4551 53.506C56.5729 53.574 56.6588 53.686 56.694 53.8174L57.0766 55.2449C57.1118 55.3763 57.0933 55.5163 57.0253 55.6341C56.9573 55.7519 56.8453 55.8378 56.7139 55.873L54.3908 56.4955C54.2594 56.5307 54.1194 56.5123 54.0016 56.4443C53.8838 56.3763 53.7979 56.2643 53.7627 56.1329L53.3802 54.7053C53.345 54.5739 53.3634 54.434 53.4314 54.3162C53.4994 54.1984 53.6114 54.1124 53.7428 54.0772Z" fill="#4A4A4A"/>
<path d="M58.933 52.6863L57.5049 53.0689C57.2313 53.1422 57.0689 53.4234 57.1422 53.697L57.5249 55.1251C57.5982 55.3987 57.8794 55.561 58.153 55.4877L59.5811 55.1051C59.8546 55.0318 60.017 54.7506 59.9437 54.477L59.561 53.0489C59.4877 52.7753 59.2065 52.613 58.933 52.6863Z" fill="#4A4A4A"/>
<path d="M61.7994 51.918L60.3713 52.3006C60.0978 52.3739 59.9354 52.6551 60.0087 52.9287L60.3914 54.3568C60.4647 54.6304 60.7459 54.7927 61.0194 54.7194L62.4475 54.3367C62.7211 54.2634 62.8834 53.9822 62.8101 53.7087L62.4275 52.2806C62.3542 52.007 62.073 51.8447 61.7994 51.918Z" fill="#4A4A4A"/>
<path d="M64.666 51.1501L63.2379 51.5328C62.9644 51.6061 62.802 51.8873 62.8753 52.1609L63.258 53.589C63.3313 53.8625 63.6125 54.0249 63.886 53.9516L65.3141 53.5689C65.5877 53.4956 65.75 53.2144 65.6767 52.9408L65.2941 51.5128C65.2208 51.2392 64.9396 51.0768 64.666 51.1501Z" fill="#4A4A4A"/>
<path d="M67.5327 50.3821L66.1046 50.7647C65.831 50.838 65.6687 51.1192 65.742 51.3928L66.1246 52.8209C66.1979 53.0945 66.4791 53.2568 66.7527 53.1835L68.1808 52.8009C68.4544 52.7276 68.6167 52.4464 68.5434 52.1728L68.1608 50.7447C68.0875 50.4711 67.8063 50.3088 67.5327 50.3821Z" fill="#4A4A4A"/>
<path d="M70.3993 49.6138L68.9712 49.9964C68.6976 50.0697 68.5353 50.3509 68.6086 50.6245L68.9912 52.0526C69.0645 52.3262 69.3457 52.4885 69.6193 52.4152L71.0474 52.0325C71.3209 51.9592 71.4833 51.678 71.41 51.4045L71.0273 49.9764C70.954 49.7028 70.6728 49.5405 70.3993 49.6138Z" fill="#4A4A4A"/>
<path d="M73.2657 48.8455L71.8377 49.2281C71.5641 49.3014 71.4017 49.5826 71.475 49.8562L71.8577 51.2843C71.931 51.5578 72.2122 51.7202 72.4858 51.6469L73.9139 51.2642C74.1874 51.1909 74.3498 50.9097 74.2765 50.6362L73.8938 49.2081C73.8205 48.9345 73.5393 48.7722 73.2657 48.8455Z" fill="#4A4A4A"/>
<path d="M76.1324 48.0779L74.7043 48.4605C74.4307 48.5338 74.2683 48.815 74.3417 49.0886L74.7243 50.5167C74.7976 50.7903 75.0788 50.9526 75.3524 50.8793L76.7805 50.4967C77.054 50.4234 77.2164 50.1422 77.1431 49.8686L76.7604 48.4405C76.6871 48.1669 76.4059 48.0046 76.1324 48.0779Z" fill="#4A4A4A"/>
<path d="M78.999 47.3096L77.5709 47.6922C77.2973 47.7655 77.135 48.0467 77.2083 48.3203L77.5909 49.7484C77.6642 50.022 77.9454 50.1843 78.219 50.111L79.6471 49.7283C79.9206 49.655 80.083 49.3738 80.0097 49.1003L79.627 47.6722C79.5537 47.3986 79.2725 47.2363 78.999 47.3096Z" fill="#4A4A4A"/>
<path d="M81.865 46.5415L80.4369 46.9242C80.1634 46.9975 80.001 47.2787 80.0743 47.5522L80.457 48.9803C80.5303 49.2539 80.8115 49.4162 81.085 49.3429L82.5131 48.9603C82.7867 48.887 82.9491 48.6058 82.8757 48.3322L82.4931 46.9041C82.4198 46.6305 82.1386 46.4682 81.865 46.5415Z" fill="#4A4A4A"/>
<path d="M84.7316 45.7734L83.3035 46.1561C83.0299 46.2294 82.8676 46.5106 82.9409 46.7842L83.3235 48.2122C83.3969 48.4858 83.6781 48.6482 83.9516 48.5749L85.3797 48.1922C85.6533 48.1189 85.8156 47.8377 85.7423 47.5641L85.3597 46.1361C85.2864 45.8625 85.0052 45.7001 84.7316 45.7734Z" fill="#4A4A4A"/>
<path d="M87.5982 45.0054L86.1701 45.388C85.8965 45.4613 85.7342 45.7425 85.8075 46.0161L86.1901 47.4442C86.2634 47.7178 86.5446 47.8801 86.8182 47.8068L88.2463 47.4241C88.5199 47.3508 88.6822 47.0696 88.6089 46.7961L88.2262 45.368C88.1529 45.0944 87.8717 44.9321 87.5982 45.0054Z" fill="#4A4A4A"/>
<path d="M90.4648 44.2373L89.0367 44.62C88.7631 44.6933 88.6008 44.9745 88.6741 45.248L89.0567 46.6761C89.13 46.9497 89.4112 47.112 89.6848 47.0387L91.1129 46.6561C91.3865 46.5828 91.5488 46.3016 91.4755 46.028L91.0929 44.5999C91.0196 44.3263 90.7384 44.164 90.4648 44.2373Z" fill="#4A4A4A"/>
<path d="M93.3314 43.4695L91.9033 43.8521C91.6297 43.9254 91.4674 44.2066 91.5407 44.4802L91.9233 45.9083C91.9966 46.1819 92.2778 46.3442 92.5514 46.2709L93.9795 45.8883C94.253 45.815 94.4154 45.5338 94.3421 45.2602L93.9594 43.8321C93.8861 43.5585 93.6049 43.3962 93.3314 43.4695Z" fill="#4A4A4A"/>
<path fill-rule="evenodd" clip-rule="evenodd" d="M93.2444 43.1452L90.9208 43.7678C90.7894 43.803 90.6494 43.7846 90.5316 43.7166C90.4138 43.6486 90.3279 43.5366 90.2927 43.4052L89.91 41.9771C89.8748 41.8457 89.8933 41.7058 89.9613 41.588C90.0293 41.4702 90.1413 41.3842 90.2726 41.349L92.5963 40.7264C92.7277 40.6912 92.8677 40.7096 92.9855 40.7776C93.1032 40.8456 93.1892 40.9576 93.2244 41.089L93.607 42.5171C93.6423 42.6485 93.6238 42.7885 93.5558 42.9062C93.4878 43.024 93.3758 43.11 93.2444 43.1452Z" fill="#4A4A4A"/>
<path d="M88.0542 44.5359L89.4823 44.1532C89.7558 44.0799 89.9182 43.7987 89.8449 43.5252L89.4622 42.0971C89.3889 41.8235 89.1077 41.6612 88.8341 41.7345L87.4061 42.1171C87.1325 42.1904 86.9701 42.4716 87.0434 42.7452L87.4261 44.1733C87.4994 44.4468 87.7806 44.6092 88.0542 44.5359Z" fill="#4A4A4A"/>
<path d="M85.1878 45.3042L86.6159 44.9215C86.8895 44.8482 87.0518 44.567 86.9785 44.2935L86.5959 42.8654C86.5226 42.5918 86.2414 42.4295 85.9678 42.5028L84.5397 42.8854C84.2662 42.9587 84.1038 43.2399 84.1771 43.5135L84.5598 44.9416C84.6331 45.2152 84.9143 45.3775 85.1878 45.3042Z" fill="#4A4A4A"/>
<path d="M82.3213 46.0718L83.7493 45.6891C84.0229 45.6158 84.1853 45.3346 84.112 45.061L83.7293 43.633C83.656 43.3594 83.3748 43.197 83.1012 43.2703L81.6732 43.653C81.3996 43.7263 81.2372 44.0075 81.3105 44.2811L81.6932 45.7092C81.7665 45.9827 82.0477 46.1451 82.3213 46.0718Z" fill="#4A4A4A"/>
<path d="M79.4547 46.8401L80.8828 46.4574C81.1563 46.3841 81.3187 46.1029 81.2454 45.8294L80.8627 44.4013C80.7894 44.1277 80.5082 43.9654 80.2347 44.0387L78.8066 44.4213C78.533 44.4946 78.3706 44.7758 78.444 45.0494L78.8266 46.4775C78.8999 46.751 79.1811 46.9134 79.4547 46.8401Z" fill="#4A4A4A"/>
<path d="M76.5881 47.6084L78.0162 47.2257C78.2897 47.1524 78.4521 46.8712 78.3788 46.5977L77.9961 45.1696C77.9228 44.896 77.6416 44.7337 77.368 44.807L75.94 45.1896C75.6664 45.2629 75.504 45.5441 75.5773 45.8177L75.96 47.2458C76.0333 47.5194 76.3145 47.6817 76.5881 47.6084Z" fill="#4A4A4A"/>
<path d="M73.7215 48.3765L75.1496 47.9938C75.4232 47.9205 75.5855 47.6393 75.5122 47.3657L75.1295 45.9377C75.0562 45.6641 74.775 45.5017 74.5015 45.575L73.0734 45.9577C72.7998 46.031 72.6375 46.3122 72.7108 46.5858L73.0934 48.0138C73.1667 48.2874 73.4479 48.4498 73.7215 48.3765Z" fill="#4A4A4A"/>
<path d="M70.8549 49.1443L72.283 48.7616C72.5566 48.6883 72.7189 48.4071 72.6456 48.1336L72.263 46.7055C72.1897 46.4319 71.9085 46.2696 71.6349 46.3429L70.2068 46.7255C69.9332 46.7988 69.7709 47.08 69.8442 47.3536L70.2268 48.7817C70.3001 49.0552 70.5813 49.2176 70.8549 49.1443Z" fill="#4A4A4A"/>
<path d="M67.9883 49.9126L69.4164 49.5299C69.69 49.4566 69.8523 49.1754 69.779 48.9019L69.3964 47.4738C69.3231 47.2002 69.0419 47.0379 68.7683 47.1112L67.3402 47.4938C67.0666 47.5671 66.9043 47.8483 66.9776 48.1219L67.3602 49.55C67.4335 49.8236 67.7147 49.9859 67.9883 49.9126Z" fill="#4A4A4A"/>
<path d="M65.1217 50.6807L66.5498 50.298C66.8234 50.2247 66.9857 49.9435 66.9124 49.6699L66.5298 48.2419C66.4565 47.9683 66.1753 47.8059 65.9017 47.8792L64.4736 48.2619C64.2001 48.3352 64.0377 48.6164 64.111 48.89L64.4937 50.318C64.567 50.5916 64.8482 50.754 65.1217 50.6807Z" fill="#4A4A4A"/>
<path d="M62.2552 51.449L63.6832 51.0663C63.9568 50.993 64.1192 50.7118 64.0459 50.4382L63.6632 49.0102C63.5899 48.7366 63.3087 48.5742 63.0351 48.6475L61.607 49.0302C61.3335 49.1035 61.1711 49.3847 61.2444 49.6583L61.6271 51.0864C61.7004 51.3599 61.9816 51.5223 62.2552 51.449Z" fill="#4A4A4A"/>
<path d="M59.3885 52.2168L60.8165 51.8341C61.0901 51.7608 61.2525 51.4796 61.1792 51.2061L60.7965 49.778C60.7232 49.5044 60.442 49.3421 60.1684 49.4154L58.7403 49.798C58.4668 49.8713 58.3044 50.1525 58.3777 50.4261L58.7604 51.8542C58.8337 52.1278 59.1149 52.2901 59.3885 52.2168Z" fill="#4A4A4A"/>
<path d="M56.5219 52.9849L57.95 52.6022C58.2236 52.5289 58.3859 52.2477 58.3126 51.9741L57.93 50.5461C57.8567 50.2725 57.5755 50.1101 57.3019 50.1834L55.8738 50.5661C55.6002 50.6394 55.4379 50.9206 55.5112 51.1942L55.8938 52.6222C55.9671 52.8958 56.2483 53.0582 56.5219 52.9849Z" fill="#4A4A4A"/>
<path d="M53.6559 53.7527L55.084 53.37C55.3575 53.2967 55.5199 53.0155 55.4466 52.742L55.0639 51.3139C54.9906 51.0403 54.7094 50.878 54.4359 50.9513L53.0078 51.3339C52.7342 51.4072 52.5719 51.6884 52.6452 51.962L53.0278 53.3901C53.1011 53.6636 53.3823 53.826 53.6559 53.7527Z" fill="#4A4A4A"/>
<path d="M88.0542 44.5359L89.4823 44.1532C89.7558 44.0799 89.9182 43.7987 89.8449 43.5252L89.4622 42.0971C89.3889 41.8235 89.1077 41.6612 88.8341 41.7345L87.4061 42.1171C87.1325 42.1904 86.9701 42.4716 87.0434 42.7452L87.4261 44.1733C87.4994 44.4468 87.7806 44.6092 88.0542 44.5359Z" fill="#4A4A4A"/>
<path d="M85.1878 45.3042L86.6159 44.9215C86.8895 44.8482 87.0518 44.567 86.9785 44.2935L86.5959 42.8654C86.5226 42.5918 86.2414 42.4295 85.9678 42.5028L84.5397 42.8854C84.2662 42.9587 84.1038 43.2399 84.1771 43.5135L84.5598 44.9416C84.6331 45.2152 84.9143 45.3775 85.1878 45.3042Z" fill="#4A4A4A"/>
<path d="M82.3213 46.0718L83.7493 45.6891C84.0229 45.6158 84.1853 45.3346 84.112 45.061L83.7293 43.633C83.656 43.3594 83.3748 43.197 83.1012 43.2703L81.6732 43.653C81.3996 43.7263 81.2372 44.0075 81.3105 44.2811L81.6932 45.7092C81.7665 45.9827 82.0477 46.1451 82.3213 46.0718Z" fill="#4A4A4A"/>
<path d="M79.4547 46.8401L80.8828 46.4574C81.1563 46.3841 81.3187 46.1029 81.2454 45.8294L80.8627 44.4013C80.7894 44.1277 80.5082 43.9654 80.2347 44.0387L78.8066 44.4213C78.533 44.4946 78.3706 44.7758 78.444 45.0494L78.8266 46.4775C78.8999 46.751 79.1811 46.9134 79.4547 46.8401Z" fill="#4A4A4A"/>
<path d="M76.5881 47.6084L78.0162 47.2257C78.2897 47.1524 78.4521 46.8712 78.3788 46.5977L77.9961 45.1696C77.9228 44.896 77.6416 44.7337 77.368 44.807L75.94 45.1896C75.6664 45.2629 75.504 45.5441 75.5773 45.8177L75.96 47.2458C76.0333 47.5194 76.3145 47.6817 76.5881 47.6084Z" fill="#4A4A4A"/>
<path d="M73.7215 48.3765L75.1496 47.9938C75.4232 47.9205 75.5855 47.6393 75.5122 47.3657L75.1295 45.9377C75.0562 45.6641 74.775 45.5017 74.5015 45.575L73.0734 45.9577C72.7998 46.031 72.6375 46.3122 72.7108 46.5858L73.0934 48.0138C73.1667 48.2874 73.4479 48.4498 73.7215 48.3765Z" fill="#4A4A4A"/>
<path d="M70.8549 49.1443L72.283 48.7616C72.5566 48.6883 72.7189 48.4071 72.6456 48.1336L72.263 46.7055C72.1897 46.4319 71.9085 46.2696 71.6349 46.3429L70.2068 46.7255C69.9332 46.7988 69.7709 47.08 69.8442 47.3536L70.2268 48.7817C70.3001 49.0552 70.5813 49.2176 70.8549 49.1443Z" fill="#4A4A4A"/>
<path d="M67.9883 49.9126L69.4164 49.5299C69.69 49.4566 69.8523 49.1754 69.779 48.9019L69.3964 47.4738C69.3231 47.2002 69.0419 47.0379 68.7683 47.1112L67.3402 47.4938C67.0666 47.5671 66.9043 47.8483 66.9776 48.1219L67.3602 49.55C67.4335 49.8236 67.7147 49.9859 67.9883 49.9126Z" fill="#4A4A4A"/>
<path d="M65.1217 50.6807L66.5498 50.298C66.8234 50.2247 66.9857 49.9435 66.9124 49.6699L66.5298 48.2419C66.4565 47.9683 66.1753 47.8059 65.9017 47.8792L64.4736 48.2619C64.2001 48.3352 64.0377 48.6164 64.111 48.89L64.4937 50.318C64.567 50.5916 64.8482 50.754 65.1217 50.6807Z" fill="#4A4A4A"/>
<path d="M62.2552 51.449L63.6832 51.0663C63.9568 50.993 64.1192 50.7118 64.0459 50.4382L63.6632 49.0102C63.5899 48.7366 63.3087 48.5742 63.0351 48.6475L61.607 49.0302C61.3335 49.1035 61.1711 49.3847 61.2444 49.6583L61.6271 51.0864C61.7004 51.3599 61.9816 51.5223 62.2552 51.449Z" fill="#4A4A4A"/>
<path d="M59.3885 52.2168L60.8165 51.8341C61.0901 51.7608 61.2525 51.4796 61.1792 51.2061L60.7965 49.778C60.7232 49.5044 60.442 49.3421 60.1684 49.4154L58.7403 49.798C58.4668 49.8713 58.3044 50.1525 58.3777 50.4261L58.7604 51.8542C58.8337 52.1278 59.1149 52.2901 59.3885 52.2168Z" fill="#4A4A4A"/>
<path d="M56.5219 52.9849L57.95 52.6022C58.2236 52.5289 58.3859 52.2477 58.3126 51.9741L57.93 50.5461C57.8567 50.2725 57.5755 50.1101 57.3019 50.1834L55.8738 50.5661C55.6002 50.6394 55.4379 50.9206 55.5112 51.1942L55.8938 52.6222C55.9671 52.8958 56.2483 53.0582 56.5219 52.9849Z" fill="#4A4A4A"/>
<path d="M53.6559 53.7527L55.084 53.37C55.3575 53.2967 55.5199 53.0155 55.4466 52.742L55.0639 51.3139C54.9906 51.0403 54.7094 50.878 54.4359 50.9513L53.0078 51.3339C52.7342 51.4072 52.5719 51.6884 52.6452 51.962L53.0278 53.3901C53.1011 53.6636 53.3823 53.826 53.6559 53.7527Z" fill="#4A4A4A"/>
<path fill-rule="evenodd" clip-rule="evenodd" d="M54.5108 56.943L57.8197 56.0563C57.951 56.0211 58.091 56.0396 58.2088 56.1076C58.3266 56.1756 58.4125 56.2876 58.4477 56.419L58.8304 57.847C58.8656 57.9784 58.8472 58.1184 58.7792 58.2362C58.7112 58.354 58.5992 58.4399 58.4678 58.4751L55.1589 59.3617C55.0275 59.3969 54.8875 59.3785 54.7697 59.3105C54.6519 59.2425 54.566 59.1305 54.5308 58.9991L54.1483 57.5715C54.1131 57.4402 54.1315 57.3002 54.1995 57.1824C54.2675 57.0646 54.3795 56.9787 54.5109 56.9435L54.5108 56.943Z" fill="#4A4A4A"/>
<path d="M60.7761 55.2637L59.348 55.6463C59.0744 55.7196 58.9121 56.0008 58.9854 56.2744L59.368 57.7025C59.4413 57.9761 59.7225 58.1384 59.9961 58.0651L61.4242 57.6824C61.6977 57.6091 61.8601 57.3279 61.7868 57.0544L61.4041 55.6263C61.3308 55.3527 61.0496 55.1904 60.7761 55.2637Z" fill="#4A4A4A"/>
<path d="M63.6425 54.4954L62.2144 54.878C61.9409 54.9513 61.7785 55.2325 61.8518 55.5061L62.2345 56.9342C62.3078 57.2077 62.589 57.3701 62.8625 57.2968L64.2906 56.9141C64.5642 56.8408 64.7265 56.5596 64.6532 56.2861L64.2706 54.858C64.1973 54.5844 63.9161 54.4221 63.6425 54.4954Z" fill="#4A4A4A"/>
<path d="M66.5091 53.7275L65.081 54.1102C64.8075 54.1835 64.6451 54.4647 64.7184 54.7383L65.1011 56.1664C65.1744 56.4399 65.4556 56.6023 65.7291 56.529L67.1572 56.1463C67.4308 56.073 67.5932 55.7918 67.5199 55.5182L67.1372 54.0902C67.0639 53.8166 66.7827 53.6542 66.5091 53.7275Z" fill="#4A4A4A"/>
<path d="M69.3757 52.9592L67.9476 53.3419C67.6741 53.4152 67.5117 53.6964 67.585 53.97L67.9677 55.398C68.041 55.6716 68.3222 55.834 68.5958 55.7607L70.0238 55.378C70.2974 55.3047 70.4598 55.0235 70.3865 54.7499L70.0038 53.3218C69.9305 53.0483 69.6493 52.8859 69.3757 52.9592Z" fill="#4A4A4A"/>
<path d="M72.2423 52.1912L70.8142 52.5738C70.5407 52.6471 70.3783 52.9283 70.4516 53.2019L70.8343 54.63C70.9076 54.9035 71.1888 55.0659 71.4623 54.9926L72.8904 54.6099C73.164 54.5366 73.3263 54.2554 73.253 53.9819L72.8704 52.5538C72.7971 52.2802 72.5159 52.1179 72.2423 52.1912Z" fill="#4A4A4A"/>
<path d="M75.1089 51.4229L73.6808 51.8055C73.4072 51.8788 73.2449 52.16 73.3182 52.4336L73.7008 53.8617C73.7741 54.1352 74.0553 54.2976 74.3289 54.2243L75.757 53.8416C76.0306 53.7683 76.1929 53.4871 76.1196 53.2136L75.737 51.7855C75.6637 51.5119 75.3825 51.3495 75.1089 51.4229Z" fill="#4A4A4A"/>
<path d="M77.9755 50.6553L76.5474 51.0379C76.2738 51.1112 76.1115 51.3924 76.1848 51.666L76.5674 53.0941C76.6407 53.3677 76.9219 53.53 77.1955 53.4567L78.6236 53.074C78.8971 53.0007 79.0595 52.7195 78.9862 52.446L78.6035 51.0179C78.5302 50.7443 78.249 50.582 77.9755 50.6553Z" fill="#4A4A4A"/>
<path d="M80.8415 49.887L79.4134 50.2696C79.1399 50.3429 78.9775 50.6241 79.0508 50.8977L79.4335 52.3258C79.5068 52.5993 79.788 52.7617 80.0615 52.6884L81.4896 52.3057C81.7632 52.2324 81.9256 51.9512 81.8522 51.6777L81.4696 50.2496C81.3963 49.976 81.1151 49.8137 80.8415 49.887Z" fill="#4A4A4A"/>
<path d="M83.7081 49.1187L82.28 49.5013C82.0065 49.5746 81.8441 49.8558 81.9174 50.1294L82.3001 51.5575C82.3734 51.831 82.6546 51.9934 82.9282 51.9201L84.3562 51.5374C84.6298 51.4641 84.7922 51.1829 84.7189 50.9094L84.3362 49.4813C84.2629 49.2077 83.9817 49.0453 83.7081 49.1187Z" fill="#4A4A4A"/>
<path d="M86.5745 48.3511L85.1464 48.7337C84.8728 48.807 84.7105 49.0882 84.7838 49.3618L85.1664 50.7899C85.2397 51.0635 85.5209 51.2258 85.7945 51.1525L87.2226 50.7699C87.4961 50.6965 87.6585 50.4153 87.5852 50.1418L87.2025 48.7137C87.1292 48.4401 86.848 48.2778 86.5745 48.3511Z" fill="#4A4A4A"/>
<path d="M89.4411 47.5828L88.013 47.9654C87.7394 48.0387 87.5771 48.3199 87.6504 48.5935L88.033 50.0216C88.1063 50.2951 88.3875 50.4575 88.6611 50.3842L90.0892 50.0015C90.3628 49.9282 90.5251 49.647 90.4518 49.3735L90.0691 47.9454C89.9958 47.6718 89.7146 47.5095 89.4411 47.5828Z" fill="#4A4A4A"/>
<path fill-rule="evenodd" clip-rule="evenodd" d="M90.9697 47.1735L94.0993 46.335C94.2307 46.2998 94.3707 46.3182 94.4885 46.3862C94.6062 46.4542 94.6922 46.5662 94.7274 46.6976L95.11 48.1257C95.1452 48.257 95.1268 48.397 95.0588 48.5148C94.9908 48.6326 94.8788 48.7185 94.7474 48.7537L91.6173 49.5924C91.486 49.6276 91.346 49.6092 91.2282 49.5412C91.1104 49.4732 91.0245 49.3612 90.9893 49.2298L90.6067 47.8022C90.5715 47.6709 90.59 47.5309 90.658 47.4131C90.726 47.2953 90.838 47.2094 90.9694 47.1742L90.9697 47.1735Z" fill="#4A4A4A"/>
<path d="M57.5231 62.4731L56.095 62.8558C55.8214 62.9291 55.6591 63.2103 55.7324 63.4839L56.1151 64.912C56.1884 65.1855 56.4696 65.3479 56.7431 65.2746L58.1712 64.8919C58.4448 64.8186 58.6071 64.5374 58.5338 64.2638L58.1512 62.8358C58.0779 62.5622 57.7967 62.3998 57.5231 62.4731Z" fill="#4A4A4A"/>
<path d="M60.3897 61.7048L58.9616 62.0875C58.688 62.1608 58.5257 62.442 58.599 62.7156L58.9816 64.1436C59.0549 64.4172 59.3361 64.5796 59.6097 64.5063L61.0378 64.1236C61.3114 64.0503 61.4737 63.7691 61.4004 63.4955L61.0178 62.0675C60.9444 61.7939 60.6633 61.6315 60.3897 61.7048Z" fill="#4A4A4A"/>
<path d="M63.2563 60.937L61.8282 61.3197C61.5546 61.393 61.3922 61.6742 61.4656 61.9477L61.8482 63.3758C61.9215 63.6494 62.2027 63.8117 62.4763 63.7384L63.9044 63.3558C64.1779 63.2825 64.3403 63.0013 64.267 62.7277L63.8843 61.2996C63.811 61.0261 63.5298 60.8637 63.2563 60.937Z" fill="#4A4A4A"/>
<path d="M66.1228 60.1687L64.6947 60.5514C64.4211 60.6247 64.2588 60.9059 64.3321 61.1794L64.7148 62.6075C64.7881 62.8811 65.0693 63.0434 65.3428 62.9701L66.7709 62.5875C67.0445 62.5142 67.2068 62.233 67.1335 61.9594L66.7509 60.5313C66.6776 60.2577 66.3964 60.0954 66.1228 60.1687Z" fill="#4A4A4A"/>
<path fill-rule="evenodd" clip-rule="evenodd" d="M67.5608 59.7833L81.3513 56.0881C81.4827 56.0529 81.6226 56.0714 81.7404 56.1394C81.8582 56.2074 81.9442 56.3194 81.9794 56.4508L82.3621 57.8793C82.3973 58.0107 82.3789 58.1507 82.3109 58.2685C82.2429 58.3863 82.1309 58.4722 81.9995 58.5074L68.2091 62.2026C68.0777 62.2378 67.9377 62.2193 67.8199 62.1513C67.7022 62.0833 67.6162 61.9713 67.581 61.8399L67.1982 60.4114C67.163 60.28 67.1814 60.14 67.2494 60.0222C67.3175 59.9044 67.4295 59.8185 67.5608 59.7833ZM82.7893 55.7028L84.576 55.2241C84.7074 55.1889 84.8473 55.2073 84.9651 55.2753C85.0829 55.3433 85.1689 55.4553 85.2041 55.5867L85.5869 57.0153C85.6221 57.1467 85.6036 57.2866 85.5356 57.4044C85.4676 57.5222 85.3556 57.6082 85.2242 57.6434L83.4375 58.1221C83.3061 58.1573 83.1662 58.1389 83.0484 58.0709C82.9306 58.0029 82.8446 57.8909 82.8094 57.7595L82.4267 56.3309C82.3915 56.1995 82.4099 56.0596 82.4779 55.9418C82.5459 55.824 82.6579 55.738 82.7893 55.7028Z" fill="#4A4A4A"/>
<path d="M87.4425 54.4561L86.0144 54.8387C85.7408 54.912 85.5785 55.1932 85.6518 55.4668L86.0345 56.8949C86.1078 57.1684 86.389 57.3308 86.6625 57.2575L88.0906 56.8748C88.3642 56.8015 88.5265 56.5203 88.4532 56.2468L88.0706 54.8187C87.9973 54.5451 87.7161 54.3827 87.4425 54.4561Z" fill="#4A4A4A"/>
<path d="M90.3091 53.688L88.881 54.0706C88.6074 54.1439 88.4451 54.4251 88.5184 54.6987L88.901 56.1268C88.9743 56.4004 89.2555 56.5627 89.5291 56.4894L90.9572 56.1068C91.2308 56.0335 91.3931 55.7523 91.3198 55.4787L90.9372 54.0506C90.8639 53.777 90.5827 53.6147 90.3091 53.688Z" fill="#4A4A4A"/>
<path d="M95.6836 52.2483L94.2555 52.6309C93.982 52.7042 93.8196 52.9854 93.8929 53.259L94.2756 54.6871C94.3489 54.9607 94.6301 55.123 94.9036 55.0497L96.3317 54.6671C96.6053 54.5938 96.7677 54.3126 96.6943 54.039L96.3117 52.6109C96.2384 52.3373 95.9572 52.175 95.6836 52.2483Z" fill="#4A4A4A"/>
<path d="M91.3485 54.5138L91.2051 53.9789C91.1699 53.8475 91.1884 53.7075 91.2564 53.5897C91.3244 53.4719 91.4364 53.386 91.5678 53.3508L92.9959 52.9681C93.1272 52.9329 93.2672 52.9514 93.385 53.0194C93.5028 53.0874 93.5887 53.1994 93.6239 53.3307L93.7673 53.8657L91.3485 54.5138Z" fill="#4A4A4A"/>
<path d="M93.8637 54.2237L94.0071 54.7587C94.0423 54.8901 94.0238 55.03 93.9558 55.1478C93.8878 55.2656 93.7758 55.3516 93.6445 55.3868L92.2164 55.7694C92.085 55.8046 91.945 55.7862 91.8272 55.7182C91.7094 55.6502 91.6235 55.5382 91.5883 55.4068L91.4449 54.8718L93.8637 54.2237Z" fill="#4A4A4A"/>
<path d="M92.0953 39.3838L52.8594 49.897C52.5625 49.9765 52.3864 50.2816 52.4659 50.5785C52.5454 50.8753 52.8505 51.0514 53.1474 50.9719L92.3833 40.4587C92.6801 40.3791 92.8562 40.074 92.7767 39.7772C92.6972 39.4804 92.3921 39.3042 92.0953 39.3838Z" fill="#4A4A4A"/>
<path opacity="0.136" d="M55.2579 49.4469L53.7139 49.8606C53.5161 49.9136 53.3987 50.1169 53.4517 50.3147L53.4519 50.3152C53.5049 50.513 53.7082 50.6303 53.906 50.5773L55.45 50.1636C55.6478 50.1106 55.7651 49.9073 55.7121 49.7095L55.712 49.709C55.659 49.5112 55.4557 49.3939 55.2579 49.4469Z" fill="#D8D8D8"/>
<path opacity="0.136" d="M58.3509 48.618L56.8069 49.0317C56.6091 49.0847 56.4917 49.288 56.5447 49.4858L56.5448 49.4863C56.5978 49.6841 56.8011 49.8015 56.9989 49.7485L58.5429 49.3348C58.7407 49.2818 58.8581 49.0785 58.8051 48.8807L58.805 48.8802C58.752 48.6824 58.5487 48.565 58.3509 48.618Z" fill="#D8D8D8"/>
<path opacity="0.136" d="M60.7305 47.9803L59.1865 48.394C58.9887 48.447 58.8713 48.6503 58.9243 48.8481L58.9245 48.8486C58.9775 49.0464 59.1808 49.1638 59.3786 49.1108L60.9226 48.6971C61.1204 48.6441 61.2377 48.4408 61.1847 48.243L61.1846 48.2425C61.1316 48.0447 60.9283 47.9273 60.7305 47.9803Z" fill="#D8D8D8"/>
<path opacity="0.136" d="M63.1097 47.3429L61.5657 47.7566C61.3679 47.8096 61.2505 48.0129 61.3035 48.2107L61.3036 48.2112C61.3566 48.409 61.5599 48.5263 61.7577 48.4733L63.3017 48.0596C63.4995 48.0066 63.6169 47.8033 63.5639 47.6055L63.5637 47.605C63.5107 47.4072 63.3074 47.2899 63.1097 47.3429Z" fill="#D8D8D8"/>
<path opacity="0.136" d="M65.4893 46.7054L63.9453 47.1191C63.7475 47.1721 63.6301 47.3754 63.6831 47.5732L63.6833 47.5737C63.7363 47.7715 63.9396 47.8889 64.1374 47.8359L65.6813 47.4222C65.8791 47.3692 65.9965 47.1659 65.9435 46.9681L65.9434 46.9676C65.8904 46.7698 65.6871 46.6524 65.4893 46.7054Z" fill="#D8D8D8"/>
<path opacity="0.136" d="M68.4633 45.9085L66.9193 46.3223C66.7215 46.3752 66.6042 46.5786 66.6571 46.7763L66.6573 46.7768C66.7103 46.9746 66.9136 47.092 67.1114 47.039L68.6554 46.6253C68.8532 46.5723 68.9705 46.369 68.9175 46.1712L68.9174 46.1707C68.8644 45.9729 68.6611 45.8555 68.4633 45.9085Z" fill="#D8D8D8"/>
<path opacity="0.136" d="M70.8424 45.2711L69.2984 45.6848C69.1006 45.7378 68.9832 45.9411 69.0362 46.1389L69.0363 46.1394C69.0893 46.3372 69.2926 46.4546 69.4904 46.4016L71.0344 45.9879C71.2322 45.9349 71.3496 45.7315 71.2966 45.5338L71.2965 45.5333C71.2435 45.3355 71.0402 45.2181 70.8424 45.2711Z" fill="#D8D8D8"/>
<path opacity="0.136" d="M73.2222 44.6331L71.6782 45.0469C71.4804 45.0999 71.363 45.3032 71.416 45.501L71.4162 45.5015C71.4692 45.6992 71.6725 45.8166 71.8703 45.7636L73.4143 45.3499C73.612 45.2969 73.7294 45.0936 73.6764 44.8958L73.6763 44.8953C73.6233 44.6975 73.42 44.5801 73.2222 44.6331Z" fill="#D8D8D8"/>
<path opacity="0.136" d="M75.6013 43.9955L74.0573 44.4092C73.8595 44.4622 73.7421 44.6655 73.7951 44.8633L73.7952 44.8638C73.8482 45.0616 74.0515 45.1789 74.2493 45.1259L75.7933 44.7122C75.9911 44.6592 76.1085 44.4559 76.0555 44.2581L76.0554 44.2576C76.0024 44.0598 75.7991 43.9425 75.6013 43.9955Z" fill="#D8D8D8"/>
<path opacity="0.136" d="M78.5758 43.1988L77.0318 43.6125C76.834 43.6655 76.7167 43.8688 76.7697 44.0666L76.7698 44.0671C76.8228 44.2649 77.0261 44.3823 77.2239 44.3293L78.7679 43.9156C78.9657 43.8626 79.0831 43.6593 79.0301 43.4615L79.0299 43.461C78.9769 43.2632 78.7736 43.1458 78.5758 43.1988Z" fill="#D8D8D8"/>
<path opacity="0.136" d="M80.955 42.5614L79.411 42.9751C79.2132 43.0281 79.0958 43.2314 79.1488 43.4292L79.149 43.4297C79.2019 43.6275 79.4053 43.7448 79.603 43.6918L81.147 43.2781C81.3448 43.2251 81.4622 43.0218 81.4092 42.824L81.4091 42.8235C81.3561 42.6258 81.1528 42.5084 80.955 42.5614Z" fill="#D8D8D8"/>
<path opacity="0.136" d="M83.3347 41.9237L81.7907 42.3374C81.5929 42.3904 81.4755 42.5937 81.5285 42.7915L81.5286 42.792C81.5816 42.9898 81.7849 43.1072 81.9827 43.0542L83.5267 42.6404C83.7245 42.5874 83.8419 42.3841 83.7889 42.1863L83.7888 42.1858C83.7358 41.9881 83.5324 41.8707 83.3347 41.9237Z" fill="#D8D8D8"/>
<path opacity="0.136" d="M86.3086 41.127L84.7646 41.5408C84.5668 41.5938 84.4495 41.7971 84.5025 41.9949L84.5026 41.9953C84.5556 42.1931 84.7589 42.3105 84.9567 42.2575L86.5007 41.8438C86.6985 41.7908 86.8159 41.5875 86.7629 41.3897L86.7627 41.3892C86.7097 41.1914 86.5064 41.074 86.3086 41.127Z" fill="#D8D8D8"/>
<path opacity="0.136" d="M88.6879 40.4893L87.1439 40.9031C86.9461 40.9561 86.8288 41.1594 86.8818 41.3572L86.8819 41.3577C86.9349 41.5554 87.1382 41.6728 87.336 41.6198L88.88 41.2061C89.0778 41.1531 89.1952 40.9498 89.1422 40.752L89.142 40.7515C89.089 40.5537 88.8857 40.4364 88.6879 40.4893Z" fill="#D8D8D8"/>
<path opacity="0.136" d="M91.0675 39.8514L89.5235 40.2651C89.3257 40.3181 89.2083 40.5214 89.2613 40.7192L89.2614 40.7197C89.3144 40.9175 89.5177 41.0349 89.7155 40.9819L91.2595 40.5682C91.4573 40.5152 91.5747 40.3119 91.5217 40.1141L91.5216 40.1136C91.4686 39.9158 91.2653 39.7984 91.0675 39.8514Z" fill="#D8D8D8"/>
<path fill-rule="evenodd" clip-rule="evenodd" d="M71.7949 79.1905C71.6826 79.1905 71.5754 79.2095 71.4672 79.2233C71.4477 79.1464 71.4292 79.069 71.4077 78.992C71.9542 78.7635 72.4047 78.3529 72.6827 77.8299C72.9607 77.3069 73.0491 76.7037 72.9328 76.1229C72.8165 75.5421 72.5027 75.0195 72.0447 74.6439C71.5867 74.2682 71.0128 74.0627 70.4205 74.0623C69.8605 74.0643 69.3169 74.251 68.8738 74.5936C68.8171 74.5356 68.7598 74.4782 68.702 74.4213C69.0371 73.9807 69.2191 73.4429 69.2205 72.8895C69.2202 72.2987 69.0158 71.7262 68.642 71.2687C68.2683 70.8112 67.748 70.4968 67.1691 70.3787C66.5903 70.2605 65.9884 70.3459 65.4653 70.6203C64.9421 70.8948 64.5298 71.3415 64.2979 71.8849C64.222 71.8633 64.1456 71.8454 64.0697 71.8259C64.0836 71.7177 64.1026 71.6105 64.1026 71.4982C64.1026 70.8181 63.8324 70.166 63.3516 69.6851C62.8707 69.2042 62.2185 68.9341 61.5385 68.9341C60.8584 68.9341 60.2062 69.2042 59.7254 69.6851C59.2445 70.166 58.9744 70.8181 58.9744 71.4982C58.9744 71.6105 58.9933 71.7177 59.0072 71.8259C58.9313 71.8454 58.8549 71.8633 58.779 71.8849C58.548 71.3404 58.1358 70.8926 57.6124 70.6174C57.0889 70.3421 56.4864 70.2564 55.907 70.3746C55.3275 70.4929 54.8068 70.8079 54.433 71.2662C54.0593 71.7246 53.8556 72.2981 53.8564 72.8895C53.8564 73.4664 54.0533 73.9925 54.3749 74.4213C52.4687 76.2838 51.282 78.8792 51.282 81.7546C51.282 87.4192 55.8738 92.011 61.5385 92.011C66.3277 92.011 70.3385 88.7238 71.4672 84.2859C71.5754 84.2997 71.6826 84.3187 71.7949 84.3187C72.4749 84.3187 73.1271 84.0486 73.608 83.5677C74.0888 83.0868 74.359 82.4346 74.359 81.7546C74.359 81.0746 74.0888 80.4224 73.608 79.9415C73.1271 79.4606 72.4749 79.1905 71.7949 79.1905Z" fill="#44D860"/>
<path fill-rule="evenodd" clip-rule="evenodd" d="M41.0256 61.2418H61.5385V50.9854H41.0256V61.2418Z" fill="#3ECC5F"/>
<path fill-rule="evenodd" clip-rule="evenodd" d="M66.6667 57.3959C67.0067 57.3959 67.3328 57.2609 67.5732 57.0204C67.8136 56.78 67.9487 56.4539 67.9487 56.1139C67.9487 55.7739 67.8136 55.4478 67.5732 55.2073C67.3328 54.9669 67.0067 54.8318 66.6667 54.8318C66.6108 54.8318 66.5569 54.8416 66.5031 54.8482C66.4928 54.8098 66.4841 54.7713 66.4733 54.7329C66.7462 54.6183 66.9711 54.4128 67.1098 54.1514C67.2485 53.8899 67.2925 53.5886 67.2344 53.2984C67.1763 53.0081 67.0196 52.747 66.7908 52.5591C66.5621 52.3713 66.2755 52.2683 65.9795 52.2677C65.6877 52.2677 65.4215 52.3688 65.2061 52.5334C65.1779 52.5041 65.1492 52.4754 65.12 52.4472C65.281 52.2334 65.3795 51.9698 65.3795 51.6811C65.3794 51.3856 65.2772 51.0992 65.0903 50.8704C64.9034 50.6416 64.6431 50.4843 64.3536 50.4253C64.0641 50.3662 63.7631 50.409 63.5015 50.5463C63.2399 50.6837 63.0337 50.9072 62.9179 51.179C62.4691 51.052 62.0049 50.987 61.5385 50.9857C58.7067 50.9857 56.4102 53.2821 56.4102 56.1139C56.4102 58.9457 58.7067 61.2421 61.5385 61.2421C62.0174 61.2421 62.4785 61.1713 62.9179 61.0488C63.0337 61.3206 63.2399 61.5441 63.5015 61.6814C63.7631 61.8188 64.0641 61.8615 64.3536 61.8025C64.6431 61.7434 64.9034 61.5862 65.0903 61.3574C65.2772 61.1285 65.3794 60.8422 65.3795 60.5467C65.3795 60.258 65.281 59.9944 65.12 59.7805C65.1492 59.7523 65.1779 59.7236 65.2061 59.6944C65.4215 59.859 65.6877 59.96 65.9795 59.96C66.2758 59.96 66.5629 59.8574 66.7921 59.6695C67.0212 59.4817 67.1783 59.2203 67.2365 58.9298C67.2947 58.6393 67.2504 58.3376 67.1113 58.076C66.9722 57.8144 66.7467 57.6091 66.4733 57.4949C66.4841 57.457 66.4928 57.418 66.5031 57.3795C66.5569 57.3862 66.6108 57.3959 66.6667 57.3959Z" fill="#44D860"/>
<path fill-rule="evenodd" clip-rule="evenodd" d="M71.7949 19.5753C71.7128 19.5753 71.6256 19.5651 71.5436 19.5497C71.4611 19.5336 71.3804 19.5096 71.3026 19.4779C71.2256 19.4471 71.1538 19.4061 71.0815 19.3599C71.0149 19.3138 70.9487 19.2574 70.8867 19.2009C70.8308 19.1394 70.7744 19.0779 70.7282 19.0061C70.682 18.9343 70.641 18.8625 70.6097 18.7856C70.5468 18.629 70.5139 18.462 70.5128 18.2933C70.5128 18.2112 70.5231 18.124 70.5385 18.042C70.5538 17.9599 70.5795 17.883 70.6097 17.8009C70.641 17.724 70.682 17.6522 70.7282 17.5804C70.7744 17.5138 70.8308 17.4471 70.8867 17.3856C70.9487 17.3292 71.0149 17.2727 71.0815 17.2266C71.1538 17.1804 71.2256 17.1394 71.3026 17.1086C71.379 17.0779 71.4615 17.0522 71.5436 17.0368C71.7077 17.0009 71.8769 17.0009 72.0462 17.0368C72.1277 17.0522 72.2103 17.0779 72.2872 17.1086C72.3636 17.1394 72.4359 17.1804 72.5077 17.2266C72.5744 17.2727 72.6405 17.3292 72.7026 17.3856C72.759 17.4471 72.8154 17.5138 72.8615 17.5804C72.9077 17.6522 72.9487 17.724 72.9795 17.8009C73.0103 17.883 73.0359 17.9599 73.0513 18.042C73.0661 18.124 73.0769 18.2112 73.0769 18.2933C73.0769 18.6317 72.9379 18.9651 72.7026 19.2009C72.6405 19.2574 72.5744 19.3138 72.5077 19.3599C72.4359 19.4061 72.3636 19.4471 72.2872 19.4779C72.1309 19.5416 71.9637 19.5747 71.7949 19.5753ZM82.0513 18.9343C81.7128 18.9343 81.3846 18.7958 81.1431 18.5599C81.0861 18.4984 81.0332 18.4333 80.9846 18.3651C80.9385 18.2933 80.8974 18.2215 80.8661 18.1445C80.8032 17.988 80.7703 17.821 80.7692 17.6522C80.7692 17.3138 80.9077 16.9856 81.1431 16.7445C81.2051 16.6881 81.2713 16.6317 81.3379 16.5856C81.4102 16.5394 81.482 16.4984 81.559 16.4676C81.6354 16.4368 81.7179 16.4112 81.8 16.3958C81.9641 16.3599 82.1385 16.3599 82.3026 16.3958C82.3841 16.4112 82.4667 16.4368 82.5436 16.4676C82.62 16.4984 82.6923 16.5394 82.7641 16.5856C82.8308 16.6317 82.8969 16.6881 82.959 16.7445C83.1944 16.9856 83.3333 17.3138 83.3333 17.6522C83.3333 17.7343 83.3226 17.8215 83.3077 17.9035C83.2923 17.9856 83.2667 18.0676 83.2359 18.1445C83.2 18.2215 83.1641 18.2933 83.1179 18.3651C83.0718 18.4317 83.0154 18.4984 82.959 18.5599C82.8969 18.6163 82.8308 18.6727 82.7641 18.7189C82.6923 18.7651 82.62 18.8061 82.5436 18.8368C82.3873 18.9006 82.2201 18.9337 82.0513 18.9343Z" fill="black"/>
</svg>
