<svg width="100" height="100" viewBox="0 0 100 100" fill="none" xmlns="http://www.w3.org/2000/svg">
<path d="M36.5472 21.4941C23.4791 19.1141 13.1463 21.6058 9.02834 28.7376C5.9554 34.0596 6.83263 41.1168 11.1573 48.6603C11.2448 48.8131 11.3616 48.9471 11.5009 49.0548C11.6403 49.1625 11.7994 49.2416 11.9694 49.2877C12.1393 49.3338 12.3167 49.346 12.4913 49.3235C12.666 49.301 12.8345 49.2443 12.9872 49.1567C13.2956 48.9797 13.5211 48.6875 13.6142 48.3444C13.7073 48.0012 13.6603 47.6351 13.4836 47.3266C9.58751 40.5322 8.82821 34.4417 11.3496 30.0776C14.77 24.1529 23.9854 21.9304 36.066 24.1311C36.2844 24.1743 36.5101 24.1624 36.7227 24.0965C36.9354 24.0306 37.1283 23.9129 37.284 23.7538C37.4398 23.5948 37.5534 23.3994 37.6148 23.1855C37.6762 22.9715 37.6834 22.7456 37.6356 22.5282C37.5779 22.2668 37.4433 22.0286 37.2491 21.8444C37.0549 21.6601 36.81 21.5382 36.5459 21.4944L36.5472 21.4941ZM17.953 57.8284C23.2366 63.6355 30.1016 69.0819 37.9308 73.6026C56.8867 84.547 77.0673 87.4723 87.0126 80.6906C87.299 80.4875 87.4943 80.18 87.5564 79.8344C87.6186 79.4888 87.5426 79.1326 87.3448 78.8424C87.147 78.5523 86.8433 78.3513 86.4989 78.2828C86.1545 78.2142 85.7969 78.2836 85.5031 78.476C76.6016 84.5457 57.4317 81.7666 39.2711 71.2813C31.6752 66.8954 25.0281 61.622 19.9357 56.0254C19.7586 55.8245 19.5255 55.6811 19.2663 55.6139C19.007 55.5466 18.7336 55.5585 18.4812 55.6479C18.2714 55.7225 18.0834 55.8481 17.9344 56.0136C17.7853 56.179 17.6798 56.3789 17.6273 56.5953C17.5749 56.8117 17.5772 57.0378 17.6341 57.2531C17.691 57.4684 17.8006 57.6661 17.953 57.8284Z" fill="#2DD0ED"/>
<path d="M83.8411 56.1981C92.3976 46.0899 95.3857 35.9227 91.2766 28.8051C88.2528 23.5679 81.8597 20.8028 73.3647 20.6925C73.0094 20.6879 72.6667 20.8246 72.4121 21.0725C72.1574 21.3204 72.0116 21.6593 72.0066 22.0146C72.0027 22.2798 72.0777 22.5401 72.2221 22.7625C72.3664 22.9849 72.5736 23.1594 72.8174 23.2638C72.9791 23.3334 73.153 23.3704 73.329 23.3728C80.9696 23.4715 86.4778 25.8542 88.9556 30.1453C92.3681 36.0574 89.7044 45.1242 81.7956 54.467C81.6779 54.6007 81.588 54.7565 81.5312 54.9254C81.4744 55.0942 81.4519 55.2728 81.465 55.4504C81.4781 55.6281 81.5265 55.8014 81.6074 55.9601C81.6883 56.1189 81.8001 56.2598 81.9362 56.3748C82.0722 56.4897 82.2298 56.5763 82.3997 56.6296C82.5696 56.6829 82.7484 56.7019 82.9257 56.6854C83.103 56.669 83.2752 56.6174 83.4324 56.5338C83.5895 56.4501 83.7285 56.336 83.8411 56.1981ZM61.8509 21.9403C54.1139 23.5984 45.8795 26.8392 37.9718 31.4047C18.4019 42.7031 5.63628 59.3619 7.40992 71.4425C7.43198 71.6196 7.48919 71.7905 7.5782 71.9451C7.6672 72.0998 7.78621 72.2352 7.92823 72.3433C8.07025 72.4513 8.23243 72.5299 8.40524 72.5745C8.57806 72.619 8.75803 72.6286 8.93459 72.6026C9.11116 72.5766 9.28076 72.5157 9.43344 72.4233C9.58612 72.3309 9.7188 72.2089 9.82371 72.0646C9.92862 71.9202 10.0036 71.7563 10.0443 71.5825C10.0851 71.4088 10.0906 71.2287 10.0608 71.0527C8.48729 60.3276 20.5871 44.5356 39.3108 33.726C46.9823 29.2965 54.9565 26.1594 62.4127 24.5602C62.7497 24.4755 63.0406 24.2633 63.2241 23.9684C63.4077 23.6734 63.4696 23.3187 63.3967 22.979C63.3239 22.6393 63.122 22.3412 62.8337 22.1474C62.5453 21.9536 62.193 21.8794 61.8509 21.9403Z" fill="#2DD0ED"/>
<path d="M30.1476 79.8172C34.6233 92.3084 41.9411 100 50.1719 100C56.1736 100 61.7267 95.9095 66.0574 88.7059C66.1545 88.555 66.2203 88.3862 66.251 88.2094C66.2817 88.0326 66.2766 87.8514 66.236 87.6766C66.1853 87.4576 66.0802 87.2549 65.9306 87.0872C65.7809 86.9195 65.5914 86.7921 65.3796 86.7168C65.1678 86.6416 64.9405 86.6208 64.7185 86.6565C64.4966 86.6922 64.2872 86.7831 64.1096 86.921C63.9678 87.031 63.8496 87.1681 63.7619 87.3247C59.8695 93.7986 55.0886 97.3215 50.1719 97.3215C43.3363 97.3215 36.8075 90.4604 32.6716 78.9132C32.6148 78.7441 32.525 78.5879 32.4072 78.4539C32.2895 78.3199 32.1462 78.2107 31.9858 78.1326C31.8253 78.0548 31.651 78.0097 31.4729 78C31.2948 77.9906 31.1166 78.0168 30.9488 78.0771C30.7809 78.1373 30.6268 78.2305 30.4953 78.351C30.3639 78.4715 30.2578 78.6171 30.1833 78.7791C30.1087 78.9411 30.0672 79.1163 30.0612 79.2946C30.0554 79.4729 30.0852 79.6506 30.1489 79.8172H30.1476ZM71.014 77.3728C73.33 69.9733 74.5729 61.4347 74.5729 52.5371C74.5729 30.3378 66.8038 11.1999 55.7363 6.28553C55.4128 6.14946 55.0489 6.14567 54.7227 6.27496C54.3965 6.40426 54.134 6.65632 53.9916 6.97703C53.8492 7.29774 53.8382 7.6615 53.9611 7.99019C54.084 8.31888 54.3308 8.58628 54.6487 8.73496C64.5196 13.1185 71.8939 31.2804 71.8939 52.5371C71.8939 61.1678 70.6884 69.4372 68.4569 76.5728C68.3992 76.742 68.3759 76.921 68.3886 77.0993C68.4012 77.2777 68.4494 77.4516 68.5305 77.611C68.6524 77.8511 68.8438 78.0489 69.0798 78.1786C69.3158 78.3083 69.5854 78.364 69.8534 78.3383C70.1215 78.3125 70.3756 78.2067 70.5826 78.0345C70.7896 77.8623 70.94 77.6317 71.014 77.3728ZM96.2513 76.0609C96.2567 75.2152 96.0948 74.3768 95.7749 73.594C95.455 72.8111 94.9834 72.0992 94.3874 71.4994C93.7913 70.8995 93.0824 70.4234 92.3016 70.0985C91.5208 69.7736 90.6835 69.6064 89.8378 69.6064C88.9921 69.6064 88.1548 69.7737 87.374 70.0986C86.5932 70.4235 85.8844 70.8996 85.2883 71.4995C84.6922 72.0995 84.2207 72.8113 83.9008 73.5942C83.581 74.3771 83.4191 75.2155 83.4245 76.0611C83.4354 77.755 84.1159 79.3757 85.3175 80.5696C86.5191 81.7635 88.1442 82.4335 89.838 82.4335C91.5319 82.4335 93.157 81.7633 94.3585 80.5694C95.5601 79.3755 96.2405 77.7547 96.2513 76.0609ZM93.571 76.0609C93.5708 77.0509 93.1774 78.0004 92.4773 78.7004C91.7773 79.4005 90.8278 79.7939 89.8378 79.7941C89.0995 79.7941 88.3778 79.5751 87.764 79.1649C87.1501 78.7547 86.6717 78.1717 86.3892 77.4896C86.1067 76.8074 86.0328 76.0569 86.1768 75.3328C86.3209 74.6087 86.6764 73.9436 87.1984 73.4215C87.7205 72.8995 88.3856 72.5439 89.1097 72.3999C89.8338 72.2559 90.5844 72.3298 91.2665 72.6123C91.9486 72.8948 92.5316 73.3732 92.9418 73.987C93.352 74.6009 93.571 75.3226 93.571 76.0609ZM10.4135 82.4744C11.2558 82.4745 12.0898 82.3087 12.868 81.9864C13.6462 81.6641 14.3532 81.1917 14.9488 80.5962C15.5444 80.0006 16.0168 79.2935 16.3391 78.5153C16.6613 77.7372 16.8271 76.9031 16.827 76.0609C16.8271 75.2186 16.6613 74.3846 16.339 73.6064C16.0167 72.8282 15.5442 72.1211 14.9486 71.5256C14.353 70.93 13.646 70.4576 12.8678 70.1353C12.0896 69.8131 11.2555 69.6472 10.4133 69.6473C9.57102 69.6473 8.73703 69.8132 7.95891 70.1355C7.18078 70.4578 6.47377 70.9302 5.87823 71.5258C5.28269 72.1213 4.8103 72.8284 4.48803 73.6065C4.16577 74.3846 3.99993 75.2186 4 76.0609C3.99993 76.9031 4.16577 77.7371 4.48806 78.5153C4.81034 79.2935 5.28276 80.0005 5.87832 80.5961C6.47389 81.1916 7.18094 81.6641 7.95909 81.9863C8.73725 82.3086 9.57127 82.4745 10.4135 82.4744ZM10.4135 79.7941C9.4232 79.7941 8.47343 79.4007 7.77317 78.7004C7.07291 78.0002 6.6795 77.0504 6.6795 76.0601C6.6795 75.0698 7.07291 74.12 7.77317 73.4197C8.47343 72.7195 9.4232 72.3261 10.4135 72.3261C11.4038 72.3261 12.3536 72.7195 13.0539 73.4197C13.7541 74.12 14.1475 75.0698 14.1475 76.0601C14.1475 77.0504 13.7541 78.0002 13.0539 78.7004C12.3536 79.4007 11.4038 79.7941 10.4135 79.7941Z" fill="#2DD0ED"/>
<path d="M50.1719 12.8275C51.4404 12.8276 52.6805 12.4515 53.7352 11.7467C54.7899 11.0419 55.6119 10.0402 56.0972 8.86815C56.5005 7.89373 56.6574 6.83488 56.5539 5.78536C56.4504 4.73585 56.0898 3.72803 55.5039 2.85116C54.918 1.97429 54.1249 1.25541 53.1948 0.758182C52.2648 0.26095 51.2265 0.000704831 50.1719 0.000488374C48.9034 0.000272862 47.6632 0.37628 46.6084 1.08095C45.5536 1.78562 44.7315 2.78729 44.246 3.95927C43.7605 5.13124 43.6336 6.42087 43.8811 7.66502C44.1287 8.90917 44.7397 10.052 45.6368 10.9488C46.2324 11.5444 46.9394 12.0168 47.7175 12.3391C48.4957 12.6614 49.3297 12.8273 50.1719 12.8272V12.8275ZM50.1719 10.147C49.4336 10.1469 48.7119 9.9279 48.0979 9.51772C47.484 9.10755 47.0055 8.52459 46.7229 7.84252C46.5351 7.38963 46.4384 6.90415 46.4384 6.41387C46.4384 5.92358 46.5351 5.43811 46.7229 4.98521C46.9104 4.53227 47.1853 4.12071 47.532 3.77407C47.8786 3.42742 48.2902 3.15248 48.7431 2.96495C49.2532 2.75369 49.8037 2.65817 50.3552 2.68527C50.9066 2.71237 51.4451 2.86142 51.932 3.12168C52.4189 3.38194 52.842 3.74693 53.1709 4.19037C53.4998 4.63381 53.7262 5.14466 53.8339 5.68614C53.9416 6.22761 53.9279 6.78623 53.7937 7.32177C53.6596 7.85731 53.4083 8.35643 53.0581 8.78319C52.7079 9.20996 52.2674 9.55374 51.7683 9.78979C51.2692 10.0258 50.724 10.1483 50.1719 10.1483V10.147ZM51.1516 57.0741C49.9484 57.3338 48.6914 57.1051 47.6568 56.4383C46.8852 55.9409 46.2783 55.2259 45.9131 54.3837C45.5479 53.5414 45.4406 52.6098 45.605 51.7066C45.7693 50.8034 46.1978 49.9692 46.8363 49.3096C47.4748 48.6499 48.2946 48.1945 49.192 48.0008C50.3869 47.7621 51.6277 48.0027 52.6468 48.6709C53.6658 49.339 54.3812 50.381 54.6387 51.572C54.8957 52.7631 54.6742 54.0075 54.0218 55.0366C53.3694 56.0658 52.3385 56.7971 51.1516 57.0728V57.0741Z" fill="#2DD0ED"/>
</svg>
