<svg width="100" height="100" viewBox="0 0 100 100" fill="none" xmlns="http://www.w3.org/2000/svg">
<path fill-rule="evenodd" clip-rule="evenodd" d="M53.2615 0.236572C45.9163 2.84293 39.045 10.4251 32.1737 22.746C21.9852 41.4645 8.95344 68.0019 26.961 89.0898C35.254 98.8044 49.2335 104.491 67.2411 95.4872C81.6945 88.142 85.9595 67.0542 80.5098 57.3395C69.6105 36.9625 58.7112 31.9868 55.8679 19.4289C53.9723 10.899 53.0246 4.50152 53.2615 0.236572Z" fill="url(#paint0_linear_33_720)"/>
<path fill-rule="evenodd" clip-rule="evenodd" d="M53.2615 -0.000488281C45.9163 2.60587 38.8081 10.188 32.1737 22.509C21.9852 41.2274 8.95344 67.7649 26.961 88.8527C35.254 98.5673 48.9966 101.648 56.5787 95.9609C61.5545 92.1699 64.8716 88.6158 66.7672 81.0336C68.8997 72.5037 67.2411 61.3674 66.0564 55.9178C64.6347 49.2834 64.1608 42.1752 64.6347 34.1191C64.6347 34.1191 64.3978 34.1191 64.3978 33.8822C60.3698 29.1434 57.5265 24.8784 56.1048 18.9549C53.9723 10.6619 53.0246 4.26446 53.2615 -0.000488281Z" fill="url(#paint1_linear_33_720)"/>
<path fill-rule="evenodd" clip-rule="evenodd" d="M47.101 3.31665C40.2297 8.76631 35.254 17.7701 31.9368 30.328C26.961 49.2834 26.4871 66.8171 28.1457 77.2425C31.4629 97.1456 49.2335 104.491 67.2411 95.2501C78.3773 89.5635 83.1162 77.4794 82.8792 64.2107C82.6423 50.4681 56.1048 35.0669 51.6029 23.6936C48.5227 15.8746 47.101 9.2402 47.101 3.31665Z" fill="url(#paint2_linear_33_720)"/>
<path fill-rule="evenodd" clip-rule="evenodd" d="M64.3977 38.8579C72.6907 49.2833 74.3493 56.6285 69.8474 60.6565C62.9761 66.817 45.9163 70.845 35.4908 63.4998C28.3826 58.5241 25.7762 47.8617 27.4348 31.5127C24.5915 37.6732 21.9852 43.5967 20.0896 49.9942C18.1941 56.1546 17.4833 62.789 18.431 69.4234C21.0374 74.3992 26.9609 77.9533 36.6755 79.6119C51.129 82.2182 64.8716 80.7966 74.1123 76.2947C80.2728 73.2145 83.1161 70.1342 82.8792 67.054C83.1161 62.5521 81.6944 58.2871 78.6142 54.0222C75.7709 49.7572 71.0321 44.7814 64.3977 38.8579Z" fill="url(#paint3_linear_33_720)"/>
<path fill-rule="evenodd" clip-rule="evenodd" d="M32.4106 28.4326C32.4106 36.0148 34.3061 43.123 38.3341 49.9943C44.2577 60.1828 51.129 70.3713 61.5544 78.6643C68.4257 84.3509 74.1123 86.0095 78.1403 84.1139C74.8231 90.2744 71.0321 93.1177 67.241 93.1177C61.5544 92.8808 54.4461 90.5114 43.3099 77.0057C35.7278 68.0019 30.752 59.472 27.9087 51.416C28.3826 48.3357 28.8565 45.0185 29.3303 41.9383C30.0412 38.8581 30.9889 34.3562 32.4106 28.4326Z" fill="url(#paint4_linear_33_720)"/>
<path fill-rule="evenodd" clip-rule="evenodd" d="M50.1813 38.8579C50.8921 45.0184 53.2615 54.97 50.1813 61.3674C47.1011 68.0018 33.1215 79.8489 36.9126 90.2743C40.7036 100.7 50.1813 98.3303 56.1048 93.5915C62.0284 88.8526 65.1086 81.0336 65.8194 75.347C66.5303 69.8973 64.1609 59.2349 63.45 49.9942C62.9761 43.8337 63.2131 38.621 64.3978 34.1191L62.5023 31.7497L51.8399 28.6694C50.4182 31.2758 49.7074 34.593 50.1813 38.8579Z" fill="url(#paint5_linear_33_720)"/>
<path fill-rule="evenodd" clip-rule="evenodd" d="M53.9723 8.29248C50.4182 9.71413 47.3379 12.5574 44.2577 17.0593C39.5189 23.4568 37.1495 27.4848 39.045 40.2796C40.2297 48.8095 40.9405 56.6286 41.6513 63.9738L56.5787 20.6135C56.1048 18.481 55.6309 16.3485 55.157 14.6899C54.4462 12.5574 54.2092 10.6619 53.9723 8.29248Z" fill="url(#paint6_linear_33_720)"/>
<path fill-rule="evenodd" clip-rule="evenodd" d="M56.3417 20.3765C52.5507 22.5089 49.7074 27.2478 47.5749 33.8821C45.4424 40.7535 43.5469 50.2311 41.8883 62.5521C44.2577 54.733 45.6794 49.0464 46.3902 45.4923C47.5749 40.2796 47.8118 32.6974 50.8921 27.7217C52.7876 24.4045 54.6831 22.0351 56.3417 20.3765Z" fill="#330A4C" fill-opacity="0.3163"/>
<path fill-rule="evenodd" clip-rule="evenodd" d="M38.5712 93.8286C44.7316 94.7764 48.0488 95.4872 48.2858 96.198C48.7597 97.1458 47.5749 98.0936 44.0208 97.6197C41.8883 97.1458 39.9928 95.9611 38.5712 93.8286Z" fill="white"/>
<path fill-rule="evenodd" clip-rule="evenodd" d="M41.8883 8.29248C38.5711 12.3205 35.4908 16.8224 32.8845 21.3243C30.2781 25.8262 28.6195 29.3803 27.4348 31.5128C27.1979 33.1714 26.9609 35.7777 26.9609 39.0949C26.9609 42.4121 27.1979 45.9662 27.9087 49.9942C28.3826 42.1752 29.8042 34.3561 32.4106 27.0109C34.78 19.6657 38.0972 13.2683 41.8883 8.29248Z" fill="#EDEDED" fill-opacity="0.6033"/>
<defs>
<linearGradient id="paint0_linear_33_720" x1="51.3143" y1="7.55357" x2="47.8353" y2="100.104" gradientUnits="userSpaceOnUse">
<stop stop-color="#D9D8DC"/>
<stop offset="1" stop-color="white" stop-opacity="0.3853"/>
</linearGradient>
<linearGradient id="paint1_linear_33_720" x1="50.0486" y1="6.01375" x2="13.7031" y2="85.672" gradientUnits="userSpaceOnUse">
<stop stop-color="#8D67AF" stop-opacity="0.6719"/>
<stop offset="1" stop-color="#9F8DAF"/>
</linearGradient>
<linearGradient id="paint2_linear_33_720" x1="55.1602" y1="33.3652" x2="55.1602" y2="97.441" gradientUnits="userSpaceOnUse">
<stop stop-color="#26053D" stop-opacity="0.7616"/>
<stop offset="1" stop-color="#B7B4B4" stop-opacity="0.2777"/>
</linearGradient>
<linearGradient id="paint3_linear_33_720" x1="31.2441" y1="35.2002" x2="47.5564" y2="78.4084" gradientUnits="userSpaceOnUse">
<stop stop-color="#91739F" stop-opacity="0.4595"/>
<stop offset="1" stop-color="#32054F" stop-opacity="0.5399"/>
</linearGradient>
<linearGradient id="paint4_linear_33_720" x1="68.1136" y1="90.9059" x2="23.2626" y2="53.7579" gradientUnits="userSpaceOnUse">
<stop stop-color="#463D49" stop-opacity="0.3312"/>
<stop offset="1" stop-color="#340A50" stop-opacity="0.8214"/>
</linearGradient>
<linearGradient id="paint5_linear_33_720" x1="57.0145" y1="32.647" x2="25.3831" y2="80.7764" gradientUnits="userSpaceOnUse">
<stop stop-color="#715383" stop-opacity="0.1452"/>
<stop offset="1" stop-color="#F4F4F4" stop-opacity="0.2336"/>
</linearGradient>
<linearGradient id="paint6_linear_33_720" x1="62.2665" y1="44.5453" x2="39.8661" y2="43.1781" gradientUnits="userSpaceOnUse">
<stop stop-color="#A5A1A8" stop-opacity="0.3561"/>
<stop offset="1" stop-color="#370C50" stop-opacity="0.582"/>
</linearGradient>
</defs>
</svg>
