<svg width="100" height="100" viewBox="0 0 100 100" fill="none" xmlns="http://www.w3.org/2000/svg">
<path d="M50 0.000488281C77.6141 0.000488281 100 22.3864 100 50.0005C100 77.6145 77.6141 100 50 100C22.3859 100 0 77.6145 0 50.0005C0 22.3864 22.3859 0.000488281 50 0.000488281Z" fill="#E05C43"/>
<path fill-rule="evenodd" clip-rule="evenodd" d="M50.9883 18.8507C57.4305 18.7233 61.9828 20.4702 65.9 26.0303C74.4422 47.2092 43.9102 58.1397 42.686 58.5694L42.6477 58.5819C42.6477 58.5819 41.7258 64.3342 50.4821 64.1132C61.2579 64.1132 72.5868 55.7608 76.8961 52.2303C77.397 51.8187 78.0348 51.6113 78.682 51.6497C79.3292 51.688 79.9381 51.9694 80.3868 52.4374L83.6133 55.7889C84.0668 56.2566 84.3258 56.8789 84.3382 57.5301C84.3505 58.1814 84.1152 58.8131 83.6797 59.2975C80.875 62.4202 74.2938 68.8311 64.386 72.9725C64.386 72.9725 47.8547 80.6272 36.7141 73.3788C30.0711 69.0585 28.2438 63.8858 27.5008 58.5053C27.5047 58.5053 19.4352 58.096 14.2532 56.0725C9.06957 54.0475 14.2914 47.9389 14.2914 47.9389C14.2914 47.9389 15.8852 45.4132 18.9164 47.9389C21.95 50.4608 27.6118 49.3233 27.6118 49.3233C28.1164 45.3397 28.9555 40.0827 31.4274 34.5342C36.6086 22.9053 44.5438 18.9757 50.9883 18.8507ZM54.7797 30.503C51.3664 27.2139 41.511 33.7858 41.1305 48.8233C41.1305 48.8233 44.0399 49.7092 50.4821 45.2842C56.9274 40.8616 58.193 33.7858 54.7797 30.503Z" fill="white"/>
</svg>
