<svg width="100" height="100" viewBox="0 0 100 100" fill="none" xmlns="http://www.w3.org/2000/svg">
<path d="M15.6808 69.2939C7.91954 61.0691 3.37832 49.7069 3.38983 36.1504C3.37937 24.1613 7.14611 13.856 13.6218 6.01442L13.6116 6.01834H0V69.2952H15.6714L15.6808 69.2939ZM87.3676 69.2994C90.7112 65.7181 93.7071 61.5007 96.4218 56.6775L81.3559 49.1448C76.0646 57.7467 68.3268 65.6645 57.6271 65.717C42.0546 65.6645 35.9361 52.3481 35.9699 35.2085H94.1619C94.2396 33.2735 94.2396 32.3738 94.1619 31.4423C94.5417 21.2454 91.8393 12.6743 86.9232 5.99951L86.8979 6.01834H100V69.2952H87.3391L87.3676 69.2994ZM36.9115 20.5193C37.5557 12.7593 43.6739 7.54089 50.8475 7.52494C58.0699 7.54089 63.2883 12.7593 63.4652 20.5193H36.9115Z" fill="#A90432"/>
<path d="M8.28628 80.0295V77.3933H0.188354V93.0239H8.28628V90.3874H3.20154V86.2445H8.09796V83.6077H3.20154V80.0295H8.28628ZM22.0339 86.4326C24.0527 86.1328 25.1611 84.1327 25.2354 82.1014C25.1611 78.778 23.0069 77.4029 19.9624 77.3933H15.8192V93.0239H18.8324V86.8095L22.5989 93.0239H26.3654L22.0339 86.4326ZM18.8324 79.8412H19.2091C20.853 79.9032 22.0868 80.2783 22.0339 82.2894C22.0868 84.1326 20.8948 84.6325 19.2091 84.5493H18.8324V79.8412ZM35.7816 77.3933H32.7684V93.0239H40.113V90.3874H35.7816V77.3933ZM55.5556 89.8224L56.8738 93.0239H60.0754L54.2373 77.0164H51.7891L45.5744 93.0239H48.7759L50.0942 89.8224H55.5556ZM54.8023 87.3744H51.0358L52.7307 81.5364L54.8023 87.3744ZM65.7251 93.0239H68.9266V82.4778L77.2128 93.4005H79.4727V77.3933H76.2712V87.9394L67.985 77.0164H65.7251V93.0239ZM92.6554 84.7376V87.1859H96.0452C95.9746 89.1536 94.3644 90.8205 92.4671 90.764C89.4706 90.8205 87.9857 87.9245 87.9473 85.3026C87.9857 82.7158 89.4497 79.6948 92.4671 79.6532C94.0506 79.6948 95.3892 80.7781 96.0452 82.1014L98.6818 80.7828C97.5223 78.3406 95.18 76.9863 92.4671 77.0164C87.7974 76.9863 84.807 80.8406 84.7458 85.3026C84.807 89.6537 87.714 93.529 92.2787 93.5889C97.2086 93.529 99.4882 89.5912 99.4351 85.1143V84.7376H92.6554Z" fill="#231F20"/>
</svg>
