<svg width="100" height="100" viewBox="0 0 100 100" fill="none" xmlns="http://www.w3.org/2000/svg">
<g clip-path="url(#clip0_33_740)">
<path d="M50 99.999C77.6142 99.999 100 77.6133 100 49.999C100 22.3848 77.6142 -0.000976562 50 -0.000976562C22.3858 -0.000976562 0 22.3848 0 49.999C0 77.6133 22.3858 99.999 50 99.999Z" fill="#FFCF00"/>
<path d="M27.0645 22.9346L54.1293 49.999L27.0645 77.0635L20.4355 70.4346L40.8707 49.999L20.4355 29.5635L27.0645 22.9346ZM57.0645 22.9346L84.1293 49.999L57.0645 77.0635L50.4355 70.4346L70.8707 49.999L50.4355 29.5635L57.0645 22.9346Z" fill="#191919"/>
</g>
<defs>
<clipPath id="clip0_33_740">
<rect width="100" height="100" fill="white" transform="translate(0 -0.000976562)"/>
</clipPath>
</defs>
</svg>
