<svg width="100" height="100" viewBox="0 0 100 100" fill="none" xmlns="http://www.w3.org/2000/svg">
<path d="M61.4054 36.1179L51.4046 45.4295L42.1213 26.6968L46.917 15.9258C48.1291 13.7772 50.1114 13.7489 51.3235 15.9258L61.4054 36.1179Z" fill="#FFA000"/>
<path d="M51.4088 45.4255L14 80.2196L42.1256 26.6968L51.4088 45.4255Z" fill="#F57F17"/>
<path d="M72.3712 21.8771C74.163 20.1705 76.0075 20.7461 76.4736 23.1703L86.1988 79.7497L53.9424 99.1149C52.8114 99.7473 49.8116 99.9946 49.8116 99.9946C49.8116 99.9946 47.0833 99.6622 46.0375 99.0865L14 80.22L72.3712 21.8771Z" fill="#FFCA28"/>
<path d="M42.1255 26.697L14 80.2197L26.5345 1.98888C27.0047 -0.435314 28.379 -0.682597 29.6194 1.46593L42.1255 26.697Z" fill="#FFA000"/>
</svg>
