<svg width="100" height="100" viewBox="0 0 100 100" fill="none" xmlns="http://www.w3.org/2000/svg">
<path d="M29.883 84.4344C26.0736 81.4379 22.0099 78.5649 19.2332 74.5201C13.3899 67.3862 8.89099 59.1271 5.81501 50.4474C3.95635 44.8039 3.3197 38.7529 0.923266 33.3271C-1.58355 29.3864 1.35275 25.0784 5.66958 23.8261C7.59102 23.4573 10.9704 21.6446 6.8916 22.9399C3.23496 25.6235 2.8808 20.5048 6.63004 20.1804C9.18969 19.8404 10.1318 17.7453 9.25613 15.8594C6.50972 14.0677 15.9181 12.0992 11.1838 9.42601C6.25234 4.10582 18.0823 3.08154 15.1633 9.12364C14.4649 13.77 23.4297 8.27199 21.3497 13.6382C23.4632 16.2146 29.2662 14.2241 29.1223 17.8389C32.202 18.0508 33.2592 20.6423 36.15 20.8411C39.1465 22.1945 44.5776 23.2606 45.5977 26.6374C42.6247 28.9904 35.7415 21.7754 35.4108 28.2904C36.3085 37.9138 36.0799 47.8271 39.6011 56.9912C41.2662 62.5405 45.3031 66.9086 48.9493 71.2307C52.4386 75.4633 57.164 78.443 61.9804 80.9519C66.2051 82.945 70.76 84.2664 75.3645 85.0951C77.2321 83.6669 80.5294 78.3562 83.4432 80.5957C83.5813 83.1119 77.6605 85.8557 83.1643 85.5774C86.3962 84.6028 88.6383 88.0769 91.2995 84.9428C93.7514 87.8477 101.491 83.0873 99.7464 89.0243C97.3871 90.5466 93.9465 89.6264 91.5835 91.7204C87.6878 89.7744 84.5857 93.4614 80.2725 92.9953C75.4828 93.8532 70.6099 94.1995 65.7532 94.2069C57.7865 93.5775 49.6508 93.3123 42.0713 90.5382C37.8026 89.2979 33.6353 86.8664 29.883 84.4344ZM36.6114 87.3497C40.7807 89.1524 44.8574 91.0529 49.4264 91.6258C56.6754 92.6343 64.1608 94.1849 71.4359 92.7704C68.1433 91.2836 64.7393 93.3495 61.4593 91.7074C57.5254 92.5538 53.3038 91.4918 49.304 90.9687C44.7559 88.9426 39.848 87.5496 35.5887 84.9203C30.2669 82.9764 38.3414 87.413 39.7784 87.7724C43.1055 89.6609 36.1202 86.8046 35.1351 86.0194C32.349 84.4563 31.9938 84.7828 34.8595 86.3699C35.4365 86.7079 36.0061 87.062 36.6114 87.3497ZM28.6782 81.7434C32.7183 83.2395 28.6604 78.9028 26.8096 79.1539C25.9893 77.731 23.6761 76.8323 25.3077 76.068C22.3719 77.0871 22.2323 72.1927 20.8528 72.8921C17.747 71.9113 19.6444 68.4377 15.9448 66.3044C15.6069 64.0565 12.2693 62.1068 11.2053 58.7165C10.7345 56.9802 7.43356 51.9953 9.46172 56.6344C11.188 61.1009 14.2253 64.926 16.753 68.7458C18.7158 72.3831 21.0338 76.1847 24.6083 78.454C25.8136 79.6101 26.977 81.3809 28.6782 81.7434ZM17.0402 68.9655C17.1815 68.355 17.7789 70.2859 17.0402 68.9655V68.9655ZM33.5166 83.5372C32.2302 83.0324 34.4111 83.1365 33.5166 83.5372V83.5372ZM35.7095 84.3376C34.7088 84.9549 35.4825 83.2327 35.7095 84.3376V84.3376ZM38.4549 85.4822C36.4409 84.6975 39.7617 84.2377 38.4549 85.4822V85.4822ZM43.1599 88.1046C40.618 87.6615 43.954 86.9307 43.1599 88.1046V88.1046ZM34.1255 81.8062C31.5031 81.7884 36.1552 80.4931 34.1255 81.8062V81.8062ZM36.1845 82.8331C35.4506 83.1443 36.127 82.1389 36.1845 82.8331V82.8331ZM46.4765 89.257C48.1312 90.3017 56.1386 91.5457 51.1245 89.6855C50.2854 89.8623 41.8275 87.2932 46.4765 89.257ZM30.1372 76.5315C27.5687 75.7625 29.9766 75.8357 30.1372 76.5315V76.5315ZM34.929 79.3239C32.3406 78.6533 36.1756 78.4545 34.929 79.3239V79.3239ZM38.9592 81.7952C36.0558 81.1177 40.7483 81.1204 38.9592 81.7952V81.7952ZM28.188 74.4087C30.1288 75.8969 36.0177 74.5991 31.161 73.5193C28.9502 72.3413 23.9685 71.5346 27.3641 74.2297L28.1875 74.4081L28.188 74.4087ZM41.6889 82.6484C38.2974 81.8616 42.4976 81.2705 41.6889 82.6484V82.6484ZM37.586 79.3883C42.3339 80.7311 33.594 76.3855 36.4147 78.8939L37.0398 79.1764L37.586 79.3883ZM45.8116 84.1419C41.7506 83.522 50.3079 84.1848 45.8116 84.1419V84.1419ZM26.4575 71.8066C25.3485 71.8772 26.2818 70.9696 26.4575 71.8066V71.8066ZM53.4173 88.4085C51.95 89.5338 53.5371 86.8957 53.4173 88.4085V88.4085ZM34.1302 76.5053C32.7256 76.4724 33.8582 75.7086 34.1302 76.5053V76.5053ZM26.8839 71.2809C23.3502 70.1436 29.4655 71.126 26.8839 71.2809V71.2809ZM18.2994 65.7321C15.4907 63.5078 17.9782 64.4949 18.2994 65.7321V65.7321ZM40.8356 80.0343C40.3627 79.495 40.6133 80.1521 40.8356 80.0343V80.0343ZM54.8627 88.6419C54.099 88.9536 54.8177 87.8179 54.8627 88.6419V88.6419ZM39.5943 78.7522C37.393 78.431 39.8469 77.6902 39.5943 78.7522V78.7522ZM29.1443 72.1294C26.0683 70.831 31.0642 71.9238 29.1443 72.1294V72.1294ZM46.8212 83.1135C43.9048 82.5349 49.8135 81.9281 46.8212 83.1135V83.1135ZM37.6263 76.8721C41.0752 77.3167 33.5229 74.5258 36.8698 76.622L37.6263 76.8721ZM49.6132 84.2424C52.833 82.3173 51.7716 88.7501 55.0762 84.7864C58.3352 82.4062 52.2612 87.7285 56.2783 85.2102C59.1838 83.2673 63.4749 86.1314 66.1858 87.0657C68.1349 86.9699 70.0308 88.7517 72.0291 87.6678C75.8762 86.632 64.5055 86.1309 67.4863 84.2926C63.9656 85.3169 61.3657 83.0711 59.6331 80.8164C55.6846 79.9046 51.1187 77.8859 49.1481 74.3914C48.3446 73.0794 50.3094 74.576 48.4544 72.4312C46.0753 70.3152 44.8867 67.913 43.2901 65.3403C41.3818 64.3223 41.1595 61.3263 40.9664 65.2398C40.9821 62.7702 38.6626 61.1071 38.0971 61.7987C38.0866 59.4195 40.5783 60.6123 38.8342 58.8519C38.4586 56.3865 37.2229 53.8174 36.851 51.0338C36.2735 49.692 36.7694 46.818 34.8804 49.8558C34.1925 53.0662 34.6523 45.9109 35.7226 48.2707C37.1272 45.8627 35.2178 46.1457 35.1399 46.48C36.0553 44.4487 35.719 41.5668 34.9008 42.6664C35.3889 40.5133 35.6713 34.7421 34.171 35.7649C35.0807 33.5133 35.8958 25.4624 31.9477 28.5321C30.348 28.5546 27.5776 29.1128 26.2682 29.7641C30.3747 32.0276 25.8549 30.5817 24.1835 30.2218C23.9659 32.3164 22.3102 31.4104 20.2418 31.4308C23.5453 31.8398 18.6332 34.8101 16.7379 33.6561C14.2766 34.8326 18.8618 37.7689 16.787 38.6766C17.0418 40.0456 13.0164 38.1827 13.3323 41.3435C10.9427 40.3385 13.0033 45.0932 14.1986 43.4851C18.2633 44.5853 17.0601 47.0926 17.1632 49.4749C16.5014 50.8628 13.8936 46.2122 16.5825 46.4277C14.4618 42.9819 14.2363 45.1822 12.4739 46.7829C12.0637 46.8991 16.9696 49.0606 13.891 50.1293C16.5998 50.5473 16.6767 52.9176 17.2286 54.4174C18.856 56.1129 18.5233 52.5446 20.4709 54.5827C19.2384 52.7675 13.9418 49.4676 18.2058 50.5259C18.1833 48.6986 17.4347 47.225 18.7414 47.2611C20.0351 44.9175 17.3865 53.0385 20.303 50.0598C21.1102 49.7077 21.31 47.7141 22.7617 50.2481C24.8688 52.3218 23.5228 53.8247 20.5494 51.9258C21.0814 53.7305 24.5267 54.375 23.8791 57.1973C24.5659 59.679 25.5259 58.7651 26.3629 58.6212C27.0199 61.0329 27.3924 59.2595 27.4238 58.1122C30.4302 58.7557 29.726 60.5333 30.6671 61.7746C32.7387 62.71 27.701 55.4359 31.2583 59.588C35.0007 62.9663 32.6618 64.3767 29.3033 63.8358C31.4288 63.6631 32.1146 66.7088 34.7731 66.6021C37.1978 67.755 38.8389 72.1854 34.6601 70.3408C33.2111 69.0341 28.0813 67.4218 32.271 69.9077C36.1401 71.6994 39.2129 72.7718 42.9449 75.0207C45.616 76.9275 46.7695 79.1115 47.7817 79.5431C45.5375 80.6155 41.0177 78.6873 44.3735 78.0962C42.2805 77.7148 39.9259 76.6565 41.9305 79.2648C43.6359 80.6877 47.9716 80.5376 48.749 80.6982C48.0898 82.1504 46.9594 82.2655 48.7756 82.3785C46.7491 83.4582 49.4254 83.6256 49.6132 84.2424ZM45.4695 72.54C44.2365 71.2511 43.9179 68.8358 45.2503 70.9372C45.934 71.2118 47.4401 74.8837 45.4695 72.54ZM58.9646 81.1125C58.9871 81.6968 59.7336 81.0628 58.9646 81.1125V81.1125ZM43.5224 69.3788C43.4753 67.4296 43.9686 70.8823 43.5224 69.3788V69.3788ZM42.1816 67.574C40.6306 64.5776 44.1366 68.4225 42.1816 67.574V67.574ZM25.9271 56.3556C26.3754 57.914 26.8379 56.1129 25.9271 56.3556V56.3556ZM38.8629 63.3676C39.4227 61.2662 39.5205 65.1305 38.8629 63.3676V63.3676ZM29.7239 57.0126C29.08 55.8534 31.0715 58.1002 29.7239 57.0126V57.0126ZM37.5672 59.5273C36.0982 56.2353 38.6071 57.7293 37.892 60.0661L37.5672 59.5273ZM24.0417 50.507C23.3847 49.4268 22.2982 46.2582 22.6481 45.2915C22.9646 46.8661 25.9982 52.0707 24.1364 47.4468C22.0785 43.5709 26.5956 48.7049 27.0607 49.6716C27.2768 50.6336 25.7911 49.409 26.7976 51.6637C24.9614 49.0967 25.7137 53.0819 24.0417 50.507ZM19.862 47.6267C20.0336 45.1157 20.8188 49.3483 19.862 47.6267V47.6267ZM21.7421 48.2738C22.6393 46.3785 23.2633 50.9156 21.7421 48.2738V48.2738ZM17.2186 44.7746C15.6623 43.2283 14.5366 41.8033 17.2919 43.8152C18.3538 43.8566 14.9326 40.5734 17.5471 42.7726C20.2967 43.2738 18.9047 47.2799 17.2186 44.7746ZM19.5947 44.7129C20.0744 45.5944 20.4986 43.8173 19.5947 44.7129V44.7129ZM21.0568 45.1816C19.6862 42.6131 22.7193 46.2582 21.0568 45.1816V45.1816ZM18.1503 42.4038C13.6263 38.3779 23.8356 44.5094 18.8895 43.1503L18.1503 42.4038ZM31.1134 49.9358C29.1553 48.7619 30.5944 41.6715 31.2619 46.5208C33.1651 45.9051 31.1568 49.025 32.5765 48.9963C32.3526 50.9648 31.7176 51.6726 31.1128 49.9358H31.1134ZM35.9078 52.7696C36.0998 50.6326 36.3117 54.2301 35.9078 52.7696V52.7696ZM35.075 51.9467C35.097 53.0212 35.2905 51.0338 35.075 51.9467V51.9467ZM19.0381 41.0814C16.1316 37.0711 27.485 45.1377 20.8993 42.0983C20.2114 41.9184 19.3833 41.8545 19.0381 41.0814ZM28.2707 45.9763C27.9955 42.5995 28.8848 46.536 28.2707 45.9763V45.9763ZM35.2806 50.473C35.3209 51.7453 35.8231 48.5495 35.2806 50.473V50.473ZM19.4832 39.5502C21.2106 39.1814 26.6422 42.5843 21.6542 40.5232C21.0997 39.909 19.9185 40.1884 19.4832 39.5502ZM34.317 46.9446C34.5016 43.4919 35.3481 44.8824 34.3233 47.4389L34.317 46.9446ZM20.7686 38.3496C21.4722 37.3175 18.9 33.6818 21.1395 37.0455C22.1072 37.8145 23.9408 38.3334 22.3217 38.6567C24.8683 40.9035 21.7008 39.2656 20.7686 38.3496ZM33.5836 45.8659C34.0125 48.1702 34.0701 41.933 33.5836 45.8659V45.8659ZM19.2991 34.7165C19.5832 35.4332 19.8369 34.4863 19.2991 34.7165V34.7165ZM22.6419 36.706C23.5019 34.9012 24.2285 38.7189 22.6419 36.706V36.706ZM32.0702 41.9508C32.0613 41.2577 32.248 42.9594 32.0702 41.9508V41.9508ZM31.524 40.7419C30.2152 37.5131 32.7413 42.4514 31.524 40.7419V40.7419ZM30.7205 38.6253C30.5008 37.2913 31.467 40.3014 30.7205 38.6253V38.6253ZM32.0283 36.4993C31.1301 34.9169 33.1624 29.5261 33.389 32.8688C32.4411 35.4745 33.1154 36.9319 33.7766 33.4375C34.9981 30.6874 33.5129 38.8644 32.0283 36.4993ZM33.3722 28.4814C33.4591 29.061 33.7635 28.0011 33.3722 28.4814V28.4814ZM31.128 72.7038C30.5955 72.2393 31.195 72.9994 31.128 72.7038V72.7038ZM35.7509 75.0422C38.3226 75.7023 38.3095 74.642 35.9852 74.3276C34.735 73.1641 30.7906 71.9306 34.3217 74.1832C34.555 74.7754 35.2942 74.7618 35.7509 75.0422ZM26.6202 68.9776C28.0374 70.0343 31.9566 71.9719 28.6385 69.3804C29.7574 68.0799 26.4973 67.3883 27.5786 66.5189C24.828 64.8355 25.4087 64.9851 27.3359 65.0384C24.0297 63.5606 27.813 63.671 27.6351 62.914C26.3602 62.6624 21.3037 60.6661 24.2787 63.0778C21.2545 61.5361 23.5579 63.6521 22.644 63.4282C19.5512 62.5855 25.3977 65.7839 22.1522 64.9898C23.9267 66.3959 26.9284 68.591 22.9029 66.4775C22.3725 67.2413 25.7832 68.3979 26.6202 68.9776ZM31.4555 71.7554C28.5731 69.441 37.3354 73.6501 31.4555 71.7554V71.7554ZM56.2082 86.7507C55.4047 87.7457 56.2841 85.5842 56.2082 86.7507V86.7507ZM58.7522 87.8216C60.1086 86.507 58.8076 89.9151 61 87.4999C61.0236 85.7704 60.932 84.7493 58.4807 86.8496C57.8048 87.2242 57.5024 88.8181 58.7522 87.8216ZM18.3679 62.4594C15.4478 60.8299 17.951 60.822 18.3679 62.4594V62.4594ZM21.0845 64.2391C17.4854 62.7252 20.0754 62.5667 21.0845 64.2391V64.2391ZM36.5392 73.5596C38.0479 74.8999 43.4696 74.5431 38.3717 73.7249C37.6169 72.6086 33.5778 72.8775 36.5392 73.5596ZM57.7844 86.6807C55.5349 87.5501 60.1071 84.732 57.7844 86.6807V86.6807ZM62.6144 89.9999C61.6137 90.2735 62.6291 89.3742 62.6144 89.9999V89.9999ZM62.6217 89.1242C60.1301 89.2853 65.1934 86.3992 62.6217 89.1242V89.1242ZM11.6866 56.8656C9.49468 53.7379 10.3238 52.3322 8.2104 49.7789C7.81021 47.826 4.5841 43.3946 6.54163 48.0892C8.33491 50.835 8.86745 55.086 11.6866 56.8656ZM61.8156 88.2584C59.8738 86.926 66.5473 85.2002 61.8156 88.2584V88.2584ZM65.4273 89.6729C63.929 89.2476 67.797 87.6385 65.4273 89.6729V89.6729ZM17.5628 59.0021C15.8119 58.8734 18.2408 57.9935 17.5628 59.0021V59.0021ZM64.6734 88.7067C66.9673 87.2278 64.1451 87.4549 64.2575 88.8427L64.6734 88.7067ZM33.5401 69.0832C32.3286 69.1685 33.4617 68.0846 33.5401 69.0832V69.0832ZM35.4642 70.1907C34.5241 70.3848 34.8527 68.9545 35.4642 70.1907V70.1907ZM68.3541 89.7064C71.2936 87.5862 66.5729 89.3005 67.7374 90.1082L68.3541 89.7064ZM67.2294 89.1624C64.7012 90.0517 69.6232 87.1562 67.2294 89.1624V89.1624ZM72.9786 92.9916C71.0263 92.6432 74.5867 91.915 72.9786 92.9916V92.9916ZM19.0365 58.2749C21.1918 58.7578 27.6471 63.5815 23.8388 58.6087C21.8875 58.0312 23.0578 53.2623 21.0683 54.1067C22.4038 56.3378 22.1669 57.2873 19.3629 55.8806C15.8386 54.1606 17.3824 56.7333 18.0708 57.4421C17.1328 57.6556 19.3127 58.2572 19.0365 58.2749ZM9.22004 50.5217C9.60558 48.9262 5.66801 41.7436 7.36032 46.9226C7.97134 48.0076 7.90961 50.0634 9.22004 50.5217ZM27.238 61.6303C26.1285 60.7022 27.1857 61.499 27.238 61.6303V61.6303ZM29.9703 62.2659C26.9503 61.5795 29.9688 60.5762 29.9703 62.2659V62.2659ZM53.6475 77.1927C51.8626 77.1655 53.1961 76.0377 53.6475 77.1927V77.1927ZM54.7848 78.0229C54.1288 78.148 54.6174 77.3769 54.7848 78.0229V78.0229ZM64.1697 83.9342C63.0434 83.849 65.0726 83.2678 64.1697 83.9342V83.9342ZM14.1233 51.7741C11.3575 51.061 16.7049 50.7744 14.1233 51.7741V51.7741ZM51.5634 75.3618C49.9176 75.7761 51.5346 73.6899 51.5634 75.3618V75.3618ZM13.1032 49.397C11.5694 49.0282 14.7615 48.8367 13.1032 49.397V49.397ZM17.917 51.7285C17.408 51.9368 17.8867 51.1793 17.917 51.7285V51.7285ZM76.6274 87.7316C78.7602 87.299 83.6195 88.8171 84.4052 87.1666C81.8157 87.1033 75.4451 85.3388 75.1438 87.5872L75.7109 87.6762L76.6274 87.7316ZM19.4466 52.1141C18.1262 52.0513 19.4838 50.4207 19.4466 52.1141V52.1141ZM6.79064 43.335C4.6045 42.8464 6.21573 40.1078 6.79064 43.335V43.335ZM9.80907 44.0935C7.04645 43.1613 9.84569 43.0577 9.80907 44.0935V44.0935ZM11.5333 44.941C11.0348 44.5366 11.143 45.4505 11.5333 44.941V44.941ZM22.3855 51.9022C21.1761 51.5543 22.8966 51.433 22.3855 51.9022V51.9022ZM10.385 43.03C6.88899 42.6649 10.0931 40.5928 10.385 43.03V43.03ZM4.19699 39.0156C3.59382 39.4393 4.10858 37.8908 4.19699 39.0156V39.0156ZM5.11716 38.3203C4.32724 38.4903 4.96703 36.9863 5.11716 38.3203V38.3203ZM10.2019 41.356C12.3525 40.5112 6.28583 39.6088 9.76252 41.1965L10.2019 41.356ZM78.2595 83.3939C76.5107 83.0036 79.6359 82.1321 78.2595 83.3939V83.3939ZM86.4815 87.6558C85.0931 87.8702 87.0329 86.0241 86.4815 87.6558V87.6558ZM10.723 38.6907C9.01759 39.004 10.949 37.1124 10.723 38.6907V38.6907ZM3.4871 33.8429C3.09842 31.6149 3.15178 27.704 6.86911 29.0259C1.90674 30.011 10.3034 35.1936 9.24305 31.1017C11.3298 31.2037 13.325 29.8687 12.2301 31.8953C16.3413 31.4412 19.1913 27.8761 23.1624 28.3757C26.2556 27.9661 29.6376 27.6559 32.971 26.4108C35.7122 26.2131 38.3503 23.2627 36.8479 21.5133C33.1101 21.1974 29.1982 21.6651 25.0671 22.4864C20.4897 23.4374 16.3309 25.2458 11.7127 26.0216C7.21071 26.6264 12.6177 27.6878 11.3288 27.9242C8.9794 28.7398 14.1301 29.2896 11.0238 30.1486C9.10547 29.784 7.10922 29.1248 7.92844 27.1029C3.61579 27.6627 -0.173728 29.4523 3.23339 33.8408L3.4871 33.8429ZM13.8785 28.5509C14.8897 24.8263 19.2954 31.6159 15.5357 29.0453C15.0869 28.7095 14.3482 28.4353 13.8785 28.5509ZM14.0752 26.7446C14.851 27.3546 15.5347 25.6575 14.0752 26.7446V26.7446ZM15.9281 26.7744C16.0599 25.0601 20.1706 27.6815 16.606 27.3917L15.9281 26.7744ZM18.4631 25.7548C18.7289 26.7174 19.3891 24.6735 18.4631 25.7548V25.7548ZM19.1118 25.3207C20.6529 23.4688 27.8402 24.1384 22.5791 25.1402C21.1693 24.0782 20.089 25.7664 19.1118 25.3207ZM28.4915 23.8747C28.2566 18.8161 33.1509 25.6727 28.4915 23.8747V23.8747ZM31.1526 23.8606C32.1256 21.3109 34.9285 22.8374 31.6025 23.3479C31.6752 23.6194 31.5052 24.6641 31.1526 23.8606ZM9.67306 37.3818C6.58662 35.837 12.5806 35.6016 9.67306 37.3818V37.3818ZM11.8231 37.9792C9.60767 37.5398 12.8422 36.8953 11.8231 37.9792V37.9792ZM5.48858 33.4835C3.52268 32.998 7.14951 32.2071 5.48858 33.4835V33.4835ZM91.3345 87.1886C90.0649 87.8561 91.3826 85.7082 91.3345 87.1886V87.1886ZM82.6114 81.2354C81.4903 81.3845 82.8594 79.5311 82.6114 81.2354V81.2354ZM93.733 87.763C96.0557 87.7709 100.771 87.0411 95.7167 87.0437C94.9242 87.1677 91.096 87.141 93.733 87.763ZM13.7137 36.9346C15.5933 36.8053 16.6547 34.8609 13.3501 34.9728C8.22871 34.4424 17.8683 36.7264 12.6931 36.073C11.9973 36.5333 13.6739 37.0617 13.7137 36.9346ZM15.3689 37.7721C14.7882 38.4134 15.1727 36.5652 15.3689 37.7721V37.7721ZM17.3327 32.5356C16.2043 32.2651 18.1487 31.5239 17.3327 32.5356V32.5356ZM11.0813 22.0862C14.4361 20.9447 19.0239 19.6625 20.6074 22.648C18.9957 20.7077 19.9572 18.7978 21.4795 21.6347C23.6327 24.5051 24.7103 20.329 23.3104 19.3664C24.906 21.3491 26.7212 22.286 24.3786 19.492C26.9242 16.4301 19.2818 19.8927 17.5451 19.8582C16.7091 20.2327 8.91662 21.845 11.0813 22.0867V22.0862ZM13.0477 18.3207C14.9608 16.8769 19.6642 19.1797 16.6463 16.8858C16.3508 16.6253 10.0366 18.6252 13.0477 18.3207ZM20.0226 18.6084C22.2616 18.666 19.0569 15.6005 21.7248 16.9899C21.287 15.5581 18.6185 15.2897 17.3138 14.7179C16.5762 16.0268 18.8157 18.6262 20.0226 18.609V18.6084ZM14.2703 12.2776C12.9128 12.8101 15.045 11.2276 14.2703 12.2776V12.2776ZM17.1213 12.9602C20.7298 12.4816 16.2017 11.4066 16.3942 12.9215L17.1213 12.9602ZM11.7985 8.79459C9.2577 5.47798 16.5767 9.35172 13.9951 5.87921C11.8226 4.14924 9.73479 7.82629 11.798 8.79459H11.7985ZM44.4049 26.357C45.5699 24.2911 39.5937 23.5724 43.6197 25.6246C43.9901 25.7491 43.9069 26.4998 44.4049 26.357Z" fill="white"/>
</svg>
