<svg width="100" height="100" viewBox="0 0 100 100" fill="none" xmlns="http://www.w3.org/2000/svg">
<path d="M80.8222 64.8217C81.8722 65.8717 81.1278 67.6661 79.6444 67.6661H52C51.0778 67.6661 50.3333 68.4105 50.3333 69.3328V96.9772C50.3333 98.4605 48.5389 99.205 47.4889 98.155L17.65 68.3161C17.2333 67.8994 17 67.3328 17 66.7439V35.9994C17 35.0772 17.7444 34.3328 18.6667 34.3328H50.3333L80.8222 64.8217Z" fill="white"/>
<path d="M50.3334 34.3328L19.8445 3.84396C18.7945 2.79396 19.5389 0.999512 21.0222 0.999512H82C82.9222 0.999512 83.6667 1.74396 83.6667 2.66618V32.6662C83.6667 33.5884 82.9222 34.3328 82 34.3328H50.3334Z" fill="white"/>
</svg>
