<svg width="100" height="100" viewBox="0 0 100 100" fill="none" xmlns="http://www.w3.org/2000/svg">
<path d="M96.362 44.2268C96.1846 42.6283 96.0068 40.6744 95.2963 38.543C94.7633 36.4115 93.8755 34.1025 92.632 31.6158C91.3885 29.1292 89.7903 26.6425 87.8364 24.1558C87.126 23.2677 86.2377 22.202 85.1721 21.3139C86.5929 15.6301 83.396 10.8343 83.396 10.8343C78.0674 10.4791 74.5148 12.4329 73.2713 13.4986C73.0939 13.4986 72.9161 13.321 72.5609 13.1434C71.6731 12.7881 70.7848 12.4329 69.7192 12.0777C68.6535 11.7224 67.7653 11.5448 66.6996 11.1895C65.634 11.0119 64.5679 10.8343 63.6801 10.6567C63.5023 10.6567 63.3249 10.6567 63.1471 10.6567C60.8379 3.19667 54.0884 -0.000488281 54.0884 -0.000488281C46.6285 4.79525 45.2076 11.3672 45.2076 11.3672C45.2076 11.3672 45.2076 11.5448 45.2076 11.7224C44.8523 11.9 44.3194 11.9 43.9642 12.0777C43.4313 12.2553 42.8985 12.4329 42.188 12.6105C41.6551 12.7881 41.1223 12.9657 40.4118 13.321C39.3461 13.8539 38.1028 14.3867 37.037 14.9196C35.9713 15.4524 34.9056 16.1629 33.8399 16.8734C33.6623 16.8734 33.6623 16.6958 33.6623 16.6958C23.1827 12.7881 13.9465 17.5839 13.9465 17.5839C13.0584 28.5963 18.0317 35.7011 19.0975 36.9444C18.9198 37.6549 18.5646 38.3654 18.387 39.0759C17.6765 41.5625 16.966 44.2268 16.6108 46.8913C16.6108 47.2465 16.4331 47.6017 16.4331 47.9569C6.84167 52.7525 3.99976 62.5216 3.99976 62.5216C11.9926 71.758 21.4065 72.2906 21.4065 72.2906C22.6499 74.4223 23.8932 76.3758 25.4917 78.3297C26.2022 79.0401 26.9127 79.9284 27.4456 80.6388C24.6037 88.987 27.8008 95.9143 27.8008 95.9143C36.6818 96.2695 42.5432 92.0065 43.7866 90.9409C44.6747 91.2961 45.5628 91.4735 46.4509 91.8291C49.1151 92.5396 51.9572 92.8948 54.7989 93.0722C55.5093 93.0722 56.2202 93.0722 56.9306 93.0722H57.2858H57.4632H57.8184H58.1736C62.4366 99.1112 69.7192 99.9995 69.7192 99.9995C75.0478 94.493 75.2252 88.987 75.2252 87.7435V87.5661V87.3883C76.2909 86.6779 77.3565 85.7901 78.4226 84.9018C80.5539 82.9479 82.3299 80.8166 83.9286 78.5075C84.1064 78.3297 84.2838 78.1523 84.2838 77.7971C90.3229 78.1523 94.4081 74.0671 94.4081 74.0671C93.3425 67.8502 89.7899 64.8307 89.0794 64.2981H88.9021C88.9021 63.9424 88.9021 63.5872 88.9021 63.232C88.9021 62.5216 88.9021 61.8111 88.9021 61.2785V60.3903V60.2125V60.0351V59.8572V59.502V58.9694C88.9021 58.7916 88.9021 58.6142 88.9021 58.4364C88.9021 58.259 88.9021 58.0812 88.9021 57.9033V57.3708V56.8377C88.7242 56.1273 88.7242 55.4169 88.5468 54.8838C87.8364 52.2199 86.9482 49.733 85.5273 47.4239C84.1065 45.1149 82.5078 43.1611 80.5539 41.3849C78.6 39.6087 76.4687 38.3654 74.1596 37.2997C71.8505 36.2339 69.5414 35.7011 67.0549 35.3459C65.8114 35.1682 64.7457 35.1682 63.5023 35.1682H63.1471H62.9697H62.7918H62.6145H62.2593C62.0814 35.1682 61.9036 35.1682 61.7262 35.1682C61.1932 35.1682 60.4827 35.3459 59.9501 35.3459C57.641 35.7011 55.3319 36.5892 53.378 37.8325C51.4241 39.0759 49.6481 40.4968 48.2271 42.0954C46.8061 43.694 45.7404 45.6478 45.0299 47.6017C44.3194 49.5556 43.9642 51.5091 43.7866 53.463C43.7866 53.996 43.7866 54.3512 43.7866 54.8838C43.7866 55.0616 43.7866 55.0616 43.7866 55.2395V55.5947C43.7866 55.7721 43.7866 56.1273 43.7866 56.3051C43.9642 57.1929 44.1418 58.259 44.3194 59.1468C44.8523 60.9229 45.7404 62.5216 46.6285 63.9424C47.6942 65.3637 48.9375 66.4294 50.1811 67.3172C51.4241 68.2054 52.8454 68.9159 54.2663 69.2711C55.6871 69.6263 56.9306 69.8041 58.3515 69.8041C58.5288 69.8041 58.7067 69.8041 58.884 69.8041H59.0619H59.2397C59.4171 69.8041 59.5949 69.8041 59.5949 69.8041C59.5949 69.8041 59.5949 69.8041 59.7723 69.8041H59.9501H60.1275C60.3054 69.8041 60.4827 69.8041 60.6606 69.8041C60.8379 69.8041 61.0158 69.8041 61.1932 69.6263C61.5484 69.6263 61.7262 69.4489 62.0814 69.4489C62.6145 69.2711 63.1471 69.0937 63.6801 68.7385C64.2127 68.5606 64.5679 68.2054 65.101 67.8502C65.2783 67.8502 65.2788 67.6728 65.4562 67.495C65.9892 67.1398 65.9892 66.4294 65.634 66.0742C65.2788 65.7189 64.7457 65.5411 64.3905 65.8963C64.2127 65.8963 64.2127 66.0742 64.0353 66.0742C63.6801 66.2515 63.3249 66.4294 62.7918 66.6067C62.4366 66.7846 61.9036 66.7846 61.5484 66.962C61.371 66.962 61.0158 66.962 60.8379 66.962C60.6606 66.962 60.6606 66.962 60.4827 66.962C60.3054 66.962 60.3054 66.962 60.1275 66.962C59.9501 66.962 59.9501 66.962 59.7723 66.962C59.5949 66.962 59.4171 66.962 59.4171 66.962H59.2397H59.0619C58.884 66.962 58.8845 66.962 58.7067 66.962C57.641 66.7846 56.7528 66.6068 55.6871 66.0742C54.6215 65.7189 53.7332 65.0085 52.845 64.2981C51.9572 63.5872 51.2467 62.5216 50.7137 61.6338C50.1811 60.7455 49.6481 59.502 49.4702 58.259C49.2928 57.726 49.2928 57.0155 49.2928 56.4825C49.2928 56.3051 49.2928 56.1273 49.2928 55.9499V55.7721V55.5947C49.2928 55.2395 49.2928 54.8838 49.4702 54.5286C50.0033 51.8643 51.2467 49.3778 53.378 47.2465C53.9111 46.7134 54.4437 46.3582 54.9767 45.8252C55.5093 45.47 56.2202 45.1149 56.7528 44.7597C57.4632 44.4045 58.1736 44.2268 58.7067 44.0492C59.4171 43.8716 60.1275 43.694 60.8379 43.694C61.1932 43.694 61.5484 43.694 61.9036 43.694H62.0814H62.4366H62.6145H62.9697C63.6801 43.694 64.5679 43.8716 65.2783 44.0492C66.877 44.4044 68.2979 44.9373 69.7192 45.8252C72.5609 47.4239 74.87 49.9108 76.4687 52.7525C77.1791 54.1734 77.7122 55.7721 78.0674 57.3708C78.0674 57.726 78.2448 58.259 78.2448 58.6142V58.9694V59.3246C78.2448 59.502 78.2448 59.502 78.2448 59.6799C78.2448 59.8572 78.2448 59.8572 78.2448 60.0351V60.3903V60.7455C78.2448 60.9229 78.2448 61.2781 78.2448 61.4559C78.2448 61.989 78.2448 62.3442 78.0674 62.8768C78.0674 63.232 77.8895 63.765 77.8895 64.1203C77.8895 64.4755 77.7117 65.0085 77.5343 65.3637C77.3565 66.2515 77.0013 67.1398 76.6461 67.8502C75.9356 69.4489 75.0478 71.0476 73.9817 72.6458C71.8505 75.488 69.0088 77.9745 65.634 79.3953C64.0353 80.1062 62.2593 80.6388 60.4827 80.994C59.5949 81.1719 58.7067 81.1718 57.8184 81.3492H57.641H57.4632H57.108H56.7528H56.5754C56.0423 81.3492 55.6871 81.3492 55.1541 81.3492C53.2006 81.1718 51.2467 80.8166 49.4702 80.2836C47.6942 79.751 45.7404 79.0401 44.1418 78.1523C40.767 76.3758 37.7475 73.8893 35.2608 70.8698C34.0175 69.4489 32.9518 67.8502 32.2413 66.0742C31.3532 64.2981 30.6427 62.5216 30.1099 60.7455C29.577 58.9694 29.2218 57.0155 29.2218 55.2395V54.8838V54.7064V54.3512V53.2856V53.1077V52.7525V52.5751C29.2218 52.3973 29.2218 52.0421 29.2218 51.8643C29.2218 50.9765 29.3994 49.9108 29.3994 49.0226C29.577 48.1343 29.7546 47.0687 29.9323 46.1809C30.1099 45.2925 30.2875 44.2268 30.6427 43.3387C31.1756 41.5625 31.8861 39.7863 32.5965 38.0101C34.1951 34.6354 36.1489 31.6158 38.6356 29.3068C39.1684 28.7739 39.879 28.0634 40.5894 27.5306C41.2999 26.9977 42.0104 26.4648 42.7209 26.1096C43.4314 25.5768 44.1418 25.2215 44.8523 24.8663C45.2075 24.6886 45.5628 24.511 45.918 24.3334C46.0956 24.3334 46.2733 24.1558 46.4509 24.1558C46.6285 24.1558 46.8061 23.9782 46.9838 23.9782C47.6942 23.623 48.5823 23.4453 49.2928 23.0901C49.4702 23.0901 49.648 22.9124 49.8259 22.9124C50.0033 22.9124 50.1811 22.7348 50.3585 22.7348C50.7137 22.5572 51.2467 22.5572 51.602 22.3796C51.7793 22.3796 51.9572 22.202 52.3124 22.202C52.4898 22.202 52.6676 22.202 53.0228 22.0244C53.2006 22.0244 53.378 22.0244 53.7332 21.8468H54.0884H54.4437C54.6215 21.8468 54.7989 21.8468 55.1541 21.6691C55.3319 21.6691 55.6871 21.6691 55.865 21.4915C56.0423 21.4915 56.3976 21.4915 56.5754 21.4915C56.7528 21.4915 56.9306 21.4915 57.108 21.4915H57.4632H57.641H57.8184C57.9962 21.4915 58.3515 21.4915 58.5288 21.4915H58.884H59.0619C59.2397 21.4915 59.4171 21.4915 59.5949 21.4915C60.4827 21.4915 61.1932 21.4915 62.0814 21.4915C63.6801 21.4915 65.2783 21.6691 66.877 22.0244C69.8966 22.5572 72.7387 23.623 75.403 24.8663C78.0674 26.1096 80.376 27.7082 82.3299 29.4844C82.5078 29.662 82.5078 29.662 82.6851 29.8396C82.863 30.0172 82.863 30.0172 83.0404 30.1949C83.2182 30.3725 83.5734 30.5501 83.7508 30.9053C83.9286 31.2606 84.2838 31.2606 84.4617 31.6158C84.639 31.9711 84.9943 32.1487 85.1721 32.3263C86.0599 33.2144 86.7703 34.1025 87.4812 35.1682C88.9021 36.9444 90.1455 38.8982 91.0333 40.6744C91.0333 40.8521 91.2112 40.8521 91.2112 41.0297C91.2112 41.2073 91.3885 41.2073 91.3885 41.3849C91.5664 41.5625 91.5664 41.7401 91.7438 42.0954C91.9216 42.273 91.9216 42.4506 92.099 42.8059C92.2768 42.9835 92.2768 43.1611 92.4542 43.5163C92.8099 44.4045 93.1651 45.1149 93.3424 45.8252C93.6977 47.0687 94.0529 48.1343 94.2307 49.0226C94.4081 49.3778 94.7633 49.733 95.1185 49.5556C95.4737 49.5556 95.8294 49.2004 95.8294 48.8447C96.5398 46.7134 96.5398 45.47 96.362 44.2268Z" fill="url(#paint0_linear_33_828)"/>
<defs>
<linearGradient id="paint0_linear_33_828" x1="50.5191" y1="127.023" x2="50.5191" y2="11.3409" gradientUnits="userSpaceOnUse">
<stop stop-color="#FFF100"/>
<stop offset="1" stop-color="#F05A28"/>
</linearGradient>
</defs>
</svg>
