<svg width="100" height="100" viewBox="0 0 100 100" fill="none" xmlns="http://www.w3.org/2000/svg">
<path d="M90.41 41.3212C95.2192 41.0899 99.4767 44.8211 99.892 49.6349C101.691 72.9216 80.7627 98.9646 50.7304 99.7985C45.9169 99.9325 41.9075 96.1283 41.7739 91.3019C41.641 86.4751 45.4339 82.4544 50.2474 82.3204C70.1711 81.7671 82.7934 64.5579 82.1198 50.4723C81.8892 45.6498 85.6004 41.5526 90.41 41.3212Z" fill="url(#paint0_linear_33_842)"/>
<path d="M8.81096 40.8257C13.626 40.8257 17.5291 44.7401 17.5291 49.5684C17.5291 69.7206 33.7329 82.7626 49.9172 82.3633C54.7311 82.2445 58.7287 86.0612 58.8471 90.8876C58.9659 95.7148 55.1597 99.7241 50.3462 99.8433C25.0378 100.467 0.00610352 80.2045 0.00610352 49.5684C0.00610352 44.7401 3.99591 40.8257 8.81096 40.8257Z" fill="url(#paint1_linear_33_842)"/>
<path d="M68.6309 50.2459C68.6309 45.303 72.6633 41.2957 77.6369 41.2957H90.7614C95.7355 41.2957 99.8921 45.303 99.8921 50.2459C99.8921 55.1895 95.7355 59.1965 90.7614 59.1965H77.6366C72.6633 59.1965 68.6309 55.1895 68.6309 50.2459Z" fill="url(#paint2_linear_33_842)"/>
<path d="M41.0925 50.2591C41.0925 45.3085 45.0987 41.2957 50.0353 41.2957C54.9723 41.2957 58.9789 45.3085 58.9789 50.2591C58.9789 55.2098 54.9723 59.2226 50.0353 59.2226C45.0987 59.2226 41.0925 55.2094 41.0925 50.2591Z" fill="url(#paint3_linear_33_842)"/>
<path d="M58.7312 8.37911C58.9308 13.2031 55.1926 17.2762 50.3819 17.4766C29.6147 18.3417 16.9364 34.6639 17.5534 50.1625C17.7456 54.9865 14.0794 59.0541 9.26823 59.2467C4.45709 59.4394 0.226199 55.5457 0.034347 50.7209C-0.971408 25.4652 20.058 0.497565 49.6583 0.00719069C54.469 -0.193257 58.5311 3.55508 58.7304 8.37911H58.7312Z" fill="url(#paint4_linear_33_842)"/>
<defs>
<linearGradient id="paint0_linear_33_842" x1="53.9625" y1="120.727" x2="80.9807" y2="124.2" gradientUnits="userSpaceOnUse">
<stop stop-color="#1A7D75"/>
<stop offset="1" stop-color="#1A8864"/>
</linearGradient>
<linearGradient id="paint1_linear_33_842" x1="3.46553" y1="47.3882" x2="-10.2536" y2="83.4594" gradientUnits="userSpaceOnUse">
<stop offset="0.013" stop-color="#168A81"/>
<stop offset="1" stop-color="#31A97F"/>
</linearGradient>
<linearGradient id="paint2_linear_33_842" x1="23.5206" y1="50.8606" x2="35.8094" y2="69.4937" gradientUnits="userSpaceOnUse">
<stop stop-color="#27A59B"/>
<stop offset="1" stop-color="#64D8A2"/>
</linearGradient>
<linearGradient id="paint3_linear_33_842" x1="15.4401" y1="52.1363" x2="40.3015" y2="73.6728" gradientUnits="userSpaceOnUse">
<stop stop-color="#27A59B"/>
<stop offset="1" stop-color="#64D8A2"/>
</linearGradient>
<linearGradient id="paint4_linear_33_842" x1="122.673" y1="-84.0945" x2="50.4507" y2="-108.472" gradientUnits="userSpaceOnUse">
<stop stop-color="#27A59B"/>
<stop offset="1" stop-color="#64D8A2"/>
</linearGradient>
</defs>
</svg>
