<svg width="100" height="100" viewBox="0 0 100 100" fill="none" xmlns="http://www.w3.org/2000/svg">
<g clip-path="url(#clip0_33_849)">
<path d="M18.0267 24.2298C18.0267 24.2298 19.7341 30.8148 19.9777 33.0102C20.2218 35.205 15.5878 40.0828 15.5878 42.5217C15.5878 44.9609 16.5619 49.3508 21.9283 51.5462C27.2947 53.7413 28.0256 59.3504 28.0256 62.7658C28.0256 66.1801 26.0747 72.7645 26.0747 72.7645C26.0747 72.7645 24.8558 89.1051 31.4402 92.0317C38.0246 94.958 36.5619 94.958 38.0246 94.958C39.4876 94.958 50.2192 99.3494 56.5601 97.6417C62.9015 95.9345 64.6075 93.9836 64.6075 93.9836C64.6075 93.9836 70.9492 94.4709 72.9002 88.8607C74.852 83.2517 76.0709 71.5453 75.3388 66.1795C74.607 60.8131 73.632 53.7416 78.0213 51.3024C82.4126 48.8632 87.0458 45.9374 86.314 43.4979C85.5822 41.0587 81.6811 37.6442 81.6811 37.6442C81.6811 37.6442 80.7052 31.5474 81.4364 30.0839C82.1676 28.6206 86.5581 24.9613 84.1189 22.2791C81.6814 19.5967 77.2901 19.5967 77.2901 19.5967L71.681 20.0837C71.681 20.0837 62.1694 11.5481 49.731 12.0358C37.2931 12.5234 29.4881 20.0837 29.4881 20.0837C29.4881 20.0837 25.3423 18.6204 21.6836 20.0837C18.0249 21.5476 17.2955 20.0834 18.0267 24.2298Z" fill="#FBA919"/>
<path d="M40.3121 60.5424C40.3121 60.5424 35.4822 67.9272 31.9395 73.168C31.3913 73.9789 35.4822 74.035 35.4822 74.035L40.3121 60.5421V60.5424ZM42.6115 45.2314C42.6115 45.2314 41.1555 48.8636 40.358 50.789C39.4925 52.8824 36.1916 53.9237 36.1916 53.9237C36.1916 53.9237 37.9025 52.1291 37.9025 47.5828C37.9025 45.6758 40.365 44.9172 40.365 44.9172L42.6115 45.2314Z" fill="#E78724"/>
<path d="M41.1409 47.2851C41.1409 47.2851 38.158 50.836 32.6198 48.8473C27.0802 46.8594 26.5123 39.7571 26.5123 37.7686C26.5123 35.7802 37.0225 39.7571 38.4434 40.6095C39.8639 41.4619 42.5612 44.87 41.1409 47.2851ZM20.2197 9.34404C20.2197 9.34404 25.3327 8.34894 28.7409 11.048C32.1508 13.7464 33.1438 15.8773 33.1438 15.8773L27.3985 20.4314C27.3985 20.4314 24.6224 19.1445 23.7703 15.4512C22.9182 11.7583 23.4864 10.0543 20.2197 9.34404Z" fill="#E78724"/>
<path d="M39.6495 37.029C37.4483 33.9042 33.8204 32.5411 30.9237 32.3153C25.9849 31.9291 23.6401 33.6752 23.6401 33.6752C23.6401 33.6752 31.7288 34.0175 34.0602 37.0795C38.4004 42.7787 44.7322 43.2417 45.7447 41.9899C44.5738 42.0484 43.2861 41.4683 41.9073 40.1648C41.0462 39.3493 40.3481 38.0209 39.6495 37.029ZM25.9947 48.078C25.9947 48.078 17.0202 44.9927 18.7259 41.8687C20.4299 38.7437 19.0735 37.0409 19.0735 37.0409C19.0735 37.0409 14.0623 40.7818 15.339 44.7587C16.124 47.1994 17.4405 48.9667 24.6701 52.3548C28.1378 58.7959 25.3862 70.3895 25.551 70.4439C25.8256 70.5351 30.4198 68.1732 30.1062 57.3265C30.0103 53.996 29.7441 49.4488 25.9947 48.0782V48.078ZM37.7552 14.9017C33.9922 16.8134 28.8368 19.4758 28.8368 19.4758L30.8659 20.491C30.6721 20.8045 30.5788 20.9917 30.5788 20.9917L32.6614 21.9386C32.6614 21.9386 37.7453 25.6214 40.8599 27.9894C39.8215 24.7908 36.7729 19.7667 36.7729 19.7667C36.7729 19.7667 35.9091 17.4586 37.7552 14.9017ZM50.2567 92.831C38.6898 92.831 34.7722 86.9592 34.7722 86.9592L36.5799 91.361C37.2629 93.2652 44.5517 99.191 50.2393 99.191" fill="#E78724"/>
<path d="M36.0396 82.9915C36.0396 82.9915 37.1039 89.4951 41.3651 89.4951C44.986 89.4951 46.0528 84.0014 46.0528 82.866L36.0396 82.9915ZM28.9487 73.1829C29.3274 72.1407 30.6529 67.9273 31.0787 64.0928C31.589 59.5 31.403 52.7831 31.403 52.7831C31.403 52.7831 30.2661 57.1861 29.2719 57.8975C28.2782 58.6072 26.4313 63.4359 26.4313 63.4359C26.4313 63.4359 25.442 70.6248 24.9712 73.0411C26.2744 73.3018 27.3712 72.5342 28.9487 73.1829ZM18.6588 44.6877C18.6588 44.6877 21.0727 43.8347 21.7836 38.5802C22.4936 33.3249 20.9309 28.7798 20.9309 28.7798C20.9309 28.7798 21.0727 36.0233 20.2209 37.4442C19.3682 38.8639 18.6588 39.2902 17.664 41.1372C16.6692 42.9844 18.0898 44.1193 18.6588 44.6877Z" fill="#E78724"/>
<path d="M21.5413 10.587L21.0484 10.2749C19.5953 10.324 21.5413 10.587 21.5413 10.587Z" fill="#FDC168"/>
<path d="M39.7199 13.3456C39.7199 13.3456 37.4483 12.9672 36.3114 11.263C35.1745 9.55847 31.9558 6.14915 26.8242 6.11137C21.693 6.07301 16.6163 7.47527 16.6163 7.47527L21.0478 10.2754C21.5166 10.26 22.3361 10.2664 23.6913 10.3118C29.253 10.4966 30.1092 15.9976 30.1092 15.9976L49.7095 13.2985" fill="#FBA919"/>
<path d="M41.6144 43.7296C41.6144 43.7296 38.9627 46.3809 34.8905 45.5283C30.8185 44.6764 28.3561 42.8772 28.1669 39.7521C27.9777 36.6273 29.0199 35.3965 29.0199 35.3965C29.0199 35.3965 33.5644 36.8176 35.7435 38.7116C37.9214 40.6051 39.5312 43.6351 41.6144 43.7296Z" fill="white"/>
<path d="M38.4054 42.7825C38.4054 42.7825 36.1057 43.8328 33.5354 42.9772C30.1708 41.8548 29.9467 38.3557 29.9467 38.3557C29.9467 38.3557 27.8824 44.4132 33.6696 45.5792C38.3112 46.5141 41.0565 43.8244 41.0565 43.8244L38.4054 42.7822V42.7825Z" fill="#C9C9C9"/>
<path d="M40.0395 12.0605C39.7922 6.86582 44.0507 2.72848 45.5265 2.55207C45.6079 3.43237 45.444 6.86611 46.9192 7.92195C47.3487 5.11742 48.801 2.02517 54.5359 -0.000488281C53.3077 3.25713 54.3717 5.98581 54.8788 7.25061C58.7947 3.69626 61.4333 4.28332 61.4333 4.28332C61.4333 4.28332 58.7122 8.97866 59.7767 12.0596C51.9153 11.4432 40.0779 12.8945 40.0395 12.0605ZM23.3733 19.9736C21.4973 18.4173 22.8955 16.9732 22.7473 15.205C22.6668 14.2643 22.5924 13.3767 22.2823 12.887C20.556 10.1615 16.4841 9.33439 16.4434 9.32567L14.5322 8.95134L15.7973 7.47148C15.9612 7.27967 21.1564 2.32248 29.1966 4.91834C34.8208 6.73213 38.9843 12.8829 39.1392 13.1314L36.3192 14.4575C36.2861 14.4052 32.9945 8.62352 28.1695 7.0678C24.2693 5.8094 20.6743 7.00677 19.1349 7.79146C20.7717 8.44479 22.9115 9.63489 24.201 11.6707C24.8093 12.6324 24.9122 13.8429 25.0113 15.0152C25.1421 16.5672 25.2641 18.0322 26.4063 18.9811L23.3733 19.9736ZM18.3635 42.6903C18.3635 42.6903 20.7266 39.7596 21.4267 34.0576C21.7017 31.8113 21.2131 27.3813 20.4316 25.6771C20.5737 29.867 19.5086 34.0576 19.5086 34.0576C19.5086 34.0576 18.7905 41.8379 18.3635 42.6903Z" fill="#463014"/>
<path d="M30.8249 17.014C30.8235 17.0079 30.0664 13.6994 27.9675 12.0292C25.0066 9.67393 21.3915 10.9268 21.3567 10.9379L20.8318 9.31617C21.0067 9.2595 25.1389 7.9575 28.9469 10.6344C32.7779 13.3265 33.2377 15.7669 33.2775 16.0363L30.8249 17.014ZM25.7858 40.5886C25.7858 40.5886 24.546 38.8137 24.7689 36.8619C24.8799 35.8979 25.3269 34.9083 26.1241 34.5572C27.6063 33.9062 28.2631 35.5861 28.2631 35.5861C28.2631 35.5861 26.1773 36.1008 25.7858 40.5886Z" fill="#463014"/>
<path d="M39.399 43.2939C39.4507 43.3904 39.4774 43.4448 39.4774 43.4448C39.4774 43.4448 35.6101 46.3469 31.6471 43.4017C29.5256 41.8236 29.7261 37.9208 30.3759 36.2657C32.0662 36.6488 33.4996 37.339 34.6975 38.1452C33.1834 36.7938 31.8581 35.799 31.8616 35.776L30.1405 35.2889L26.7954 34.1418C26.7527 34.397 25.5327 40.1159 29.0545 44.0126C30.6151 45.7407 37.933 49.6101 41.4078 42.9937L39.399 43.2936V43.2939Z" fill="#463014"/>
<path d="M39.0368 43.7192C41.2139 47.0329 46.7073 45.1392 46.6128 41.636C46.6128 41.636 42.9423 43.6617 39.6992 39.9318C37.8057 37.7544 31.7389 31.7504 23.5114 33.7455C29.1931 34.9952 36.7156 40.1858 39.0368 43.7192Z" fill="#463014"/>
<path d="M22.743 53.0714C23.2667 53.3739 25.1139 55.2871 25.1151 58.148C25.1151 59.5828 24.9724 66.7903 24.2621 71.1936C25.3302 71.8876 26.0742 72.0352 27.1378 72.7426C27.6703 67.643 28.0522 60.2518 27.8743 57.268C27.6709 53.8668 25.8495 51.5842 24.1607 50.6109C23.6317 50.3067 23.0793 50.0076 22.5227 49.7068C19.6301 48.1438 16.6387 46.5268 16.6387 43.7661C16.6387 41.6062 17.4786 40.9308 18.3674 40.2147L18.4633 40.1371C19.0532 39.6605 19.7205 39.1199 20.1161 38.2326C21.1951 35.8065 21.3716 29.6258 20.1161 28.057C19.4901 27.2752 17.8131 24.6462 18.2953 22.8795C18.479 22.2052 18.9036 21.7054 19.595 21.3514C20.3265 20.9765 21.3149 20.7867 22.5314 20.7867C24.921 20.7867 27.5715 21.5141 28.9389 21.9472C33.8251 23.4959 39.7213 27.9611 41.4113 29.2927C41.4599 29.3299 41.4883 29.3517 41.4936 29.3552L42.575 30.1073L41.8987 28.9756C41.8568 28.905 37.5733 21.8614 29.9139 19.2789C28.4239 18.7765 25.4964 17.9333 22.6192 17.9333C20.9066 17.9333 19.4529 18.2327 18.3023 18.8218C16.8994 19.5393 15.9497 20.6841 15.555 22.1314C14.5878 25.6791 17.7379 29.629 17.8451 29.7554C18.2125 30.411 18.3682 35.1735 17.5196 37.0794C17.4034 37.3427 17.0831 37.6011 16.6783 37.9281C16.5513 38.0307 16.4094 38.1373 16.2592 38.2512C15.0621 39.1548 13.2521 40.5199 13.2521 43.6665C13.2521 47.9718 17.6155 50.3061 21.1222 52.1829C21.6976 52.4924 22.2466 52.7854 22.743 53.0714Z" fill="#463014"/>
<path d="M23.3733 19.9736C21.4973 18.4173 22.8955 16.9732 22.7473 15.205C22.6668 14.2643 22.5924 13.3767 22.2823 12.887C20.556 10.1615 16.4841 9.33439 16.4434 9.32567L14.5322 8.95134L15.7973 7.47148C15.9612 7.27967 21.1564 2.32248 29.1966 4.91834C34.8208 6.73213 38.9843 12.8829 39.1392 13.1314L36.3192 14.4575C36.2861 14.4052 32.9945 8.62352 28.1695 7.0678C24.2693 5.8094 20.6743 7.00677 19.1349 7.79146C20.7717 8.44478 22.9115 9.63489 24.201 11.6707C24.8093 12.6324 24.9122 13.8429 25.0113 15.0152C25.1421 16.5672 25.2641 18.0322 26.4063 18.9811L23.3733 19.9736Z" fill="#463014"/>
<path d="M23.3123 20.2924L23.1911 20.1919C21.8002 19.0375 22.0469 17.9006 22.2858 16.8003C22.3945 16.2926 22.509 15.7677 22.4625 15.2292C22.3867 14.3239 22.3137 13.4697 22.0411 13.0387C20.3976 10.4434 16.4254 9.61225 16.3861 9.60411L13.9995 9.13592L15.5817 7.28609C15.6107 7.25121 18.9465 3.88403 24.596 3.88403C26.1363 3.88403 27.7141 4.14036 29.2838 4.64751C35.1538 6.54006 39.3411 12.9175 39.3807 12.9806L39.5501 13.2515L36.2143 14.8203L36.0806 14.6081C35.7214 13.996 32.5585 8.7799 28.0841 7.33666C26.9852 6.9821 25.8274 6.80278 24.6439 6.80278C22.5003 6.80278 20.7621 7.38694 19.837 7.77928C21.3828 8.47533 23.2577 9.64684 24.4434 11.5176C25.0886 12.5365 25.1932 13.7818 25.2955 14.9853C25.4211 16.4815 25.5396 17.8887 26.5894 18.76L26.9855 19.0884L23.3123 20.2924Z" fill="#463014"/>
<path d="M30.8249 17.014C30.8235 17.0079 30.0664 13.6994 27.9675 12.0292C25.0066 9.67393 21.3915 10.9268 21.3567 10.9379L20.8318 9.31617C21.0067 9.2595 25.1389 7.9575 28.9469 10.6344C32.7779 13.3265 33.2377 15.7669 33.2775 16.0363L30.8249 17.014Z" fill="#463014"/>
<path d="M30.6213 17.4008L30.5475 17.0753C30.5399 17.0433 29.7974 13.8482 27.79 12.2521C26.6458 11.3413 25.2662 10.8786 23.6916 10.8786C22.4626 10.8786 21.5491 11.1721 21.4495 11.2067L21.1783 11.2968L20.4741 9.13368L20.7441 9.04649C20.865 9.00784 21.9618 8.66577 23.5132 8.66577C25.5598 8.66577 27.4947 9.26649 29.1112 10.4017C33.0384 13.1612 33.518 15.7131 33.5586 15.9948L33.5932 16.2174L30.6213 17.4008ZM23.6919 10.3116C25.3741 10.3116 26.915 10.8289 28.1443 11.8066C29.9267 13.2263 30.7652 15.7323 31.0186 16.6309L32.9507 15.8608C32.7757 15.1787 32.0055 13.1315 28.7843 10.867C27.2431 9.78381 25.4703 9.23511 23.5135 9.23511C22.4396 9.23511 21.6055 9.40599 21.1934 9.51004L21.5419 10.5871C21.9458 10.4784 22.7236 10.3116 23.6919 10.3116ZM41.187 87.9352C40.3476 87.9352 39.4912 87.6306 38.8977 87.1168C38.4432 86.725 36.9063 85.3135 36.2286 83.5842C35.9758 82.9376 36.0324 82.4203 36.3995 82.048C36.6523 81.7928 37.1775 81.488 38.2432 81.488L39.0015 81.4868C39.905 81.4856 41.4261 81.4856 42.7264 81.4856H43.9732C44.784 81.4856 45.3653 81.6612 45.6992 82.003C46.1285 82.4438 45.991 83.0047 45.8707 83.3C45.662 83.8173 44.7974 85.5003 43.3338 87.0651C42.8098 87.626 42.0472 87.9352 41.187 87.9352ZM42.0667 43.9139L39.0366 43.7192C39.0366 43.7192 39.8111 45.0846 40.3131 46.8504C40.8798 48.8479 39.7949 51.7672 39.7949 51.7672C39.7949 51.7672 43.8351 47.1928 42.0667 43.9139ZM38.2842 95.9361C27.4994 95.1072 23.705 84.9165 23.705 82.794L26.5214 82.7952L25.1134 82.794H26.5214C26.5357 83.7115 29.4015 92.4288 38.4998 93.1287L38.2842 95.9361Z" fill="#463014"/>
<path d="M35.2535 77.6777C35.0849 76.7038 35.0675 75.78 35.273 74.8723C34.4534 74.2562 32.9828 74.0275 31.8793 73.6697C30.977 73.0986 26.3592 74.255 23.0095 70.2008C18.812 65.1242 19.6952 62.0933 19.6952 62.0933C18.619 63.2889 17.5759 62.8332 15.9357 68.4085C14.2928 73.9851 16.7067 77.8725 21.2056 81.7753C23.3309 83.6187 26.3354 84.3784 28.9199 84.669C28.0541 83.8 30.3986 83.7129 32.0145 83.1084C31.8857 81.8034 32.1017 80.5369 33.0744 79.5171C33.6609 78.9021 34.4156 78.5348 35.1989 78.2418C35.2425 78.1407 35.2794 78.0471 35.3209 77.9501C35.2934 77.8606 35.2708 77.7697 35.2535 77.6777Z" fill="white"/>
<path d="M31.993 83.0744C31.8994 82.8004 31.8288 82.5214 31.7596 82.2403C31.685 81.9337 31.313 81.0642 31.7713 82.0569C31.6536 81.8026 31.5765 81.5408 31.5199 81.2769C24.2339 81.2676 17.8954 76.2651 19.1201 65.7482C18.1662 64.482 16.8305 68.3017 16.8305 68.3017C16.8305 68.3017 13.1829 78.8926 22.6032 82.9974C25.742 84.3663 28.516 85.3477 29.1705 84.9516C30.5338 85.2285 31.7643 84.2782 32.2258 83.6531C32.1395 83.4612 32.0604 83.2689 31.993 83.0744Z" fill="#C9C9C9"/>
<path d="M35.1222 76.1528C35.1335 75.2653 35.3149 74.4053 35.7441 73.5488C35.7741 73.4898 35.8086 73.4332 35.8409 73.3756C33.0372 73.3515 29.8084 73.0833 27.0588 71.9827C24.0366 70.7737 20.2561 66.6381 19.6066 61.7788C19.6066 61.7788 13.915 66.1707 15.5872 75.5716C17.1572 84.3987 24.544 87.2765 32.9684 87.7633C32.973 87.7063 32.0209 85.74 32.3217 84.5359C27.538 84.8835 22.1888 83.0354 19.6066 78.7865C17.2423 74.8973 17.9056 68.2577 18.8771 67.2847C21.2472 74.7631 29.7753 76.2833 35.1222 76.1528Z" fill="#463014"/>
<path d="M36.0048 70.7992C34.4889 75.2478 31.3926 78.8483 31.3926 78.8483C31.3926 78.8483 35.652 78.6545 35.8871 77.9009C36.0612 77.3452 39.7332 68.7491 41.1428 58.679C39.8169 60.8572 36.1347 70.4182 36.0048 70.7992Z" fill="#463014"/>
<path d="M60.1374 60.5424C60.1374 60.5424 64.9661 67.9272 68.51 73.168C69.0581 73.9789 64.9661 74.035 64.9661 74.035L60.1374 60.5421V60.5424ZM57.8374 45.2314C57.8374 45.2314 59.2934 48.8636 60.0897 50.789C60.9558 52.8824 64.2561 53.9237 64.2561 53.9237C64.2561 53.9237 62.5455 52.1291 62.5455 47.5828C62.5455 45.6758 60.0834 44.9172 60.0834 44.9172L57.8374 45.2314Z" fill="#E78724"/>
<path d="M59.308 47.2851C59.308 47.2851 62.2907 50.836 67.8306 48.8473C73.3705 46.8588 73.9378 39.7571 73.9378 37.7686C73.9378 35.7802 63.4276 39.7571 62.0067 40.6095C60.5862 41.4619 57.888 44.87 59.308 47.2851ZM80.2295 9.34404C80.2295 9.34404 75.1165 8.34894 71.7069 11.048C68.2988 13.7464 67.304 15.8773 67.304 15.8773L73.0496 20.4314C73.0496 20.4314 75.8268 19.1439 76.6789 15.4509C77.5308 11.7583 76.9629 10.054 80.2295 9.34404Z" fill="#E78724"/>
<path d="M60.7998 37.0289C63.001 33.9041 66.6277 32.5411 69.5255 32.3153C74.4647 31.929 76.8083 33.6751 76.8083 33.6751C76.8083 33.6751 68.7196 34.0175 66.3876 37.0795C62.0471 42.7787 55.7176 43.2416 54.7051 41.9899C55.8757 42.0483 57.1643 41.4682 58.5419 40.1648C59.4027 39.3493 60.1014 38.0208 60.7998 37.0289ZM74.4545 48.0779C74.4545 48.0779 83.4281 44.9926 81.7236 41.8687C80.0197 38.7436 81.3749 37.0408 81.3749 37.0408C81.3749 37.0408 86.3873 40.7818 85.1094 44.7584C84.3244 47.1991 83.0079 48.9663 75.7783 52.3545C72.3105 58.7956 75.0622 70.3892 74.8983 70.4435C74.6233 70.5348 70.0297 68.1729 70.3433 57.3262C70.4386 53.9956 70.7051 49.4485 74.4545 48.0779ZM62.6944 14.9016C66.4562 16.8133 71.6125 19.4758 71.6125 19.4758L69.5839 20.4909C69.7775 20.8045 69.871 20.9917 69.871 20.9917L67.7884 21.9385C67.7884 21.9385 62.7042 25.6213 59.5893 27.9893C60.6268 24.791 63.6755 19.767 63.6755 19.767C63.6755 19.767 64.541 17.4585 62.6944 14.9016ZM50.1931 92.831C61.758 92.831 65.6759 86.9592 65.6759 86.9592L63.8693 91.361C63.1864 93.2652 55.8966 99.191 50.2108 99.191" fill="#E78724"/>
<path d="M64.4096 82.9915C64.4096 82.9915 63.3442 89.4951 59.0842 89.4951C55.4642 89.4951 54.3967 84.0014 54.3967 82.866L64.4096 82.9915ZM71.5006 73.1829C71.1219 72.1407 69.7964 67.9273 69.3694 64.0928C68.8591 59.5 69.0463 52.7831 69.0463 52.7831C69.0463 52.7831 70.1826 57.1861 71.176 57.8975C72.1711 58.6072 74.0168 63.4359 74.0168 63.4359C74.0168 63.4359 75.0058 70.6248 75.4766 73.0411C74.1741 73.3018 73.0784 72.5342 71.5006 73.1829ZM81.7913 44.6877C81.7913 44.6877 79.3762 43.8347 78.6665 38.5802C77.9565 33.3249 79.5189 28.7798 79.5189 28.7798C79.5189 28.7798 79.3762 36.0233 80.2289 37.4442C81.0816 38.8645 81.7913 39.2902 82.7859 41.1372C83.7792 42.9838 82.3589 44.1193 81.7913 44.6877Z" fill="#E78724"/>
<path d="M78.9077 10.587L79.4015 10.2749C80.8549 10.324 78.9077 10.587 78.9077 10.587Z" fill="#FDC168"/>
<path d="M60.7282 13.3457C60.7282 13.3457 63.0012 12.9673 64.1369 11.263C65.2733 9.55852 68.4934 6.1492 73.6253 6.11112C78.7565 6.07276 83.8332 7.47503 83.8332 7.47503L79.4014 10.2752C78.9326 10.2598 78.1131 10.2662 76.7567 10.3115C71.1959 10.4964 70.3397 15.9973 70.3397 15.9973L50.74 13.2983" fill="#FBA919"/>
<path d="M58.8348 43.7296C58.8348 43.7296 61.4865 46.3809 65.5579 45.5283C69.6301 44.6764 72.0923 42.8772 72.2818 39.7521C72.4707 36.6273 71.4297 35.3965 71.4297 35.3965C71.4297 35.3965 66.8837 36.8176 64.706 38.7116C62.5281 40.6056 60.9186 43.6351 58.8348 43.7296Z" fill="white"/>
<path d="M62.0431 42.7825C62.0431 42.7825 64.3436 43.8328 66.9131 42.9772C70.2785 41.8548 70.5026 38.3557 70.5026 38.3557C70.5026 38.3557 72.5657 44.4132 66.7785 45.5792C62.1378 46.5141 59.392 43.8244 59.392 43.8244L62.0431 42.7822V42.7825Z" fill="#C9C9C9"/>
<path d="M77.0756 19.9736C78.9516 18.4173 77.5545 16.9732 77.7027 15.205C77.7818 14.2643 77.8562 13.3767 78.1666 12.887C79.8929 10.1615 83.9648 9.33439 84.0067 9.32567L85.9184 8.95134L84.6528 7.47148C84.4888 7.27967 79.2936 2.32248 71.252 4.91834C65.629 6.73213 61.4658 12.8829 61.3109 13.1314L64.13 14.4575C64.164 14.4052 67.4559 8.62352 72.2808 7.0678C76.181 5.8094 79.7755 7.00677 81.3143 7.79146C79.6784 8.44478 77.5377 9.63489 76.2482 11.6707C75.6399 12.6324 75.5379 13.8429 75.4391 15.0152C75.3083 16.5672 75.1851 18.0322 74.0426 18.9811L77.0756 19.9736ZM82.0845 42.6903C82.0845 42.6903 79.7226 39.7596 79.0225 34.0576C78.7475 31.8113 79.2352 27.3813 80.0164 25.6771C79.8743 29.867 80.9406 34.0576 80.9406 34.0576C80.9406 34.0576 81.6587 41.8379 82.0845 42.6903Z" fill="#463014"/>
<path d="M69.6246 17.014C69.6258 17.0079 70.3828 13.6994 72.482 12.0292C75.4426 9.67393 79.058 10.9268 79.0917 10.9379L79.618 9.31617C79.4425 9.2595 75.311 7.9575 71.5017 10.6344C67.6707 13.3265 67.2121 15.7669 67.1711 16.0363L69.6246 17.014ZM74.6635 40.5886C74.6635 40.5886 75.9033 38.8137 75.6792 36.8619C75.5693 35.8979 75.1226 34.9083 74.3249 34.5572C72.843 33.9062 72.1859 35.5861 72.1859 35.5861C72.1859 35.5861 74.272 36.1008 74.6635 40.5886Z" fill="#463014"/>
<path d="M61.0506 43.2938C60.9989 43.3903 60.9721 43.4447 60.9721 43.4447C60.9721 43.4447 64.8377 46.3468 68.801 43.4016C70.9237 41.8236 70.7232 37.9207 70.0722 36.2656C68.3828 36.6487 66.9497 37.3389 65.7509 38.1451C67.2653 36.7937 68.5909 35.7989 68.5862 35.7759L70.3085 35.2888L73.653 34.1423C73.696 34.3975 74.9157 40.1164 71.3928 44.0134C69.8321 45.7412 62.5142 49.6106 59.0406 42.9942L61.0506 43.2935V43.2938Z" fill="#463014"/>
<path d="M61.4115 43.7192C59.2345 47.0329 53.7425 45.1392 53.8373 41.636C53.8373 41.636 57.5067 43.6617 60.7498 39.9318C62.6429 37.7544 68.7112 31.7504 76.9382 33.7455C71.2568 34.9952 63.7342 40.1858 61.4115 43.7192Z" fill="#463014"/>
<path d="M77.7074 53.0714C77.1831 53.3739 75.335 55.2871 75.335 58.148C75.3339 59.5828 75.4768 66.7903 76.188 71.1936C75.1197 71.8876 74.3757 72.0352 73.312 72.7426C72.7796 67.643 72.3965 60.2518 72.5758 57.268C72.779 53.8668 74.5994 51.5842 76.288 50.6109C76.8169 50.3067 77.3697 50.0076 77.9274 49.7068C80.82 48.1438 83.8114 46.5268 83.8114 43.7661C83.8114 41.6062 82.9709 40.9308 82.0822 40.2147L81.9874 40.1371C81.3975 39.6605 80.7287 39.1199 80.3343 38.2326C79.255 35.8065 79.078 29.6258 80.3332 28.057C80.9592 27.2752 82.6373 24.6462 82.1551 22.8795C81.9703 22.2052 81.5454 21.7054 80.8543 21.3514C80.1225 20.9765 79.1358 20.7867 77.9178 20.7867C75.5297 20.7867 72.8778 21.5141 71.5116 21.9472C66.6253 23.4959 60.7294 27.9611 59.0379 29.2927C58.9897 29.3299 58.9618 29.3517 58.9566 29.3552L57.8743 30.1073L58.5506 28.9756C58.5936 28.905 62.8762 21.8614 70.5353 19.2789C72.0257 18.7765 74.9528 17.9333 77.83 17.9333C79.543 17.9333 80.9949 18.2327 82.147 18.8218C83.5501 19.5393 84.4993 20.6841 84.8945 22.1314C85.8617 25.6791 82.7114 29.629 82.6038 29.7554C82.2368 30.411 82.0813 35.1735 82.9285 37.0794C83.0453 37.3427 83.3653 37.6011 83.7713 37.9281C83.898 38.0307 84.0387 38.1373 84.1901 38.2512C85.3874 39.1548 87.1966 40.5199 87.1966 43.6665C87.1966 47.9718 82.8331 50.3061 79.3276 52.1829C78.7519 52.4924 78.2023 52.7854 77.7074 53.0714Z" fill="#463014"/>
<path d="M72.502 19.4671C71.808 18.2915 70.0329 16.0217 65.9423 14.0272C61.3769 11.8021 56.0934 10.6728 50.2358 10.6702V10.6687H50.2131V10.6693C44.3547 10.6722 39.07 11.8018 34.506 14.0266C30.4152 16.0214 28.6412 18.2909 27.9466 19.4665L27.6484 19.8609L31.1516 20.6406L31.2627 20.5003L31.3214 20.3718C31.3754 20.1402 31.8451 18.8902 35.7505 16.9857C39.9259 14.9493 44.7959 13.9167 50.2236 13.915C55.6525 13.9167 60.5204 14.9493 64.6953 16.9857C68.6013 18.8902 69.0724 20.1402 69.1259 20.3715L69.1843 20.5003L69.2941 20.6406L72.7982 19.8609L72.502 19.4671Z" fill="#463014"/>
<path d="M77.0756 19.9736C78.9516 18.4173 77.5545 16.9732 77.7027 15.205C77.7818 14.2643 77.8562 13.3767 78.1666 12.887C79.8929 10.1615 83.9648 9.33439 84.0067 9.32567L85.9184 8.95134L84.6528 7.47148C84.4888 7.27967 79.2936 2.32248 71.252 4.91834C65.629 6.73213 61.4658 12.8829 61.3109 13.1314L64.13 14.4575C64.164 14.4052 67.4559 8.62352 72.2808 7.0678C76.181 5.8094 79.7755 7.00677 81.3143 7.79146C79.6784 8.44478 77.5377 9.63489 76.2482 11.6707C75.6399 12.6324 75.5379 13.8429 75.4391 15.0152C75.3083 16.5672 75.1851 18.0322 74.0426 18.9811L77.0756 19.9736Z" fill="#463014"/>
<path d="M73.4655 19.0898L73.8602 18.7611C74.9108 17.8898 75.0285 16.4826 75.1555 14.9865C75.2572 13.7827 75.3621 12.5371 76.007 11.5188C77.1922 9.64859 79.0682 8.47679 80.6134 7.77987C79.6884 7.38811 77.9499 6.80395 75.8059 6.80395C74.6219 6.80395 73.4664 6.98298 72.367 7.33783C67.8913 8.78108 64.7287 13.9972 64.3707 14.6093L64.2364 14.8214L60.9006 13.2526L61.0704 12.9818C61.1096 12.9187 65.296 6.54152 71.1661 4.64868C72.7358 4.14154 74.3136 3.8855 75.855 3.8855C81.5045 3.8855 84.8406 7.25355 84.8691 7.28755L86.4515 9.13738L84.064 9.60529C84.0245 9.61343 80.0525 10.4443 78.4079 13.0402C78.1353 13.4715 78.0638 14.3247 77.9865 15.2306C77.9414 15.7694 78.0545 16.2943 78.1646 16.8017C78.4032 17.9021 78.65 19.0401 77.2582 20.1933L77.1373 20.2939L73.4655 19.0898Z" fill="#463014"/>
<path d="M69.6246 17.014C69.6258 17.0079 70.3828 13.6994 72.482 12.0292C75.4426 9.67393 79.058 10.9268 79.0917 10.9379L79.618 9.31617C79.4425 9.2595 75.311 7.9575 71.5017 10.6344C67.6707 13.3265 67.2121 15.7669 67.1711 16.0363L69.6246 17.014Z" fill="#463014"/>
<path d="M66.8579 16.2173L66.891 15.9947C66.9326 15.7131 67.4124 13.1617 71.3387 10.4016C72.954 9.26645 74.8896 8.66602 76.9362 8.66602C78.4884 8.66602 79.5852 9.00721 79.7067 9.04644L79.9761 9.13363L79.2725 11.2968L79.0008 11.2067C78.899 11.1724 77.9862 10.8785 76.7577 10.8785C75.1834 10.8785 73.8047 11.3406 72.6605 12.252C70.6528 13.8487 69.91 17.0439 69.903 17.0752L69.8292 17.4002L66.8579 16.2173ZM78.9078 10.587L79.2574 9.50999C78.845 9.40537 78.01 9.23506 76.9362 9.23506C74.9797 9.23506 73.2063 9.78434 71.666 10.8669C68.4435 13.1321 67.6734 15.1786 67.4987 15.8607L69.4322 16.6309C69.6851 15.7317 70.5226 13.2256 72.3059 11.8065C73.5364 10.8286 75.0756 10.3115 76.7574 10.3115C77.7246 10.3115 78.5038 10.4784 78.9081 10.587H78.9078ZM57.1167 87.065C55.6534 85.5006 54.7876 83.817 54.5784 83.3C54.4586 83.0053 54.3226 82.4438 54.7516 82.0026C55.0861 81.6611 55.6659 81.4856 56.4765 81.4856H57.7241C59.0244 81.4856 60.5446 81.4856 61.4488 81.4867L62.2073 81.4879C63.2721 81.4879 63.797 81.7925 64.0496 82.0479C64.4169 82.4197 64.4742 82.9367 64.221 83.5842C63.5439 85.3137 62.0065 86.7253 61.5522 87.1167C60.957 87.6306 60.1026 87.9351 59.2633 87.9351C58.403 87.9351 57.6407 87.6259 57.1167 87.065ZM58.3832 43.9139L61.4116 43.7192C61.4116 43.7192 60.6382 45.0845 60.1363 46.8504C59.5696 48.8478 60.6545 51.7672 60.6545 51.7672C60.6545 51.7672 56.6139 47.1927 58.3832 43.9139Z" fill="#463014"/>
<path d="M50.225 33.096C48.2938 33.096 45.7758 33.0431 43.8865 31.6853C43.8865 31.6853 46.3603 36.0217 50.2218 36.0217L50.225 35.473L50.2282 36.0217C54.09 36.0217 56.5632 31.6856 56.5632 31.6856C54.6742 33.0428 52.1545 33.096 50.225 33.096Z" fill="#E78724"/>
<path d="M55.5424 33.075C53.6054 34.2473 51.8753 34.6536 50.2251 34.6897C48.5744 34.6536 46.8451 34.2473 44.9078 33.075C44.9078 33.075 47.7289 36.5174 50.2109 36.5439V36.5459C50.2152 36.5459 50.2196 36.5447 50.2248 36.5447C50.2292 36.5447 50.2335 36.5459 50.2388 36.5459V36.5439C52.7201 36.5174 55.5424 33.075 55.5424 33.075ZM62.1654 95.936L61.9495 93.128C71.0455 92.4284 73.9116 83.7111 73.9265 82.7933H76.7432C76.7444 84.9158 72.9488 95.1071 62.1654 95.936Z" fill="#463014"/>
<path d="M65.1955 77.6777C65.3649 76.7038 65.3815 75.78 65.176 74.8723C65.9967 74.2562 67.4661 74.0275 68.5696 73.6697C69.472 73.0986 74.0909 74.255 77.4409 70.2008C81.6381 65.1242 80.7538 62.0933 80.7538 62.0933C81.8308 63.2889 82.873 62.8332 84.5145 68.4085C86.1574 73.9851 83.7423 77.8725 79.2434 81.7753C77.1183 83.6187 74.1136 84.3784 71.5291 84.669C72.3948 83.8 70.0503 83.7129 68.4353 83.1084C68.5644 81.8034 68.3476 80.5369 67.3749 79.5171C66.7895 78.9021 66.0336 78.5348 65.2513 78.2418C65.2071 78.1407 65.1693 78.0471 65.1289 77.9501C65.1548 77.8614 65.1789 77.7719 65.1955 77.6777Z" fill="white"/>
<path d="M68.455 83.0744C68.5498 82.8004 68.6189 82.5214 68.6884 82.2403C68.7643 81.9337 69.1363 81.0642 68.6771 82.0569C68.7951 81.8026 68.8718 81.5408 68.9288 81.2769C76.2147 81.2676 82.5533 76.2651 81.3274 65.7482C82.2812 64.482 83.6178 68.3017 83.6178 68.3017C83.6178 68.3017 87.2654 78.8926 77.8451 82.9974C74.7064 84.3663 71.9329 85.3477 71.2782 84.9516C69.9137 85.2285 68.6829 84.2782 68.2225 83.6531C68.3086 83.4612 68.3893 83.2689 68.455 83.0744Z" fill="#C9C9C9"/>
<path d="M65.3259 76.1528C65.3158 75.2653 65.1333 74.4053 64.7055 73.5488C64.675 73.4898 64.6404 73.4332 64.6084 73.3756C67.4118 73.3515 70.6409 73.0833 73.3905 71.9827C76.4124 70.7737 80.1929 66.6381 80.8427 61.7788C80.8427 61.7788 86.5343 66.1707 84.8621 75.5716C83.2909 84.3987 75.905 87.2765 67.4809 87.7633C67.4763 87.7063 68.4287 85.74 68.1276 84.5359C72.9098 84.8835 78.2593 83.0354 80.843 78.7865C83.2058 74.8973 82.5432 68.2577 81.5713 67.2847C79.2021 74.7631 70.6732 76.2833 65.3259 76.1528Z" fill="#463014"/>
<path d="M68.7277 78.3672C67.7212 77.2791 65.8708 75.9823 61.6042 75.9823L50.2393 75.9753H50.2114C46.936 75.9777 38.845 75.9823 38.845 75.9823C34.5792 75.9823 32.7288 77.2794 31.7218 78.3672C30.255 79.9508 30.0248 82.1534 31.0397 84.9068C33.7361 92.2355 37.5256 99.6813 50.2108 99.6918V99.693C50.2154 99.693 50.2195 99.6918 50.2247 99.6918C50.2291 99.6918 50.2335 99.693 50.2387 99.693V99.6918C62.9227 99.6808 66.7122 92.2355 69.4095 84.9068C70.4243 82.1534 70.1936 79.9508 68.7277 78.3672ZM66.7529 84.393C65.4683 88.0732 62.0154 96.9808 50.2244 96.9963C38.432 96.9808 34.9806 88.0735 33.6957 84.393C32.9849 82.3511 33.0389 80.8401 33.862 79.9017C34.4243 79.26 35.7159 78.4942 38.6593 78.4942L41.7344 78.493C44.003 78.491 46.8514 78.4887 50.2247 78.4872C53.5969 78.4887 56.4467 78.491 58.7148 78.493L61.7887 78.4942C64.733 78.4942 66.0243 79.2597 66.5869 79.9017C67.4091 80.841 67.4637 82.3511 66.7526 84.393H66.7529Z" fill="#463014"/>
<path d="M64.4438 70.7992C65.9597 75.2478 69.0561 78.8483 69.0561 78.8483C69.0561 78.8483 64.7967 78.6545 64.5613 77.9009C64.3883 77.3452 60.7163 68.7491 59.3068 58.679C60.6314 60.8572 64.3136 70.4182 64.4438 70.7992Z" fill="#463014"/>
</g>
<defs>
<clipPath id="clip0_33_849">
<rect width="74.4" height="100" fill="white" transform="translate(12.9998 -0.000488281)"/>
</clipPath>
</defs>
</svg>
