<svg width="100" height="100" viewBox="0 0 100 100" fill="none" xmlns="http://www.w3.org/2000/svg">
<path d="M50.2757 -0.000488281L7 25.0443L7.00543 75.0576L50.3789 99.9995L93.6539 74.9544L93.6546 24.9686L50.2754 -0.000488281H50.2757Z" fill="#0E83CD"/>
<path d="M29.9739 71.6528L29.9773 50.0262L29.9807 28.3989L33.9098 26.1011L37.6732 28.3282L37.714 37.1656L37.7547 46.0034H62.9034L62.9442 37.1717L62.9849 28.3398L66.8067 26.1313L70.6812 28.3992L70.6792 50.0116L70.6775 71.6243L66.8417 73.7666L62.9846 71.5965L62.9438 62.8083L62.9031 54.0198H37.7547L37.714 62.8056L37.7255 71.6355L33.8687 73.8977L29.9746 71.6528H29.9739Z" fill="white"/>
</svg>
