<svg width="100" height="100" viewBox="0 0 100 100" fill="none" xmlns="http://www.w3.org/2000/svg">
<g clip-path="url(#clip0_33_948)">
<path d="M98.7619 67.0308V70.4911L98.7143 73.4276C98.685 75.5502 98.494 77.6674 98.1429 79.7609C97.625 82.9363 96.3587 85.9427 94.4487 88.5318C92.5387 91.1208 90.0398 93.2179 87.1587 94.6498C85.2419 95.6124 83.1933 96.2864 81.0794 96.6498C78.9524 97.0149 76.7937 97.1419 74.6667 97.2054C70.5397 97.253 69.381 97.253 68.2064 97.253H30.5556C26.0794 97.253 25.0952 97.2371 24.1111 97.2054C21.9683 97.1419 19.8095 97.0149 17.6984 96.6498C15.5736 96.2894 13.5141 95.6154 11.5873 94.6498C8.7203 93.199 6.23497 91.0938 4.3323 88.5046C2.42963 85.9153 1.16302 82.9145 0.634921 79.7451C0.283077 77.6463 0.0920456 75.5237 0.0634921 73.3959C0.0419852 72.4277 0.0314025 71.4594 0.031746 70.4911L0 67.0308V32.2054V28.7451L0.047619 25.8244C0.111111 23.7133 0.238095 21.5863 0.619048 19.4752C1.13638 16.3038 2.40086 13.301 4.30804 10.7149C6.21521 8.12873 8.71034 6.03347 11.5873 4.6022C13.51 3.64358 15.564 2.97495 17.6825 2.61807C19.7937 2.25299 21.9524 2.12601 24.0952 2.06252C28.2222 1.99902 29.3968 1.99902 30.5556 1.99902H67.254H53.0476H68.2064C72.6984 1.99902 73.6825 2.0149 74.6667 2.04664C76.7937 2.11013 78.9524 2.23712 81.0794 2.6022C83.2222 2.98315 85.2222 3.61807 87.1746 4.6022C90.0434 6.04852 92.5313 8.15009 94.4368 10.7368C96.3424 13.3234 97.612 16.3225 98.1429 19.4911C98.5238 21.5863 98.6508 23.7133 98.7143 25.8403C98.746 26.7927 98.746 27.7768 98.7619 28.7451V67.0308Z" fill="black"/>
<mask id="mask0_33_948" style="mask-type:luminance" maskUnits="userSpaceOnUse" x="0" y="1" width="99" height="97">
<path d="M98.7619 67.0308V70.4911L98.7143 73.4276C98.685 75.5502 98.494 77.6674 98.1429 79.7609C97.625 82.9363 96.3587 85.9427 94.4487 88.5318C92.5387 91.1208 90.0398 93.2179 87.1587 94.6498C85.2419 95.6124 83.1933 96.2864 81.0794 96.6498C78.9524 97.0149 76.7937 97.1419 74.6667 97.2054C70.5397 97.253 69.381 97.253 68.2064 97.253H30.5556C26.0794 97.253 25.0952 97.2371 24.1111 97.2054C21.9683 97.1419 19.8095 97.0149 17.6984 96.6498C15.5736 96.2894 13.5141 95.6154 11.5873 94.6498C8.7203 93.199 6.23497 91.0938 4.3323 88.5046C2.42963 85.9153 1.16302 82.9145 0.634921 79.7451C0.283077 77.6463 0.0920456 75.5237 0.0634921 73.3959C0.0419852 72.4277 0.0314025 71.4594 0.031746 70.4911L0 67.0308V32.2054V28.7451L0.047619 25.8244C0.111111 23.7133 0.238095 21.5863 0.619048 19.4752C1.13638 16.3038 2.40086 13.301 4.30804 10.7149C6.21521 8.12873 8.71034 6.03347 11.5873 4.6022C13.51 3.64358 15.564 2.97495 17.6825 2.61807C19.7937 2.25299 21.9524 2.12601 24.0952 2.06252C28.2222 1.99902 29.3968 1.99902 30.5556 1.99902H67.254H53.0476H68.2064C72.6984 1.99902 73.6825 2.0149 74.6667 2.04664C76.7937 2.11013 78.9524 2.23712 81.0794 2.6022C83.2222 2.98315 85.2222 3.61807 87.1746 4.6022C90.0434 6.04852 92.5313 8.15009 94.4368 10.7368C96.3424 13.3234 97.612 16.3225 98.1429 19.4911C98.5238 21.5863 98.6508 23.7133 98.7143 25.8403C98.746 26.7927 98.746 27.7768 98.7619 28.7451V67.0308Z" fill="white"/>
</mask>
<g mask="url(#mask0_33_948)">
<path d="M96.1429 85.7926L91.2064 83.2529L96.127 85.7926H96.1429ZM92.3651 90.9196L96.2699 94.8878L92.381 90.8878L92.3651 90.9196ZM81.0794 96.6497L80.1111 91.1735L81.0635 96.6497H81.0794ZM74.6667 97.2053L74.7302 102.761H74.8095L74.6508 97.2053H74.6667ZM30.5556 97.237L30.5397 102.793H30.5556V97.237ZM6.39684 90.9037L2.49208 94.8719L6.39684 90.8878V90.9037ZM0.0635056 73.3957L5.61906 73.2529L0.0635056 73.4116V73.3957ZM0.0317597 28.7449L5.58732 28.7926V28.7767L1.38283e-05 28.7449H0.0317597ZM0.634934 19.4751L-4.84126 18.491L0.634934 19.491V19.4751ZM6.41271 8.33225L10.3175 12.2846L6.41271 8.31638V8.33225ZM24.1111 2.04653L24.0476 -3.50902H23.9524L24.1111 2.04653ZM67.254 1.99892V7.55447V-3.55664V1.99892ZM53.0476 1.99892V-3.55664V7.55447V1.99892ZM68.2064 1.99892L68.2222 -3.55664V1.99892H68.2064ZM81.0794 2.60209L80.1111 8.07828L81.0635 2.60209H81.0794ZM92.3651 8.33225L88.4603 12.2688L92.381 8.34812L92.3651 8.33225ZM96.1429 13.4592L91.2064 15.9989L96.127 13.4592H96.1429ZM98.7143 25.8402L93.1587 25.983L98.7143 25.8243V25.8402ZM93.2064 67.0307V70.4592L104.317 70.5227V67.0307H93.2064ZM93.2064 70.4592C93.2064 71.4116 93.1905 72.3322 93.1587 73.2529L104.27 73.5703L104.317 70.5227L93.2064 70.4592ZM93.1587 73.2529C93.1111 75.2688 93 77.0783 92.6826 78.7449L103.619 80.7449C104.079 78.237 104.206 75.7608 104.254 73.5545L93.1587 73.2529ZM92.6826 78.7608C92.4197 80.319 91.922 81.8282 91.2064 83.237L101.079 88.3164C102.349 85.8402 103.143 83.3323 103.619 80.7449L92.6826 78.7608ZM91.2064 83.237C90.4937 84.6176 89.5669 85.8766 88.4603 86.9672L96.2699 94.8561C98.2064 92.9513 99.8413 90.7291 101.079 88.3164L91.2064 83.237ZM88.4603 86.9672C87.3492 88.0624 86.0794 88.983 84.6825 89.6656L89.6667 99.6021C92.1025 98.3753 94.3307 96.7738 96.2699 94.8561L88.4603 86.9672ZM84.6667 89.6656C83.2699 90.3957 81.7937 90.8561 80.1111 91.1576L82.0476 102.11C84.6969 101.654 87.2643 100.809 89.6667 99.6021L84.6667 89.6815V89.6656ZM80.1111 91.1576C78.3968 91.4751 76.5556 91.5862 74.5079 91.6338L74.8095 102.745C77.0318 102.681 79.5238 102.554 82.0476 102.11L80.1111 91.1576ZM74.5873 91.6338C70.4921 91.6815 69.3492 91.6815 68.2064 91.6815V102.793C69.3968 102.793 70.5873 102.793 74.7143 102.745L74.5873 91.6338ZM68.2064 91.6815H43.9683V102.793H68.2222V91.6815H68.2064ZM43.9524 91.6815H30.5556V102.793H43.9524V91.6815ZM30.5714 91.6815C26.0635 91.6815 25.1587 91.6656 24.254 91.6338L23.9524 102.745C25.0159 102.777 26.0794 102.777 30.5397 102.793L30.5714 91.6815ZM24.254 91.6338C22.2064 91.5862 20.3651 91.4751 18.6667 91.1576L16.7143 102.11C19.254 102.554 21.7302 102.681 23.9524 102.745L24.2699 91.6338H24.254ZM18.6667 91.1576C17.0781 90.8952 15.5374 90.3977 14.0953 89.6815L9.09525 99.6021C11.4985 100.803 14.0658 101.643 16.7143 102.094L18.6667 91.1576ZM14.0953 89.6815C12.6962 88.9812 11.416 88.0652 10.3016 86.9672L2.49208 94.8561C4.42977 96.7798 6.65807 98.3868 9.09525 99.618L14.0953 89.6815ZM10.3016 86.9672C9.19567 85.876 8.26892 84.6171 7.55557 83.237L-2.31745 88.3164C-1.06837 90.7358 0.554782 92.9428 2.49208 94.8561L10.3016 86.9672ZM7.57144 83.237C6.85013 81.8236 6.34707 80.309 6.07938 78.7449L-4.85713 80.7449C-4.38094 83.3323 -3.58729 85.8402 -2.31745 88.3164L7.57144 83.237ZM6.07938 78.7449C5.77779 77.0783 5.66668 75.2846 5.60319 73.2529L-5.50792 73.5703C-5.44443 75.7608 -5.30157 78.237 -4.85713 80.7449L6.09525 78.7449H6.07938ZM5.60319 73.2529L5.57144 70.4592L-5.53967 70.5227C-5.53967 71.5227 -5.53967 72.5386 -5.50792 73.5545L5.60319 73.237V73.2529ZM5.57144 70.4434L5.55557 67.0307H-5.55554V70.5227L5.55557 70.4434H5.57144ZM5.55557 67.0307V55.5545H-5.55554V67.0307H5.55557ZM5.55557 55.5545V43.6815H-5.55554V55.5545H5.55557ZM5.55557 43.6815V32.2053H-5.55554V43.6815H5.55557ZM5.55557 32.2053V28.7926L-5.55554 28.6973V32.2053H5.55557ZM5.55557 28.7767C5.55557 27.8243 5.58731 26.9037 5.60319 25.983L-5.50792 25.6656L-5.53967 28.7132L5.57144 28.7767H5.55557ZM5.60319 25.983C5.66668 23.9513 5.77779 22.1576 6.07938 20.4751L-4.85713 18.491C-5.25192 20.8681 -5.46418 23.2719 -5.49205 25.6815L5.61906 25.983H5.60319ZM6.07938 20.491C6.34707 18.9269 6.85013 17.4123 7.57144 15.9989L-2.31745 10.9195C-3.58729 13.3957 -4.38094 15.9037 -4.85713 18.491L6.09525 20.491H6.07938ZM7.57144 15.9989C8.28048 14.6249 9.20186 13.3714 10.3016 12.2846L2.49208 4.36399C0.552618 6.28135 -1.0707 8.49398 -2.31745 10.9195L7.57144 15.9989ZM10.3016 12.2688C11.4127 11.1735 12.6826 10.2688 14.0953 9.57034L9.09525 -0.382037C6.65766 0.848455 4.42926 2.45548 2.49208 4.37987L10.3016 12.2688ZM14.0953 9.57034C15.5079 8.84019 16.9683 8.37987 18.6667 8.07828L16.7143 -2.8741C14.1111 -2.39791 11.5873 -1.62013 9.09525 -0.366164L14.0953 9.55447V9.57034ZM18.6667 8.07828C20.3651 7.76082 22.2064 7.64971 24.254 7.60209L23.9524 -3.50902C21.7302 -3.44553 19.2381 -3.31855 16.7143 -2.8741L18.6667 8.07828ZM24.1746 7.60209C28.2699 7.55447 29.4127 7.55447 30.5556 7.55447V-3.55664C29.3651 -3.55664 28.1746 -3.55664 24.0476 -3.50902L24.1746 7.60209ZM30.5556 7.55447H43.9524V-3.55664H30.5556V7.55447ZM43.9524 7.55447H67.254V-3.55664H43.9683V7.55447H43.9524ZM67.254 -3.55664H53.0476V7.55447H67.254V-3.55664ZM53.0476 7.55447H68.2064V-3.55664H53.0476V7.55447ZM68.1905 7.55447C72.6984 7.55447 73.6032 7.57034 74.5079 7.60209L74.8254 -3.50902C73.746 -3.54077 72.6826 -3.54077 68.2222 -3.55664L68.1905 7.55447ZM74.5079 7.60209C76.5714 7.64971 78.3968 7.76082 80.1111 8.07828L82.0476 -2.8741C79.6541 -3.26575 77.2347 -3.47798 74.8095 -3.50902L74.5079 7.60209ZM80.1111 8.07828C81.7937 8.37987 83.2699 8.84019 84.6667 9.55447L89.6667 -0.366164C87.2635 -1.56721 84.6961 -2.40694 82.0476 -2.85823L80.1111 8.07828ZM84.6825 9.55447C86.0761 10.2559 87.3509 11.1719 88.4603 12.2688L96.2699 4.37987C94.3323 2.45588 92.104 0.848908 89.6667 -0.382037L84.6825 9.55447ZM88.4603 12.2846C89.5714 13.364 90.4921 14.6338 91.2064 15.9989L101.079 10.9195C99.8333 8.49356 98.2099 6.28082 96.2699 4.36399L88.4603 12.2846ZM91.2064 15.9989C91.9206 17.3799 92.381 18.8243 92.6826 20.4751L103.619 18.491C103.143 15.9037 102.349 13.3957 101.079 10.9195L91.2064 15.9989ZM92.6826 20.4751C93 22.1576 93.1111 23.9672 93.1587 25.983L104.27 25.6656C104.206 23.4751 104.079 20.9989 103.619 18.491L92.6826 20.4751ZM93.1587 25.983C93.1905 26.9037 93.1905 27.8243 93.2064 28.7767L104.317 28.7132L104.27 25.6815L93.1587 25.9989V25.983ZM93.2064 28.7767V32.2053H104.317V28.7132L93.2064 28.7767ZM93.2064 32.2053V43.6815H104.317V32.2053H93.2064ZM93.2064 43.6815V55.5545H104.317V43.6815H93.2064ZM93.2064 55.5545V67.0307H104.317V55.5545H93.2064Z" fill="url(#paint0_linear_33_948)"/>
</g>
<path fill-rule="evenodd" clip-rule="evenodd" d="M38.8572 42.9998C38.8572 42.5712 39.2064 42.2061 39.6508 42.2061H54.254C54.6984 42.2061 55.0477 42.5712 55.0477 42.9998V44.5871C55.0477 44.7976 54.964 44.9994 54.8152 45.1483C54.6664 45.2971 54.4645 45.3807 54.254 45.3807H39.6508C39.4403 45.3807 39.2385 45.2971 39.0896 45.1483C38.9408 44.9994 38.8572 44.7976 38.8572 44.5871V42.9998ZM33.4127 34.0474C33.4697 33.9951 33.5131 33.9296 33.5392 33.8568C33.5652 33.7839 33.5731 33.7058 33.5621 33.6292C33.5512 33.5526 33.5218 33.4798 33.4764 33.4172C33.431 33.3545 33.371 33.3039 33.3016 33.2696L27.635 30.2537C27.5293 30.1991 27.4478 30.1069 27.4067 29.9953C27.3656 29.8837 27.3677 29.7607 27.4127 29.6506L31.3175 19.9363C31.4921 19.476 30.9207 19.0791 30.5556 19.4125L18.254 30.5236C18.1975 30.5715 18.1529 30.632 18.1238 30.7002C18.0948 30.7684 18.0821 30.8425 18.0867 30.9165C18.0913 30.9905 18.1132 31.0623 18.1505 31.1264C18.1878 31.1905 18.2395 31.2449 18.3016 31.2855L23.7619 34.9839C23.8519 35.0449 23.9183 35.1349 23.95 35.2388C23.9818 35.3428 23.977 35.4544 23.9365 35.5553L20.381 44.6188C20.1905 45.095 20.7619 45.476 21.1429 45.1426L33.4127 34.0315V34.0474Z" fill="white"/>
</g>
<defs>
<linearGradient id="paint0_linear_33_948" x1="51.1429" y1="1.99892" x2="51.1429" y2="102.523" gradientUnits="userSpaceOnUse">
<stop stop-color="#F743B6"/>
<stop offset="1" stop-color="#FCC043"/>
</linearGradient>
<clipPath id="clip0_33_948">
<rect width="100" height="95.2381" fill="white" transform="translate(0 1.99902)"/>
</clipPath>
</defs>
</svg>
