<svg width="100" height="100" viewBox="0 0 100 100" fill="none" xmlns="http://www.w3.org/2000/svg">
<path d="M62.7129 10.3621V29.1822L83.8618 83.5008C83.8618 83.5008 90.3184 96.7668 71.8519 99.9995H29.7244C29.7244 99.9995 12.5126 98.2034 16.6389 84.575L38.8641 29.1829V10.3621H62.7129Z" fill="#009688"/>
<path d="M63.1593 8.1738H37.7891C35.7343 8.1738 34.063 6.34585 34.063 4.08738C34.063 1.82746 35.7336 -0.000488281 37.7891 -0.000488281H63.1593C65.2235 -0.000488281 66.892 1.82746 66.892 4.08738C66.892 6.34585 65.2228 8.1738 63.1593 8.1738Z" fill="#004D40"/>
<path d="M56.4667 41.0913C59.1891 41.0913 61.4091 43.7513 61.4091 47.0455C61.4091 50.3253 59.1876 52.9918 56.4667 52.9918C53.7379 52.9918 51.5243 50.3253 51.5243 47.0455C51.5243 43.7499 53.7379 41.0913 56.4667 41.0913Z" fill="white"/>
<path d="M41.2942 56.5372C43.5951 56.5372 45.4604 54.289 45.4604 51.5158C45.4604 48.7425 43.5951 46.4944 41.2942 46.4944C38.9933 46.4944 37.1281 48.7425 37.1281 51.5158C37.1281 54.289 38.9933 56.5372 41.2942 56.5372Z" fill="white"/>
<path d="M64.5938 27.9348V18.9836C64.5938 18.9836 75.9449 16.4808 81.6179 29.6838C81.6179 29.6838 72.7768 36.1251 64.5938 27.9348Z" fill="#004D40"/>
<path d="M36.7919 27.9348V18.9836C36.7919 18.9836 25.4394 16.4808 19.7693 29.6838C19.7693 29.6838 28.6017 36.1251 36.7919 27.9348Z" fill="#004D40"/>
<path d="M71.4184 64.9778C52.9599 59.2519 37.4413 62.3258 29.8562 64.6495L22.2074 83.0601C18.7639 94.051 33.1425 95.4955 33.1425 95.4955H68.3279C83.7509 92.8898 78.3605 82.1976 78.3605 82.1976L71.4184 64.9778Z" fill="white"/>
<path d="M44.8167 71.8183C44.8167 73.8035 42.1488 75.4184 38.8625 75.4184C35.5763 75.4184 32.9163 73.8028 32.9163 71.8183C32.9163 69.8251 35.5763 68.2161 38.8625 68.2161C42.1502 68.2175 44.8167 69.8251 44.8167 71.8183Z" fill="#004D40"/>
<path d="M65.9913 71.8183C65.9913 73.8035 63.3233 75.4184 60.0451 75.4184C56.7494 75.4184 54.0908 73.8028 54.0908 71.8183C54.0908 69.8251 56.7494 68.2161 60.0451 68.2161C63.3248 68.2175 65.9913 69.8251 65.9913 71.8183Z" fill="#004D40"/>
</svg>
