<svg width="100" height="100" viewBox="0 0 100 100" fill="none" xmlns="http://www.w3.org/2000/svg">
<path d="M17.7083 1.00049H82.2917C92.0833 1.00049 100 8.91715 100 18.7088V80.7922C100 90.5838 92.0833 98.5005 82.2917 98.5005H17.7083C7.91667 98.5005 0 90.5838 0 80.7922V18.7088C0 8.91715 7.91667 1.00049 17.7083 1.00049Z" fill="#49021F"/>
<path d="M36.3333 26.5004V69.4171C36.3333 69.8754 36.125 70.0837 35.75 70.0837H27.5833C27.2083 70.0837 27.0417 69.8754 27.0417 69.4171V26.5004C27.0417 26.1254 27.25 25.9587 27.625 25.9587H35.75C36 25.9171 36.25 26.0837 36.2917 26.3754C36.3333 26.4171 36.3333 26.4587 36.3333 26.5004Z" fill="#FF3366"/>
<path d="M60.4167 70.5837C57.3333 70.6254 54.25 70.0004 51.4583 68.7087C48.8333 67.5004 46.6667 65.5004 45.1667 63.042C43.625 60.5004 42.875 57.3337 42.875 53.542C42.8333 50.4587 43.625 47.417 45.1667 44.7504C46.75 42.042 49.0417 39.792 51.7917 38.292C54.7083 36.667 58.2083 35.8754 62.3333 35.8754C62.5417 35.8754 62.8333 35.8754 63.2083 35.917C63.5833 35.9587 64 35.9587 64.5 36.0004V22.8337C64.5 22.542 64.625 22.3754 64.9167 22.3754H73.375C73.5833 22.3337 73.75 22.5004 73.7917 22.667V22.7504V62.417C73.7917 63.167 73.8333 64.0004 73.875 64.917C73.9583 65.792 74 66.6254 74.0417 67.3337C74.0417 67.6254 73.9167 67.8754 73.625 68.0004C71.4583 68.917 69.1667 69.5837 66.8333 70.0004C64.75 70.3754 62.5833 70.5837 60.4167 70.5837ZM64.5 62.2504V43.917C64.125 43.8337 63.75 43.7504 63.375 43.7087C62.9167 43.667 62.4583 43.6254 62 43.6254C60.375 43.6254 58.75 43.9587 57.2917 44.7087C55.875 45.417 54.6667 46.4587 53.75 47.792C52.8333 49.1254 52.375 50.917 52.375 53.0837C52.3333 54.542 52.5833 56.0004 53.0833 57.3754C53.5 58.5004 54.125 59.5004 54.9583 60.3337C55.75 61.0837 56.7083 61.667 57.7917 62.0004C58.9167 62.3754 60.0833 62.542 61.25 62.542C61.875 62.542 62.4583 62.5004 63 62.4587C63.5417 62.5004 64.0417 62.417 64.5 62.2504Z" fill="#FF3366"/>
</svg>
