<svg width="114" height="112" viewBox="0 0 114 112" fill="none" xmlns="http://www.w3.org/2000/svg">
<g opacity="0.783251">
<g filter="url(#filter0_f_33_978)">
<path d="M48.0874 9.21202L11.3791 46.8113C-2.52019 60.7106 20.378 59.5523 28.6641 64.8091C32.4953 67.3038 16.3686 70.5113 19.6652 73.808C22.8727 77.1046 38.9994 80.1339 42.2069 83.3414C45.4145 86.6381 35.7028 90.1129 38.9103 93.4095C42.0287 96.7061 49.513 93.5877 50.8494 101.072C51.8295 106.596 64.5705 103.834 70.2728 99.1118C73.8367 96.0824 64.125 96.0824 67.3325 92.7858C75.3513 84.6779 82.4792 89.1328 85.4194 81.6486C87.0232 77.6392 73.3021 74.788 76.9551 72.2042C85.6867 66.0565 117.762 62.938 102.972 48.1478L64.9269 9.21202C60.2047 4.75713 52.4532 4.75713 48.0874 9.21202ZM90.2307 81.6486C90.2307 83.5196 104.754 84.5888 103.952 81.2031C102.793 75.5008 91.8344 75.9463 90.2307 81.6486ZM28.3077 91.5384C31.6043 94.3896 36.5938 90.9147 38.1975 86.9053C34.99 82.7178 23.14 87.1726 28.3077 91.5384ZM88.4487 85.5689C84.3502 89.311 89.1615 93.2313 93.1709 90.6475C94.2401 89.9347 93.0818 86.4599 88.4487 85.5689Z" fill="black"/>
</g>
<g opacity="0.576355" filter="url(#filter1_f_33_978)">
<path d="M48.0874 10.0821L11.3791 47.6814C-2.52019 61.5807 20.378 60.4224 28.6641 65.6792C32.4953 68.1739 16.3686 71.3815 19.6652 74.6781C22.8727 77.9747 38.9994 81.004 42.2069 84.2116C45.4145 87.5082 35.7028 90.983 38.9103 94.2796C42.0287 97.5762 49.513 94.4578 50.8494 101.942C51.8295 107.466 64.5705 104.704 70.2728 99.9819C73.8367 96.9526 64.125 96.9526 67.3325 93.6559C75.3513 85.548 82.4792 90.0029 85.4194 82.5187C87.0232 78.5093 73.3021 75.6582 76.9551 73.0743C85.6867 66.9266 117.762 63.8082 102.972 49.0179L64.9269 10.0821C60.2047 5.62724 52.4532 5.62724 48.0874 10.0821ZM90.2307 82.5187C90.2307 84.3898 104.754 85.4589 103.952 82.0732C102.793 76.3709 91.8344 76.8164 90.2307 82.5187ZM28.3077 92.4086C31.6043 95.2597 36.5938 91.7849 38.1975 87.7755C34.99 83.5879 23.14 88.0428 28.3077 92.4086ZM88.4487 86.439C84.3502 90.1811 89.1615 94.1014 93.1709 91.5176C94.2401 90.8048 93.0818 87.33 88.4487 86.439Z" fill="black"/>
</g>
</g>
<path d="M48.0874 8.34068L11.3791 45.94C-2.52019 59.8392 20.378 58.681 28.6641 63.9377C32.4953 66.4325 16.3686 69.64 19.6652 72.9366C22.8727 76.2332 38.9994 79.2626 42.2069 82.4701C45.4145 85.7667 35.7028 89.2415 38.9103 92.5382C42.0287 95.8348 49.513 92.7163 50.8494 100.201C51.8295 105.725 64.5705 102.963 70.2728 98.2404C73.8367 95.2111 64.125 95.2111 67.3325 91.9145C75.3513 83.8066 82.4792 88.2615 85.4194 80.7772C87.0232 76.7678 73.3021 73.9167 76.9551 71.3329C85.6867 65.1851 117.762 62.0667 102.972 47.2764L64.9269 8.34068C60.2047 3.88579 52.4532 3.88579 48.0874 8.34068ZM90.2307 80.7772C90.2307 82.6483 104.754 83.7175 103.952 80.3317C102.793 74.6295 91.8344 75.075 90.2307 80.7772ZM28.3077 90.6671C31.6043 93.5182 36.5938 90.0434 38.1975 86.034C34.99 81.8464 23.14 86.3013 28.3077 90.6671ZM88.4487 84.6975C84.3502 88.4396 89.1615 92.36 93.1709 89.7761C94.2401 89.0633 93.0818 85.5885 88.4487 84.6975Z" fill="black"/>
<mask id="mask0_33_978" style="mask-type:luminance" maskUnits="userSpaceOnUse" x="7" y="5" width="100" height="98">
<path d="M48.1708 8.77393L11.8096 46.0177C-1.95824 59.7855 20.7234 58.6382 28.9311 63.8453C32.7261 66.3164 16.7519 69.4936 20.0173 72.7591C23.1945 76.0245 39.1688 79.0252 42.346 82.2024C45.5231 85.4678 35.9033 88.9098 39.0805 92.1752C42.1694 95.4407 49.5829 92.3518 50.9067 99.7652C51.8775 105.237 64.498 102.501 70.1464 97.8236C73.6766 94.8229 64.0568 94.8229 67.234 91.5575C75.1769 83.5262 82.2374 87.939 85.1498 80.5255C86.7384 76.5541 73.1471 73.7299 76.7655 71.1705C85.4146 65.0809 117.186 61.9919 102.536 47.3415L64.8511 8.77393C60.1735 4.36116 52.4953 4.36116 48.1708 8.77393ZM39.4335 65.8751C40.2278 65.8751 66.6162 69.4054 56.4668 72.1413C52.5836 73.2003 34.756 65.8751 39.4335 65.8751ZM89.9156 80.5255C89.9156 82.3789 104.301 83.438 103.507 80.0843C102.36 74.4359 91.5042 74.8772 89.9156 80.5255ZM28.5781 90.3219C31.8436 93.1461 36.7859 89.7041 38.3745 85.7326C35.1973 81.5846 23.4593 85.9974 28.5781 90.3219ZM88.1505 84.4088C84.0907 88.1155 88.8565 91.9987 92.828 89.4393C93.8871 88.7333 92.7398 85.2913 88.1505 84.4088Z" fill="white"/>
</mask>
<g mask="url(#mask0_33_978)">
<path d="M48.1708 8.77393L11.8096 46.0177C-1.95824 59.7855 20.7234 58.6382 28.9311 63.8453C32.7261 66.3164 16.7519 69.4936 20.0173 72.7591C23.1945 76.0245 39.1688 79.0252 42.346 82.2024C45.5231 85.4678 35.9033 88.9098 39.0805 92.1752C42.1694 95.4407 49.5829 92.3518 50.9067 99.7652C51.8775 105.237 64.498 102.501 70.1464 97.8236C73.6766 94.8229 64.0568 94.8229 67.234 91.5575C75.1769 83.5262 82.2374 87.939 85.1498 80.5255C86.7384 76.5541 73.1471 73.7299 76.7655 71.1705C85.4146 65.0809 117.186 61.9919 102.536 47.3415L64.8511 8.77393C60.1735 4.36116 52.4953 4.36116 48.1708 8.77393ZM39.4335 65.8751C40.2278 65.8751 66.6162 69.4054 56.4668 72.1413C52.5836 73.2003 34.756 65.8751 39.4335 65.8751ZM89.9156 80.5255C89.9156 82.3789 104.301 83.438 103.507 80.0843C102.36 74.4359 91.5042 74.8772 89.9156 80.5255ZM28.5781 90.3219C31.8436 93.1461 36.7859 89.7041 38.3745 85.7326C35.1973 81.5846 23.4593 85.9974 28.5781 90.3219ZM88.1505 84.4088C84.0907 88.1155 88.8565 91.9987 92.828 89.4393C93.8871 88.7333 92.7398 85.2913 88.1505 84.4088Z" fill="url(#paint0_linear_33_978)"/>
</g>
<path opacity="0.505263" d="M14.6447 48.0246C4.66404 57.9154 22.1977 55.128 35.6851 60.4331L63.5591 11.4288C59.333 7.11279 53.9381 7.47246 50.0717 11.4288L14.6447 48.0246Z" fill="url(#paint1_linear_33_978)"/>
<path d="M62.6995 11.0139L77.2224 25.8041C78.5589 27.1406 78.5589 29.9026 77.757 30.7045L70.5401 24.824L69.1145 33.4665L63.145 30.259L53.4333 36.4068L50.2258 23.4876L45.0581 34.7139L32.1389 34.6248C29.6442 34.6248 30.0006 32.041 32.5844 29.4571C37.663 23.844 47.5529 14.3105 50.6713 11.0139C53.8788 7.71725 59.492 7.80635 62.6995 11.0139Z" fill="url(#paint2_linear_33_978)"/>
<path opacity="0.216749" fill-rule="evenodd" clip-rule="evenodd" d="M42.7665 80.8835C42.7665 80.8835 44.3429 83.2906 44.1822 84.4228C43.8669 86.6449 39.0812 87.7537 40.1415 89.7318C41.1891 91.686 44.965 90.5784 48.1344 92.6222C51.2903 94.6573 50.4418 98.8049 52.7355 99.8482C57.2088 101.883 68.9572 96.3384 68.3673 96.4564C67.7775 96.5744 56.7726 98.861 54.2951 96.8554C51.4703 94.5687 50.6604 92.9715 48.5768 91.6194C46.6243 90.3523 43.8815 89.8354 43.2431 88.798C42.6047 87.7606 44.5216 86.4221 44.6541 84.4228C44.7337 83.2221 42.7665 80.8835 42.7665 80.8835Z" fill="url(#paint3_radial_33_978)"/>
<g opacity="0.275862" filter="url(#filter2_f_33_978)">
<path fill-rule="evenodd" clip-rule="evenodd" d="M42.7665 80.8835C42.7665 80.8835 44.3429 83.2906 44.1822 84.4228C43.8669 86.6449 39.0812 87.7537 40.1415 89.7318C41.1891 91.686 44.965 90.5784 48.1344 92.6222C51.2903 94.6573 50.4418 98.8049 52.7355 99.8482C57.2088 101.883 68.9572 96.3384 68.3673 96.4564C48.859 96.5307 52.4996 91.504 44.9785 88.1981C43.8917 87.7204 44.5216 86.4221 44.6541 84.4228C44.7337 83.2221 42.7665 80.8835 42.7665 80.8835Z" fill="url(#paint4_radial_33_978)"/>
</g>
<path opacity="0.453202" fill-rule="evenodd" clip-rule="evenodd" d="M75.9178 70.6198C93.4273 64.1761 99.0523 63.2908 104.822 57.5244C98.1395 63.1654 84.0117 66.1913 72.4965 71.2097L75.9178 70.6198Z" fill="url(#paint5_radial_33_978)"/>
<g opacity="0.512315" filter="url(#filter3_f_33_978)">
<path fill-rule="evenodd" clip-rule="evenodd" d="M75.9178 69.7936C104.753 59.5747 99.8782 59.6332 104.822 56.6982C95.654 60.2076 78.5206 60.5819 72.4965 70.3835L75.9178 69.7936Z" fill="url(#paint6_radial_33_978)"/>
</g>
<path opacity="0.285714" d="M101.106 77.9633C101.106 78.2683 100.711 78.5609 100.009 78.7766C99.3062 78.9923 98.3534 79.1135 97.36 79.1135C96.3666 79.1135 95.4138 78.9923 94.7114 78.7766C94.0089 78.5609 93.6143 78.2683 93.6143 77.9633C93.6143 77.6582 94.0089 77.3656 94.7114 77.1499C95.4138 76.9342 96.3666 76.813 97.36 76.813C98.3534 76.813 99.3062 76.9342 100.009 77.1499C100.711 77.3656 101.106 77.6582 101.106 77.9633Z" fill="url(#paint7_linear_33_978)"/>
<g opacity="0.620689" filter="url(#filter4_f_33_978)">
<path d="M102.404 79.2905C102.404 79.9476 101.872 80.5777 100.926 81.0423C99.9805 81.507 98.6976 81.768 97.36 81.768C96.0224 81.768 94.7396 81.507 93.7937 81.0423C92.8479 80.5777 92.3165 79.9476 92.3165 79.2905C92.3165 78.6334 92.8479 78.0033 93.7937 77.5386C94.7396 77.074 96.0224 76.813 97.36 76.813C98.6976 76.813 99.9805 77.074 100.926 77.5386C101.872 78.0033 102.404 78.6334 102.404 79.2905Z" fill="url(#paint8_linear_33_978)"/>
</g>
<g filter="url(#filter5_f_33_978)">
<path fill-rule="evenodd" clip-rule="evenodd" d="M90.4879 80.6675C92.2668 82.3117 102.17 83.1554 103.79 80.1956C100.611 82.4531 93.5415 81.6597 90.4879 80.6675Z" fill="url(#paint9_radial_33_978)"/>
</g>
<path opacity="0.285714" d="M90.523 86.1558C90.6096 86.3262 90.6647 86.5105 90.6851 86.6982C90.7055 86.8859 90.6909 87.0733 90.642 87.2497C90.5932 87.426 90.5111 87.5879 90.4004 87.7261C90.2897 87.8643 90.1526 87.976 89.997 88.0549C89.8413 88.1339 89.6702 88.1784 89.4933 88.186C89.3164 88.1936 89.1373 88.1642 88.9661 88.0994C88.795 88.0346 88.6352 87.9356 88.4959 87.8082C88.3565 87.6808 88.2404 87.5275 88.1541 87.3569C88.0675 87.1865 88.0125 87.0022 87.992 86.8145C87.9716 86.6269 87.9862 86.4395 88.0351 86.2631C88.0839 86.0867 88.1661 85.9248 88.2767 85.7866C88.3874 85.6485 88.5245 85.5367 88.6802 85.4578C88.8358 85.3789 89.007 85.3344 89.1838 85.3267C89.3607 85.3191 89.5398 85.3485 89.711 85.4134C89.8821 85.4782 90.0419 85.5771 90.1813 85.7045C90.3206 85.8319 90.4367 85.9853 90.523 86.1558Z" fill="url(#paint10_linear_33_978)"/>
<g opacity="0.620689" filter="url(#filter6_f_33_978)">
<path d="M91.2252 86.4738C91.3546 86.7286 91.4379 87.0037 91.4705 87.2832C91.5031 87.5627 91.4843 87.8413 91.4152 88.103C91.346 88.3647 91.2279 88.6044 91.0676 88.8083C90.9072 89.0123 90.7078 89.1766 90.4806 89.2917C90.2535 89.4069 90.0031 89.4707 89.7438 89.4795C89.4845 89.4883 89.2214 89.4419 88.9694 89.3431C88.7175 89.2442 88.4816 89.0947 88.2754 88.9032C88.0692 88.7117 87.8966 88.4819 87.7675 88.227C87.6381 87.9722 87.5548 87.6971 87.5222 87.4176C87.4896 87.1381 87.5084 86.8595 87.5775 86.5978C87.6466 86.3361 87.7648 86.0964 87.9251 85.8925C88.0855 85.6885 88.2849 85.5242 88.512 85.4091C88.7392 85.2939 88.9896 85.2301 89.2489 85.2213C89.5082 85.2125 89.7713 85.2588 90.0233 85.3577C90.2752 85.4566 90.5111 85.6061 90.7173 85.7976C90.9235 85.9891 91.0961 86.2189 91.2252 86.4738Z" fill="url(#paint11_linear_33_978)"/>
</g>
<g filter="url(#filter7_f_33_978)">
<path fill-rule="evenodd" clip-rule="evenodd" d="M88.0588 89.4792C89.4883 90.5979 94.8688 90.7413 92.8276 87.4898C93.3599 90.0364 89.6851 89.7672 88.0588 89.4792Z" fill="url(#paint12_radial_33_978)"/>
</g>
<path fill-rule="evenodd" clip-rule="evenodd" d="M21.6487 72.6253C21.6487 72.3324 39.9805 78.212 43.1204 81.3555C40.5385 78.8363 27.4722 73.0424 25.483 72.9792C23.4938 72.916 21.8847 72.7433 21.6487 72.6253Z" fill="url(#paint13_radial_33_978)"/>
<path opacity="0.285714" d="M35.42 85.2184C35.4914 85.4308 35.2129 85.7105 34.6458 85.9962C34.0788 86.2819 33.2697 86.5501 32.3964 86.7419C31.5232 86.9336 30.6574 87.0331 29.9895 87.0186C29.3215 87.004 28.9062 86.8766 28.8349 86.6643C28.7636 86.452 29.042 86.1722 29.6091 85.8865C30.1761 85.6008 30.9852 85.3326 31.8585 85.1409C32.7317 84.9491 33.5975 84.8496 34.2655 84.8641C34.9334 84.8787 35.3487 85.0061 35.42 85.2184Z" fill="url(#paint14_linear_33_978)"/>
<g opacity="0.620689" filter="url(#filter8_f_33_978)">
<path d="M36.8711 85.8917C37.0247 86.349 36.705 86.8901 35.9823 87.3959C35.2595 87.9018 34.1929 88.3311 33.0171 88.5892C31.8413 88.8474 30.6527 88.9133 29.7126 88.7725C28.7726 88.6317 28.1581 88.2957 28.0045 87.8384C27.8508 87.3811 28.1706 86.84 28.8933 86.3342C29.6161 85.8283 30.6827 85.399 31.8585 85.1409C33.0343 84.8827 34.2229 84.8168 35.163 84.9576C36.103 85.0984 36.7174 85.4344 36.8711 85.8917Z" fill="url(#paint15_linear_33_978)"/>
</g>
<g opacity="0.615764" filter="url(#filter9_f_33_978)">
<path fill-rule="evenodd" clip-rule="evenodd" d="M27.5181 88.1984C27.5181 88.1984 28.5107 90.865 31.2343 91.0003C33.9897 91.1372 37.1347 87.6937 37.3986 86.4583C36.9267 87.52 34.2886 90.7211 30.8804 90.6759C28.9456 90.6502 27.5181 88.1984 27.5181 88.1984Z" fill="url(#paint16_radial_33_978)"/>
</g>
<g filter="url(#filter10_f_33_978)">
<path d="M56.3791 6.30811C53.6186 6.30811 50.9133 7.30782 49.0006 9.25947L12.3035 46.8476C8.94837 50.2027 8.14238 52.399 8.34974 53.6413C8.45343 54.2625 8.75835 54.8023 9.40778 55.3676C10.0572 55.9329 11.0396 56.487 12.2199 56.9825C14.5806 57.9735 17.76 58.7717 20.8791 59.6276C23.9983 60.4835 27.0534 61.387 29.3713 62.8574C29.7247 63.0875 30.0565 63.371 30.2901 63.7762C30.5237 64.1814 30.6057 64.7172 30.5128 65.1684C30.3271 66.0708 29.7715 66.5467 29.2042 66.9782C28.0696 67.8411 26.5106 68.5581 24.9442 69.317C23.3779 70.0759 21.8036 70.8524 21.0183 71.4888C20.6257 71.8069 20.4837 72.093 20.4893 72.0735C20.495 72.054 20.3852 71.8301 20.5729 72.0178C21.0645 72.523 22.599 73.3882 24.5544 74.1617C26.5098 74.9351 28.903 75.717 31.3203 76.5005C33.7376 77.284 36.1828 78.0597 38.2532 78.8672C40.3236 79.6747 42.0111 80.4254 43.1258 81.5401C43.6805 82.1103 44.0725 82.8195 44.1559 83.5448C44.2394 84.2701 44.043 84.9508 43.7661 85.5217C43.2125 86.6634 42.3225 87.5417 41.5109 88.3895C40.6992 89.2373 39.9639 90.047 39.7011 90.5891C39.5696 90.8601 39.5493 91.0367 39.5618 91.146C39.5744 91.2552 39.5932 91.3654 39.8403 91.6193C39.8497 91.6284 39.859 91.6377 39.8681 91.6471C40.9316 92.7714 43.2422 92.9295 45.8544 93.5405C47.1604 93.846 48.5263 94.3085 49.6967 95.3224C50.8671 96.3364 51.7455 97.8801 52.1191 99.9722C52.2763 100.858 52.7452 101.29 53.8732 101.643C55.0012 101.996 56.7193 102.058 58.6065 101.782C62.3809 101.231 66.857 99.3805 69.4375 97.2436C69.5978 97.1073 69.5532 97.1433 69.6045 97.0765C69.4309 96.9523 69.0239 96.6876 68.3516 96.3526C67.5572 95.9568 66.6189 95.5868 65.9014 94.682C65.5426 94.2297 65.2956 93.5154 65.4002 92.8166C65.5048 92.1177 65.8874 91.5362 66.4026 91.0068C70.6309 86.7314 74.7973 85.7107 77.9296 84.8813C79.4957 84.4666 80.8068 84.0872 81.7998 83.4613C82.7927 82.8353 83.5684 81.9789 84.2221 80.315C84.2942 80.1349 84.2921 80.0826 84.1943 79.8695C84.0965 79.6564 83.8339 79.3156 83.4147 78.9507C82.5762 78.2209 81.1779 77.4368 79.7951 76.6676C78.4122 75.8984 77.0683 75.1812 76.092 74.2731C75.6038 73.819 75.0923 73.247 75.0339 72.3797C74.9756 71.5125 75.5441 70.73 76.2033 70.2637C78.6497 68.5412 82.3478 67.23 86.366 65.8366C90.3843 64.4433 94.7066 63.0014 98.2272 61.3539C101.748 59.7063 104.337 57.809 105.16 55.8966C105.572 54.9405 105.647 53.9734 105.216 52.7225C104.784 51.4717 103.8 49.9419 102.042 48.1841L64.0359 9.28731C64.0264 9.27832 64.0176 9.26844 64.0081 9.25947C61.9074 7.29242 59.1269 6.30811 56.3791 6.30811ZM97.3084 77.5864C94.9605 77.6711 92.8005 78.7459 91.879 80.4264C92.1408 80.5249 92.3765 80.6357 92.7978 80.7327C94.0234 81.0146 95.734 81.1966 97.4198 81.2338C99.1055 81.271 100.791 81.1292 101.819 80.844C102.269 80.7192 102.507 80.593 102.626 80.5099C102.398 79.5378 101.856 78.8508 100.928 78.3381C99.967 77.8072 98.65 77.538 97.3084 77.5864ZM34.4944 85.6609C32.6324 85.5314 30.2921 86.2726 29.1485 87.1922C28.5768 87.6521 28.3348 88.0782 28.3132 88.3617C28.2916 88.6451 28.3821 89.0228 29.1485 89.6703C29.1486 89.6795 29.1486 89.6888 29.1485 89.6981C30.3538 90.7405 31.7166 90.6318 33.2693 89.7816C34.571 89.0688 35.7259 87.7316 36.4991 86.329C35.9778 85.9928 35.3546 85.7207 34.4944 85.6609ZM88.8441 86.2177C88.4455 86.7244 88.2285 87.196 88.2037 87.5264C88.1694 87.9823 88.2987 88.3347 88.6492 88.6679C89.3061 89.2925 90.7333 89.5614 92.1853 88.7793C92.1566 88.6108 92.1021 88.3553 91.879 88.0275C91.4336 87.3734 90.3923 86.6687 88.8441 86.2177Z" stroke="url(#paint17_radial_33_978)" stroke-width="0.435071"/>
</g>
<g opacity="0.325123" filter="url(#filter11_f_33_978)">
<path fill-rule="evenodd" clip-rule="evenodd" d="M36.2578 65.1714C34.043 65.8248 26.8637 68.5376 27.8826 70.6098C28.8588 72.5949 45.5515 73.3948 48.1134 79.3112C49.2307 81.8912 45.5498 83.8373 46.4819 86.4899C47.1997 88.5324 52.7521 93.6645 56.2649 96.0909C59.0202 97.9941 62.6391 94.5584 61.1656 91.7107C58.818 87.174 69.1894 81.6174 73.8914 79.0937C76.6346 77.6212 68.2355 70.3922 68.2355 70.3922L36.2578 65.1714Z" fill="url(#paint18_linear_33_978)"/>
</g>
<path fill-rule="evenodd" clip-rule="evenodd" d="M37.0768 67.1746C39.0654 68.6351 42.99 67.7542 45.347 68.8156C51.0043 71.3631 57.9588 74.2019 56.679 69.176L55.2394 70.3718L55.2113 68.0931L51.8683 68.9095C51.8683 68.9095 49.279 66.831 48.0919 66.1456C47.8439 66.0025 46.5704 67.2975 46.5704 67.2975L46.3414 65.922C44.6865 65.7459 43.0482 65.6683 41.6057 65.6798C38.1479 65.7076 35.8152 66.248 37.0768 67.1746Z" fill="url(#paint19_linear_33_978)"/>
<g opacity="0.477832" filter="url(#filter12_f_33_978)">
<path fill-rule="evenodd" clip-rule="evenodd" d="M74.2177 71.8057C73.4521 74.6242 83.6273 78.4535 82.8647 80.3983C81.1858 84.6801 71.9984 81.7634 64.9725 90.7312C63.9661 92.0158 66.3864 96.6047 66.0601 96.0609C65.7338 95.517 63.2474 91.7263 63.8848 89.8611C65.8836 84.0115 85.2088 81.8308 81.6683 79.0387C79.6322 77.4331 72.3119 72.9968 74.2177 71.8057Z" fill="url(#paint20_radial_33_978)"/>
</g>
<path opacity="0.586207" d="M97.1133 77.5985C97.1133 77.7211 96.9958 77.8387 96.7867 77.9254C96.5777 78.0121 96.2941 78.0608 95.9984 78.0608C95.7027 78.0608 95.4192 78.0121 95.2101 77.9254C95.001 77.8387 94.8835 77.7211 94.8835 77.5985C94.8835 77.4759 95.001 77.3583 95.2101 77.2716C95.4192 77.1849 95.7027 77.1362 95.9984 77.1362C96.2941 77.1362 96.5777 77.1849 96.7867 77.2716C96.9958 77.3583 97.1133 77.4759 97.1133 77.5985Z" fill="white"/>
<path opacity="0.586207" d="M89.6628 86.1363C89.6628 86.2589 89.5883 86.3765 89.4557 86.4632C89.3231 86.5499 89.1433 86.5986 88.9558 86.5986C88.7683 86.5986 88.5884 86.5499 88.4559 86.4632C88.3233 86.3765 88.2488 86.2589 88.2488 86.1363C88.2488 86.0137 88.3233 85.8962 88.4559 85.8095C88.5884 85.7228 88.7683 85.6741 88.9558 85.6741C89.1433 85.6741 89.3231 85.7228 89.4557 85.8095C89.5883 85.8962 89.6628 86.0137 89.6628 86.1363Z" fill="white"/>
<path opacity="0.586207" d="M33.2667 85.7281C33.2667 85.8507 33.1349 85.9683 32.9003 86.055C32.6657 86.1417 32.3476 86.1904 32.0158 86.1904C31.6841 86.1904 31.3659 86.1417 31.1314 86.055C30.8968 85.9683 30.765 85.8507 30.765 85.7281C30.765 85.6055 30.8968 85.488 31.1314 85.4013C31.3659 85.3146 31.6841 85.2659 32.0158 85.2659C32.3476 85.2659 32.6657 85.3146 32.9003 85.4013C33.1349 85.488 33.2667 85.6055 33.2667 85.7281Z" fill="white"/>
<path opacity="0.251232" d="M32.5597 65.3892C26.1865 69.3309 16.2779 70.7655 27.1213 73.3836C25.8296 70.5074 29.9177 70.8247 32.5597 65.3892Z" fill="url(#paint21_linear_33_978)"/>
<g opacity="0.363158" filter="url(#filter13_f_33_978)">
<path d="M55.1833 101.283C55.1833 101.283 65.0124 100.357 67.2861 97.5207C68.6164 95.8615 61.9994 93.9254 63.4278 92.2999C68.801 86.1853 73.3173 86.4406 79.5473 83.8797C85.7773 81.3188 83.4784 80.0645 81.4633 78.9401C78.0121 77.0143 70.331 74.9625 72.8719 70.3925C75.4288 65.7938 97.8203 59.407 97.8203 59.407C104.606 57.0887 103.754 52.8964 100.431 49.4003L80.4174 29.4958C80.4174 29.4958 81.4107 48.373 77.372 56.4702C72.381 66.4765 45.8101 77.6416 56.9236 78.8764C60.8393 79.3115 62.719 80.6473 64.3198 83.6622C67.6161 89.8701 55.1833 101.283 55.1833 101.283Z" fill="url(#paint22_linear_33_978)"/>
</g>
<defs>
<filter id="filter0_f_33_978" x="5.5647" y="4.43555" width="102.684" height="101.129" filterUnits="userSpaceOnUse" color-interpolation-filters="sRGB">
<feFlood flood-opacity="0" result="BackgroundImageFix"/>
<feBlend mode="normal" in="SourceGraphic" in2="BackgroundImageFix" result="shape"/>
<feGaussianBlur stdDeviation="0.717652" result="effect1_foregroundBlur_33_978"/>
</filter>
<filter id="filter1_f_33_978" x="0.78035" y="0.521317" width="112.253" height="110.698" filterUnits="userSpaceOnUse" color-interpolation-filters="sRGB">
<feFlood flood-opacity="0" result="BackgroundImageFix"/>
<feBlend mode="normal" in="SourceGraphic" in2="BackgroundImageFix" result="shape"/>
<feGaussianBlur stdDeviation="3.10982" result="effect1_foregroundBlur_33_978"/>
</filter>
<filter id="filter2_f_33_978" x="38.1406" y="79.0357" width="32.0961" height="23.1096" filterUnits="userSpaceOnUse" color-interpolation-filters="sRGB">
<feFlood flood-opacity="0" result="BackgroundImageFix"/>
<feBlend mode="normal" in="SourceGraphic" in2="BackgroundImageFix" result="shape"/>
<feGaussianBlur stdDeviation="0.923947" result="effect1_foregroundBlur_33_978"/>
</filter>
<filter id="filter3_f_33_978" x="70.4961" y="54.6978" width="36.3264" height="17.6862" filterUnits="userSpaceOnUse" color-interpolation-filters="sRGB">
<feFlood flood-opacity="0" result="BackgroundImageFix"/>
<feBlend mode="normal" in="SourceGraphic" in2="BackgroundImageFix" result="shape"/>
<feGaussianBlur stdDeviation="1.00023" result="effect1_foregroundBlur_33_978"/>
</filter>
<filter id="filter4_f_33_978" x="91.4082" y="75.9046" width="11.9037" height="6.7718" filterUnits="userSpaceOnUse" color-interpolation-filters="sRGB">
<feFlood flood-opacity="0" result="BackgroundImageFix"/>
<feBlend mode="normal" in="SourceGraphic" in2="BackgroundImageFix" result="shape"/>
<feGaussianBlur stdDeviation="0.454181" result="effect1_foregroundBlur_33_978"/>
</filter>
<filter id="filter5_f_33_978" x="89.7135" y="79.4211" width="14.8507" height="3.51417" filterUnits="userSpaceOnUse" color-interpolation-filters="sRGB">
<feFlood flood-opacity="0" result="BackgroundImageFix"/>
<feBlend mode="normal" in="SourceGraphic" in2="BackgroundImageFix" result="shape"/>
<feGaussianBlur stdDeviation="0.38721" result="effect1_foregroundBlur_33_978"/>
</filter>
<filter id="filter6_f_33_978" x="86.9093" y="84.6229" width="5.17408" height="5.45484" filterUnits="userSpaceOnUse" color-interpolation-filters="sRGB">
<feFlood flood-opacity="0" result="BackgroundImageFix"/>
<feBlend mode="normal" in="SourceGraphic" in2="BackgroundImageFix" result="shape"/>
<feGaussianBlur stdDeviation="0.298647" result="effect1_foregroundBlur_33_978"/>
</filter>
<filter id="filter7_f_33_978" x="87.5496" y="86.9805" width="6.24384" height="3.7284" filterUnits="userSpaceOnUse" color-interpolation-filters="sRGB">
<feFlood flood-opacity="0" result="BackgroundImageFix"/>
<feBlend mode="normal" in="SourceGraphic" in2="BackgroundImageFix" result="shape"/>
<feGaussianBlur stdDeviation="0.25461" result="effect1_foregroundBlur_33_978"/>
</filter>
<filter id="filter8_f_33_978" x="27.2284" y="84.1467" width="10.4187" height="5.43667" filterUnits="userSpaceOnUse" color-interpolation-filters="sRGB">
<feFlood flood-opacity="0" result="BackgroundImageFix"/>
<feBlend mode="normal" in="SourceGraphic" in2="BackgroundImageFix" result="shape"/>
<feGaussianBlur stdDeviation="0.369177" result="effect1_foregroundBlur_33_978"/>
</filter>
<filter id="filter9_f_33_978" x="26.8908" y="85.831" width="11.135" height="5.80063" filterUnits="userSpaceOnUse" color-interpolation-filters="sRGB">
<feFlood flood-opacity="0" result="BackgroundImageFix"/>
<feBlend mode="normal" in="SourceGraphic" in2="BackgroundImageFix" result="shape"/>
<feGaussianBlur stdDeviation="0.313621" result="effect1_foregroundBlur_33_978"/>
</filter>
<filter id="filter10_f_33_978" x="7.5207" y="5.50947" width="98.7839" height="97.2433" filterUnits="userSpaceOnUse" color-interpolation-filters="sRGB">
<feFlood flood-opacity="0" result="BackgroundImageFix"/>
<feBlend mode="normal" in="SourceGraphic" in2="BackgroundImageFix" result="shape"/>
<feGaussianBlur stdDeviation="0.290554" result="effect1_foregroundBlur_33_978"/>
</filter>
<filter id="filter11_f_33_978" x="24.5762" y="61.9633" width="53.0739" height="37.8844" filterUnits="userSpaceOnUse" color-interpolation-filters="sRGB">
<feFlood flood-opacity="0" result="BackgroundImageFix"/>
<feBlend mode="normal" in="SourceGraphic" in2="BackgroundImageFix" result="shape"/>
<feGaussianBlur stdDeviation="1.60403" result="effect1_foregroundBlur_33_978"/>
</filter>
<filter id="filter12_f_33_978" x="62.701" y="70.7259" width="21.2844" height="26.4594" filterUnits="userSpaceOnUse" color-interpolation-filters="sRGB">
<feFlood flood-opacity="0" result="BackgroundImageFix"/>
<feBlend mode="normal" in="SourceGraphic" in2="BackgroundImageFix" result="shape"/>
<feGaussianBlur stdDeviation="0.539895" result="effect1_foregroundBlur_33_978"/>
</filter>
<filter id="filter13_f_33_978" x="51.8218" y="27.0858" width="53.5337" height="76.6066" filterUnits="userSpaceOnUse" color-interpolation-filters="sRGB">
<feFlood flood-opacity="0" result="BackgroundImageFix"/>
<feBlend mode="normal" in="SourceGraphic" in2="BackgroundImageFix" result="shape"/>
<feGaussianBlur stdDeviation="1.205" result="effect1_foregroundBlur_33_978"/>
</filter>
<linearGradient id="paint0_linear_33_978" x1="72.8987" y1="15.3931" x2="53.3779" y2="33.0442" gradientUnits="userSpaceOnUse">
<stop stop-color="#C0CDF9"/>
<stop offset="1" stop-color="#07092D" stop-opacity="0.288043"/>
</linearGradient>
<linearGradient id="paint1_linear_33_978" x1="29.2111" y1="28.333" x2="51.6902" y2="50.812" gradientUnits="userSpaceOnUse">
<stop stop-color="white"/>
<stop offset="1" stop-color="white" stop-opacity="0"/>
</linearGradient>
<linearGradient id="paint2_linear_33_978" x1="53.3442" y1="15.0233" x2="80.0736" y2="41.7526" gradientUnits="userSpaceOnUse">
<stop stop-color="white"/>
<stop offset="1" stop-color="white" stop-opacity="0"/>
</linearGradient>
<radialGradient id="paint3_radial_33_978" cx="0" cy="0" r="1" gradientUnits="userSpaceOnUse" gradientTransform="translate(39.9885 98.8536) scale(22.6717 15.1755)">
<stop stop-color="white"/>
<stop offset="1" stop-color="white" stop-opacity="0"/>
</radialGradient>
<radialGradient id="paint4_radial_33_978" cx="0" cy="0" r="1" gradientUnits="userSpaceOnUse" gradientTransform="translate(51.9424 99.3974) scale(28.9272 19.3627)">
<stop stop-color="white"/>
<stop offset="1" stop-color="white" stop-opacity="0"/>
</radialGradient>
<radialGradient id="paint5_radial_33_978" cx="0" cy="0" r="1" gradientUnits="userSpaceOnUse" gradientTransform="translate(88.6593 64.367) scale(16.1628 6.84263)">
<stop stop-color="white"/>
<stop offset="1" stop-color="white" stop-opacity="0"/>
</radialGradient>
<radialGradient id="paint6_radial_33_978" cx="0" cy="0" r="1" gradientUnits="userSpaceOnUse" gradientTransform="translate(92.0806 66.2543) scale(16.1628 6.84263)">
<stop stop-color="white"/>
<stop offset="1" stop-color="white" stop-opacity="0"/>
</radialGradient>
<linearGradient id="paint7_linear_33_978" x1="98.1563" y1="76.1346" x2="98.2153" y2="79.1135" gradientUnits="userSpaceOnUse">
<stop stop-color="white"/>
<stop offset="1" stop-color="white" stop-opacity="0"/>
</linearGradient>
<linearGradient id="paint8_linear_33_978" x1="98.2743" y1="75.7928" x2="98.2743" y2="80.3159" gradientUnits="userSpaceOnUse">
<stop stop-color="white"/>
<stop offset="1" stop-color="white" stop-opacity="0"/>
</linearGradient>
<radialGradient id="paint9_radial_33_978" cx="0" cy="0" r="1" gradientUnits="userSpaceOnUse" gradientTransform="translate(97.1388 81.1782) scale(6.65092 0.982643)">
<stop stop-color="white"/>
<stop offset="1" stop-color="white" stop-opacity="0"/>
</radialGradient>
<linearGradient id="paint10_linear_33_978" x1="88.8187" y1="84.9697" x2="90.285" y2="87.5605" gradientUnits="userSpaceOnUse">
<stop stop-color="white"/>
<stop offset="1" stop-color="white" stop-opacity="0"/>
</linearGradient>
<linearGradient id="paint11_linear_33_978" x1="88.2672" y1="84.052" x2="90.3127" y2="88.0862" gradientUnits="userSpaceOnUse">
<stop stop-color="white"/>
<stop offset="1" stop-color="white" stop-opacity="0"/>
</linearGradient>
<radialGradient id="paint12_radial_33_978" cx="0" cy="0" r="1" gradientUnits="userSpaceOnUse" gradientTransform="translate(90.7071 89.6666) rotate(-26.8861) scale(2.87567 0.982642)">
<stop stop-color="white"/>
<stop offset="1" stop-color="white" stop-opacity="0"/>
</radialGradient>
<radialGradient id="paint13_radial_33_978" cx="0" cy="0" r="1" gradientUnits="userSpaceOnUse" gradientTransform="translate(31.8537 75.5694) scale(10.7358 4.3704)">
<stop stop-color="white" stop-opacity="0.330049"/>
<stop offset="1" stop-color="white" stop-opacity="0"/>
</radialGradient>
<linearGradient id="paint14_linear_33_978" x1="32.3999" y1="84.5151" x2="32.9012" y2="86.6352" gradientUnits="userSpaceOnUse">
<stop stop-color="white"/>
<stop offset="1" stop-color="white" stop-opacity="0"/>
</linearGradient>
<linearGradient id="paint15_linear_33_978" x1="32.4236" y1="84.2545" x2="33.1316" y2="87.479" gradientUnits="userSpaceOnUse">
<stop stop-color="white"/>
<stop offset="1" stop-color="white" stop-opacity="0"/>
</linearGradient>
<radialGradient id="paint16_radial_33_978" cx="0" cy="0" r="1" gradientUnits="userSpaceOnUse" gradientTransform="translate(32.1339 90.8254) rotate(-15.4869) scale(6.07516 2.27303)">
<stop stop-color="white"/>
<stop offset="1" stop-color="white" stop-opacity="0"/>
</radialGradient>
<radialGradient id="paint17_radial_33_978" cx="0" cy="0" r="1" gradientUnits="userSpaceOnUse" gradientTransform="translate(60.8283 16.715) scale(84.0597 82.7332)">
<stop stop-color="white"/>
<stop offset="1" stop-color="white" stop-opacity="0"/>
</radialGradient>
<linearGradient id="paint18_linear_33_978" x1="36.2578" y1="80.9055" x2="61.4919" y2="87.5775" gradientUnits="userSpaceOnUse">
<stop stop-color="white"/>
<stop offset="1" stop-color="white" stop-opacity="0"/>
</linearGradient>
<linearGradient id="paint19_linear_33_978" x1="49.6344" y1="65.5655" x2="46.7999" y2="72.06" gradientUnits="userSpaceOnUse">
<stop stop-color="#EEEEEC"/>
<stop offset="1" stop-color="#EEEEEC" stop-opacity="0"/>
</linearGradient>
<radialGradient id="paint20_radial_33_978" cx="0" cy="0" r="1" gradientUnits="userSpaceOnUse" gradientTransform="translate(73.5552 83.6836) scale(13.2104 16.7883)">
<stop stop-color="white"/>
<stop offset="1" stop-color="white" stop-opacity="0"/>
</radialGradient>
<linearGradient id="paint21_linear_33_978" x1="26.9037" y1="67.7821" x2="30.8738" y2="70.9363" gradientUnits="userSpaceOnUse">
<stop stop-color="white"/>
<stop offset="1" stop-color="white" stop-opacity="0"/>
</linearGradient>
<linearGradient id="paint22_linear_33_978" x1="73.3749" y1="84.9674" x2="61.5791" y2="53.2072" gradientUnits="userSpaceOnUse">
<stop stop-color="#729FCF"/>
<stop offset="1" stop-color="#729FCF" stop-opacity="0"/>
</linearGradient>
</defs>
</svg>
