<svg width="100" height="100" viewBox="0 0 100 100" fill="none" xmlns="http://www.w3.org/2000/svg">
<path d="M5.85743 68.0263C5.95326 68.243 6.06159 68.4429 6.17826 68.643C6.23243 68.7596 6.30743 68.8805 6.3741 68.9888C6.48243 69.2055 6.5991 69.4138 6.7116 69.6221L7.36577 70.7221C7.48661 70.9263 7.60328 71.1263 7.74078 71.3263C7.96995 71.718 8.24078 72.1013 8.47829 72.493C8.58662 72.6555 8.68662 72.818 8.80746 72.9805C9.26579 73.693 9.68247 74.2847 10.1283 74.8597C10.445 75.2888 10.7616 75.7097 11.1033 76.1305C11.2158 76.2889 11.3408 76.4472 11.4575 76.6055L12.3783 77.7222C12.4908 77.8514 12.6033 78.0014 12.7242 78.1347C13.1325 78.6264 13.5658 79.1014 13.9992 79.5847C13.9992 79.5931 14.0117 79.6014 14.02 79.6139C14.5575 80.2889 15.1367 80.8889 15.77 81.4222L15.7867 81.4389C16.12 81.7806 16.4534 82.1181 16.8075 82.4514L17.2284 82.8556C17.6909 83.2889 18.1534 83.7181 18.6409 84.1348C18.6492 84.1348 18.6534 84.1431 18.6617 84.1473L18.8992 84.3556C19.3242 84.7264 19.7534 85.0931 20.1909 85.4348L20.7118 85.8723C21.0659 86.1556 21.4326 86.4223 21.7951 86.7014L22.3618 87.1348C22.7493 87.4265 23.1618 87.7098 23.5576 87.9931C23.7034 88.0973 23.8493 88.2015 23.9993 88.2973L24.1201 88.3931L25.291 89.1598L25.791 89.4931C26.4035 89.8848 27.0118 90.2515 27.6202 90.6181C27.7952 90.7057 27.9702 90.8015 28.1327 90.9015C28.5827 91.1598 29.0493 91.4223 29.5035 91.6598C29.7535 91.8015 30.0119 91.9223 30.2702 92.0515C30.5827 92.2265 30.9077 92.3973 31.241 92.5723C31.3327 92.6015 31.4077 92.6307 31.4827 92.6723L31.4994 92.6557C31.6369 92.7182 31.766 92.7848 31.8994 92.8515C32.3994 93.1015 32.9202 93.339 33.4619 93.5723C33.5619 93.614 33.6702 93.6557 33.7786 93.714C34.3786 93.9765 34.9786 94.2265 35.5994 94.4682C35.7411 94.5098 35.8911 94.5807 36.0369 94.6349C36.5994 94.8474 37.1786 95.064 37.7536 95.2682L37.9619 95.3432C38.5994 95.5599 39.2286 95.7682 39.8786 95.964C40.0286 96.0057 40.1828 96.0599 40.3411 96.1015C41.0036 96.3015 41.6453 96.539 42.3162 96.664C85.1208 104.427 97.5584 71.0555 97.5584 71.0555C87.1083 84.5973 68.5623 88.1681 50.9996 84.1931C50.3496 84.0431 49.6996 83.8348 49.0412 83.6431C48.112 83.3801 47.1908 83.0897 46.2787 82.7722L46.6745 82.8931L46.4162 82.7931C45.8495 82.6014 45.3037 82.3889 44.7495 82.1764C44.6139 82.1189 44.4763 82.0661 44.337 82.0181L44.2912 82.0056C43.6787 81.7597 43.0828 81.5097 42.4912 81.2472C42.362 81.2056 42.2536 81.1472 42.1245 81.0972C41.4237 80.7918 40.7291 80.4723 40.0411 80.1389L40.6161 80.3931C40.4661 80.3267 40.3188 80.2544 40.1745 80.1764C39.7828 79.9931 39.3911 79.7847 39.0078 79.5889C38.7158 79.4505 38.4282 79.3032 38.1453 79.1472L38.2286 79.1889C37.7578 78.9389 37.2869 78.668 36.8119 78.4139C36.6703 78.3139 36.5078 78.2305 36.3453 78.1389C35.6392 77.7285 34.9418 77.3034 34.2536 76.8639L34.5161 77.0222C34.3397 76.9132 34.1673 76.7979 33.9994 76.6764L34.0244 76.693C33.5766 76.418 33.1374 76.1289 32.7077 75.8264C32.566 75.7347 32.4369 75.6347 32.291 75.5347C31.8421 75.2283 31.4003 74.9115 30.966 74.5847L31.066 74.6555C30.891 74.5138 30.7035 74.3805 30.516 74.243C30.1494 73.9555 29.7785 73.6805 29.4118 73.3805L28.9202 72.9888C28.3962 72.5719 27.8821 72.1426 27.3785 71.7013L27.3743 71.6971L25.9285 70.3846L25.5118 69.993C25.1701 69.6471 24.8201 69.318 24.4701 68.9763L24.066 68.5596C23.6346 68.1324 23.2136 67.6948 22.8034 67.2471L22.7784 67.2179L22.7076 67.1596C22.2664 66.6751 21.8317 66.1848 21.4034 65.6888C21.2909 65.5596 21.1868 65.4221 21.0701 65.2846L20.1242 64.1387C19.6979 63.6032 19.2811 63.06 18.8742 62.5096L18.7076 62.2762C8.96579 49.0428 5.44075 30.7801 13.2367 15.7966L6.35326 24.5009C-2.501 37.1635 -1.40515 53.6303 5.36575 67.0763C5.51992 67.4054 5.69076 67.7138 5.85743 68.0263Z" fill="#1266A9"/>
<path d="M35.6786 49.7847L35.6328 49.718L35.5952 49.668L35.6786 49.7847Z" fill="black"/>
<path d="M40.3368 55.2511L40.7118 55.6261C41.1868 56.0844 41.6744 56.5303 42.1702 56.9761L42.2327 57.0303C42.7327 57.4719 43.2952 57.9345 43.8744 58.3845L43.9619 58.4511C44.1035 58.547 44.2244 58.6595 44.3619 58.7553C44.9452 59.2053 45.5327 59.6345 46.1452 60.0636L46.2077 60.1011C46.4661 60.2886 46.7411 60.4595 47.0327 60.6428C47.1494 60.7178 47.2827 60.8178 47.4077 60.8928C47.8494 61.1762 48.2827 61.4387 48.7286 61.7095C48.7994 61.7387 48.8619 61.7762 48.9286 61.8053C49.3036 62.0345 49.7119 62.2553 50.1036 62.4553C50.2411 62.5387 50.3744 62.6012 50.5161 62.6803C50.7953 62.8178 51.0703 62.9637 51.3369 63.1053L51.4703 63.1637C52.0328 63.4387 52.6078 63.697 53.1703 63.9512C53.312 64.0053 53.4328 64.0512 53.5536 64.1095C54.0161 64.3095 54.487 64.5012 54.9495 64.6762C55.1578 64.747 55.3536 64.8304 55.5495 64.8929C55.9745 65.0512 56.4203 65.197 56.8412 65.3429L57.4245 65.5304C58.0328 65.7179 58.6495 65.9637 59.2954 66.0637C92.3498 71.5054 99.9999 46.1843 99.9999 46.1843C93.1124 56.0469 79.7831 60.747 65.5788 57.0761C64.8697 56.8973 64.1665 56.6958 63.4704 56.4719L63.7079 56.5386C63.5079 56.4844 63.3329 56.4219 63.1412 56.3636C62.7079 56.2136 62.2621 56.0678 61.8412 55.9136L61.2412 55.6886C60.7745 55.5011 60.2995 55.3261 59.8454 55.1261C59.7037 55.0636 59.5745 55.0219 59.4662 54.9594C58.8829 54.6969 58.2953 54.4386 57.7245 54.1636L56.8662 53.7177L56.3703 53.4677C55.987 53.2677 55.6328 53.0594 55.2661 52.8469C55.1726 52.803 55.0822 52.7529 54.9953 52.6969L55.0078 52.7011C54.5661 52.4261 54.1078 52.1594 53.6828 51.8802C53.5411 51.8011 53.412 51.7052 53.2786 51.6219L52.412 51.0594C51.812 50.6427 51.2244 50.1969 50.6286 49.7635C50.4953 49.6427 50.3661 49.5427 50.2369 49.4344C43.991 44.5468 39.066 37.8676 36.7285 30.305C34.2659 22.4424 34.8076 13.6257 39.0618 6.47144L33.8326 13.8382C27.4117 23.0091 27.7742 35.2676 32.7743 44.9677C33.6868 46.7593 34.6118 48.2719 35.6326 49.7135C36.5826 51.0719 37.6326 52.6636 38.8993 53.7552C39.3493 54.2677 39.8327 54.7553 40.3368 55.2511Z" fill="#1266A9"/>
<path d="M56.9414 5.86303C53.1539 11.3922 52.7913 18.259 55.3997 24.3549C58.1706 30.8299 63.8331 35.9133 70.4332 38.3217C70.704 38.4258 70.9666 38.5133 71.2457 38.6133L71.6124 38.7258C71.9957 38.8467 72.3832 38.9883 72.7791 39.0759C91.0334 42.5801 95.9752 29.7508 97.3043 27.8632C92.9585 34.0716 85.6709 35.5633 76.7291 33.4008C75.9516 33.2112 75.1863 32.9747 74.4374 32.6925L74.5749 32.7383C73.6431 32.4158 72.7304 32.0402 71.8416 31.6133L71.9999 31.6841C70.2915 30.8508 68.8249 29.9508 67.4623 28.9174C59.4706 22.8757 54.5289 11.3714 59.7456 2.00049L56.9414 5.86303Z" fill="#1266A9"/>
</svg>
