<svg width="100" height="100" viewBox="0 0 100 100" fill="none" xmlns="http://www.w3.org/2000/svg">
<path d="M81.2499 -0.000244141H18.7499C8.39454 -0.000244141 -0.00012207 8.39442 -0.00012207 18.7498V81.2498C-0.00012207 91.6051 8.39454 99.9998 18.7499 99.9998H81.2499C91.6052 99.9998 99.9999 91.6051 99.9999 81.2498V18.7498C99.9999 8.39442 91.6052 -0.000244141 81.2499 -0.000244141Z" fill="#FAEBD7"/>
<path d="M15.5272 0.312256C11.6991 0.99585 8.49597 2.63647 5.703 5.35132C3.22253 7.75366 1.54285 10.6443 0.546753 14.2576L0.0975342 15.9177V49.9998V84.0818L0.527222 85.7224C2.38269 92.6169 7.3241 97.5583 14.2577 99.4529L15.9178 99.9021H49.9999H84.0819L85.7421 99.4529C92.6171 97.5779 97.6171 92.5779 99.453 85.7419L99.9022 84.0818V49.9998C99.9022 12.1482 99.9999 15.2146 98.6132 11.738C96.6014 6.67944 92.0116 2.46069 86.7186 0.800537C84.121 -0.000244141 84.121 -0.000244141 49.8241 0.0192871C22.3632 0.0388184 16.8358 0.0778809 15.5272 0.312256ZM84.1405 4.99976C84.9999 5.17554 86.4257 5.68335 87.4999 6.19116C89.0624 6.95288 89.6093 7.34351 91.1327 8.86694C92.6561 10.3904 93.0468 10.9373 93.8085 12.4998C95.4296 15.8591 95.3319 13.2224 95.2733 50.6833C95.1952 87.8513 95.3319 84.4333 93.7499 87.6169C92.4218 90.3513 89.453 93.1052 86.621 94.2771C84.0624 95.3513 85.3319 95.3123 49.9999 95.3123C14.6678 95.3123 15.9374 95.3513 13.3788 94.2771C10.5468 93.1052 7.578 90.3513 6.24988 87.6169C4.66785 84.4333 4.80457 87.8513 4.72644 50.6833C4.66785 13.2029 4.57019 15.8201 6.19128 12.4998C6.953 10.9373 7.36316 10.3708 8.86707 8.86694C10.3905 7.34351 10.9374 6.95288 12.4999 6.19116C15.7616 4.60913 13.1444 4.72632 49.8632 4.70679C78.828 4.68726 82.8124 4.72632 84.1405 4.99976Z" fill="#2F4F4F"/>
<path d="M34.1405 31.6797L34.0819 48.3398L29.9413 48.3984L25.7811 48.4375V42.1875V35.9375H21.5819H17.3827V41.2695V46.582L20.371 49.5703L23.3397 52.5391H29.9803H36.621L39.5116 49.6484L42.3827 46.7773V30.8984V15.0391H38.2811H34.1796L34.1405 31.6797Z" fill="#2F4F4F"/>
<path d="M53.7499 18.0273L50.7811 20.9961V25.293V29.5898L57.0311 35.8398L63.2811 42.0898V45.2539V48.4375H61.328H59.3749L55.2733 46.3867C53.0272 45.2539 51.0936 44.3359 50.9764 44.3359C50.8593 44.3359 50.7811 44.8438 50.7811 45.4688V46.582L53.7694 49.5703L56.7382 52.5391H61.2303H65.7225L68.7108 49.5508L71.6796 46.582V42.2852V37.9883L65.4296 31.7383L59.1796 25.4883V22.3242V19.1406H61.2303H63.2811L67.3827 21.1914C69.6288 22.3242 71.5233 23.2422 71.5819 23.2422C71.6405 23.2422 71.6796 22.7344 71.6796 22.1094V20.9961L68.6913 18.0078L65.7225 15.0391H61.2303H56.7382L53.7499 18.0273Z" fill="#2F4F4F"/>
<path d="M16.4061 73.4373V87.4998H24.2186H32.0311V85.9373V84.3748H27.3436H22.6561V71.8748V59.3748H19.5311H16.4061V73.4373Z" fill="#2F4F4F"/>
<path d="M38.281 60.9375V62.5H41.406H44.531V60.9375V59.375H41.406H38.281V60.9375Z" fill="#2F4F4F"/>
<path d="M75.7811 62.4998V65.6248H74.2186H72.6561V67.1873V68.7498H74.2186H75.7811V75.9373V83.1052L77.9882 85.3123L80.1757 87.4998H82.6757H85.1561V85.9373V84.3748H83.5936H82.0311V76.5623V68.7498H83.5936H85.1561V67.1873V65.6248H83.5936H82.0311V62.4998V59.3748H78.9061H75.7811V62.4998Z" fill="#2F4F4F"/>
<path d="M38.281 76.5623V87.4998H41.406H44.531V76.5623V65.6248H41.406H38.281V76.5623Z" fill="#2F4F4F"/>
<path d="M50.7811 76.5623V87.4998H53.9061H57.0311V78.1248V68.7498H60.1561H63.2811V78.1248V87.4998H66.4061H69.5311V78.7498V70.0193L67.3241 67.8123L65.1366 65.6248H57.9491H50.7811V76.5623Z" fill="#2F4F4F"/>
</svg>
