<svg width="106" height="103" viewBox="0 0 106 103" fill="none" xmlns="http://www.w3.org/2000/svg">
<path d="M94.2519 24.4981C93.6801 22.6685 92.3079 21.1819 90.5926 20.267L55.7145 3.57128C54.7996 3.11387 53.7704 2.99951 52.8556 2.99951C51.9408 2.99951 50.9116 2.99951 49.9967 3.22822L15.1186 20.0383C13.4033 20.8388 12.1454 22.3254 11.688 24.2694L3.11142 61.892C2.76836 63.8361 3.22578 65.7801 4.36932 67.381L28.4981 97.2275C29.8704 98.5998 31.8144 99.5146 33.7584 99.629H72.1815C74.2399 99.8577 76.1839 98.9429 77.4418 97.2275L101.571 67.381C102.714 65.7801 103.172 63.8361 102.943 61.892L94.2519 24.4981Z" fill="white" stroke="white" stroke-width="5" stroke-miterlimit="10"/>
<path d="M94.2519 24.4981C93.6801 22.6685 92.3079 21.1819 90.5926 20.267L55.7145 3.57128C54.7996 3.11387 53.7704 2.99951 52.8556 2.99951C51.9408 2.99951 50.9116 2.99951 49.9967 3.22822L15.1186 20.0383C13.4033 20.8388 12.1454 22.3254 11.688 24.2694L3.11142 61.892C2.76836 63.8361 3.22578 65.7801 4.36932 67.381L28.4981 97.2275C29.8704 98.5998 31.8144 99.5146 33.7584 99.629H72.1815C74.2399 99.8577 76.1839 98.9429 77.4418 97.2275L101.571 67.381C102.714 65.7801 103.172 63.8361 102.943 61.892L94.2519 24.4981Z" fill="#326DE6"/>
<path d="M88.8772 60.4055C88.7629 60.4055 88.6485 60.4055 88.6485 60.2912C88.6485 60.1768 88.4198 60.1768 88.1911 60.1768C87.7337 60.0625 87.2763 60.0625 86.8188 60.0625C86.5901 60.0625 86.3614 60.0625 86.1327 59.9481H86.0184C84.7605 59.8338 83.3882 59.605 82.1303 59.262C81.7872 59.1476 81.4442 58.8046 81.3298 58.4615L80.415 58.2328C80.8724 54.9165 80.6437 51.4859 79.9576 48.1696C79.1571 44.8533 77.7848 41.6514 75.9552 38.7925L76.6413 38.1064V37.9921C76.6413 37.649 76.7556 37.1916 76.9844 36.9629C78.0135 36.048 79.0427 35.3619 80.1863 34.6758C80.415 34.5614 80.6437 34.4471 80.8724 34.3327C81.3298 34.104 81.6729 33.8753 82.1303 33.6466C82.2447 33.5322 82.359 33.5322 82.4734 33.4179C82.5877 33.3035 82.4734 33.3035 82.4734 33.1892C83.5026 32.3887 83.7313 31.0164 82.9308 29.9873C82.5877 29.5298 81.9016 29.1868 81.3298 29.1868C80.7581 29.1868 80.1863 29.4155 79.7289 29.7585L79.6145 29.8729C79.5002 29.9873 79.3858 30.1016 79.2714 30.1016C78.9284 30.4447 78.5853 30.7877 78.3566 31.1308C78.2423 31.3595 78.0136 31.4739 77.8992 31.5882C77.0987 32.503 76.0695 33.4179 75.0403 34.104C74.8116 34.2184 74.5829 34.3327 74.3542 34.3327C74.2399 34.3327 74.0112 34.3327 73.8968 34.2184H73.7824L72.8676 34.7901C71.9528 33.8753 70.9236 32.9605 70.0087 32.0456C65.7776 28.7294 60.5173 26.671 55.1427 26.0992L55.0283 25.1844V25.2987C54.6853 25.07 54.5709 24.727 54.4565 24.3839C54.4565 23.126 54.4565 21.8681 54.6853 20.4958V20.3815C54.6853 20.1528 54.7996 19.9241 54.7996 19.6954C54.914 19.2379 54.914 18.7805 55.0283 18.3231V17.637C55.1427 16.4934 54.2278 15.3499 53.0843 15.2355C52.3982 15.1212 51.712 15.4642 51.1403 16.036C50.6828 16.4934 50.4541 17.0652 50.4541 17.637V18.2087C50.4541 18.6662 50.5685 19.1236 50.6828 19.581C50.7972 19.8097 50.7972 20.0384 50.7972 20.2671V20.3815C51.0259 21.6394 51.0259 22.8973 51.0259 24.2695C50.9116 24.6126 50.7972 24.9557 50.4541 25.1844V25.4131L50.3398 26.3279C49.0819 26.4423 47.824 26.671 46.4517 26.8997C41.0771 28.0432 36.1598 30.9021 32.3861 34.9045L31.7 34.4471H31.5857C31.4713 34.4471 31.357 34.5614 31.1282 34.5614C30.8995 34.5614 30.6708 34.4471 30.4421 34.3327C29.4129 33.5322 28.3837 32.6174 27.5833 31.7026C27.4689 31.4739 27.2402 31.3595 27.1258 31.2452C26.7828 30.9021 26.5541 30.559 26.211 30.216C26.0966 30.1016 25.9823 30.1016 25.8679 29.9873C25.7536 29.8729 25.7536 29.8729 25.7536 29.8729C25.2962 29.5298 24.7244 29.3011 24.1526 29.3011C23.4665 29.3011 22.8947 29.5298 22.5517 30.1016C21.8655 31.1308 22.0942 32.503 23.0091 33.3035C23.1234 33.3035 23.1234 33.4179 23.1234 33.4179C23.1234 33.4179 23.3521 33.6466 23.4665 33.6466C23.8096 33.8753 24.267 34.104 24.7244 34.3327C24.9531 34.4471 25.1818 34.5614 25.4105 34.6758C26.5541 35.3619 27.6976 36.048 28.6124 36.9629C28.8412 37.1916 29.0699 37.649 28.9555 37.9921V37.8777L29.6416 38.5638C29.5273 38.7925 29.4129 38.9069 29.2986 39.1356C25.7536 44.739 24.267 51.3715 25.2962 57.8897L24.3813 58.1184C24.3813 58.2328 24.267 58.2328 24.267 58.2328C24.1526 58.5759 23.8096 58.8046 23.4665 59.0333C22.2086 59.3763 20.9507 59.605 19.5784 59.7194C19.3497 59.7194 19.121 59.7194 18.8923 59.8338C18.4349 59.8338 17.9775 59.9481 17.5201 59.9481C17.4057 59.9481 17.2914 60.0625 17.0627 60.0625C16.9483 60.0625 16.9483 60.0625 16.8339 60.1768C15.576 60.4055 14.7756 61.5491 15.0043 62.807C15.233 63.8362 16.2622 64.5223 17.2914 64.4079C17.5201 64.4079 17.6344 64.4079 17.8631 64.2936C17.9775 64.2936 17.9775 64.2936 17.9775 64.1792C17.9775 64.0649 18.3206 64.1792 18.4349 64.1792C18.8923 64.0649 19.3497 63.8362 19.6928 63.7218C19.9215 63.6074 20.1502 63.4931 20.3789 63.4931H20.4933C21.7512 63.0357 22.8947 62.6926 24.267 62.4639H24.3813C24.7244 62.4639 25.0675 62.5783 25.2962 62.807C25.4105 62.807 25.4105 62.9213 25.4105 62.9213L26.4397 62.807C28.155 68.0673 31.357 72.7558 35.8168 76.1864C36.846 76.9869 37.7608 77.673 38.9043 78.2448L38.3326 79.0453C38.3326 79.1596 38.4469 79.1596 38.4469 79.1596C38.6756 79.5027 38.6756 79.9601 38.5613 80.3032C38.1039 81.4467 37.4177 82.5903 36.7316 83.6195V83.7338C36.6173 83.9625 36.5029 84.0769 36.2742 84.3056C36.0455 84.5343 35.8168 84.9917 35.4737 85.4491C35.3594 85.5635 35.3594 85.6778 35.245 85.7922C35.245 85.7922 35.245 85.9066 35.1306 85.9066C34.5589 87.0501 35.0163 88.4223 36.0455 88.9941C36.2742 89.1085 36.6173 89.2228 36.846 89.2228C37.7608 89.2228 38.5613 88.6511 39.0187 87.8506C39.0187 87.8506 39.0187 87.7362 39.1331 87.7362C39.1331 87.6219 39.2474 87.5075 39.3618 87.3932C39.4761 86.9358 39.7048 86.5927 39.8192 86.1353L40.0479 85.4491C40.391 84.1912 40.9627 83.0477 41.5345 81.9042C41.7632 81.5611 42.1063 81.3324 42.4493 81.218C42.5637 81.218 42.5637 81.218 42.5637 81.1037L43.0211 80.1888C46.223 81.4467 49.5393 82.0185 52.9699 82.0185C55.0283 82.0185 57.0867 81.7898 59.1451 81.218C60.403 80.9893 61.6609 80.5319 62.8044 80.1888L63.2618 80.9893C63.3762 80.9893 63.3762 80.9893 63.3762 81.1037C63.7192 81.218 64.0623 81.4467 64.291 81.7898C64.8628 82.9333 65.4346 84.0769 65.7776 85.3348V85.4491L66.0063 86.1353C66.1207 86.5927 66.2351 87.0501 66.4638 87.3932C66.5781 87.5075 66.5781 87.6219 66.6925 87.7362C66.6925 87.7362 66.6925 87.8506 66.8068 87.8506C67.2642 88.6511 68.0647 89.2228 68.9796 89.2228C69.3226 89.2228 69.5513 89.1085 69.8944 88.9941C70.3518 88.7654 70.8092 88.308 70.9236 87.7362C71.0379 87.1645 71.0379 86.5927 70.8092 86.0209C70.8092 85.9066 70.6949 85.9066 70.6949 85.9066C70.6949 85.7922 70.5805 85.6778 70.4662 85.5635C70.2375 85.1061 70.0087 84.763 69.6657 84.4199C69.5513 84.1912 69.437 84.0769 69.2083 83.8482V83.6195C68.4078 82.5903 67.836 81.4467 67.3786 80.3032C67.2642 79.9601 67.2642 79.5027 67.493 79.1596C67.493 79.0453 67.6073 79.0453 67.6073 79.0453L67.2642 78.1305C73.0963 74.5855 77.5561 69.0965 79.6145 62.5783L80.5294 62.6926C80.6437 62.6926 80.6437 62.5783 80.6437 62.5783C80.8724 62.3495 81.2155 62.2352 81.5585 62.2352H81.6729C82.9308 62.4639 84.1887 62.807 85.3322 63.2644H85.4466C85.6753 63.3787 85.904 63.4931 86.1327 63.4931C86.5901 63.7218 86.9332 63.9505 87.3906 64.0649C87.505 64.0649 87.6193 64.1792 87.848 64.1792C87.9624 64.1792 87.9624 64.1792 88.0767 64.2936C88.3055 64.4079 88.4198 64.4079 88.6485 64.4079C89.6777 64.4079 90.5925 63.7218 90.9356 62.807C90.8212 61.5491 89.9064 60.6342 88.8772 60.4055ZM55.8288 56.8605L52.7412 58.3471L49.6537 56.8605L48.8532 53.5443L51.0259 50.7998H54.4565L56.6293 53.5443L55.8288 56.8605ZM74.4686 49.4275C75.0403 51.8289 75.1547 54.2304 74.926 56.6318L64.0623 53.5443C63.0331 53.3156 62.4614 52.2864 62.6901 51.2572C62.8044 50.9141 62.9188 50.6854 63.1475 50.4567L71.7241 42.6806C72.982 44.739 73.8968 47.0261 74.4686 49.4275ZM68.2934 38.4495L58.9164 45.082C58.1159 45.5395 56.9723 45.4251 56.4006 44.6246C56.1719 44.3959 56.0575 44.1672 56.0575 43.8241L55.3714 32.2743C60.403 32.8461 64.8628 35.0188 68.2934 38.4495ZM47.5953 32.6174L49.8824 32.16L49.3106 43.5954C49.3106 44.6246 48.3958 45.4251 47.3666 45.4251C47.0235 45.4251 46.7948 45.3107 46.4517 45.1964L36.9603 38.4495C39.9335 35.5906 43.5929 33.5322 47.5953 32.6174ZM33.644 42.6806L42.1063 50.228C42.9067 50.9141 43.0211 52.0577 42.335 52.8581C42.1063 53.2012 41.8776 53.3156 41.4201 53.4299L30.3278 56.6318C29.9847 51.8289 31.1282 46.9117 33.644 42.6806ZM31.7 62.0065L43.0211 60.0625C43.9359 60.0625 44.8508 60.6342 44.9651 61.5491C45.0795 61.8921 45.0795 62.3496 44.8508 62.6926L40.5053 73.2132C36.5029 70.5831 33.301 66.5807 31.7 62.0065ZM57.6585 76.1864C56.0575 76.5295 54.4565 76.7582 52.7412 76.7582C50.3398 76.7582 47.824 76.3008 45.5369 75.6147L51.1403 65.4371C51.712 64.751 52.6269 64.5223 53.4274 64.9797C53.7704 65.2084 53.9991 65.4371 54.3422 65.7802L59.8312 75.729C59.1451 75.8434 58.4589 75.9577 57.6585 76.1864ZM71.6097 66.2376C69.8944 68.9821 67.4929 71.3835 64.7484 73.0989L60.2886 62.3496C60.0599 61.4347 60.5173 60.5199 61.3178 60.1768C61.6609 60.0625 62.0039 59.9481 62.347 59.9481L73.7824 61.8921C73.2107 63.4931 72.5245 64.9797 71.6097 66.2376Z" fill="white"/>
</svg>
