<svg width="102" height="100" viewBox="0 0 102 100" fill="none" xmlns="http://www.w3.org/2000/svg">
<path d="M95.8534 63.8084C95.8534 68.5115 92.0054 72.3596 87.3023 72.3596H15.429C10.7259 72.3596 6.8779 68.5115 6.8779 63.8084V36.5756C6.8779 31.8724 10.7259 28.0244 15.429 28.0244H87.3023C92.0054 28.0244 95.8534 31.8724 95.8534 36.5756V63.8084Z" fill="url(#paint0_linear_33_1088)"/>
<path d="M80.8183 49.61C84.5748 50.9243 86.4522 53.176 86.4522 56.362C86.4522 58.459 85.6736 60.1235 84.1198 61.3545C82.5676 62.5864 80.3533 63.3509 77.471 63.3509C74.5888 63.3509 71.9227 62.5158 69.4672 61.1449C69.4938 60.4178 69.6859 59.6202 70.0387 58.7543C70.3914 57.8884 70.8089 57.2005 71.2873 56.6981C73.5441 57.8709 75.508 58.4583 77.175 58.4583C77.9628 58.4583 78.5724 58.326 78.9967 58.0598C79.4217 57.7945 79.633 57.4384 79.633 56.991C79.633 56.15 78.9817 55.5211 77.6833 55.1019L75.3508 54.221C71.8223 52.935 70.0579 50.8396 70.0579 47.929C70.0579 45.8037 70.7991 44.1193 72.2814 42.8732C73.7638 41.6288 75.7618 40.5574 78.2739 40.5574C79.5167 40.5574 80.885 40.7321 82.3822 41.0815C83.8778 41.4317 85.1065 42.2943 86.0664 42.7683C86.123 43.5519 85.9658 44.412 85.6007 45.3486C85.233 46.286 84.7822 46.9498 84.244 47.3416C81.8709 46.2786 79.8961 45.747 78.314 45.747C77.7475 45.747 77.3208 45.8727 77.0213 46.1255C76.7251 46.3776 76.5795 46.6986 76.5795 47.0905C76.5795 47.7617 77.1152 48.2924 78.1891 48.6842L80.8183 49.61Z" fill="#F6F6F6"/>
<path d="M62.0557 49.61C65.8122 50.9243 67.6888 53.176 67.6888 56.362C67.6888 58.459 66.9102 60.1235 65.3589 61.3545C63.8051 62.5864 61.59 63.3509 58.7086 63.3509C55.8288 63.3509 53.1594 62.5158 50.7047 61.1449C50.7313 60.4178 50.9235 59.6202 51.277 58.7543C51.6297 57.8884 52.0455 57.2005 52.5256 56.6981C54.7849 57.8709 56.7479 58.4583 58.4141 58.4583C59.2026 58.4583 59.8123 58.326 60.2349 58.0598C60.6584 57.7945 60.8713 57.4384 60.8713 56.991C60.8713 56.15 60.22 55.5211 58.9215 55.1019L56.5907 54.221C53.0613 52.935 51.2962 50.8396 51.2962 47.929C51.2962 45.8037 52.0374 44.1193 53.5213 42.8732C55.0028 41.6288 56.9999 40.5574 59.5121 40.5574C60.754 40.5574 62.1257 40.7321 63.6196 41.0815C65.1169 41.4317 66.3439 42.2943 67.3046 42.7683C67.3612 43.5519 67.2039 44.412 66.8389 45.3486C66.472 46.286 66.0204 46.9498 65.483 47.3416C63.1089 46.2786 61.1342 45.747 59.5513 45.747C58.9857 45.747 58.5573 45.8727 58.2595 46.1255C57.9641 46.3776 57.817 46.6986 57.817 47.0905C57.817 47.7617 58.3534 48.2924 59.4273 48.6842L62.0557 49.61Z" fill="#F6F6F6"/>
<path d="M48.3731 49.9061C48.3731 48.6202 48.1684 47.4315 47.7592 46.34C47.3508 45.2487 46.7643 44.3129 46.0024 43.5294C45.2395 42.7458 44.3154 42.131 43.229 41.6835C42.1409 41.2368 40.9198 40.563 39.5648 40.563C37.9551 40.563 36.5503 41.2917 35.3508 41.8515C34.1514 42.4105 33.1631 43.1791 32.387 44.1582C31.6092 45.138 31.0303 46.291 30.6493 47.6193C30.2683 48.9478 30.0778 50.3951 30.0778 51.9606C30.0778 53.581 30.2325 55.0799 30.5436 56.4499C30.8539 57.8182 31.3837 59.0061 32.1316 60.0143C32.8802 61.0208 33.8543 61.8036 35.0546 62.3617C36.2549 62.9207 37.7447 63.35 39.5231 63.35C42.798 63.35 45.5647 62.4017 47.8239 60.8087C47.6001 59.1883 47.0228 57.8998 46.0954 56.949C44.9416 57.3823 43.9209 57.6926 43.0359 57.8832C42.15 58.0713 41.3689 58.1661 40.6944 58.1661C39.3443 58.1661 38.3727 57.8225 37.783 57.1288C37.194 56.4376 36.8708 55.6199 36.8136 54.378H47.8255C48.1893 53.2018 48.3731 51.6123 48.3731 49.9061ZM36.7717 50.1965C36.8556 48.7691 37.116 47.2419 37.5494 46.6131C37.9837 45.9834 38.6483 45.669 39.5457 45.669C40.47 45.669 41.1637 46.0034 41.6253 46.6747C42.0879 47.346 42.319 48.6985 42.319 49.7332L42.3198 50.1965H36.7717Z" fill="#F6F6F6"/>
<path d="M98.0704 52.9874C96.8734 54.033 96.1788 55.5377 96.1788 57.505V64.8317C96.1788 67.2672 95.4301 69.1197 93.739 70.3932C92.0496 71.6651 90.0798 72.2948 87.8314 72.3554L86.4989 72.3454V68.6946C87.6735 68.3519 88.1558 67.9535 88.6233 67.5009C89.4702 66.7357 90.119 65.4904 90.119 63.7611V57.846C90.1505 55.8355 90.3053 54.2601 91.0372 53.1221C91.7718 51.9841 93.2016 50.9893 95.3269 50.13C92.9796 49.0553 91.4032 47.652 90.5996 45.921C90.1272 44.8929 90.118 43.5054 90.118 41.7602V36.3358C90.118 34.5441 89.5316 33.2889 88.8104 32.5727C88.3413 32.1052 87.7955 31.7317 86.4971 31.4498V28.0226C88.0851 28.0392 88.8869 28.021 89.8119 28.0226C91.236 28.011 92.4289 28.7896 93.4669 29.6005C94.5975 30.4897 95.4009 31.6918 95.8717 33.2048C96.1396 34.0791 96.1778 34.9143 96.1778 35.7094V41.9831C96.1778 44.199 96.8325 45.8461 97.9513 46.9216C98.5819 47.5455 99.4719 48.116 101 48.631V51.4651C99.6459 51.8395 98.7957 52.3468 98.0704 52.9874Z" fill="#F6F6F6" stroke="#404040" stroke-width="0.538843" stroke-miterlimit="10"/>
<path d="M13.8374 28.0245V28.0294C13.3824 28.0269 12.9706 28.0252 12.6413 28.0261C11.2163 28.0136 10.0236 28.7922 8.98635 29.604C7.85424 30.4932 6.88523 31.6537 6.58165 33.2083C6.40862 34.12 6.44523 34.9168 6.44523 35.7129V41.9866C6.44523 44.2017 5.62089 45.8479 4.50291 46.9251C3.87315 47.5489 2.5289 48.1187 1 48.6336V51.4675C2.35503 51.841 3.65943 52.3467 4.38303 52.9889C5.58083 54.0354 6.44419 55.541 6.44419 57.5082V64.8348C6.44419 67.2688 7.02488 69.1229 8.71425 70.3947C10.4037 71.6657 12.3726 72.2979 14.621 72.3594L16.1258 72.3494V68.696C14.952 68.3525 14.3 67.954 13.83 67.5031C12.984 66.737 12.5048 65.4926 12.5048 63.7641V57.8483C12.4724 55.8362 12.148 54.2623 11.4152 53.1235C10.6824 51.9872 9.25248 50.9907 7.12468 50.1322C9.473 49.0567 11.0484 47.6542 11.852 45.924C12.3253 44.8951 12.505 43.5076 12.505 41.7625V36.3382C12.505 34.5464 12.9208 33.2912 13.6412 32.5742C14.0322 32.185 14.7275 31.8647 15.6934 31.6052L17.2206 31.6159C17.2206 30.3014 17.2206 29.4785 17.2206 28.0242H13.8376V28.0245H13.8374Z" fill="#F6F6F6" stroke="#404040" stroke-width="0.538843" stroke-miterlimit="10"/>
<path d="M27.9178 57.7486H26.774C25.5305 57.7486 25.0622 57.0948 25.0622 55.7814V31.6428C25.0622 30.1913 24.643 29.1723 24.1063 28.5851C23.5698 27.9995 22.6382 28.0054 21.3114 28.0054H18.7286L18.4242 27.9995V28.0244L18.4217 31.6171V56.9494C18.4217 58.964 18.8742 60.438 19.6793 61.3763C20.4853 62.3129 21.8471 62.7804 23.7669 62.7804C25.0945 62.7804 26.6051 62.6406 28.2986 62.3603C28.3835 62.0774 28.426 61.4719 28.426 60.5428C28.426 59.6111 28.2564 58.6819 27.9178 57.7486Z" fill="#F6F6F6"/>
<defs>
<linearGradient id="paint0_linear_33_1088" x1="51.3657" y1="28.0244" x2="51.3657" y2="72.3596" gradientUnits="userSpaceOnUse">
<stop offset="0.1497" stop-color="#2A4F84"/>
<stop offset="0.3884" stop-color="#294E82"/>
<stop offset="1" stop-color="#172E4E"/>
</linearGradient>
</defs>
</svg>
