<svg width="100" height="100" viewBox="0 0 100 100" fill="none" xmlns="http://www.w3.org/2000/svg">
<path d="M17.7067 1.00049H82.2933C92.0827 1.00049 100 8.91781 100 18.7072V80.7977C100 90.5871 92.0827 98.5044 82.2933 98.5044H17.7067C7.91732 98.5044 0 90.5871 0 80.7977V18.7072C0 8.91781 7.91732 1.00049 17.7067 1.00049Z" fill="#001E36"/>
<path d="M52.4961 69.9164H26.092C25.624 69.9164 25.429 69.6824 25.429 69.1753V26.5856C25.39 26.3126 25.585 26.0396 25.897 26.0006C25.936 26.0006 25.975 26.0006 26.053 26.0006H34.2044C34.3994 25.9616 34.6724 26.1176 34.6724 26.3516C34.6724 26.3906 34.6724 26.4296 34.6724 26.4686V61.453H53.9392C54.3682 61.453 54.4852 61.648 54.4072 62.038L53.1981 69.2923C53.1981 69.4873 53.0811 69.6824 52.9641 69.7994C52.8081 69.8774 52.6521 69.9164 52.4961 69.9164Z" fill="#31A8FF"/>
<path d="M59.1654 36.57H66.4587C66.8877 36.57 67.1997 36.843 67.3167 37.233C67.4727 37.506 67.5897 37.8571 67.6677 38.2081C67.7457 38.6371 67.8237 39.0661 67.8627 39.4951C67.9017 39.9631 67.9407 40.4702 67.9407 40.9772C69.1888 39.5341 70.7098 38.3251 72.3869 37.389C74.298 36.336 76.4431 35.829 78.5882 35.907C78.8612 35.868 79.1342 36.063 79.1732 36.375C79.1732 36.414 79.1732 36.453 79.1732 36.531V44.6823C79.1732 45.0333 78.9782 45.1504 78.5101 45.1504C75.819 44.9943 73.0889 45.5014 70.6318 46.5544C69.8128 46.9444 68.9938 47.4124 68.3697 48.1145V69.3703C68.3697 69.7993 68.2137 69.9553 67.8237 69.9553H59.7114C59.3604 69.9943 59.0874 69.7993 59.0484 69.4483C59.0484 69.4093 59.0484 69.3313 59.0484 69.2923V46.2034C59.0484 45.1894 59.0484 44.1753 59.0094 43.0833C58.9704 41.9912 58.9704 40.8992 58.9314 39.8461C58.8924 38.9101 58.8144 38.0131 58.6974 37.077C58.6584 36.882 58.7754 36.648 58.9704 36.609C59.0484 36.531 59.0874 36.531 59.1654 36.57Z" fill="#31A8FF"/>
</svg>
