<svg width="100" height="100" viewBox="0 0 100 100" fill="none" xmlns="http://www.w3.org/2000/svg">
<path fill-rule="evenodd" clip-rule="evenodd" d="M39.0941 11.2697C41.898 6.78748 45.6173 2.94735 50.0057 -0.000488281C54.3378 2.87855 58.009 6.64571 60.7776 11.0487C68.0868 21.1848 71.7725 33.4828 71.2453 45.9683C73.5175 47.8009 75.8587 49.5604 78.0936 51.4283C81.2978 54.2845 82.7884 58.5957 82.0358 62.8195C80.956 68.0251 79.9219 73.2412 78.7816 78.4344C78.0248 80.7046 75.5669 81.9326 73.2945 81.1736C72.8984 81.0402 72.5253 80.8525 72.1812 80.6128C68.514 77.6672 64.9409 74.6193 61.2864 71.6712C58.4655 74.3126 54.8172 75.897 50.9625 76.1534C46.5137 76.3703 42.1629 74.8027 38.8751 71.7964C36.2484 73.7289 33.8071 76.0514 31.2387 78.1257C30.113 79.2307 28.86 80.1958 27.5028 81.0026C25.2701 81.8678 22.7579 80.7609 21.8907 78.528C21.849 78.4197 21.8114 78.3112 21.7781 78.2009C20.6044 73.1222 19.3765 68.0605 18.2403 62.9759C17.3563 58.5604 18.9491 54.0114 22.3973 51.1137C24.3924 49.5041 26.4125 47.9239 28.4472 46.3604C29.0122 46.0726 28.7287 45.4264 28.7579 44.928C28.4868 32.8906 32.1206 21.0868 39.1128 11.2864M42.7111 27.0054C40.0552 30.4264 40.3741 35.2965 43.4596 38.3401C47.0098 41.8052 52.6388 41.922 56.3287 38.605C58.9534 36.2389 59.856 32.503 58.5989 29.1987C57.3252 26.0194 54.3711 23.8221 50.9583 23.5177C47.7937 23.1883 44.6813 24.5037 42.7091 27.0012" fill="#754ABC"/>
<path d="M37.8268 82.4362C37.9123 81.2478 38.9442 80.3534 40.1326 80.4368C40.4453 80.4597 40.7497 80.5493 41.0248 80.7016C46.6974 83.4451 53.3144 83.4451 58.9892 80.7016C60.0442 80.1241 61.368 80.5119 61.9452 81.5689C62.0724 81.7982 62.1558 82.0483 62.1914 82.309C62.2081 85.4881 62.2081 88.6674 62.1914 91.8467C62.0724 93.0288 61.0177 93.8919 59.8356 93.7709C59.4749 93.7355 59.1309 93.6083 58.8329 93.404C57.88 92.5952 57.0212 91.6861 56.1059 90.8355C54.6509 93.5561 53.2873 96.3142 51.8238 99.0265C51.1589 100.029 49.8057 100.3 48.803 99.6354C48.5695 99.4791 48.3674 99.2809 48.2088 99.0494C46.7412 96.3309 45.384 93.5561 43.9019 90.8398C42.999 91.6946 42.138 92.6014 41.1833 93.4082C40.1993 94.0773 38.8588 93.8209 38.1895 92.8369C37.9873 92.5387 37.8622 92.1927 37.8268 91.832C37.8018 88.6965 37.8268 85.559 37.8268 82.4235" fill="#754ABC"/>
<path d="M49.9362 36.6376C52.3443 36.6939 54.3392 34.7863 54.3955 32.3804V32.3533C54.3559 29.9474 52.3734 28.0274 49.9675 28.065L49.9362 28.067C47.5305 28.013 45.5353 29.9205 45.4833 32.3262L45.4811 32.3533C45.5229 34.7612 47.5076 36.6792 49.9133 36.6376H49.9362Z" fill="#754ABC"/>
</svg>
