<svg width="100" height="100" viewBox="0 0 100 100" fill="none" xmlns="http://www.w3.org/2000/svg">
<path d="M93.1626 27.6109C98.5305 38.1463 99.8854 50.2738 96.9748 61.734C94.0642 73.1942 87.0867 83.2055 77.3422 89.9026C67.5976 96.5998 55.7507 99.5261 44.0087 98.1363C32.2666 96.7465 21.4302 91.1354 13.5184 82.3484C5.60657 73.5614 1.15895 62.1979 1.00418 50.3748C0.849406 38.5518 4.99803 27.0757 12.6771 18.0846C20.3562 9.09355 31.042 3.20071 42.7437 1.50402C54.4453 -0.192679 66.3648 2.42248 76.2813 8.86227" stroke="#808080" stroke-width="1.1309" stroke-dasharray="4.25 4.25"/>
<path d="M49.7372 87.4333C70.5562 87.4333 87.4333 70.5562 87.4333 49.7372C87.4333 28.9182 70.5562 12.041 49.7372 12.041C28.9182 12.041 12.041 28.9182 12.041 49.7372C12.041 70.5562 28.9182 87.4333 49.7372 87.4333Z" fill="#000080"/>
<path d="M65.3515 45.1635C71.4493 45.1635 76.3925 40.2203 76.3925 34.1225C76.3925 28.0248 71.4493 23.0815 65.3515 23.0815C59.2538 23.0815 54.3105 28.0248 54.3105 34.1225C54.3105 40.2203 59.2538 45.1635 65.3515 45.1635Z" fill="white"/>
<path d="M87.4333 23.0819C93.5311 23.0819 98.4744 18.1387 98.4744 12.0408C98.4744 5.94302 93.5311 0.999756 87.4333 0.999756C81.3355 0.999756 76.3922 5.94302 76.3922 12.0408C76.3922 18.1387 81.3355 23.0819 87.4333 23.0819Z" fill="#000080"/>
<path d="M39.5255 68.5848V65.8028H27.3118V43.8521H24.1566V68.5848H39.5255Z" fill="white"/>
<path d="M56.4816 68.5846V50.8069H53.6657V60.6118C53.6657 64.242 51.7658 66.6168 48.8142 66.6168C46.575 66.6168 45.15 65.2598 45.15 63.1224V50.8069H42.3341V64.242C42.3341 67.1936 44.5394 69.0935 47.9999 69.0935C50.6123 69.0935 52.2747 68.1775 53.9371 65.8365V68.5846H56.4816Z" fill="white"/>
<path d="M77.1648 68.5169V66.3795C76.8595 66.4473 76.7238 66.4473 76.5541 66.4473C75.5703 66.4473 75.0274 65.9384 75.0274 65.0563V55.1496C75.0274 51.9944 72.7204 50.2981 68.3438 50.2981C64.0351 50.2981 61.3888 51.9605 61.2192 56.0657H64.069C64.3065 53.8943 65.5957 52.9105 68.242 52.9105C70.7866 52.9105 72.2115 53.8604 72.2115 55.5568V56.3032C72.2115 57.4906 71.499 57.9995 69.2598 58.2709C65.2565 58.7798 64.6458 58.9155 63.5601 59.3566C61.4906 60.2048 60.4388 61.7993 60.4388 63.9706C60.4388 67.1937 62.678 69.0936 66.2743 69.0936C68.5474 69.0936 70.7526 68.1437 72.3133 66.4812C72.6186 67.8383 73.84 68.8222 75.231 68.8222C75.8077 68.8222 76.2488 68.7543 77.1648 68.5169ZM72.2115 62.4439C72.2115 64.9885 69.633 66.6169 66.885 66.6169C64.6797 66.6169 63.3905 65.8366 63.3905 63.9028C63.3905 62.0368 64.6458 61.2226 67.6653 60.7815C70.6508 60.3744 71.2615 60.2387 72.2115 59.7976V62.4439Z" fill="white"/>
</svg>
