<svg width="100" height="100" viewBox="0 0 100 100" fill="none" xmlns="http://www.w3.org/2000/svg">
<path d="M0.00012207 39.9995C0.00012207 25.9985 0.00012207 18.9975 2.72512 13.6495C5.12192 8.94567 8.94628 5.12131 13.6501 2.72451C18.9981 -0.000488281 26.0001 -0.000488281 40.0001 -0.000488281H60.0001C74.0011 -0.000488281 81.0021 -0.000488281 86.3501 2.72451C91.054 5.12131 94.8783 8.94567 97.2751 13.6495C100 18.9975 100 25.9995 100 39.9995V59.9995C100 74.0005 100 81.0015 97.2751 86.3495C94.8783 91.0534 91.054 94.8777 86.3501 97.2745C81.0021 99.9995 74.0001 99.9995 60.0001 99.9995H40.0001C25.9991 99.9995 18.9981 99.9995 13.6501 97.2745C8.94628 94.8777 5.12192 91.0534 2.72512 86.3495C0.00012207 81.0015 0.00012207 73.9995 0.00012207 59.9995V39.9995Z" fill="#179DE3"/>
<path d="M77.4801 34.6185C75.2169 33.7786 73.1616 32.4601 71.4546 30.7531C69.7475 29.0461 68.4291 26.9908 67.5891 24.7275C66.7483 26.9901 65.4294 29.0448 63.7225 30.7516C62.0156 32.4583 59.9608 33.7769 57.6981 34.6175C59.9606 35.4589 62.0152 36.778 63.7219 38.485C65.4286 40.192 66.7473 42.2469 67.5881 44.5095C68.429 42.2467 69.7479 40.1917 71.455 38.4848C73.1621 36.7779 75.2172 35.4592 77.4801 34.6185Z" fill="white"/>
<path d="M50.1221 24.9995H25.1221V74.9995H75.1121V49.9995L50.1221 74.9895V24.9995Z" fill="white"/>
</svg>
