<svg width="100" height="100" viewBox="0 0 100 100" fill="none" xmlns="http://www.w3.org/2000/svg">
<path fill-rule="evenodd" clip-rule="evenodd" d="M97.8111 17.0013C96.2761 17.0519 96.7203 17.7435 93.3971 18.5644C90.0403 19.391 85.9805 18.885 82.3706 20.4032C72.924 24.3617 71.3945 39.6674 60.143 45.5883C52.7657 49.7549 45.2422 50.7108 38.5172 52.8194C33.1192 54.9843 29.7623 56.4181 25.8037 59.8313C22.7336 62.4797 21.9857 65.0494 18.775 68.3725C15.5193 72.7978 3.17697 68.8673 0 74.4172C1.67564 75.5024 2.64275 75.8004 5.58355 75.4124C4.97627 76.5652 1.1077 78.0834 1.81057 79.7815C1.81057 79.7815 11.1615 81.4852 19.0449 76.7282C22.7223 75.2325 26.1692 72.0668 31.8821 71.3077C39.2819 70.3237 47.6207 72.8596 56.5668 73.5737C54.7169 77.2287 52.8107 79.3879 50.7696 82.4018C50.1398 83.0822 51.3094 83.6838 53.4798 83.2733C57.3822 82.3062 60.2105 81.2603 63.0163 79.3204C66.6769 76.7957 68.2513 74.4847 71.3383 70.8241C74.0205 75.1257 83.4783 76.0703 85.4182 72.3536C81.8083 70.8241 81.0379 62.8677 82.2749 59.432C83.7369 56.1595 84.7884 51.5318 85.9693 47.2302C87.032 43.356 87.6898 37.4463 88.9606 34.4212C90.4788 30.6594 93.4309 29.4842 95.6463 27.4881C97.8618 25.4919 100.066 23.8275 99.9985 19.2617C99.976 17.7772 99.2113 16.9563 97.8111 17.0013Z" fill="#1F305F"/>
<path d="M2.82262 78.9941C8.61988 79.1684 10.1943 79.0166 14.777 77.0261C18.6737 75.3336 23.8861 70.7734 28.4913 69.3002C35.2501 67.1297 42.4981 67.4558 49.6899 68.3049C52.0965 68.5917 54.5144 68.9909 56.2406 68.8053C58.934 67.1522 59.0633 62.6651 60.7334 62.3052C60.2779 70.987 56.5555 76.5425 52.8331 81.5807C60.6771 80.1974 65.9177 75.2999 69.0891 69.2383C70.0506 67.3996 71.6475 64.3913 72.3785 62.3221C72.9576 63.6941 71.625 64.5656 72.2492 66.0613C77.2986 61.8947 79.6827 57.149 81.7294 50.199C84.1023 42.1582 86.5371 35.2476 88.0665 32.8691C89.5566 30.5468 91.8788 29.113 93.9987 27.6285C96.4053 25.936 98.5589 24.176 98.93 20.9541C96.3884 20.7179 95.8037 20.1331 95.4269 18.8511C94.1561 19.5652 92.9866 19.7226 91.6652 19.762C90.5181 19.7957 89.2586 19.7451 87.7179 19.9026C74.9932 21.2071 74.4027 33.6451 65.153 42.7767C64.557 43.3559 63.5392 44.2106 62.8644 44.7166C60.008 46.8477 56.9491 48.0173 53.7271 49.2487C48.509 51.2393 43.5609 51.8184 38.6689 53.539C35.0759 54.7986 31.7358 56.2437 28.7837 58.2623C28.0471 58.7684 27.0463 59.6681 26.4052 60.191C24.6734 61.608 23.5376 63.1768 22.4355 64.7962C21.2996 66.4606 20.2088 68.1756 18.5387 69.8119C15.8341 72.4659 5.7353 70.5878 2.17597 73.0507C1.78236 73.3262 1.46184 73.6523 1.24817 74.0459C3.18809 74.9287 4.48698 74.3889 6.71929 74.6307C6.99481 76.7618 2.09726 78.0214 2.82262 78.9941Z" fill="#C0765A"/>
<path fill-rule="evenodd" clip-rule="evenodd" d="M83.4783 25.1659C85.2776 26.729 89.0562 25.4751 88.3815 22.3656C85.5812 22.1295 83.9618 23.0797 83.4783 25.1659Z" fill="#1F305F"/>
<path d="M96.0344 21.5279C95.5565 22.5344 94.6399 23.8277 94.6399 26.3862C94.6342 26.8248 94.3081 27.1284 94.3025 26.448C94.325 23.9458 94.9885 22.8662 95.6913 21.4492C96.0118 20.8701 96.2087 21.1062 96.0344 21.5279Z" fill="#1F305F"/>
<path d="M95.5506 21.1511C94.9827 22.107 93.6219 23.8558 93.4027 26.4086C93.3633 26.8472 93.0034 27.1171 93.0597 26.4423C93.3071 23.957 94.3923 22.3994 95.2189 21.0443C95.59 20.4933 95.7643 20.7463 95.5506 21.1511Z" fill="#1F305F"/>
<path d="M95.1122 20.6507C94.4655 21.556 92.3738 23.659 91.9352 26.1781C91.8565 26.611 91.4797 26.8472 91.5922 26.1837C92.0477 23.7264 93.8526 21.7922 94.786 20.5157C95.2021 19.9928 95.3596 20.2627 95.1122 20.6507Z" fill="#1F305F"/>
<path d="M94.7185 20.0882C93.9537 20.8979 91.4572 23.5745 90.67 26.0092C90.5294 26.4253 90.1245 26.6109 90.327 25.9642C91.1198 23.5913 93.3071 21.0385 94.4149 19.9083C94.9041 19.4528 95.0165 19.7452 94.7185 20.0882Z" fill="#1F305F"/>
</svg>
