<svg width="100" height="100" viewBox="0 0 100 100" fill="none" xmlns="http://www.w3.org/2000/svg">
<path d="M57 45.3655L65.984 24.1155C66.0904 23.8602 66.3883 23.7394 66.6457 23.8463C66.9021 23.9527 67.025 24.2463 66.917 24.5022L58.9995 43.2267L57 45.3655Z" fill="#939598"/>
<path d="M64.7499 34.551C64.7499 34.551 60.4505 40.1856 57.4159 43.4409C54.3787 46.6973 49.9531 51.8313 49.9531 51.8313V63.3101C49.985 63.3079 50.0143 63.3016 50.0462 63.3016C50.7803 63.3016 51.3749 63.8893 51.3749 64.6154C51.3749 65.342 50.7797 65.9308 50.0462 65.9308C50.0143 65.9308 49.985 65.9234 49.9531 65.9207V77.5016C49.9531 77.5016 55.5265 73.7143 59.5638 70.0505C64.1159 65.9191 69.1749 59.4681 69.1749 59.4681L64.7499 34.5516V34.551Z" fill="#931A2B"/>
<path d="M46.7973 13.5475L46.7559 18.0225L30.5149 24.5278L30.8005 20.5517L46.7979 13.5464L46.7973 13.5475Z" fill="#A7A9AC"/>
<path d="M69.36 20.3952L69.6764 24.3696L53.3536 17.9952L53.2764 13.5217L69.36 20.3952ZM50.0302 12.1324L50.0472 16.7031L26.2892 7.42388L26.7823 2.19409L50.0302 12.1324ZM26.7823 2.19409L26.2892 7.42388L23.1387 9.28292L23.6834 4.17654L26.7823 2.19409Z" fill="#BCBEC0"/>
<path d="M73.1723 1.99951L73.7043 7.22611L50.0473 16.7032L50.0298 12.132L73.1723 1.99951Z" fill="#A7A9AC"/>
<path d="M76.2947 3.95691L76.8792 9.05957L73.7048 7.22606L73.1729 2L76.2947 3.95691Z" fill="#BCBEC0"/>
<path d="M33.7482 25.442L30.5142 24.5282L46.7557 18.0229L23.1387 9.28352L26.2892 7.42395L50.0472 16.7032L73.7046 7.22607L76.8791 9.05959L53.3536 17.9958L69.6764 24.3697L66.4504 25.3101L50.0621 19.2463L33.7482 25.441V25.442Z" fill="#808285"/>
<path d="M23.3952 38.567C23.3781 38.567 23.3611 38.567 23.3446 38.5643C23.067 38.5367 22.8638 38.293 22.8914 38.0164L25.7866 9.12814C25.8143 8.85421 26.0558 8.65208 26.3398 8.67974C26.6175 8.70634 26.8207 8.95208 26.793 9.22655L23.8984 38.1148C23.8718 38.3734 23.6537 38.567 23.3962 38.567H23.3952ZM75.4532 38.567C75.1888 38.567 74.9649 38.3617 74.9494 38.0962L73.1994 9.00953C73.1824 8.73293 73.3946 8.49517 73.6739 8.47868C73.9595 8.46006 74.193 8.67229 74.2101 8.94889L75.9585 38.034C75.976 38.3106 75.7643 38.5478 75.4851 38.5648C75.4739 38.5664 75.4638 38.5664 75.4532 38.567ZM41.6579 44.3803L33.2829 24.6356C33.1749 24.3803 33.2962 24.0856 33.5526 23.9787C33.8111 23.8723 34.1074 23.9925 34.2154 24.2473L43.5111 46.1622L41.6579 44.3803Z" fill="#939598"/>
<path d="M48.7196 64.6164C48.7196 63.9218 49.2643 63.359 49.9536 63.3106V51.8319C49.9536 51.8319 45.5265 46.6973 42.4909 43.4409C39.4558 40.1856 35.1558 34.551 35.1558 34.551L30.7302 59.4702C30.7302 59.4702 35.7887 65.9207 40.3409 70.0521C44.3781 73.7159 49.9526 77.5026 49.9526 77.5026V65.9212C49.2648 65.8728 48.7196 65.3095 48.7196 64.6164Z" fill="#A81E2C"/>
<path d="M50.0461 65.367C49.9238 65.367 49.7993 65.3234 49.7025 65.234L32.2717 49.209L32.2664 47.8377L50.043 64.1782L67.594 47.6431L67.6648 48.958L50.3946 65.2282C50.2967 65.3218 50.1711 65.3675 50.0451 65.3675L50.0461 65.367Z" fill="#939598"/>
<path d="M86.5043 38.0569L64.7505 34.5516C64.7505 34.5516 66.7739 46.0712 66.7739 65.3548C66.7739 84.6404 64.1181 97.7883 64.1181 97.7883L86.125 95.4085C86.125 95.4085 88.9064 84.8872 88.9064 66.7308C88.9053 48.575 86.5032 38.0563 86.5032 38.0563L86.5043 38.0569ZM76.4484 88.8973C75.8548 88.8973 75.3734 88.4218 75.3734 87.8335C75.3734 87.2473 75.8543 86.7696 76.4484 86.7696C77.0426 86.7696 77.5229 87.2473 77.5229 87.8335C77.5229 88.4207 77.0431 88.8973 76.4484 88.8973ZM33.1325 65.3542C33.1325 46.0707 35.1559 34.551 35.1559 34.551L13.4027 38.0563C13.4027 38.0563 11 48.5755 11 66.7319C11 84.8904 13.7819 95.4095 13.7819 95.4095L35.7883 97.7904C35.7883 97.7877 33.1325 84.6409 33.1325 65.3542ZM23.0537 88.8276C22.5005 88.8276 22.0511 88.3824 22.0511 87.8345C22.0511 87.2861 22.4995 86.8415 23.0532 86.8415C23.6064 86.8415 24.0553 87.2861 24.0553 87.8335C24.0553 88.3803 23.6069 88.826 23.0532 88.826L23.0537 88.8276Z" fill="#CE2227"/>
<path d="M76.4483 45.3651C76.9973 45.3651 77.4424 44.9245 77.4424 44.381C77.4424 43.8375 76.9973 43.397 76.4483 43.397C75.8992 43.397 75.4541 43.8375 75.4541 44.381C75.4541 44.9245 75.8992 45.3651 76.4483 45.3651Z" fill="#A51724"/>
<path d="M76.4495 88.3347C76.4107 88.3347 76.3708 88.3294 76.3309 88.3198C76.0596 88.2565 75.8915 87.9884 75.9559 87.7166C75.9713 87.6549 77.4596 81.2544 77.4596 66.431C77.4596 51.5789 75.9681 44.5544 75.9537 44.4863C75.8958 44.215 76.0692 43.9491 76.3415 43.8906C76.6128 43.832 76.8846 44.0044 76.9426 44.2751C76.958 44.3443 78.4713 51.4746 78.4713 66.431C78.4713 81.3959 77.0027 87.6868 76.9404 87.9475C76.8846 88.181 76.6771 88.3352 76.449 88.3352L76.4495 88.3347Z" fill="#939598"/>
<path d="M23.0537 45.5351C23.6976 45.5351 24.2196 45.0183 24.2196 44.3808C24.2196 43.7433 23.6976 43.2266 23.0537 43.2266C22.4097 43.2266 21.8877 43.7433 21.8877 44.3808C21.8877 45.0183 22.4097 45.5351 23.0537 45.5351Z" fill="#A51724"/>
<path d="M23.0524 88.3346C22.8062 88.3346 22.5907 88.1553 22.5524 87.9069C22.5402 87.824 21.2822 79.3899 21.2822 66.1697C21.2822 52.949 22.5402 44.3931 22.5524 44.308C22.5939 44.0341 22.8503 43.8452 23.1269 43.8862C23.4035 43.9261 23.595 44.1814 23.554 44.4543C23.5407 44.5394 22.2945 53.0288 22.2945 66.1708C22.2945 79.3181 23.5418 87.6787 23.5535 87.7591C23.5961 88.0303 23.4046 88.2883 23.128 88.3293C23.1024 88.3314 23.0769 88.3346 23.0524 88.3346Z" fill="#939598"/>
</svg>
