<svg width="100" height="100" viewBox="0 0 100 100" fill="none" xmlns="http://www.w3.org/2000/svg">
<path d="M21.6632 -0.000488281H78.3368C90.293 -0.000488281 100 9.70653 100 21.6627V78.3363C100 90.2925 90.293 99.9995 78.3368 99.9995H21.6632C9.70702 99.9995 0 90.2925 0 78.3363V21.6627C0 9.70653 9.70702 -0.000488281 21.6632 -0.000488281Z" fill="#FFD02F"/>
<path d="M69.488 12.4885H58.5084L67.6531 28.5584L47.5288 12.4885H36.5492L46.6114 32.1393L25.5697 12.4885H14.5901L25.5697 37.4959L14.5901 87.5107H25.5697L46.6114 33.915L36.5492 87.5107H47.5288L67.6531 30.3636L58.5084 87.5107H69.488L89.6123 24.9774L69.488 12.4885Z" fill="#050038"/>
</svg>
