<svg width="100" height="100" viewBox="0 0 100 100" fill="none" xmlns="http://www.w3.org/2000/svg">
<path d="M91.3462 76.9453L52.6989 99.2751C51.8841 99.7495 50.958 99.9995 50.0151 99.9995C49.0721 99.9995 48.146 99.7495 47.3312 99.2751L8.68389 76.9453C7.01991 75.9791 6 74.2081 6 72.3292V27.6698C6 25.7376 7.01991 24.02 8.68389 23.0537L47.3312 0.723965C48.146 0.249487 49.0721 -0.000488281 50.0151 -0.000488281C50.958 -0.000488281 51.8841 0.249487 52.6989 0.723965L91.3462 23.0537C93.0106 24.02 94.0301 25.7912 94.0301 27.6698V72.3292C93.9765 74.2078 92.9566 75.9791 91.3462 76.9453Z" fill="#8D6748"/>
<path d="M49.9615 6.78979C49.1565 6.78979 48.3511 7.00437 47.6534 7.43386L14.2663 26.7039C12.8169 27.5092 11.9583 29.0655 11.9583 30.6755V69.2159C11.9583 70.8799 12.8169 72.3829 14.2663 73.1882L47.6534 92.4582C48.3511 92.8877 49.1561 93.1023 49.9615 93.1023C50.7661 93.1023 51.5718 92.8877 52.2695 92.4582L85.6567 73.1879C87.1061 72.3829 87.9647 70.8262 87.9647 69.2162V30.6755C87.9647 29.0119 87.1061 27.5092 85.6567 26.7039L52.2695 7.43352C51.5715 7.00437 50.7665 6.78979 49.9615 6.78979ZM49.9615 8.40013C50.4979 8.40013 50.9814 8.56106 51.4642 8.82962L84.8513 28.0996C85.7639 28.6361 86.354 29.6563 86.354 30.7299V69.2699C86.354 70.3434 85.7639 71.363 84.8513 71.8998L51.4645 91.1698C50.9814 91.438 50.4982 91.5993 49.9615 91.5993C49.4304 91.5971 48.9103 91.4483 48.4584 91.1694L15.0713 71.9001C14.1587 71.3633 13.5682 70.3438 13.5682 69.2702V30.7299C13.5682 29.6563 14.1587 28.6364 15.0709 28.0993L48.4581 8.82962C48.9412 8.56106 49.478 8.39978 49.9608 8.39978L49.9615 8.40013ZM46.8749 42.0018H51.3837C51.545 42.0018 51.6523 41.9479 51.7596 41.8406C54.4434 38.8348 54.712 32.5544 54.712 30.6759C54.712 30.4077 54.4971 30.1391 54.1752 30.1391H44.0837C43.8155 30.1391 43.547 30.3537 43.547 30.6759C43.547 32.5008 43.8155 38.7812 46.4994 41.8406C46.6067 41.9479 46.714 42.0018 46.8749 42.0018ZM45.6404 31.8031H52.7258C52.994 31.8031 53.2626 32.0176 53.2626 32.3399C53.2626 33.8429 52.994 38.0831 51.1691 40.2839C51.0082 40.3915 50.9009 40.4452 50.7396 40.4452H47.573C47.4117 40.4452 47.3044 40.3915 47.1971 40.2839C45.3719 38.1371 45.1573 33.8429 45.1037 32.3399C45.1037 32.0716 45.3182 31.8031 45.6404 31.8031ZM50.1492 29.0659C50.1492 29.0659 52.0818 27.9383 50.9006 25.8989C50.2029 24.825 49.881 23.9127 50.1492 23.5368C49.4515 24.3958 48.2707 25.3081 49.5588 27.2406C49.9886 27.7238 50.2029 28.7433 50.1492 29.0655V29.0659ZM48.0021 29.2265C48.0021 29.2265 49.2902 28.4751 48.4852 27.0794C48.0021 26.3817 47.7875 25.7376 48.0021 25.5227C47.519 26.1131 46.7676 26.7035 47.6263 28.0456C47.8948 28.3138 48.0021 29.0119 48.0021 29.2265ZM47.8412 39.8011H50.5251C50.6324 39.8011 50.7396 39.7474 50.8469 39.6402C51.7596 38.5666 52.189 36.9026 52.4036 35.4532C52.4036 35.4532 52.35 35.9364 51.0619 36.4195C49.2909 37.0636 46.1772 36.6341 46.1772 36.6341C46.4454 37.7613 46.8753 38.8348 47.519 39.6402C47.5726 39.7474 47.7339 39.8011 47.8412 39.8011ZM27.6586 54.8842V44.149H25.6727L22.3984 49.1945L19.1241 44.149H17.1379V54.9378H19.0165V47.262L22.3444 52.2539H22.3981L25.78 47.2083V54.8842H27.6586ZM39.6826 44.3635C38.9845 44.0953 38.2332 43.934 37.4282 43.934C36.6228 43.934 35.8715 44.0413 35.1734 44.3639C34.4754 44.6321 33.8853 45.0612 33.4022 45.5444C32.8948 46.0505 32.4934 46.6526 32.2213 47.3156C31.9531 48.0137 31.7915 48.711 31.7915 49.4627V49.5164C31.7915 50.2677 31.9531 51.0194 32.2213 51.6635C32.4896 52.3615 32.8654 52.9516 33.3485 53.4348C33.8317 53.9179 34.4221 54.3474 35.1195 54.6156C35.8175 54.8842 36.5692 55.0454 37.3742 55.0454C38.1795 55.0454 38.9309 54.9378 39.6289 54.6156C40.3266 54.3474 40.9171 53.9179 41.3999 53.4348C41.9073 52.9288 42.3088 52.3267 42.581 51.6638C42.8493 50.9658 43.0105 50.2677 43.0105 49.5164V49.4627C43.0105 48.711 42.8489 47.96 42.5807 47.3156C42.3125 46.6179 41.937 46.0275 41.4538 45.5447C40.9707 45.0612 40.3803 44.6317 39.6826 44.3635ZM40.9707 49.57C40.9707 50.0532 40.8634 50.5363 40.7021 51.0194C40.4876 51.4486 40.273 51.8781 39.9508 52.2003C39.6211 52.5278 39.2404 52.7997 38.8236 53.0053C38.3938 53.2202 37.911 53.3275 37.3742 53.3275C36.8914 53.3275 36.3546 53.2202 35.9251 53.0053C35.5084 52.7998 35.1277 52.528 34.7979 52.2006C34.4757 51.8244 34.2075 51.4486 34.0462 50.9661C33.8853 50.4827 33.778 49.9999 33.778 49.4627V49.4091C33.778 48.926 33.8853 48.4428 34.0462 47.9597C34.2612 47.5302 34.4757 47.1011 34.7979 46.7789C35.1276 46.4512 35.5083 46.1792 35.9251 45.9735C36.3546 45.7589 36.8374 45.6517 37.3742 45.6517C37.9106 45.6517 38.3941 45.7589 38.8236 45.9735C39.2404 46.1792 39.6211 46.4512 39.9508 46.7789C40.273 47.1547 40.5412 47.5302 40.7021 48.0133C40.8634 48.4965 40.9704 48.9796 40.9704 49.5164V49.57H40.9707ZM48.9147 47.9597C49.1293 47.5302 49.3442 47.1007 49.6661 46.7789C49.9959 46.4513 50.3766 46.1794 50.7933 45.9735C51.2228 45.7589 51.6523 45.6517 52.189 45.6517C52.8331 45.6517 53.3699 45.7589 53.853 46.0272C54.3362 46.2957 54.7656 46.6179 55.1948 46.9934L56.4296 45.598C56.1611 45.3298 55.8928 45.1149 55.6243 44.9C55.3561 44.6854 55.0339 44.5245 54.712 44.3635C54.3362 44.2559 54.014 44.1486 53.5845 44.0413C53.1553 43.9877 52.7258 43.934 52.2427 43.934C51.3837 43.934 50.686 44.095 49.9883 44.3632C49.2906 44.6317 48.7002 45.0612 48.217 45.5444C47.7432 46.0663 47.362 46.6654 47.0898 47.3156C46.8085 47.9966 46.6626 48.7259 46.6603 49.4627V49.5164C46.6603 50.2677 46.8213 50.9654 47.0898 51.6635C47.358 52.3615 47.7339 52.9516 48.217 53.4348C48.7002 53.9179 49.2906 54.3474 49.9346 54.6156C50.614 54.9022 51.3444 55.0484 52.0818 55.0454C52.5649 55.0454 53.0477 55.0454 53.5308 54.9378C53.9067 54.8842 54.3362 54.7229 54.658 54.562C54.9802 54.401 55.3024 54.2397 55.6243 53.9715C55.9465 53.7033 56.2147 53.4884 56.4833 53.1662L55.2488 51.9317C54.7656 52.3615 54.2825 52.6834 53.853 52.9516C53.4235 53.2202 52.8331 53.3275 52.189 53.3275C51.7059 53.3275 51.2228 53.1662 50.7933 53.0053C50.3641 52.8443 49.9883 52.5221 49.6661 52.2006C49.3442 51.8244 49.0757 51.4486 48.9147 50.9654C48.7538 50.4827 48.6462 49.9995 48.6462 49.4627V49.4091C48.6462 48.926 48.7538 48.4428 48.9147 47.9597ZM60.2407 44.149V54.8842H62.1193V50.3754H67.2725V54.8842H69.151V44.1486H67.2725V48.6041H62.1193V44.1486H60.2407V44.149ZM80.8525 52.3079L81.926 54.8845H83.9119L79.1885 44.0953H77.4705L72.7472 54.8842H74.6797L75.8066 52.3076H80.8525V52.3079ZM78.3295 46.3497L80.1544 50.6439H76.5046L78.3295 46.3497ZM15.7962 58.8558H84.2341V58.2654H15.7962V58.8558ZM55.1415 38.0828C55.1415 38.2974 55.0875 38.4586 55.0875 38.6735H84.2341V38.0828H55.1412H55.1415ZM43.1715 38.0828H15.7962V38.6735H43.2251C43.2251 38.459 43.1711 38.2977 43.1711 38.0828H43.1715Z" fill="white"/>
</svg>
