<svg width="100" height="100" viewBox="0 0 100 100" fill="none" xmlns="http://www.w3.org/2000/svg">
<path d="M62.8541 64.2801H55.9976L55.4249 63.7075V47.6573C55.4249 44.8018 54.3028 42.5884 50.8591 42.5111C49.0869 42.4646 47.0593 42.5111 44.8925 42.5962L44.5675 42.929V49.414V63.6998L43.9948 64.2724H37.1383L36.5656 63.6998V36.2814L37.1383 35.7087H52.5693C58.5668 35.7087 63.4268 40.5687 63.4268 46.5662V63.7075L62.8541 64.2801Z" fill="white"/>
<path d="M27.0238 79.4714H26.0796L21.3668 74.7584V73.8144L28.5715 66.6096H33.563L34.2285 67.2751V72.2666L27.0238 79.4714Z" fill="#32E6E2"/>
<path d="M21.3668 26.1668V25.2227L26.0796 20.5098H27.0238L34.2285 27.7145V32.706L33.563 33.3716H28.5715L21.3668 26.1668Z" fill="#32E6E2"/>
<path d="M27.9987 54.0032H0.572654L-1.19209e-05 53.4305V46.5585L0.572654 45.9858H27.9987L28.5714 46.5585V53.4305L27.9987 54.0032Z" fill="#32E6E2"/>
<path d="M99.4274 54.0032H72.0011L71.4284 53.4305V46.5585L72.0011 45.9858H99.4274L100 46.5585V53.4305L99.4274 54.0032Z" fill="#32E6E2"/>
<path d="M46.0455 27.142V6.57242L46.6181 5.99976H53.4902L54.0629 6.57242V27.142L53.4902 27.7146H46.6181L46.0455 27.142Z" fill="#32E6E2"/>
<path d="M46.0455 93.4165V72.8471L46.6181 72.2744H53.4902L54.0629 72.8471V93.4165L53.4902 93.9891H46.6181L46.0455 93.4165Z" fill="#32E6E2"/>
</svg>
