<svg width="100" height="100" viewBox="0 0 100 100" fill="none" xmlns="http://www.w3.org/2000/svg">
<path d="M50.3968 15.9996C50.3968 15.9996 46.565 19.0276 42.6587 22.0352C38.6403 21.9075 30.7587 22.8073 26.4881 24.3604C22.554 21.8681 19.0972 19.1163 19.0972 19.1163C19.0972 19.1163 16.1433 24.1982 14.2857 27.1804C11.5307 28.6456 8.76477 30.2936 6.29958 32.474C3.4323 31.3354 0.108483 29.9473 0 29.9014C3.79713 37.5603 6.34974 45.2294 13.2936 49.8389C24.3486 32.3793 75.7204 33.9885 87.004 49.7399C94.2962 45.9364 97.1322 37.7532 100 30.1982C99.6855 30.3018 95.7835 31.6081 93.254 32.5729C91.7437 30.9287 88.1839 28.4007 86.1607 27.1803C84.2415 23.666 81.4484 18.9184 81.4484 18.9184C81.4484 18.9184 78.1401 21.379 74.3055 24.0636C69.1251 23.1073 62.8592 21.9454 57.5892 22.2331C54.0017 19.2843 50.3968 15.9996 50.3968 15.9996Z" fill="#F3D400"/>
<path d="M3.92596 46.1779C3.92596 46.1779 9.30786 59.2092 13.0456 68.2642C28.8841 89.16 69.3292 90.6126 86.9611 68.6687C91.1336 59.2656 96.7626 46.051 96.7626 46.051C92.2392 52.7522 84.8775 57.3781 80.3436 59.8699C77.1218 61.6349 69.6881 62.7018 69.6881 62.7018L50.1716 52.5882L30.5431 62.4995C30.5431 62.4995 23.2082 61.321 19.8876 59.7688C13.1857 56.1912 8.67813 51.9643 3.92596 46.1779Z" fill="#FFE953"/>
</svg>
