<svg width="100" height="100" viewBox="0 0 100 100" fill="none" xmlns="http://www.w3.org/2000/svg">
<path fill-rule="evenodd" clip-rule="evenodd" d="M88.0384 17.5493C70.117 -3.45829 38.5589 -5.96021 17.5513 11.9611C-3.45628 29.8824 -5.95819 61.4406 11.9631 82.4481C29.8844 103.456 61.4426 105.958 82.4501 88.0364C103.458 70.115 105.96 38.5569 88.0384 17.5493ZM63.129 43.7917C65.0559 43.7917 66.2864 45.8796 65.3194 47.5463L65.0414 48.0256L46.1724 79.0702C45.8216 79.6472 45.1954 79.9992 44.5204 79.9992H42.7192C41.485 79.9992 40.5826 78.834 40.8918 77.639L46.0119 57.8435C46.4211 56.2608 45.2264 54.7176 43.5917 54.7176H35.7272C34.0925 54.7176 32.8978 53.1746 33.3068 51.5919L41.0328 21.706C41.3138 20.7002 42.2245 19.9921 43.2687 20.004C43.3952 20.0054 43.5099 20.0075 43.6052 20.0105L51.5254 20.0104C53.0406 20.0097 54.2081 21.3461 54.0038 22.8474L53.9551 23.2048L50.9347 40.8706C50.6737 42.3975 51.8497 43.7917 53.3988 43.7917H63.129Z" fill="url(#paint0_radial_33_2963)"/>
<mask id="mask0_33_2963" style="mask-type:alpha" maskUnits="userSpaceOnUse" x="0" y="0" width="100" height="100">
<path d="M49.9982 99.9984C77.6115 99.9984 99.9965 77.6134 99.9965 50.0002C99.9965 22.3869 77.6115 0.00195312 49.9982 0.00195312C22.385 0.00195312 0 22.3869 0 50.0002C0 77.6134 22.385 99.9984 49.9982 99.9984Z" fill="url(#paint1_radial_33_2963)"/>
</mask>
<g mask="url(#mask0_33_2963)">
<g filter="url(#filter0_f_33_2963)">
<path d="M2.77853 33.5649C0.175795 41.0427 -0.613778 49.0316 0.474798 56.8741C1.56338 64.7168 4.49897 72.1888 9.03996 78.6748C13.5809 85.1611 19.5974 90.4762 26.5943 94.1825C33.5911 97.8889 41.368 99.8803 49.285 99.9933C57.202 100.106 65.0325 98.3374 72.1322 94.8323C79.2319 91.3271 85.3975 86.1858 90.1218 79.8318C94.8459 73.4778 97.9935 66.0928 99.3055 58.2843C100.617 50.4761 100.056 42.4676 97.6675 34.9186L83.1301 39.518C84.79 44.7648 85.18 50.3308 84.2683 55.7579C83.3566 61.185 81.1689 66.3178 77.8852 70.7341C74.6019 75.1505 70.3165 78.7236 65.3819 81.1598C60.4476 83.5962 55.0051 84.8254 49.5025 84.7469C44 84.6684 38.5946 83.2842 33.7318 80.7083C28.8687 78.1324 24.6871 74.4382 21.531 69.9302C18.3748 65.4218 16.3345 60.2287 15.5779 54.7779C14.8213 49.3269 15.3701 43.7743 17.1791 38.577L2.77853 33.5649Z" fill="white"/>
</g>
</g>
<defs>
<filter id="filter0_f_33_2963" x="-24.9991" y="8.56583" width="149.995" height="116.432" filterUnits="userSpaceOnUse" color-interpolation-filters="sRGB">
<feFlood flood-opacity="0" result="BackgroundImageFix"/>
<feBlend mode="normal" in="SourceGraphic" in2="BackgroundImageFix" result="shape"/>
<feGaussianBlur stdDeviation="12.4996" result="effect1_foregroundBlur_33_2963"/>
</filter>
<radialGradient id="paint0_radial_33_2963" cx="0" cy="0" r="1" gradientUnits="userSpaceOnUse" gradientTransform="translate(10.0014 49.9988) scale(97.4983 994.24)">
<stop stop-color="#31B2F3"/>
<stop offset="0.473958" stop-color="#F27CEC"/>
<stop offset="1" stop-color="#FD6641"/>
</radialGradient>
<radialGradient id="paint1_radial_33_2963" cx="0" cy="0" r="1" gradientUnits="userSpaceOnUse" gradientTransform="translate(9.99964 50.0004) scale(97.4965 994.222)">
<stop stop-color="#F27CEC"/>
<stop offset="0.484375" stop-color="#31B2F3"/>
<stop offset="1" stop-color="#7D7573"/>
</radialGradient>
</defs>
</svg>
