<svg width="100" height="100" viewBox="0 0 100 100" fill="none" xmlns="http://www.w3.org/2000/svg">
<path d="M51.8812 83.6332C51.6832 82.8411 52.0792 81.851 51.6832 81.0589C51.4851 80.2669 50.8911 80.2669 50.6931 79.6728C49.901 78.0886 48.9109 76.3065 48.9109 74.3263C48.9109 72.7421 48.3168 71.158 48.1188 69.5738C48.1188 68.7817 48.1188 67.9896 48.1188 67.1976C48.1188 66.8015 48.1188 66.4055 47.9208 66.0094C47.9208 65.8114 47.9208 65.4154 47.7228 65.4154L47.9208 64.8213C47.9208 64.6233 49.703 64.6233 50.297 64.6233C51.2871 64.6233 52.0792 64.6233 53.0693 64.8213C55.0495 64.8213 56.6337 64.8213 58.6139 64.6233C62.7723 64.0292 64.5545 62.2471 65.5446 61.653C69.3069 59.0787 71.0891 54.5243 71.0891 54.5243C71.6832 53.1381 71.6832 50.5639 73.0693 49.5738C74.6535 48.1877 77.2277 48.3857 79.0099 47.5936C80 47.1976 80.7921 46.8015 81.9802 46.9995C82.7723 47.1976 84.1584 48.1877 84.5545 46.8015C84.3564 46.6035 84.1584 46.4055 83.9604 46.2075C85.5446 46.0094 83.9604 42.6431 83.3663 41.851C82.3762 40.8609 80.9901 40.2669 79.4059 39.8708C77.4258 39.2768 75.6436 38.6827 73.8614 39.0787C70.6931 39.6728 70.8911 37.8906 69.1089 37.8906C66.9307 37.8906 62.9703 38.0886 62.1782 40.2669C61.7822 41.257 61.5842 41.257 60.9901 42.049C60.5941 42.6431 60.9901 43.2372 60.7921 44.0292C60.5941 44.8213 60.198 47.5936 59.802 48.5837C59.2079 50.1679 58.4158 52.148 57.0297 52.148C55.0495 52.3461 53.4653 52.5441 51.8812 51.95C50.8911 51.554 49.3069 50.9599 48.5149 50.7619C44.7525 49.1778 44.1584 47.5936 44.1584 47.5936C43.7624 46.9995 42.7723 45.8114 42.3762 44.4253C41.9802 42.8411 41.1881 41.653 40.9901 40.8609C40.5941 40.0688 40 38.6827 39.4059 37.2966C38.6139 35.5144 37.6238 34.1282 36.8317 33.5342C35.6436 32.5441 34.6535 30.9599 32.2772 31.356C31.8812 31.356 30.297 31.554 29.1089 32.5441C28.3168 33.1381 28.1188 34.5243 27.3267 35.7124C26.9307 36.3065 26.1386 38.2867 25.5446 39.8708C25.1485 41.0589 24.9505 41.851 24.3564 42.2471C23.9604 42.6431 23.5644 43.0391 22.9703 42.8411C22.5743 42.6431 22.1782 42.4451 21.7822 42.2471C21.1881 41.851 20 39.6728 19.2079 38.2867C18.6139 36.9005 17.2277 34.9203 16.4356 33.9302C15.2475 32.3461 14.6535 31.95 12.8713 31.95C9.30693 31.95 8.91089 33.9302 7.32673 36.9005C6.53465 38.2867 6.33663 40.2669 4.9505 41.851C4.35644 42.6431 1.78218 46.4055 0 46.9995V74.3263V74.1283C0.19802 73.7322 0.19802 73.3362 0.39604 73.1381C1.18812 71.752 2.77228 70.3659 3.56436 68.7817C3.9604 67.9896 4.55446 67.1976 4.9505 66.2075C5.14851 65.6134 5.34653 64.4253 5.74257 63.8312C6.13861 63.0391 6.93069 62.8411 7.72277 62.6431C9.10891 62.4451 10.099 64.4253 11.6832 65.2174C12.2772 65.6134 15.4455 66.6035 16.4356 66.8015C18.0198 67.1976 19.604 67.3956 21.1881 67.7916C21.9802 67.9896 22.7723 67.9896 23.7624 68.1877C24.5545 68.1877 27.5248 68.3857 27.5248 68.5837C26.1386 69.3758 25.1485 71.356 24.5545 72.9401C23.9604 74.5243 23.5644 76.3065 22.9703 77.6926C22.1782 79.2768 20.5941 80.0688 20.7921 82.049C20.7921 82.8411 20.9901 83.6332 20.7921 84.4253C20.5941 85.4154 20.198 86.0094 20 86.9995C19.604 88.1877 19.2079 91.95 18.8119 92.9401L21.9802 92.5441C22.3762 91.752 22.5743 88.1877 22.7723 87.7916C23.3663 86.0094 24.1584 84.6233 25.3465 83.2372C26.5347 81.851 26.5347 80.2669 27.1287 78.6827C27.9208 76.9005 28.9109 75.7124 29.901 74.1283C31.6832 71.356 32.8713 67.5936 36.4356 66.8015C36.8317 66.8015 39.0099 68.3857 40 69.3758C41.1881 70.5639 42.3762 71.752 43.1683 73.3362C44.5545 76.3065 45.9406 80.6629 46.3366 82.8411C46.5347 84.2273 46.7327 84.2273 47.7228 85.4154C48.1188 85.8114 48.9109 87.3956 49.3069 87.9896C49.505 88.5837 50.099 89.9698 50.297 90.7619C50.495 91.1579 51.0891 92.5441 51.4851 93.7322H54.4554C53.2673 90.3659 52.2772 86.9995 51.8812 83.6332Z" fill="white"/>
<path d="M50.2971 90.5639C49.901 89.7718 49.505 88.3857 49.307 87.7916C49.1089 87.1976 48.1188 85.6134 47.7228 85.2174C46.7327 84.2273 46.5347 84.0293 46.3367 82.6431C45.9406 80.2669 44.5545 75.9104 43.1683 73.1382C42.3763 71.554 41.1881 70.3659 40 69.1778C39.0099 68.1877 36.8317 66.6035 36.4357 66.6035C32.6733 67.3956 31.6832 70.9599 29.901 73.9302C28.9109 75.5144 27.9208 76.9005 27.1287 78.4847C26.3367 80.0689 26.5347 81.851 25.3466 83.0392C24.1584 84.4253 23.3664 85.8114 22.7723 87.5936C22.5743 87.9897 22.3763 91.554 21.9802 92.3461L27.5248 91.9501C32.6733 92.3461 31.0891 94.3263 39.2079 93.9303L51.8812 93.5342C51.0891 92.3461 50.4951 90.96 50.2971 90.5639Z" fill="url(#paint0_linear_33_2987)"/>
<path d="M87.1287 6.99951H12.4752C5.54455 6.99951 0 12.7421 0 19.6728V47.1975C1.78218 46.4055 4.35644 42.6431 5.14852 41.653C6.53465 40.0688 6.73267 37.8906 7.52475 36.7025C9.10891 33.7322 9.50495 31.752 13.0693 31.752C14.8515 31.752 15.4455 32.148 16.6337 33.7322C17.4257 34.7223 18.8119 36.7025 19.4059 37.8906C20.198 39.4748 21.3861 41.455 21.9802 41.851C22.3762 42.247 22.7723 42.4451 23.1683 42.4451C23.7624 42.6431 24.1584 42.247 24.5545 41.851C25.1485 41.455 25.3465 40.6629 25.7426 39.4748C26.3366 37.8906 27.1287 35.9104 27.5248 35.3163C28.3168 34.1282 28.5149 32.7421 29.3069 32.148C30.495 31.1579 31.8812 31.1579 32.4752 30.9599C34.8515 30.5639 35.8416 32.148 37.0297 33.1381C37.8218 33.7322 38.8119 35.1183 39.604 36.9005C40.198 38.2866 40.9901 39.6728 41.1881 40.4649C41.3861 41.2569 42.1782 42.4451 42.5743 44.0292C42.9703 45.4154 43.9604 46.4055 44.3564 47.1975C44.3564 47.1975 44.9505 48.9797 48.7129 50.3658C49.505 50.7619 51.0891 51.1579 52.0792 51.554C53.6634 52.148 55.2475 52.148 57.2277 51.752C58.6139 51.752 59.4059 49.7718 60 48.1876C60.396 47.1975 60.7921 44.4253 60.9901 43.6332C61.1881 42.8411 60.5941 42.247 61.1881 41.653C61.7822 40.8609 61.9802 40.8609 62.3762 39.8708C62.9703 37.6926 67.1287 37.4946 69.3069 37.4946C71.0891 37.4946 70.8911 39.2767 74.0594 38.6827C75.8416 38.2866 77.6238 38.8807 79.604 39.4748C81.1881 39.8708 82.7723 40.4649 83.5644 41.455C84.1584 42.049 85.5446 45.6134 84.1584 45.8114C84.3564 46.0094 84.3564 46.2074 84.7525 46.4055C84.3564 47.7916 82.9703 46.8015 82.1782 46.6035C81.1881 46.4055 80.396 46.6035 79.2079 47.1975C77.4257 47.9896 74.6535 47.9896 73.2673 49.1777C71.8812 50.3658 71.8812 52.7421 71.2871 54.1282C71.2871 54.1282 69.505 58.6827 65.7426 61.2569C64.7525 62.049 62.9703 63.6332 58.8119 64.2272C57.0297 64.4253 55.2475 64.6233 53.2673 64.4253C52.2772 64.4253 51.4851 64.4253 50.495 64.2272C49.901 64.2272 48.1188 64.2272 48.1188 64.4253L47.9208 65.0193C47.9208 65.2173 47.9208 65.6134 48.1188 65.6134C48.1188 66.0094 48.1188 66.4055 48.3168 66.8015C48.3168 67.5936 48.3168 68.3857 48.3168 69.1777C48.3168 70.7619 48.9109 72.346 49.1089 73.9302C49.1089 75.7124 50.099 77.6926 50.8911 79.2767C51.2871 79.8708 51.6832 79.8708 51.8812 80.6629C52.0792 81.455 51.8812 82.247 52.0792 83.2371C52.4752 86.6035 53.4653 89.9698 55.0495 93.1381C56.8317 92.7421 58.8119 92.148 61.1881 91.752C65.5446 91.1579 71.6832 91.3559 75.6436 91.1579C85.5446 90.1678 91.0891 95.3163 100 93.1381V19.6728C99.802 12.7421 94.2574 6.99951 87.1287 6.99951Z" fill="url(#paint1_linear_33_2987)"/>
<path d="M22.9703 77.6927C23.7624 76.1086 24.1584 74.5244 24.5545 72.9403C25.1485 71.3561 25.9406 69.3759 27.5248 68.5838C27.3267 68.3858 24.3564 68.1878 23.7624 68.1878C22.9703 68.1878 22.1782 67.9898 21.1881 67.7917C19.604 67.3957 17.8218 67.1977 16.4356 66.8016C15.4455 66.6036 12.4752 65.4155 11.6832 65.2175C10.099 64.4254 9.10891 62.4452 7.72277 62.6432C6.93069 62.8412 6.13861 63.0393 5.74257 63.8313C5.34653 64.4254 5.14851 65.6135 4.9505 66.4056C4.55446 67.1977 4.15842 68.1878 3.56436 68.9799C2.57426 70.564 0.990099 71.9502 0.39604 73.3363C0.19802 73.7323 0.19802 73.9304 0 74.3264V91.3561C0.792079 91.5541 1.58416 91.7521 2.57426 91.9502C9.50495 93.7323 11.2871 93.9304 18.2178 93.1383H18.8119C19.4059 91.9502 19.802 88.3858 20 87.1977C20.198 86.4056 20.5941 85.6135 20.7921 84.6234C20.9901 83.8313 20.7921 83.0393 20.7921 82.2472C20.5941 80.069 22.1782 79.2769 22.9703 77.6927Z" fill="url(#paint2_linear_33_2987)"/>
<defs>
<linearGradient id="paint0_linear_33_2987" x1="36.6081" y1="66.6627" x2="36.6081" y2="93.9805" gradientUnits="userSpaceOnUse">
<stop stop-color="#F29100"/>
<stop offset="1" stop-color="#EC670F"/>
</linearGradient>
<linearGradient id="paint1_linear_33_2987" x1="49.885" y1="7.04011" x2="49.885" y2="94.0334" gradientUnits="userSpaceOnUse">
<stop stop-color="#F29100"/>
<stop offset="1" stop-color="#EC670F"/>
</linearGradient>
<linearGradient id="paint2_linear_33_2987" x1="13.7537" y1="62.5941" x2="13.7537" y2="93.4329" gradientUnits="userSpaceOnUse">
<stop stop-color="#F29100"/>
<stop offset="1" stop-color="#EC670F"/>
</linearGradient>
</defs>
</svg>
