<svg width="100" height="100" viewBox="0 0 100 100" fill="none" xmlns="http://www.w3.org/2000/svg">
<path d="M58.9442 53.3112C58.9442 53.3112 80.3776 41.3011 80.7471 41.4859C78.6983 33.4829 73.5623 26.6176 66.4632 22.3928C59.3642 18.168 50.8805 16.9279 42.8692 18.9439C35.3324 20.8468 28.7964 25.5342 24.5769 32.0626C24.7617 32.0626 58.9442 53.3112 58.9442 53.3112Z" fill="#0364B8"/>
<path d="M38.0652 35.7579C34.1165 33.3405 29.5764 32.0616 24.9465 32.0625H24.577C17.9628 32.1647 11.6595 34.888 7.05181 39.6343C2.4441 44.3806 -0.0913061 50.7617 0.00251405 57.3761C0.0829034 62.3887 1.62404 67.2689 4.43701 71.4186L38.8043 67.908L58.9443 48.5071L38.0652 35.7579Z" fill="#0F78D4"/>
<path d="M80.9321 41.4859H79.6387C76.9018 41.4656 74.1925 42.0327 71.6935 43.1488L59.1292 48.3224L72.8022 63.4736L97.5614 71.2339C98.8328 68.8824 99.6264 66.3026 99.8964 63.6431C100.166 60.9835 99.9076 58.2968 99.1347 55.7378C98.3618 53.1787 97.0903 50.7979 95.3932 48.7324C93.6962 46.667 91.6072 44.9577 89.2467 43.7031C86.6457 42.4305 83.8214 41.6774 80.9321 41.4859Z" fill="#1490DF"/>
<path d="M79.6386 60.7019L74.465 57.5608L62.6397 50.5395L58.9443 48.3223L49.521 52.3872L31.2287 60.1476L22.9141 63.4734L4.43701 71.2338C6.74752 74.532 9.81646 77.227 13.3856 79.0919C16.9547 80.9569 20.9196 81.9372 24.9465 81.9505H79.4538C83.1266 81.93 86.7267 80.925 89.8789 79.0402C93.0312 77.1553 95.6203 74.4595 97.3765 71.2338L79.6386 60.7019Z" fill="#28A8EA"/>
</svg>
