<svg width="100" height="100" viewBox="0 0 100 100" fill="none" xmlns="http://www.w3.org/2000/svg">
<path d="M93.0601 40.937C94.3101 37.4995 94.6226 34.062 94.3101 30.6245C93.9976 27.187 92.7476 23.7495 91.1851 20.6245C88.3726 15.937 84.3101 12.187 79.6226 9.99951C74.6226 7.81201 69.3101 7.18701 63.9976 8.43701C61.4976 5.93701 58.6851 3.74951 55.5601 2.18701C52.4351 0.624512 48.6851 -0.000488281 45.2476 -0.000488281C39.9351 -0.000488281 34.6226 1.56201 30.2476 4.68701C25.8726 7.81201 22.7476 12.187 21.1851 17.187C17.4351 18.1245 14.3101 19.687 11.1851 21.562C8.37257 23.7495 6.18507 26.562 4.31007 29.3745C1.49757 34.062 0.560072 39.3745 1.18507 44.687C1.81007 49.9995 3.99757 54.9995 7.43507 59.062C6.18507 62.4995 5.87257 65.937 6.18507 69.3745C6.49757 72.812 7.74757 76.2495 9.31007 79.3745C12.1226 84.062 16.1851 87.812 20.8726 89.9995C25.8726 92.187 31.1851 92.812 36.4976 91.562C38.9976 94.062 41.8101 96.2495 44.9351 97.812C48.0601 99.3745 51.8101 99.9995 55.2476 99.9995C60.5601 99.9995 65.8726 98.437 70.2476 95.312C74.6226 92.187 77.7476 87.812 79.3101 82.812C82.7476 82.187 86.1851 80.6245 88.9976 78.437C91.8101 76.2495 94.3101 73.7495 95.8726 70.6245C98.6851 65.937 99.6226 60.6245 98.9976 55.312C98.3726 49.9995 96.4976 44.9995 93.0601 40.937ZM55.5601 93.437C50.5601 93.437 46.8101 91.8745 43.3726 89.062C43.3726 89.062 43.6851 88.7495 43.9976 88.7495L63.9976 77.187C64.6226 76.8745 64.9351 76.562 65.2476 75.937C65.5601 75.312 65.5601 74.9995 65.5601 74.3745V46.2495L73.9976 51.2495V74.3745C74.3101 85.312 65.5601 93.437 55.5601 93.437ZM15.2476 76.2495C13.0601 72.4995 12.1226 68.1245 13.0601 63.7495C13.0601 63.7495 13.3726 64.062 13.6851 64.062L33.6851 75.6245C34.3101 75.937 34.6226 75.937 35.2476 75.937C35.8726 75.937 36.4976 75.937 36.8101 75.6245L61.1851 61.562V71.2495L40.8726 83.1245C36.4976 85.6245 31.4976 86.2495 26.8101 84.9995C21.8101 83.7495 17.7476 80.6245 15.2476 76.2495ZM9.93507 32.812C12.1226 29.062 15.5601 26.2495 19.6226 24.687V25.312V48.437C19.6226 49.062 19.6226 49.687 19.9351 49.9995C20.2476 50.6245 20.5601 50.937 21.1851 51.2495L45.5601 65.312L37.1226 70.312L17.1226 58.7495C12.7476 56.2495 9.62257 52.187 8.37257 47.4995C7.12257 42.812 7.43507 37.187 9.93507 32.812ZM78.9976 48.7495L54.6226 34.687L63.0601 29.687L83.0601 41.2495C86.1851 43.1245 88.6851 45.6245 90.2476 48.7495C91.8101 51.8745 92.7476 55.312 92.4351 59.062C92.1226 62.4995 90.8726 65.937 88.6851 68.7495C86.4976 71.562 83.6851 73.7495 80.2476 74.9995V51.2495C80.2476 50.6245 80.2476 49.9995 79.9351 49.687C79.9351 49.687 79.6226 49.062 78.9976 48.7495ZM87.4351 36.2495C87.4351 36.2495 87.1226 35.937 86.8101 35.937L66.8101 24.3745C66.1851 24.062 65.8726 24.062 65.2476 24.062C64.6226 24.062 63.9976 24.062 63.6851 24.3745L39.3101 38.437V28.7495L59.6226 16.8745C62.7476 14.9995 66.1851 14.3745 69.9351 14.3745C73.3726 14.3745 76.8101 15.6245 79.9351 17.812C82.7476 19.9995 85.2476 22.812 86.4976 25.937C87.7476 29.062 88.0601 32.812 87.4351 36.2495ZM34.9351 53.7495L26.4976 48.7495V25.312C26.4976 21.8745 27.4351 18.1245 29.3101 15.312C31.1851 12.187 33.9976 9.99951 37.1226 8.43701C40.2476 6.87451 43.9976 6.24951 47.4351 6.87451C50.8726 7.18701 54.3101 8.74951 57.1226 10.937C57.1226 10.937 56.8101 11.2495 56.4976 11.2495L36.4976 22.812C35.8726 23.1245 35.5601 23.437 35.2476 24.062C34.9351 24.687 34.9351 24.9995 34.9351 25.6245V53.7495ZM39.3101 43.7495L50.2476 37.4995L61.1851 43.7495V56.2495L50.2476 62.4995L39.3101 56.2495V43.7495Z" fill="white"/>
</svg>
