<svg width="100" height="100" viewBox="0 0 100 100" fill="none" xmlns="http://www.w3.org/2000/svg">
<path d="M1 11.4578C1 5.12957 6.13008 -0.000488281 12.4583 -0.000488281H88.5001C94.8282 -0.000488281 99.9583 5.12957 99.9583 11.4578V88.541C99.9583 94.8695 94.8282 99.9995 88.5001 99.9995H12.4583C6.13008 99.9995 1 94.8695 1 88.541V11.4578Z" fill="#F6E458"/>
<path d="M64.4169 22.352C58.9572 20.7837 53.3881 20.5706 47.7131 21.0781C44.5372 21.4081 41.4841 22.0385 38.5391 23.1447C32.1735 25.5358 27.3942 29.6769 24.5443 35.9122C22.5011 40.3822 21.7627 45.1305 21.6857 50.0027C21.6044 55.1513 22.2496 60.229 23.2749 65.2632C24.2042 69.8261 25.4418 74.2998 27.2093 78.6184C27.3772 79.0286 27.5864 79.1669 28.0346 79.166C33.6246 79.1541 39.2149 79.1541 44.8052 79.1541C46.4599 79.1541 48.1149 79.1541 49.77 79.1538C49.8966 79.1538 50.0233 79.1469 50.1691 79.1388C50.2434 79.1349 50.3227 79.1304 50.4096 79.1265C50.376 79.0466 50.3461 78.9732 50.3176 78.9043C50.2625 78.769 50.2143 78.6513 50.1604 78.536C49.7562 77.6712 49.3435 76.8103 48.9309 75.9491C48.0359 74.0812 47.1411 72.2133 46.3318 70.3088C43.8766 64.5335 41.9967 58.5868 41.423 52.2923C41.17 49.5149 41.205 46.7535 41.9758 44.0471C42.8564 40.9536 44.7465 38.7697 47.8802 37.8567C50.7578 37.0186 53.6756 37.024 56.5374 37.9496C59.0916 38.7754 60.7568 40.5203 61.4653 43.1326C62.0094 45.1389 62.0091 47.1667 61.5976 49.1894C61.2805 50.7465 60.6427 52.1677 59.4944 53.3044C57.4342 55.3436 54.8617 55.8125 52.1011 55.6562C51.61 55.6284 51.1204 55.5748 50.6159 55.5191C50.3796 55.4933 50.1401 55.467 49.8954 55.4427C49.9023 55.5209 49.9062 55.5927 49.9101 55.6601C49.917 55.7928 49.9233 55.9077 49.9505 56.0176C50.0682 56.4905 50.1805 56.9651 50.2925 57.4397C50.5626 58.583 50.8327 59.7262 51.1797 60.8455C51.8619 63.0435 52.6545 65.1887 53.5534 67.283C59.9609 66.7829 65.8623 65.1902 72.126 61.4301C72.2201 61.3708 72.3057 61.3172 72.3913 61.2639C75.0818 59.5888 77.2594 57.416 78.7611 54.6103C81.1931 50.0665 81.6672 45.2075 80.9446 40.1921C80.199 35.0159 77.8762 30.6713 73.8775 27.2635C71.1043 24.8997 67.8973 23.3518 64.4169 22.352Z" fill="black"/>
</svg>
