<svg width="100" height="100" viewBox="0 0 100 100" fill="none" xmlns="http://www.w3.org/2000/svg">
<path fill-rule="evenodd" clip-rule="evenodd" d="M50 75.6778C77.6143 75.6778 100 64.3329 100 50.3391C100 36.3454 77.6143 25.0005 50 25.0005C22.3863 25.0005 0 36.3454 0 50.3391C0 64.3329 22.3863 75.6778 50 75.6778Z" fill="#6E81B6"/>
<path fill-rule="evenodd" clip-rule="evenodd" d="M60.1331 58.5288L62.6133 45.7643C63.1731 42.8833 62.7076 40.7345 61.2305 39.3766C59.7994 38.0627 57.3701 37.4237 53.8041 37.4237H49.5089L50.7375 31.0994C50.7605 30.9817 50.7572 30.8604 50.7278 30.7441C50.6984 30.6279 50.6436 30.5195 50.5673 30.4269C50.4911 30.3344 50.3953 30.2598 50.2869 30.2086C50.1784 30.1574 50.06 30.1309 49.94 30.1309H44.0118C43.6225 30.1309 43.2881 30.4072 43.2137 30.7893L40.5795 44.3404C40.34 42.8156 39.7499 41.5048 38.8055 40.4231C37.0667 38.4328 34.3163 37.4237 30.63 37.4237H19.14C18.7506 37.4237 18.4163 37.7 18.3419 38.0815L13.0111 65.5114C12.9645 65.7503 13.0268 65.9957 13.1816 66.1832C13.3357 66.3712 13.5655 66.4794 13.8092 66.4794H19.7839C20.1733 66.4794 20.5076 66.2031 20.582 65.8204L21.8716 59.186H26.3191C28.6529 59.186 30.6143 58.9333 32.1452 58.4351C33.7105 57.926 35.1513 57.0626 36.421 55.874C37.447 54.9314 38.2946 53.8757 38.947 52.7372L37.8823 58.2174C37.8357 58.4562 37.898 58.7029 38.0528 58.8891C38.207 59.0772 38.4373 59.1854 38.6804 59.1854H44.6086C44.9979 59.1854 45.3323 58.9091 45.4067 58.5276L48.3324 43.471H52.4002C54.1336 43.471 54.6415 43.8162 54.7799 43.9643C54.9051 44.0998 55.1651 44.5768 54.873 46.0805L52.5151 58.2168C52.4925 58.3345 52.4961 58.4557 52.5257 58.5718C52.5554 58.6879 52.6103 58.796 52.6865 58.8885C52.7627 58.9809 52.8584 59.0554 52.9667 59.1066C53.075 59.1579 53.1933 59.1845 53.3131 59.1848H59.3357C59.5241 59.1852 59.7068 59.1199 59.8523 59.0002C59.9979 58.8805 60.0972 58.7138 60.1331 58.5288ZM32.6488 47.982C32.2764 49.8956 31.575 51.2602 30.5629 52.0383C29.5351 52.831 27.8911 53.2324 25.6764 53.2324H23.0282L24.943 43.3785H28.3669C30.8821 43.3785 31.8954 43.916 32.3024 44.3664C32.8665 44.9916 32.9862 46.2425 32.6488 47.982ZM85.1041 40.4231C83.3659 38.4328 80.6155 37.4237 76.9292 37.4237H65.4392C65.0492 37.4237 64.7155 37.7 64.6411 38.0815L59.3109 65.5114C59.2637 65.7503 59.326 65.9957 59.4808 66.1832C59.6355 66.3706 59.8659 66.4794 60.1077 66.4794H66.0831C66.4731 66.4794 66.8068 66.2031 66.8812 65.8204L68.1708 59.186H72.6189C74.9533 59.186 76.9129 58.9333 78.4444 58.4351C80.0103 57.926 81.4511 57.0626 82.7201 55.874C83.7794 54.9011 84.6507 53.8074 85.3109 52.6266C85.9711 51.4458 86.4445 50.1289 86.7209 48.7117C87.3998 45.2165 86.8563 42.428 85.1041 40.4231ZM79.2872 47.982C78.9141 49.8956 78.2128 51.2602 77.2019 52.0383C76.1734 52.831 74.5295 53.2324 72.3154 53.2324H69.6666L71.5808 43.3785H75.0053C77.5205 43.3785 78.5338 43.916 78.9413 44.3664C79.5042 44.9916 79.6245 46.2425 79.2872 47.982Z" fill="white"/>
<path fill-rule="evenodd" clip-rule="evenodd" d="M28.197 42.5655C30.4667 42.5655 31.98 42.9845 32.7364 43.8225C33.4922 44.6605 33.6723 46.0995 33.2769 48.1376C32.8634 50.2604 32.0677 51.7755 30.8887 52.6837C29.7097 53.5918 27.9152 54.0452 25.5065 54.0452H21.8715L24.1026 42.5655H28.197ZM13.6385 65.6664H19.6133L21.0311 58.3742H26.1492C28.4074 58.3742 30.2654 58.1366 31.7237 57.662C33.182 57.1874 34.5079 56.3923 35.7008 55.2756C36.702 54.356 37.5122 53.3403 38.1326 52.2302C38.7523 51.1201 39.1924 49.8958 39.453 48.5566C40.0855 45.305 39.6084 42.7723 38.0231 40.9585C36.4384 39.144 33.9166 38.2371 30.46 38.2371H18.97L13.6385 65.6664ZM43.8413 30.9443H49.7695L48.3523 38.2371H53.6342C56.9559 38.2371 59.2492 38.8163 60.5104 39.9754C61.7716 41.1344 62.1495 43.0129 61.6453 45.6097L59.1652 58.3742H53.1426L55.5006 46.2373C55.7685 44.8564 55.6705 43.915 55.2044 43.4126C54.7382 42.9108 53.746 42.6592 52.2297 42.6592H47.4919L44.438 58.3742H38.5098L43.8413 30.9443ZM74.8355 42.5655C77.1052 42.5655 78.6179 42.9845 79.3749 43.8225C80.1307 44.6605 80.3102 46.0995 79.9148 48.1376C79.5025 50.2604 78.7068 51.7755 77.5272 52.6837C76.3488 53.5918 74.5537 54.0452 72.1462 54.0452H68.5112L70.7416 42.5655H74.8355ZM60.2758 65.6664H66.2512L67.6684 58.3742H72.7864C75.0453 58.3742 76.9033 58.1366 78.3616 57.662C79.8199 57.1874 81.1458 56.3923 82.3387 55.2756C83.3399 54.356 84.1501 53.3403 84.7698 52.2302C85.3896 51.1201 85.8303 49.8958 86.0915 48.5566C86.7233 45.305 86.2463 42.7723 84.6616 40.9585C83.0757 39.144 80.5545 38.2371 77.0979 38.2371H65.6079L60.2758 65.6664Z" fill="black"/>
</svg>
