<svg width="100" height="100" viewBox="0 0 100 100" fill="none" xmlns="http://www.w3.org/2000/svg">
<path fill-rule="evenodd" clip-rule="evenodd" d="M44.3188 49.1521C51.0068 42.78 48.966 34.8989 42.9088 25.349C36.8515 15.7991 24.6583 12.4016 22.3836 14.5688C20.1089 16.7361 19.6047 32.2313 25.6619 41.7812C31.7191 51.3311 37.6307 55.5243 44.3188 49.1521Z" fill="url(#paint0_linear_33_3018)"/>
<path fill-rule="evenodd" clip-rule="evenodd" d="M50.1016 50.0342C55.0495 57.8351 61.6642 54.9828 69.8519 47.1819C78.0395 39.381 81.4345 24.438 79.7517 21.7848C78.0688 19.1316 65.2803 19.2646 57.0926 27.0655C48.905 34.8664 45.1538 42.2334 50.1016 50.0342Z" fill="url(#paint1_linear_33_3018)"/>
<path fill-rule="evenodd" clip-rule="evenodd" d="M47.3963 45.7425C55.6121 46.7513 58.843 39.1612 60.3494 26.8924C61.8558 14.6235 55.6459 1.65613 52.8516 1.31303C50.0573 0.969935 40.6696 12.0222 39.1631 24.291C37.6567 36.5599 39.1806 44.7337 47.3963 45.7425Z" fill="url(#paint2_linear_33_3018)"/>
<path fill-rule="evenodd" clip-rule="evenodd" d="M45.3274 99.9986C62.5526 99.9986 76.522 94.9948 76.522 72.3024C76.522 49.61 62.5526 30.9888 45.3274 30.9888C28.1021 30.9888 14.1437 49.61 14.1437 72.3024C14.1437 94.9948 28.1021 99.9986 45.3274 99.9986Z" fill="url(#paint3_linear_33_3018)"/>
<path d="M61.0828 67.6696C63.5436 67.6696 65.5384 66.7418 65.5384 65.5973C65.5384 64.4527 63.5436 63.5249 61.0828 63.5249C58.6221 63.5249 56.6273 64.4527 56.6273 65.5973C56.6273 66.7418 58.6221 67.6696 61.0828 67.6696Z" fill="#EAADCC"/>
<path d="M28.0869 66.411C30.5293 66.7109 32.6223 66.0331 32.7618 64.8971C32.9013 63.7611 31.0344 62.597 28.592 62.2972C26.1496 61.9973 24.0565 62.6751 23.9171 63.8111C23.7776 64.9471 25.6445 66.1111 28.0869 66.411Z" fill="#EAADCC"/>
<path d="M48.1818 64.8635C46.8408 65.9533 45.2919 66.3979 43.5351 66.1972C41.7783 65.9964 40.4762 65.2672 39.6286 64.0096" stroke="black" stroke-width="1.24342" stroke-linecap="round" stroke-linejoin="round"/>
<path fill-rule="evenodd" clip-rule="evenodd" d="M30.9262 54.0786C32.156 54.0357 33.2866 54.4952 34.1206 55.2728C34.9546 56.0504 35.4919 57.1462 35.5348 58.3759C35.5778 59.6056 35.1182 60.7362 34.3406 61.5702C33.5628 62.4041 32.467 62.9414 31.2372 62.9844C30.0076 63.0273 28.877 62.5678 28.0431 61.7901C27.2092 61.0124 26.672 59.9166 26.6291 58.6868C26.5861 57.4572 27.0456 56.3266 27.8232 55.4927C28.6009 54.6588 29.6966 54.1215 30.9262 54.0786Z" fill="black"/>
<path fill-rule="evenodd" clip-rule="evenodd" d="M31.1602 57.803C31.1323 57.0024 30.4603 56.3759 29.66 56.4039C28.8592 56.4319 28.2327 57.1037 28.2607 57.9043C28.2887 58.7049 28.9604 59.3314 29.7612 59.3034C30.5615 59.2753 31.1882 58.6036 31.1602 57.803Z" fill="white"/>
<path fill-rule="evenodd" clip-rule="evenodd" d="M57.9232 55.2097C59.1529 55.1668 60.2835 55.6262 61.1174 56.4039C61.9513 57.1815 62.4886 58.2773 62.5315 59.507C62.5745 60.7367 62.115 61.8674 61.3374 62.7013C60.5597 63.5353 59.4639 64.0725 58.2342 64.1154C57.0045 64.1584 55.8739 63.6989 55.0399 62.9212C54.206 62.1435 53.6687 61.0477 53.6258 59.818C53.5828 58.5883 54.0424 57.4577 54.82 56.6238C55.5977 55.7899 56.6935 55.2526 57.9232 55.2097Z" fill="black"/>
<path d="M34.9135 58.3978C34.9874 60.5141 33.3318 62.2893 31.2155 62.3632C29.0994 62.4371 27.3243 60.7817 27.2504 58.6654C27.1765 56.5492 28.8318 54.774 30.9479 54.7001C33.0642 54.6262 34.8396 56.2816 34.9135 58.3978ZM36.1561 58.3544C36.0583 55.5519 33.7071 53.3596 30.9045 53.4575C28.1021 53.5553 25.9099 55.9063 26.0077 58.7088C26.1056 61.5114 28.4565 63.7038 31.2589 63.6059C34.0615 63.508 36.254 61.157 36.1561 58.3544Z" fill="white" stroke="white" stroke-width="0.62171"/>
<path d="M61.9102 59.5286C61.9841 61.645 60.3288 63.4202 58.2125 63.4941C56.0964 63.568 54.3211 61.9126 54.2471 59.7962C54.1733 57.6801 55.8288 55.9049 57.9449 55.831C60.0612 55.7571 61.8363 57.4125 61.9102 59.5286ZM63.1529 59.4852C63.055 56.6827 60.7041 54.4905 57.9015 54.5883C55.0991 54.6862 52.9066 57.0372 53.0045 59.8396C53.1024 62.6422 55.4534 64.8346 58.2559 64.7367C61.0585 64.6389 63.2508 62.2879 63.1529 59.4852Z" fill="white" stroke="white" stroke-width="0.62171"/>
<path fill-rule="evenodd" clip-rule="evenodd" d="M58.1568 58.9341C58.1289 58.1336 57.457 57.507 56.6564 57.535C55.8558 57.563 55.2293 58.2348 55.2573 59.0354C55.2852 59.836 55.9571 60.4625 56.7577 60.4345C57.5583 60.4066 58.1848 59.7347 58.1568 58.9341Z" fill="white"/>
<path d="M21.7079 74.4048L37.0434 90.362" stroke="#ECB732" stroke-width="2.2796" stroke-linecap="round"/>
<path d="M34.971 76.27L25.2309 86.6319" stroke="#ECB732" stroke-width="2.2796" stroke-linecap="round"/>
<path d="M68.7506 74.4048L53.4151 90.362" stroke="#ECB732" stroke-width="2.2796" stroke-linecap="round"/>
<path d="M55.4874 76.27L65.2275 86.6319" stroke="#ECB732" stroke-width="2.2796" stroke-linecap="round"/>
<path d="M51.5499 39.1746L41.3953 49.3292" stroke="#FFC73B" stroke-width="2.2796" stroke-linecap="round"/>
<path d="M49.4776 49.3291L39.323 39.1745" stroke="#FFC73B" stroke-width="2.2796" stroke-linecap="round"/>
<defs>
<linearGradient id="paint0_linear_33_3018" x1="3362.04" y1="-2594.66" x2="6131.73" y2="5154.58" gradientUnits="userSpaceOnUse">
<stop stop-color="#52CE63"/>
<stop offset="1" stop-color="#51A256"/>
</linearGradient>
<linearGradient id="paint1_linear_33_3018" x1="2693.69" y1="3367.46" x2="-5056.25" y2="6135.79" gradientUnits="userSpaceOnUse">
<stop stop-color="#52CE63"/>
<stop offset="1" stop-color="#51A256"/>
</linearGradient>
<linearGradient id="paint2_linear_33_3018" x1="3421.36" y1="414.913" x2="1891" y2="12878.7" gradientUnits="userSpaceOnUse">
<stop stop-color="#8AE99C"/>
<stop offset="1" stop-color="#52CE63"/>
</linearGradient>
<linearGradient id="paint3_linear_33_3018" x1="10237.6" y1="5782.55" x2="8584.34" y2="32930.3" gradientUnits="userSpaceOnUse">
<stop stop-color="#FFE56C"/>
<stop offset="1" stop-color="#FFC63A"/>
</linearGradient>
</defs>
</svg>
