<svg width="100" height="100" viewBox="0 0 100 100" fill="none" xmlns="http://www.w3.org/2000/svg">
<path d="M50.2752 -0.000488281C29.6881 -0.000488281 13 16.6876 13 37.2747C13 37.6782 13.007 38.0782 13.0209 38.4782V74.2995C13.0209 74.2995 13.0209 74.303 13.0209 74.3065V77.9481C13.0209 77.9481 13.0209 77.9481 13.0243 77.9446V86.9495C13.0243 87.0191 13.0209 87.0852 13.0209 87.1547C13.0209 87.2243 13.0243 87.2939 13.0278 87.3634V87.5304H13.0313C13.2296 94.4484 18.8954 99.996 25.8622 99.996C32.8289 99.996 38.5539 94.4484 38.7522 87.5304V74.3065H49.4022C49.6909 74.3134 49.9831 74.3169 50.2718 74.3169C70.8589 74.3169 87.547 57.8618 87.547 37.2747C87.547 16.6876 70.8624 -0.000488281 50.2752 -0.000488281ZM50.2752 48.5787C47.9971 48.5787 42.2233 48.5787 39.8269 48.5787H38.7626V37.2782C38.7626 30.9445 43.9415 25.8073 50.2752 25.8073C56.6089 25.8073 61.7461 30.9445 61.7461 37.2782C61.7461 43.6119 56.6089 48.5822 50.2752 48.5822V48.5787Z" fill="#E72264"/>
<path opacity="0.15" d="M25.5387 74.3135H38.7348V87.5339H38.6756C38.4774 94.4519 32.8115 99.9996 25.8448 99.9996C18.8781 99.9996 13.2087 94.4519 13.0104 87.5339H13.007V87.3669C13.007 87.2974 13 87.2278 13 87.1582C13 87.0887 13.0035 87.0226 13.0035 86.953V86.0209C13.4 79.8333 19.2398 74.3135 25.5352 74.3135H25.5387Z" fill="#1D1D1B"/>
<g opacity="0.05">
<path opacity="0.5" d="M13.0209 58.4113V74.3064C13.0209 60.3034 24.7874 48.7768 38.7556 48.5855V43.5144C28.3734 44.6065 19.1807 50.1959 13.0209 58.4113Z" fill="black"/>
<path d="M13.0417 86.2677C16.0747 84.0417 19.7546 82.7305 23.7266 82.7305H38.7591V74.3064H25.8796C19.0763 74.3064 13.5148 79.5827 13.0417 86.2677Z" fill="black"/>
</g>
<g opacity="0.05">
<path opacity="0.5" d="M38.7556 48.5855V43.9805C28.2864 45.0065 19.0485 50.7176 13.0209 59.1034V74.3064C13.0209 60.3034 24.7874 48.7768 38.7556 48.5855Z" fill="black"/>
<path d="M25.8796 74.3064C19.2607 74.3064 13.8139 79.3045 13.0905 85.7321C16.1199 83.367 19.8624 81.9687 23.9214 81.9687H38.7557V74.3099H25.8761L25.8796 74.3064Z" fill="black"/>
</g>
<g opacity="0.05">
<path opacity="0.5" d="M38.7556 48.5856V44.4431C28.1925 45.3996 18.8955 51.2498 13.0209 59.8235V74.303C13.0209 60.3 24.7874 48.7734 38.7556 48.5821V48.5856Z" fill="black"/>
<path d="M25.8796 74.3064C19.445 74.3064 14.12 79.0262 13.16 85.193C16.1721 82.6922 19.9772 81.2001 24.1162 81.2001H38.7557V74.3064H25.8761H25.8796Z" fill="black"/>
</g>
<g opacity="0.05">
<path opacity="0.5" d="M38.7556 48.5856V44.9092C28.0847 45.7926 18.725 51.8029 13.0209 60.5852V74.3064C13.0209 60.3034 24.7874 48.7769 38.7556 48.5856Z" fill="black"/>
<path d="M25.8796 74.3064C19.6293 74.3064 14.4226 78.7619 13.2539 84.6678C16.2416 82.0279 20.0989 80.4349 24.3144 80.4349H38.7591V74.3064H25.8796Z" fill="black"/>
</g>
<g opacity="0.05">
<path opacity="0.5" d="M38.7556 48.5858V45.3789C27.9595 46.1789 18.5268 52.3769 13.0209 61.3888V74.3066C13.0209 60.3036 24.7874 48.7771 38.7556 48.5858Z" fill="black"/>
<path d="M25.8796 74.3067C19.8172 74.3067 14.7391 78.4979 13.3722 84.1359C16.3182 81.3604 20.2241 79.6665 24.5092 79.6665H38.7557V74.3032H25.8761L25.8796 74.3067Z" fill="black"/>
</g>
<g opacity="0.05">
<path opacity="0.5" d="M38.7556 48.5857V45.8484C27.8169 46.5649 18.2937 52.9751 13.0209 62.2513V74.3065C13.0209 60.3035 24.7874 48.777 38.7556 48.5857Z" fill="black"/>
<path d="M25.8796 74.3066C20.0085 74.3066 15.0625 78.2369 13.5148 83.6037C16.4086 80.6925 20.3528 78.9013 24.7074 78.9013H38.7591V74.3066H25.8796Z" fill="black"/>
</g>
<g opacity="0.05">
<path opacity="0.5" d="M38.7556 48.5856V46.3213C27.6499 46.9439 18.019 53.6115 13.0209 63.1868V74.3064C13.0209 60.3034 24.7874 48.7769 38.7556 48.5856Z" fill="black"/>
<path d="M25.8795 74.3064C20.2067 74.3064 15.3929 77.9793 13.6782 83.0748C16.5059 80.0314 20.4884 78.1358 24.8987 78.1358H38.7556V74.3064H25.8761H25.8795Z" fill="black"/>
</g>
<g opacity="0.05">
<path opacity="0.5" d="M38.7556 48.5856V46.7979C27.4447 47.3196 17.6851 54.3002 13.0209 64.2268V74.3065C13.0209 60.3035 24.7874 48.7769 38.7556 48.5856Z" fill="black"/>
<path d="M25.8796 74.3064C20.4015 74.3064 15.7269 77.7324 13.8661 82.5565C16.6173 79.3775 20.6241 77.3706 25.097 77.3706H38.7591V74.3064H25.8796Z" fill="black"/>
</g>
<g opacity="0.05">
<path opacity="0.5" d="M38.7556 48.5857V47.2849C27.1839 47.6988 17.2573 55.0725 13.0209 65.4339V74.3066C13.0209 60.3036 24.7874 48.777 38.7556 48.5857Z" fill="black"/>
<path d="M25.8796 74.3066C20.5998 74.3066 16.0643 77.4891 14.0817 82.0386C16.7356 78.7239 20.7702 76.6057 25.2953 76.6057H38.7591V74.3066H25.8796Z" fill="black"/>
</g>
</svg>
