<svg width="100" height="100" viewBox="0 0 100 100" fill="none" xmlns="http://www.w3.org/2000/svg">
<path d="M35.4449 54.5253C32.2234 55.4396 30.1099 57.0426 28.7176 58.6443C30.0511 57.4773 31.8374 56.4063 34.2469 55.7233C36.7114 55.0248 38.8139 55.0298 40.5511 55.3651V54.0066C39.0691 53.8711 37.3701 53.9791 35.4449 54.5253ZM28.5704 43.1053L16.6063 46.2573C16.6063 46.2573 16.8243 46.5653 17.2281 46.9763L27.3721 44.3033C27.3721 44.3033 27.2284 46.1556 25.9801 47.8126C28.3414 46.0261 28.5704 43.1053 28.5704 43.1053ZM38.5851 71.2231C21.7484 75.7578 12.8407 56.2458 10.1438 46.1183C8.89779 41.4436 8.35387 37.9031 8.20889 35.6183C8.19332 35.3811 8.20052 35.1811 8.21729 34.9978C7.34389 35.0506 6.92574 35.5046 7.01082 36.8166C7.15579 39.1001 7.69972 42.6403 8.94572 47.3166C11.6414 57.4426 20.5504 76.9546 37.3871 72.4198C41.0519 71.4326 43.8051 69.6343 45.8719 67.3388C43.9669 69.0593 41.5826 70.4143 38.5851 71.2231ZM41.7491 31.1638V32.3621H48.3531C48.2176 31.9378 48.0811 31.5556 47.9456 31.1638H41.7491Z" fill="#2D4552"/>
<path d="M49.8291 41.0323C52.7991 41.8758 54.3699 43.958 55.2001 45.8008L58.5116 46.7413C58.5116 46.7413 58.0599 40.292 52.2264 38.635C46.7691 37.0845 43.4109 41.6673 43.0024 42.2603C44.5899 41.1293 46.9081 40.2033 49.8291 41.0323ZM76.1894 45.8305C70.7271 44.273 67.3701 48.8653 66.9676 49.45C68.5564 48.3203 70.8734 47.394 73.7931 48.2268C76.7584 49.0715 78.3279 51.1513 79.1606 52.9953L82.4769 53.9393C82.4769 53.9393 82.0179 47.4888 76.1894 45.8305ZM72.8994 62.835L45.3519 55.1338C45.3519 55.1338 45.6501 56.6458 46.7944 58.6035L69.9881 65.0875C71.8976 63.9828 72.8994 62.835 72.8994 62.835ZM53.8006 79.4118C31.9884 73.5638 34.6254 45.772 38.1549 32.6025C39.6081 27.1753 41.1021 23.1414 42.3411 20.4373C41.6019 20.2851 40.9896 20.6745 40.3846 21.9049C39.0691 24.573 37.3869 28.9173 35.7589 34.9988C32.2304 48.168 29.5934 75.9588 51.4046 81.8068C61.6854 84.561 69.6944 80.375 75.6646 73.801C69.9976 78.9338 62.7624 81.8115 53.8006 79.4118Z" fill="#2D4552"/>
<path d="M41.7491 64.7104V59.1021L26.167 63.5206C26.167 63.5206 27.3184 56.8306 35.4449 54.5254C37.9094 53.8269 40.0121 53.8316 41.7491 54.1671V31.1639H49.5511C48.7016 28.5389 47.8799 26.5179 47.1896 25.1136C46.0479 22.7894 44.8774 24.3301 42.2201 26.5526C40.3486 28.1161 35.6186 31.4516 28.5009 33.3696C21.383 35.2889 15.6286 34.7799 13.2277 34.3641C9.82391 33.7769 8.04356 33.0294 8.21011 35.6184C8.35506 37.9019 8.89901 41.4424 10.145 46.1184C12.8407 56.2446 21.7496 75.7566 38.5864 71.2219C42.9844 70.0369 46.0886 67.6946 48.2404 64.7091H41.7491V64.7104ZM16.6051 46.2574L28.5704 43.1054C28.5704 43.1054 28.2216 47.7084 23.7361 48.8909C19.2492 50.0721 16.6051 46.2574 16.6051 46.2574Z" fill="#E2574C"/>
<path d="M86.7804 31.4297C83.6701 31.975 76.2084 32.6542 66.9869 30.1825C57.7629 27.7122 51.6429 23.3918 49.2181 21.3611C45.7809 18.4821 44.2689 16.4813 42.7809 19.5077C41.4654 22.177 39.7831 26.5212 38.1549 32.6027C34.6266 45.772 31.9896 73.5627 53.8006 79.4107C75.6071 85.2537 87.2164 59.8662 90.7449 46.6957C92.3731 40.6155 93.0871 36.0112 93.2836 33.0425C93.5076 29.6795 91.1976 30.6557 86.7804 31.4297ZM42.9581 42.3252C42.9581 42.3252 46.3954 36.9792 52.2251 38.6362C58.0586 40.2932 58.5104 46.7425 58.5104 46.7425L42.9581 42.3252ZM57.1889 66.3145C46.9346 63.3107 45.3531 55.1337 45.3531 55.1337L72.8994 62.8352C72.8994 62.834 67.3391 69.2807 57.1889 66.3145ZM66.9281 49.51C66.9281 49.51 70.3606 44.1677 76.1894 45.8295C82.0179 47.489 82.4769 53.9382 82.4769 53.9382L66.9281 49.51Z" fill="#2EAD33"/>
<path d="M36.3039 60.6462L26.167 63.5193C26.167 63.5193 27.2681 57.2463 34.7356 54.7603L28.9956 33.2188L28.4996 33.3695C21.3818 35.289 15.6274 34.7797 13.2265 34.364C9.82271 33.777 8.04236 33.0292 8.20889 35.6185C8.35386 37.902 8.89779 41.4422 10.1438 46.1185C12.8395 56.2445 21.7484 75.7565 38.5851 71.2218L39.0811 71.066L36.3039 60.6462ZM16.6051 46.2575L28.5704 43.1053C28.5704 43.1053 28.2216 47.7083 23.736 48.8908C19.2492 50.072 16.6051 46.2575 16.6051 46.2575Z" fill="#D65348"/>
<path d="M57.6514 66.427L57.1876 66.3142C46.9334 63.3107 45.3519 55.1337 45.3519 55.1337L59.5564 59.1042L67.0766 30.2065L66.9856 30.1825C57.7616 27.7122 51.6419 23.3918 49.2169 21.3611C45.7796 18.4821 44.2676 16.4813 42.7796 19.5077C41.4654 22.177 39.7831 26.5212 38.1549 32.6027C34.6266 45.772 31.9896 73.5627 53.8006 79.4105L54.2476 79.5112L57.6514 66.427ZM42.9581 42.3252C42.9581 42.3252 46.3954 36.9792 52.2251 38.6362C58.0586 40.2932 58.5104 46.7425 58.5104 46.7425L42.9581 42.3252Z" fill="#1D8D22"/>
<path d="M36.8203 60.499L34.1018 61.2705C34.7441 64.891 35.8761 68.3655 37.6528 71.435C37.9621 71.3667 38.2688 71.308 38.5838 71.2217C39.4093 70.999 40.1748 70.7232 40.9118 70.4225C38.9266 67.4765 37.6133 64.0835 36.8203 60.499ZM35.7588 34.999C34.3618 40.213 33.1121 47.7177 33.4561 55.2452C34.0718 54.978 34.7223 54.729 35.4448 54.524L35.9481 54.4115C35.3346 46.371 36.6608 38.1775 38.1548 32.6027C38.5336 31.1925 38.9133 29.8807 39.2918 28.6575C38.6821 29.0455 38.0256 29.4432 37.2778 29.853C36.7736 31.4095 36.2643 33.1107 35.7588 34.999Z" fill="#C04B41"/>
</svg>
