<svg width="100" height="100" viewBox="0 0 100 100" fill="none" xmlns="http://www.w3.org/2000/svg">
<path d="M89.5728 19.4399C83.5282 11.6126 75.2981 5.75362 65.9235 2.60398C56.5488 -0.545654 46.4507 -0.84447 36.9062 1.74533C27.3617 4.33512 18.7996 9.6972 12.3027 17.1534C5.80588 24.6096 1.66609 33.825 0.406949 43.6341C-0.852194 53.4433 0.825867 63.4055 5.2289 72.2608C9.63194 81.1162 16.5622 88.4669 25.1431 93.3834C33.7241 98.2999 43.5703 100.561 53.4365 99.8814C63.3027 99.2016 72.7457 95.6112 80.5713 89.5643C102.415 72.6832 106.446 41.2913 89.5712 19.4399H89.5728Z" fill="#FF6C37"/>
<path d="M66.8634 31.8587L45.7808 53.1085L39.8231 46.9836C60.5728 26.2337 62.6556 28.1087 66.8649 31.8587H66.8634Z" fill="white"/>
<path d="M45.781 53.6895C45.5942 53.6849 45.4159 53.6108 45.281 53.4817L39.281 47.4817C39.1459 47.3419 39.0704 47.1551 39.0704 46.9606C39.0704 46.7662 39.1459 46.5794 39.281 46.4395C59.7387 25.9819 62.5308 26.9397 67.3636 31.3147C67.4445 31.3794 67.5092 31.4621 67.5526 31.5562C67.596 31.6504 67.6169 31.7533 67.6136 31.8569C67.6448 32.06 67.5667 32.2678 67.4058 32.399L46.3232 53.4832C46.1753 53.6188 45.9815 53.693 45.781 53.691V53.6895ZM40.8638 46.9817L45.781 51.8989L65.7808 31.8991C65.0903 31.0337 64.1049 30.4532 63.0133 30.2687C61.9216 30.0842 60.8002 30.3086 59.8637 30.8991C56.2387 32.524 50.4059 37.4818 40.8638 46.9817Z" fill="#FF6C37"/>
<path d="M51.823 58.9834L46.073 53.1085L67.1557 32.2744C72.8229 37.8165 64.4057 47.0664 51.823 58.9818V58.9834Z" fill="white"/>
<path d="M51.8231 59.7332C51.6387 59.7185 51.4636 59.6458 51.3231 59.5254L45.4482 53.7754C45.3601 53.5618 45.3601 53.3219 45.4482 53.1082C45.3857 52.9329 45.3857 52.7414 45.4482 52.5661L66.5308 31.4835C66.6774 31.3457 66.871 31.269 67.0722 31.269C67.2734 31.269 67.467 31.3457 67.6136 31.4835C68.2964 32.1119 68.8358 32.88 69.1952 33.7355C69.5546 34.5909 69.7255 35.5138 69.6964 36.4413C69.6964 42.0662 63.2793 49.1489 52.3637 59.4832C52.2179 59.6275 52.026 59.716 51.8216 59.7332H51.8231ZM47.156 53.1082L51.8637 57.8144C60.1965 49.9395 68.1558 41.8146 68.1964 36.3147C68.2417 35.1487 67.8563 34.0069 67.1136 33.1069L47.156 53.1082Z" fill="#FF6C37"/>
<path d="M39.9888 47.1084L44.1559 51.2756C44.1825 51.299 44.2038 51.3279 44.2184 51.3602C44.233 51.3926 44.2406 51.4276 44.2406 51.4631C44.2406 51.4986 44.233 51.5336 44.2184 51.5659C44.2038 51.5983 44.1825 51.6271 44.1559 51.6506L35.3638 53.5256C35.1864 53.5639 35.0012 53.5431 34.8366 53.4665C34.672 53.3898 34.537 53.2615 34.4521 53.1011C34.3671 52.9406 34.337 52.7567 34.3662 52.5775C34.3954 52.3983 34.4824 52.2336 34.6139 52.1084L39.7388 47.0256C39.7388 47.0256 39.906 47.0256 39.9888 47.1084Z" fill="white"/>
<path d="M35.156 54.3585C34.8782 54.355 34.6059 54.2804 34.3652 54.1417C34.1245 54.003 33.9234 53.8049 33.781 53.5664C33.6208 53.2642 33.5627 52.9182 33.6153 52.5803C33.668 52.2423 33.8286 51.9305 34.0732 51.6914L39.1559 46.5664C39.3392 46.4026 39.5765 46.312 39.8223 46.312C40.0682 46.312 40.3054 46.4026 40.4887 46.5664L44.6559 50.7336C44.9027 50.9679 44.9996 51.3226 44.9059 51.6508C44.8121 51.9789 44.5371 52.2398 44.1981 52.3179L35.406 54.1929L35.156 54.3585ZM39.8231 48.0258L35.1154 52.7336L42.9074 51.0664L39.8231 48.0258Z" fill="#FF6C37"/>
<path d="M78.073 20.1495C75.0573 17.2402 70.3198 17.1183 67.1573 19.8636C63.9948 22.6089 63.4541 27.3213 65.9166 30.7119C68.3792 34.1025 73.0214 35.0525 76.6152 32.8994L70.9479 27.2323L78.073 20.1495Z" fill="white"/>
<path d="M72.448 34.8147C70.7154 34.7925 69.0277 34.261 67.5951 33.2863C66.1626 32.3116 65.0485 30.9369 64.3917 29.3335C63.7354 27.7313 63.5633 25.9719 63.8965 24.2728C64.2298 22.5738 65.0538 21.0098 66.2667 19.7742C67.9349 18.1367 70.1791 17.2192 72.5167 17.2192C74.8543 17.2192 77.0986 18.1367 78.7667 19.7742C78.9261 19.9086 79.0167 20.107 79.0167 20.3164C79.0163 20.4194 78.9938 20.5211 78.9507 20.6147C78.9076 20.7082 78.8448 20.7914 78.7667 20.8586L72.0167 27.2335L77.1417 32.2757C77.2248 32.355 77.2871 32.4534 77.3233 32.5623C77.3596 32.6713 77.3686 32.7874 77.3495 32.9007C77.3372 33.0099 77.301 33.1151 77.2435 33.2088C77.186 33.3025 77.1086 33.3824 77.0167 33.4429C75.6399 34.3034 74.0571 34.7783 72.4339 34.8178L72.448 34.8147ZM72.448 18.6476C69.4792 18.6633 66.823 20.4492 65.7089 23.1789C64.5949 25.9085 65.2011 29.0507 67.2824 31.1476C68.3176 32.1888 69.6431 32.8931 71.0853 33.1683C72.5276 33.4435 74.0193 33.2767 75.3652 32.6897L70.448 27.7726C70.3698 27.7101 70.3067 27.6308 70.2633 27.5406C70.22 27.4504 70.1975 27.3516 70.1975 27.2515C70.1975 27.1514 70.22 27.0526 70.2633 26.9624C70.3067 26.8722 70.3698 26.7929 70.448 26.7304L76.948 20.1883C75.6559 19.198 74.0759 18.6565 72.448 18.6461V18.6476Z" fill="#FF6C37"/>
<path d="M78.1977 20.2744L71.0729 27.3571L76.7399 33.0243C77.3103 32.6968 77.8414 32.3052 78.3227 31.8571C79.808 30.2872 80.6252 28.2016 80.6019 26.0405C80.5786 23.8794 79.7165 21.8119 78.1977 20.2744Z" fill="white"/>
<path d="M76.6135 33.6493C76.5199 33.6544 76.4263 33.6383 76.3398 33.6023C76.2532 33.5664 76.1759 33.5114 76.1135 33.4415L70.4463 27.7743C70.3682 27.7118 70.3051 27.6325 70.2617 27.5423C70.2183 27.4521 70.1958 27.3533 70.1958 27.2532C70.1958 27.1532 70.2183 27.0544 70.2617 26.9641C70.3051 26.8739 70.3682 26.7947 70.4463 26.7322L77.5291 19.7744C77.5975 19.6712 77.6904 19.5866 77.7994 19.5281C77.9085 19.4696 78.0303 19.439 78.1541 19.439C78.2778 19.439 78.3997 19.4696 78.5087 19.5281C78.6178 19.5866 78.7107 19.6712 78.7791 19.7744C79.6106 20.5891 80.2711 21.5615 80.7221 22.6347C81.173 23.7079 81.4053 24.8603 81.4053 26.0243C81.4053 27.1884 81.173 28.3408 80.7221 29.414C80.2711 30.4872 79.6106 31.4596 78.7791 32.2743C78.2886 32.7945 77.7274 33.2432 77.1119 33.6071C76.9569 33.6852 76.7778 33.7003 76.6119 33.6493H76.6135ZM72.0307 27.2337L76.7385 31.9415C77.0623 31.7145 77.3689 31.4638 77.6556 31.1915C79.0396 29.8113 79.8191 27.9382 79.8228 25.9837C79.826 24.2346 79.1885 22.5448 78.0306 21.2338L72.0307 27.2337Z" fill="#FF6C37"/>
<path d="M67.7386 32.7336C67.1742 32.2037 66.4292 31.9087 65.655 31.9087C64.8808 31.9087 64.1358 32.2037 63.5714 32.7336L44.6981 51.5648L47.8231 54.732L67.7808 37.2321C68.0851 36.9404 68.3265 36.5894 68.4902 36.2009C68.6538 35.8124 68.7362 35.3945 68.7322 34.9729C68.7283 34.5514 68.6381 34.1351 68.4672 33.7497C68.2963 33.3643 68.0483 33.018 67.7386 32.7321V32.7336Z" fill="white"/>
<path d="M47.6559 55.4834C47.4692 55.4788 47.2909 55.4047 47.1559 55.2756L43.9888 52.1085C43.8537 51.9686 43.7782 51.7818 43.7782 51.5874C43.7782 51.3929 43.8537 51.2061 43.9888 51.0663L62.8636 32.2743C63.4073 31.7313 64.1015 31.3641 64.8564 31.2205C65.6112 31.0768 66.3918 31.1632 67.0969 31.4685C67.802 31.7739 68.3991 32.284 68.8108 32.9328C69.2225 33.5815 69.4298 34.339 69.4057 35.107C69.3841 35.6283 69.2587 36.1401 69.0368 36.6123C68.8149 37.0845 68.501 37.5076 68.1136 37.857L48.1559 55.3569C48.0108 55.4596 47.8324 55.5042 47.6559 55.4819V55.4834ZM45.4482 51.5647L47.5309 53.6897L67.1136 36.6477C67.598 36.2258 67.887 35.6227 67.9058 34.9805C67.9245 34.3383 67.6714 33.7102 67.198 33.2727C66.7608 32.8373 66.1689 32.5929 65.5519 32.5929C64.9349 32.5929 64.343 32.8373 63.9058 33.2727L45.4482 51.5647Z" fill="#FF6C37"/>
<path d="M30.0733 73.0239C30.02 73.0964 29.9913 73.184 29.9913 73.2739C29.9913 73.3639 30.02 73.4515 30.0733 73.5239L30.9061 77.1489C30.9395 77.3622 30.9079 77.5807 30.8153 77.7757C30.7228 77.9708 30.5737 78.1335 30.3874 78.2427C30.2017 78.3512 29.9864 78.3981 29.7725 78.3765C29.5585 78.3549 29.3569 78.2659 29.1968 78.1223L23.489 72.6224L41.281 54.6897H47.4481L51.6152 58.8569C45.1149 64.5403 37.8669 69.3069 30.0733 73.0239Z" fill="white"/>
<path d="M29.6983 79.1489C29.2264 79.1395 28.7608 78.9458 28.4483 78.6067L22.9905 73.149C22.9124 73.0865 22.8492 73.0072 22.8059 72.917C22.7625 72.8268 22.74 72.728 22.74 72.6279C22.74 72.5278 22.7625 72.429 22.8059 72.3388C22.8492 72.2486 22.9124 72.1693 22.9905 72.1068L40.906 54.1491C41.0063 54.0425 41.1374 53.9699 41.281 53.9413H47.4887C47.6505 53.8841 47.827 53.8841 47.9887 53.9413L52.1559 58.1085C52.2351 58.1815 52.2954 58.2727 52.3316 58.3743C52.3678 58.4758 52.3788 58.5846 52.3637 58.6913C52.3666 58.7948 52.3456 58.8976 52.3022 58.9917C52.2589 59.0857 52.1943 59.1685 52.1137 59.2335L51.7809 59.5257C45.2543 64.9667 38.0738 69.5716 30.4061 73.2333L31.1983 76.6083C31.2595 76.8687 31.2618 77.1394 31.2051 77.4008C31.1484 77.6622 31.034 77.9076 30.8704 78.1191C30.7068 78.3307 30.498 78.503 30.2592 78.6236C30.0205 78.7442 29.7579 78.81 29.4905 78.8161L29.6983 79.1489ZM24.6155 72.6068L29.5311 77.5646C29.5769 77.6054 29.6361 77.628 29.6975 77.628C29.7589 77.628 29.8181 77.6054 29.8639 77.5646C29.8945 77.522 29.911 77.4709 29.911 77.4185C29.911 77.366 29.8945 77.3149 29.8639 77.2724L29.0311 73.6474C28.9655 73.3872 28.9918 73.1124 29.1058 72.8695C29.2197 72.6266 29.4141 72.4305 29.6561 72.3146C37.1176 68.7017 44.113 64.1964 50.4887 58.8975L47.0716 55.4804H41.4888L24.6155 72.6068Z" fill="#FF6C37"/>
<path d="M19.1984 76.8988L23.3655 72.7317L29.7827 79.1488L19.5749 78.441C19.3997 78.4272 19.2332 78.3585 19.0994 78.2446C18.9655 78.1306 18.871 77.9773 18.8295 77.8065C18.7879 77.6357 18.8013 77.4561 18.8678 77.2934C18.9344 77.1307 19.0506 76.9931 19.2 76.9004L19.1984 76.8988Z" fill="white"/>
<path d="M29.906 79.7737L19.739 79.0659C19.1359 79.0097 18.6171 78.5972 18.4046 78.0456C18.1921 77.4941 18.3218 76.8394 18.739 76.3988L22.9061 72.2316C23.046 72.0965 23.2328 72.021 23.4272 72.021C23.6216 72.021 23.8085 72.0965 23.9483 72.2316L30.3232 78.6066C30.4115 78.7275 30.459 78.8733 30.459 79.023C30.459 79.1727 30.4115 79.3185 30.3232 79.4394C30.2268 79.5952 30.0794 79.7128 29.906 79.7722V79.7737ZM19.739 77.4409L28.0717 77.9831L23.4889 73.691L19.739 77.4409Z" fill="#FF6C37"/>
<path d="M48.0308 55.1929L39.6138 56.4851L44.4887 51.6523L48.0308 55.1929Z" fill="white"/>
<path d="M39.6138 57.274C39.4739 57.2777 39.336 57.2401 39.2174 57.1659C39.0987 57.0917 39.0046 56.9842 38.9466 56.8569C38.8579 56.7362 38.8101 56.5903 38.8101 56.4405C38.8101 56.2906 38.8579 56.1448 38.9466 56.024L43.7793 51.149C43.9259 51.0113 44.1196 50.9346 44.3207 50.9346C44.5219 50.9346 44.7155 51.0113 44.8621 51.149L48.4058 54.6897C48.4766 54.8019 48.5141 54.932 48.5141 55.0647C48.5141 55.1974 48.4766 55.3274 48.4058 55.4397C48.371 55.5765 48.2976 55.7004 48.1942 55.7966C48.0909 55.8927 47.962 55.9571 47.823 55.9819L39.4904 57.274H39.6138ZM44.4887 52.7319L41.7809 55.4397L46.448 54.7319L44.4887 52.7319Z" fill="#FF6C37"/>
<path d="M48.0309 55.1897L42.156 55.9397C41.9988 55.9754 41.8342 55.9594 41.6868 55.8943C41.5393 55.8291 41.4168 55.7181 41.3374 55.5778C41.2579 55.4375 41.2258 55.2754 41.2458 55.1154C41.2657 54.9554 41.3367 54.8061 41.4482 54.6897L44.4903 51.6475L48.0309 55.1897Z" fill="white"/>
<path d="M41.9888 56.7333C41.7165 56.7307 41.4497 56.6561 41.2156 56.5169C40.9815 56.3778 40.7884 56.1791 40.656 55.9411C40.4969 55.6559 40.4352 55.3266 40.4803 55.0031C40.5254 54.6797 40.6749 54.3798 40.906 54.149L43.9482 51.1068C44.0948 50.969 44.2884 50.8923 44.4896 50.8923C44.6907 50.8923 44.8844 50.969 45.031 51.1068L48.5731 54.649C48.6785 54.7488 48.7526 54.877 48.7865 55.0181C48.8204 55.1592 48.8127 55.3071 48.7642 55.4439C48.7158 55.5806 48.6287 55.7004 48.5135 55.7887C48.3983 55.877 48.26 55.9299 48.1153 55.9411L42.2826 56.6911L41.9888 56.7333ZM41.9888 55.1912L46.406 54.649L44.4482 52.6912L41.9482 55.1912H41.9888ZM78.2385 25.0663C78.16 24.9349 78.036 24.8368 77.8899 24.7907C77.7439 24.7446 77.5861 24.7537 77.4463 24.8163C77.3773 24.8513 77.3161 24.8997 77.2662 24.9588C77.2162 25.0178 77.1787 25.0863 77.1557 25.1601C77.1093 25.3091 77.1239 25.4703 77.1963 25.6085C77.4885 26.2226 77.4072 26.9491 76.9885 27.4835C76.9365 27.535 76.8957 27.5967 76.8688 27.6648C76.8419 27.7328 76.8295 27.8057 76.8322 27.8788C76.8338 28.0254 76.8894 28.1662 76.9885 28.2741C77.0954 28.3164 77.2144 28.3164 77.3213 28.2741C77.4183 28.2985 77.5202 28.2958 77.6158 28.2664C77.7114 28.2369 77.7971 28.1817 77.8635 28.107C78.2066 27.6869 78.4239 27.1783 78.4902 26.64C78.5566 26.1017 78.4693 25.5556 78.2385 25.0648V25.0663Z" fill="#FF6C37"/>
</svg>
