<svg width="100" height="100" viewBox="0 0 100 100" fill="none" xmlns="http://www.w3.org/2000/svg">
<path fill-rule="evenodd" clip-rule="evenodd" d="M58.6929 12.0151C69.9348 12.0112 81.1771 11.977 92.419 12.0244C99.1022 12.0517 100.987 14.2849 99.5458 20.8851C95.3268 40.2148 91.0129 59.5249 86.641 78.8209C85.2584 84.9198 82.0819 87.4182 75.6659 87.4373C53.1817 87.5042 30.6974 87.5116 8.21374 87.4344C0.864588 87.4085 -1.06858 84.9193 0.514792 77.9547C4.81104 59.0398 9.13024 40.1307 13.4841 21.229C15.1427 14.0259 17.6353 12.0483 24.9659 12.0273C36.2082 11.9956 47.4506 12.019 58.6929 12.0151Z" fill="#E0EAF5"/>
<path fill-rule="evenodd" clip-rule="evenodd" d="M41.7038 85.1894C30.4605 85.1855 19.2167 85.2373 7.97388 85.1636C2.27259 85.1264 1.2359 83.781 2.5193 78.2048C6.87026 59.2933 11.3614 40.4135 15.6157 21.4805C16.7564 16.4026 19.2172 14.1583 24.6576 14.2086C47.1423 14.4172 69.6309 14.2755 92.1171 14.2985C97.7563 14.3039 98.7031 15.5101 97.4373 21.2294C93.3272 39.7975 89.1912 58.3601 84.9824 76.9062C83.4073 83.8469 81.5929 85.1714 74.2906 85.1875C63.4284 85.2105 52.5656 85.1934 41.7038 85.1894Z" fill="#2671BE"/>
<path fill-rule="evenodd" clip-rule="evenodd" d="M51.271 48.1276C50.5172 47.2434 49.6896 46.2253 48.8131 45.2521C43.8432 39.7315 38.9172 34.17 33.8588 28.732C31.5441 26.2434 30.8064 23.8265 33.5862 21.3702C36.3333 18.9421 39.0325 19.1571 41.5524 21.9505C48.5703 29.7277 55.5799 37.5136 62.7141 45.1837C65.3776 48.0485 64.7572 49.9963 61.8235 52.119C50.5631 60.2694 39.3662 68.5082 28.1815 76.7626C25.6674 78.6186 23.2706 79.0832 21.2398 76.342C18.9993 73.3184 21.0722 71.5196 23.3962 69.8272C31.7078 63.7732 40.0032 57.6967 48.263 51.5724C49.4135 50.7194 51.0653 50.222 51.271 48.1276Z" fill="#FDFDFE"/>
<path fill-rule="evenodd" clip-rule="evenodd" d="M54.831 77.3758C51.804 77.3758 48.7726 77.4799 45.7524 77.3426C43.3429 77.2337 41.8929 75.8873 41.9232 73.3493C41.9525 70.9496 43.1621 69.1454 45.5692 69.0804C52.185 68.903 58.8106 68.9412 65.4289 69.0706C67.5321 69.1117 69.0847 70.482 69.072 72.6736C69.0569 75.1877 67.7339 77.1355 65.0415 77.2977C61.6491 77.5029 58.2356 77.3485 54.8315 77.3485C54.831 77.3568 54.831 77.3666 54.831 77.3758Z" fill="#FCFDFD"/>
</svg>
