<svg width="100" height="100" viewBox="0 0 100 100" fill="none" xmlns="http://www.w3.org/2000/svg">
<path d="M50.3018 0.000488281L93.6035 25.0005V75.0005L50.3018 100L7 75.0005V25.0005L50.3018 0.000488281Z" fill="#673AB8"/>
<path d="M18.7947 74.587C24.5511 81.9551 42.8457 76.3411 60.1174 62.8468C77.389 49.3529 87.2622 32.9602 81.5057 25.5918C75.749 18.2237 57.4547 23.838 40.183 37.3319C22.9114 50.8265 13.0382 67.219 18.7947 74.587ZM21.2541 72.6655C19.3447 70.2223 20.179 65.4253 23.816 59.3864C27.6461 53.0275 34.1478 46.0075 42.1042 39.7914C50.0609 33.5752 58.4449 28.9646 65.5416 26.7866C72.2811 24.7186 77.1373 25.0698 79.0463 27.5133C80.9557 29.9568 80.1214 34.7538 76.4844 40.7927C72.6543 47.1516 66.1526 54.1713 58.1962 60.3878C50.2395 66.6039 41.8552 71.2146 34.7588 73.3922C28.0193 75.4605 23.1631 75.109 21.2541 72.6655Z" fill="white"/>
<path d="M81.5057 74.587C87.2625 67.219 77.389 50.8262 60.1173 37.3319C42.8457 23.838 24.5507 18.2237 18.7946 25.5918C13.0378 32.9598 22.9113 49.3529 40.183 62.8468C57.4546 76.3411 75.7489 81.9554 81.5057 74.587ZM79.0463 72.6655C77.1373 75.1094 72.2811 75.4605 65.5416 73.3922C58.4448 71.2146 50.0608 66.6039 42.1045 60.3878C34.1478 54.1713 27.6458 47.1516 23.8163 40.7927C20.1789 34.7538 19.3447 29.9571 21.2537 27.5133C23.163 25.0698 28.0192 24.7186 34.7584 26.7866C41.8552 28.9646 50.2395 33.5752 58.1958 39.7914C66.1525 46.0075 72.6542 53.0275 76.4841 59.3864C80.1214 65.425 80.9556 70.2217 79.0463 72.6655Z" fill="white"/>
<path d="M50.1502 56.7213C53.8129 56.7213 56.7818 53.7521 56.7818 50.0894C56.7818 46.427 53.8129 43.4578 50.1502 43.4578C46.4875 43.4578 43.5183 46.427 43.5183 50.0894C43.5183 53.7521 46.4875 56.7213 50.1502 56.7213Z" fill="white"/>
</svg>
