<svg width="100" height="100" viewBox="0 0 100 100" fill="none" xmlns="http://www.w3.org/2000/svg">
<path d="M57.5898 16.5469C59.3475 14.7892 59.3475 11.9393 57.5898 10.1816C55.8321 8.42389 52.9822 8.42389 51.2245 10.1816C49.4668 11.9393 49.4668 14.7892 51.2245 16.5469C52.9822 18.3046 55.8321 18.3046 57.5898 16.5469Z" fill="white"/>
<path d="M70.3168 29.2731C72.2697 27.3202 72.2697 24.1539 70.3168 22.2011C68.3639 20.2482 65.1977 20.2482 63.2448 22.2011C61.2919 24.1539 61.2919 27.3202 63.2448 29.2731C65.1977 31.2259 68.3639 31.2259 70.3168 29.2731Z" fill="white"/>
<path d="M83.0418 42.0017C85.1896 39.8539 85.1896 36.3717 83.0418 34.2239C80.894 32.0761 77.4118 32.0761 75.264 34.2239C73.1162 36.3717 73.1162 39.8539 75.264 42.0017C77.4118 44.1495 80.894 44.1495 83.0418 42.0017Z" fill="white"/>
<path d="M95.757 54.7149C98.0999 52.372 98.0999 48.5733 95.757 46.2304C93.414 43.8875 89.6154 43.8875 87.2725 46.2304C84.9295 48.5733 84.9295 52.372 87.2725 54.7149C89.6154 57.0578 93.414 57.0578 95.757 54.7149Z" fill="white"/>
<path d="M32.5031 16.194C34.0659 14.6312 34.0659 12.0973 32.5031 10.5345C30.9402 8.97167 28.4064 8.97167 26.8435 10.5345C25.2807 12.0973 25.2807 14.6312 26.8435 16.194C28.4064 17.7568 30.9402 17.7568 32.5031 16.194Z" fill="white"/>
<path d="M45.228 28.9197C46.9857 27.162 46.9857 24.3121 45.228 22.5544C43.4703 20.7967 40.6204 20.7967 38.8627 22.5544C37.105 24.3121 37.105 27.162 38.8627 28.9197C40.6204 30.6774 43.4703 30.6774 45.228 28.9197Z" fill="white"/>
<path d="M57.9439 41.6356C59.8967 39.6827 59.8967 36.5165 57.9439 34.5636C55.991 32.6107 52.8247 32.6107 50.8718 34.5636C48.919 36.5165 48.919 39.6827 50.8718 41.6356C52.8247 43.5885 55.991 43.5885 57.9439 41.6356Z" fill="white"/>
<path d="M70.6649 54.355C72.8126 52.2072 72.8126 48.7249 70.6649 46.5772C68.5171 44.4294 65.0349 44.4294 62.8871 46.5772C60.7393 48.725 60.7393 52.2072 62.8871 54.355C65.0349 56.5027 68.5171 56.5027 70.6649 54.355Z" fill="white"/>
<path d="M83.3952 67.0904C85.7381 64.7475 85.7381 60.9488 83.3952 58.6059C81.0523 56.263 77.2536 56.263 74.9107 58.6059C72.5678 60.9488 72.5678 64.7475 74.9107 67.0904C77.2536 69.4333 81.0523 69.4333 83.3952 67.0904Z" fill="white"/>
<path d="M7.42872 15.8538C8.7964 14.4862 8.7964 12.2687 7.42872 10.901C6.06105 9.53337 3.84361 9.53337 2.47594 10.901C1.10826 12.2687 1.10826 14.4862 2.47594 15.8538C3.84361 17.2215 6.06105 17.2215 7.42872 15.8538Z" fill="white"/>
<path d="M20.1373 28.561C21.7002 26.9981 21.7002 24.4643 20.1373 22.9014C18.5745 21.3386 16.0407 21.3386 14.4778 22.9014C12.915 24.4643 12.915 26.9981 14.4778 28.561C16.0407 30.1238 18.5745 30.1238 20.1373 28.561Z" fill="white"/>
<path d="M32.8682 41.2954C34.6259 39.5377 34.6259 36.6879 32.8682 34.9302C31.1105 33.1724 28.2606 33.1724 26.5029 34.9302C24.7452 36.6879 24.7452 39.5377 26.5029 41.2954C28.2606 43.0532 31.1105 43.0532 32.8682 41.2954Z" fill="white"/>
<path d="M45.5887 54.0153C47.5415 52.0624 47.5415 48.8961 45.5887 46.9432C43.6358 44.9904 40.4695 44.9904 38.5167 46.9432C36.5638 48.8961 36.5638 52.0624 38.5167 54.0153C40.4695 55.9681 43.6358 55.9681 45.5887 54.0153Z" fill="white"/>
<path d="M58.3077 66.7378C60.4555 64.59 60.4555 61.1078 58.3077 58.96C56.1599 56.8122 52.6777 56.8122 50.5299 58.96C48.3821 61.1078 48.3821 64.59 50.5299 66.7378C52.6777 68.8855 56.1599 68.8855 58.3077 66.7378Z" fill="white"/>
<path d="M71.0202 79.4422C73.3632 77.0993 73.3632 73.3006 71.0202 70.9577C68.6773 68.6148 64.8787 68.6148 62.5357 70.9577C60.1928 73.3006 60.1928 77.0993 62.5357 79.4422C64.8787 81.7851 68.6773 81.7851 71.0202 79.4422Z" fill="white"/>
<path d="M32.5044 65.6596C34.0672 64.0968 34.0672 61.5629 32.5044 60.0001C30.9415 58.4372 28.4077 58.4372 26.8449 60.0001C25.282 61.5629 25.282 64.0968 26.8449 65.6596C28.4077 67.2224 30.9415 67.2224 32.5044 65.6596Z" fill="white"/>
<path d="M17.3096 79.1988C19.5198 79.1988 21.3115 77.4071 21.3115 75.1969C21.3115 72.9868 19.5198 71.1951 17.3096 71.1951C15.0994 71.1951 13.3077 72.9868 13.3077 75.1969C13.3077 77.4071 15.0994 79.1988 17.3096 79.1988Z" fill="white"/>
<path d="M4.94649 91.5738C7.15667 91.5738 8.94837 89.7821 8.94837 87.5719C8.94837 85.3618 7.15667 83.5701 4.94649 83.5701C2.73631 83.5701 0.944611 85.3618 0.944611 87.5719C0.944611 89.7821 2.73631 91.5738 4.94649 91.5738Z" fill="white"/>
<path d="M29.6766 91.5672C31.8868 91.5672 33.6785 89.7755 33.6785 87.5654C33.6785 85.3552 31.8868 83.5635 29.6766 83.5635C27.4664 83.5635 25.6747 85.3552 25.6747 87.5654C25.6747 89.7755 27.4664 91.5672 29.6766 91.5672Z" fill="white"/>
<path d="M57.2431 90.404C58.8059 88.8411 58.8059 86.3073 57.2431 84.7445C55.6802 83.1816 53.1464 83.1816 51.5835 84.7445C50.0207 86.3073 50.0207 88.8411 51.5835 90.404C53.1464 91.9668 55.6802 91.9668 57.2431 90.404Z" fill="white"/>
<path d="M44.8714 78.0253C46.4342 76.4625 46.4342 73.9286 44.8714 72.3658C43.3086 70.803 40.7747 70.803 39.2119 72.3658C37.6491 73.9286 37.6491 76.4625 39.2119 78.0253C40.7747 79.5881 43.3086 79.5881 44.8714 78.0253Z" fill="white"/>
</svg>
