<svg width="100" height="100" viewBox="0 0 100 100" fill="none" xmlns="http://www.w3.org/2000/svg">
<path d="M75.5 31.799L68.9 38.399C79.7 49.199 79.7 66.599 68.9 77.199C58.1 87.999 40.7 87.999 30.1 77.199C19.3 66.399 19.3 48.999 30.1 38.399L47.2 21.299L49.6 18.899V5.99902L23.8 31.799C9.4 46.199 9.4 69.399 23.8 83.799C38.2 98.199 61.4 98.199 75.5 83.799C89.9 69.299 89.9 46.199 75.5 31.799Z" fill="white"/>
<path d="M62.5998 30.1987C65.2508 30.1987 67.3998 28.0496 67.3998 25.3987C67.3998 22.7477 65.2508 20.5986 62.5998 20.5986C59.9488 20.5986 57.7998 22.7477 57.7998 25.3987C57.7998 28.0496 59.9488 30.1987 62.5998 30.1987Z" fill="white"/>
</svg>
