<svg width="100" height="100" viewBox="0 0 100 100" fill="none" xmlns="http://www.w3.org/2000/svg">
<path d="M85.7856 99.9996L67.8297 82.1453L67.5553 82.1845V81.9887L29.3696 44.2833L38.7789 35.1996L33.251 3.48486L7.02286 35.9827C2.55349 40.4854 1.73019 47.8073 4.945 53.2105L21.3327 80.3834C23.8418 84.5729 28.3895 87.0787 33.2902 87.0395L41.4057 86.9612L85.7856 99.9996Z" fill="#18B6F6"/>
<path d="M95.5853 35.3559L91.9783 28.6998L90.0965 25.2935L89.3517 23.9622L89.2733 24.0406L79.3935 6.9302C76.9237 2.62326 72.2976 -0.0392193 67.2793 -6.22254e-05L58.615 0.23484L32.7788 0.313154C27.8783 0.352311 23.4089 2.93648 20.939 7.12597L5.21777 38.2925L33.3277 3.40632L70.1805 43.8915L63.6331 50.5086L67.5536 82.1842L67.5928 82.1059V82.1842H67.5144L67.5928 82.2624L70.6508 85.2382L85.5095 99.7643C86.1369 100.352 87.1562 99.6469 86.7249 98.903L77.551 80.8529L93.5467 51.2917L94.0562 50.7044C94.2522 50.4694 94.4482 50.2346 94.6052 49.9996C97.7416 45.7318 98.1728 40.0154 95.5853 35.3559Z" fill="#AC7EF4"/>
<path d="M70.2977 43.7351L33.3274 3.44556L38.5809 35.0037L29.1716 44.1267L67.4749 82.1452L64.0249 50.587L70.2977 43.7351Z" fill="white"/>
</svg>
