<svg width="100" height="100" viewBox="0 0 100 100" fill="none" xmlns="http://www.w3.org/2000/svg">
<path d="M87.0422 62.5891V67.161H95.3018C96.9942 67.161 99.8989 65.9233 100 62.4628V60.6947C100 57.7394 97.5751 55.9965 95.3018 55.9965H91.1846V53.8748H99.3432V49.2777H91.513C89.4923 49.2777 86.7896 50.9447 86.7896 54.0516V55.6429C86.7896 58.7498 89.467 60.3411 91.513 60.3411C97.1962 60.3663 90.149 60.3411 95.4029 60.3411V62.5638L87.0422 62.5891ZM42.7886 61.4777C42.7886 61.4777 47.2089 61.0988 47.2089 55.3903C47.2089 49.6818 41.854 49.1514 41.854 49.1514H32.2051V67.161H37.0548V62.8164L41.2478 67.161H48.4213L42.7886 61.4777ZM40.9194 57.7899H37.0548V53.6727H40.9447C40.9447 53.6727 42.0308 54.0769 42.0308 55.7187C42.0308 57.3605 40.9194 57.7899 40.9194 57.7899ZM59.1816 49.2777H54.2561C50.7451 49.2777 49.5579 52.4603 49.5579 53.9758V67.161H54.4834V64.0036H59.1058V67.161H63.8797V53.9758C63.8797 50.1365 60.394 49.2777 59.1816 49.2777ZM59.1058 58.9013H54.4582V54.5315C54.4582 54.5315 54.4582 53.5464 55.999 53.5464H57.6913C59.0553 53.5464 59.0806 54.5315 59.0806 54.5315V58.9013H59.1058ZM66.1278 49.2777H71.2553V67.161H66.1278V49.2777ZM78.4541 62.5386V49.2777H73.3518V67.161H85.3498V62.5386H78.4541Z" fill="#CC0000"/>
<path d="M1.76807 67.161H21.7226C21.7226 67.161 17.9085 49.7576 30.538 42.7104C33.2912 41.3717 42.056 36.3704 56.4031 46.9792C56.8577 46.6003 57.2871 46.2972 57.2871 46.2972C57.2871 46.2972 44.1525 33.1878 29.5276 34.6528C22.1773 35.3095 13.1346 42.0032 7.8302 50.8438C2.52583 59.6844 1.76807 67.161 1.76807 67.161Z" fill="#CC0000"/>
<path d="M1.76807 67.161H21.7226C21.7226 67.161 17.9085 49.7576 30.538 42.7104C33.2912 41.3717 42.056 36.3704 56.4031 46.9792C56.8577 46.6003 57.2871 46.2972 57.2871 46.2972C57.2871 46.2972 44.1525 33.1878 29.5276 34.6528C22.1773 35.3095 13.1346 42.0032 7.8302 50.8438C2.52583 59.6844 1.76807 67.161 1.76807 67.161Z" fill="#CC0000"/>
<path d="M1.76807 67.1608H21.7226C21.7226 67.1608 17.9085 49.7575 30.538 42.7102C33.2912 41.3715 42.056 36.3702 56.4031 46.979C56.8577 46.6001 57.2871 46.297 57.2871 46.297C57.2871 46.297 44.1525 33.1876 29.5276 34.6526C22.152 35.3094 13.1093 42.003 7.80495 50.8436C2.50057 59.6842 1.76807 67.1608 1.76807 67.1608ZM43.3442 36.0671L43.4453 34.3748C43.2179 34.2485 42.5865 33.9454 40.9952 33.4907L40.8941 35.1578C41.7277 35.4357 42.5359 35.7388 43.3442 36.0671Z" fill="#CC0000"/>
<path d="M40.9447 41.4221L40.8437 43.0134C41.6772 43.0386 42.5107 43.1397 43.3443 43.3165L43.4453 41.7504C42.5865 41.5736 41.753 41.4726 40.9447 41.4221ZM31.5989 33.5413H31.8515L31.3463 32.0005C30.5633 32.0005 29.755 32.051 28.9214 32.152L29.4014 33.6423C30.1339 33.5665 30.8664 33.5413 31.5989 33.5413ZM32.8113 42.8366L33.3923 44.5794C34.1248 44.2258 34.8573 43.9227 35.5898 43.6954L35.0341 42.0283C34.1753 42.2809 33.4428 42.5587 32.8113 42.8366ZM21.3438 36.1935L20.2071 34.4506C19.5757 34.779 18.9189 35.1326 18.2369 35.5367L19.3988 37.3049C20.0556 36.9007 20.687 36.5218 21.3438 36.1935ZM26.5219 47.56L27.7343 49.3786C28.1637 48.7471 28.6689 48.1662 29.2246 47.5852L28.0879 45.8676C27.507 46.3981 26.9765 46.979 26.5219 47.56ZM22.8593 55.6933L24.9053 57.3099C25.0063 56.3248 25.1831 55.3397 25.4357 54.3546L23.6171 52.9149C23.2887 53.8494 23.0614 54.784 22.8593 55.6933ZM11.7959 43.6954L10.0025 42.1293C9.3458 42.7608 8.71432 43.3923 8.13337 44.0237L10.0783 45.6908C10.6087 45.0088 11.1897 44.3268 11.7959 43.6954ZM4.16772 54.9861L1.26295 53.9252C0.783026 55.0114 0.252589 56.2743 0 56.9563L2.90477 58.0172C3.23314 57.1584 3.76358 55.9207 4.16772 54.9861ZM22.4804 62.1091C22.5309 63.4478 22.6572 64.534 22.7835 65.2917L25.8146 66.3779C25.5873 65.3928 25.3599 64.2814 25.2084 63.0942L22.4804 62.1091Z" fill="#CC0000"/>
</svg>
