<svg width="100" height="100" viewBox="0 0 100 100" fill="none" xmlns="http://www.w3.org/2000/svg">
<g clip-path="url(#clip0_33_3267)">
<path d="M0.464453 42.7899C0.226232 44.4596 0.0712223 46.14 0 47.8251H75.9569C75.6917 47.3069 75.3354 46.8397 74.976 46.3825C61.9906 29.6061 55.0055 31.0606 45.0132 30.6345C41.6817 30.4975 39.4225 30.4424 26.1619 30.4424C19.0646 30.4424 11.3486 30.4605 3.83496 30.4805C2.8623 33.1059 1.92422 35.6506 1.46748 37.7207H40.3904V42.7899H0.464453ZM76.5557 52.8994H0.0389648C0.119043 54.2521 0.245215 55.5866 0.427441 56.9032H71.071C74.2202 56.9032 75.9831 55.1164 76.5557 52.8994ZM4.39619 70.7324C4.39619 70.7324 16.1075 99.4887 49.9473 99.9994C70.173 99.9994 87.5519 87.9871 95.446 70.7324H4.39619Z" fill="white"/>
<path d="M49.9467 -0.000488281C31.2454 -0.000488281 14.9718 10.269 6.37793 25.4499C13.0938 25.4358 26.1732 25.4278 26.1732 25.4278H26.1763V25.4229C41.6361 25.4229 42.2107 25.4919 45.2308 25.618L47.1008 25.6869C53.6145 25.9041 61.6206 26.6033 67.9201 31.3695C71.3396 33.9546 76.2767 39.6602 79.2197 43.725C81.9405 47.4847 82.7232 51.8066 80.8733 55.9475C79.1706 59.7531 75.5069 62.0231 71.0703 62.0231H1.62988C1.62988 62.0231 2.04326 63.7755 2.66309 65.7098H97.4514C99.1347 60.6501 99.9952 55.3531 100 50.0208C100.001 22.3975 77.591 -0.000488281 49.9467 -0.000488281Z" fill="white"/>
</g>
<defs>
<clipPath id="clip0_33_3267">
<rect width="100" height="100" fill="white" transform="translate(0 -0.000488281)"/>
</clipPath>
</defs>
</svg>
