<svg width="100" height="100" viewBox="0 0 100 100" fill="none" xmlns="http://www.w3.org/2000/svg">
<path d="M30.6361 59.3395C25.6683 59.3395 21.619 55.258 21.619 50.2545C21.619 45.2509 25.6683 41.1694 30.6361 41.1694C35.604 41.1694 39.6533 45.2509 39.6533 50.2545C39.6533 55.2545 35.6004 59.3395 30.6361 59.3395ZM8.98501 77.3774C4.02433 77.3666 -0.0142581 73.2673 3.7837e-05 68.2637C0.00287096 65.8639 0.956959 63.5631 2.65321 61.8655C4.34947 60.1679 6.64953 59.212 9.04934 59.2073C14.0136 59.218 18.0522 63.3174 18.0343 68.3245C18.0296 70.7234 17.0748 73.0227 15.3788 74.7194C13.6829 76.416 11.3839 77.3717 8.98501 77.3774ZM91.0506 77.3774C88.6511 77.3821 86.3474 76.4359 84.644 74.7459C82.9405 73.0559 81.9762 70.7597 81.962 68.3602C81.937 63.3495 85.9577 59.2359 90.9148 59.2109C93.3131 59.207 95.6153 60.1532 97.3179 61.8423C99.0204 63.5315 99.9847 65.8262 99.9998 68.2244C100.028 73.2316 96.0041 77.3488 91.0506 77.3774Z" fill="white"/>
<path d="M74.1493 41.6983C71.6976 40.9335 69.0779 40.6154 66.5082 40.3366C62.5339 39.9078 60.9506 38.3567 60.2787 34.3753C59.8999 32.1522 59.3709 29.872 58.4095 27.8528C56.5761 24.0107 52.2802 22.2881 47.9664 23.2709C44.3209 24.1037 41.2938 27.7312 41.1258 31.4553C40.9328 35.7012 43.3631 39.3288 47.5375 40.5797C49.5211 41.1765 51.6297 41.4732 53.699 41.6269C57.4982 41.902 58.7669 43.035 59.7927 44.7648C60.4431 45.8584 61.0686 46.9342 61.0686 50.1865C61.0686 53.4424 60.436 54.5182 59.7927 55.6082C58.7669 57.338 57.4982 58.4674 53.699 58.7498C51.6261 58.8999 49.5175 59.2001 47.5375 59.7969C43.3631 61.0514 40.9328 64.6718 41.1258 68.9249C41.2938 72.6454 44.3245 76.273 47.9664 77.1057C52.2802 78.0921 56.5761 76.3659 58.4095 72.5239C59.3745 70.5081 59.8999 68.2244 60.2787 66.0014C60.9542 62.0199 62.5375 60.4724 66.5082 60.04C69.0814 59.7612 71.6976 59.4395 74.1493 58.6747C77.8698 57.5132 80.1071 54.0428 80.1071 50.1865C80.1071 46.3338 77.8698 42.867 74.1493 41.6983Z" fill="#F44250"/>
</svg>
