<svg width="100" height="100" viewBox="0 0 100 100" fill="none" xmlns="http://www.w3.org/2000/svg">
<path fill-rule="evenodd" clip-rule="evenodd" d="M61.7109 60.6585L59.7928 63.9893C59.2149 64.9927 58.1452 65.6111 56.9874 65.6111H42.2932C41.1353 65.6111 40.0656 64.9927 39.4877 63.9893L37.5694 60.6585H61.7109ZM67.0809 51.3343L63.6987 57.2069H35.5816L32.1996 51.3343H67.0809ZM63.823 42.2163L67.0863 47.8828H32.1942L35.4575 42.2163H63.823ZM56.9874 33.5967C58.1452 33.5967 59.2149 34.2151 59.7928 35.2184L61.8352 38.7647H37.4453L39.4877 35.2184C40.0656 34.2151 41.1353 33.5967 42.2932 33.5967H56.9874Z" fill="#00435B"/>
<path d="M20.9074 32.0511C19.2796 24.1581 18.9303 18.1043 19.9824 13.7084C20.6082 11.0939 21.7523 8.96111 23.4919 7.42232C25.3285 5.79775 27.6505 5.00057 30.2596 5.00057C34.5638 5.00057 39.0886 6.96334 43.9241 10.6921C45.8964 12.2129 47.9434 14.0461 50.0693 16.1926C50.2385 15.9748 50.4298 15.7693 50.6429 15.5794C56.6531 10.2234 61.7133 6.89569 66.0413 5.61261C68.6147 4.84969 71.0308 4.777 73.231 5.51744C75.5535 6.29903 77.404 7.91467 78.7096 10.1777C80.8644 13.9124 81.4326 18.82 80.6293 24.8795C80.3018 27.3494 79.742 30.0399 78.9511 32.955C79.2495 32.991 79.5486 33.0572 79.8448 33.1553C87.4705 35.6824 92.8703 38.3999 96.1395 41.5056C98.0846 43.3534 99.3547 45.4106 99.8139 47.6877C100.299 50.0912 99.826 52.502 98.5219 54.7633C96.3712 58.4927 92.4167 61.434 86.7829 63.7637C84.5208 64.6992 81.9614 65.5464 79.1017 66.3084C79.2322 66.603 79.3334 66.9159 79.4011 67.2441C81.0289 75.1371 81.3782 81.1909 80.326 85.5868C79.7003 88.2012 78.5562 90.3341 76.8166 91.8729C74.98 93.4974 72.6579 94.2946 70.0489 94.2946C65.7447 94.2946 61.2199 92.3318 56.3844 88.6031C54.3911 87.066 52.3215 85.21 50.1713 83.0339C49.95 83.38 49.6784 83.7016 49.3571 83.9879C43.3469 89.3439 38.2867 92.6717 33.9587 93.9548C31.3853 94.7177 28.9692 94.7904 26.769 94.0499C24.4465 93.2683 22.596 91.6527 21.2904 89.3897C19.1356 85.6549 18.5674 80.7474 19.3707 74.6879C19.71 72.1287 20.2987 69.3327 21.1356 66.2953C20.8085 66.2622 20.48 66.193 20.1552 66.0854C12.5295 63.5583 7.12969 60.8408 3.86052 57.7351C1.91544 55.8873 0.645278 53.8302 0.186124 51.553C-0.298514 49.1495 0.174045 46.7387 1.47813 44.4774C3.62884 40.7481 7.58335 37.8067 13.2171 35.477C15.5466 34.5137 18.1914 33.6439 21.1547 32.8645C21.0491 32.606 20.9658 32.3343 20.9074 32.0511Z" fill="#002B3B"/>
<path fill-rule="evenodd" clip-rule="evenodd" d="M40.4917 29.5366C44.4446 29.222 48.519 29.083 52.7148 29.1198C53.5094 29.1268 54.1592 28.4882 54.1662 27.6936C54.1691 27.3589 54.0553 27.0337 53.8443 26.7739C44.2944 15.0155 36.4307 9.13623 30.2534 9.13623C23.876 9.13623 22.0566 16.1661 24.7953 30.2258C24.9454 30.9965 25.6856 31.5045 26.4587 31.3675C31.3344 30.5034 36.0121 29.8931 40.4917 29.5366Z" fill="#FF4154"/>
<path fill-rule="evenodd" clip-rule="evenodd" d="M62.6818 31.4718C64.9646 34.7613 67.1556 38.2449 69.2547 41.9226C69.6487 42.6127 70.5275 42.8529 71.2176 42.459C71.507 42.2938 71.7301 42.0333 71.8488 41.7219C77.2509 27.5526 78.3862 17.7808 75.2548 12.4066C72.0234 6.8608 64.9825 8.77839 54.1322 18.1593C53.5356 18.6751 53.4654 19.575 53.9747 20.1771C57.1985 23.9879 60.1009 27.7528 62.6818 31.4718Z" fill="#FF4154"/>
<path fill-rule="evenodd" clip-rule="evenodd" d="M72.2631 51.267C70.5546 54.8579 68.6342 58.4668 66.5019 62.0938C66.0992 62.7789 66.3281 63.6607 67.0131 64.0634C67.3031 64.2339 67.6438 64.2974 67.9757 64.2428C82.8629 61.7951 91.8526 57.8883 94.9449 52.5225C98.1386 46.9807 93.0027 41.9014 79.5372 37.2844C78.7954 37.0301 77.9866 37.4166 77.7184 38.1535C76.0193 42.8235 74.2008 47.1946 72.2631 51.267Z" fill="#FF4154"/>
<path fill-rule="evenodd" clip-rule="evenodd" d="M60.0479 69.8511C56.0949 70.1657 52.0206 70.3047 47.8248 70.2679C47.0301 70.2609 46.3803 70.8995 46.3734 71.6941C46.3704 72.0288 46.4843 72.354 46.6953 72.6138C56.2452 84.3722 64.1088 90.2515 70.2861 90.2515C76.6636 90.2515 78.4829 83.2216 75.7443 69.1619C75.5941 68.3912 74.854 67.8832 74.0809 68.0202C69.2051 68.8843 64.5274 69.4946 60.0479 69.8511Z" fill="#FF4154"/>
<path fill-rule="evenodd" clip-rule="evenodd" d="M37.3182 68.0956C35.0354 64.8061 32.8444 61.3225 30.7453 57.6448C30.3514 56.9546 29.4726 56.7145 28.7824 57.1084C28.493 57.2736 28.2699 57.5341 28.1512 57.8455C22.7491 72.0148 21.6138 81.7866 24.7453 87.1608C27.9767 92.7066 35.0175 90.789 45.8678 81.408C46.4644 80.8923 46.5346 79.9924 46.0253 79.3903C42.8015 75.5795 39.8991 71.8146 37.3182 68.0956Z" fill="#FF4154"/>
<path fill-rule="evenodd" clip-rule="evenodd" d="M27.7369 47.7607C29.4455 44.1699 31.3659 40.5609 33.4981 36.9339C33.9008 36.2489 33.672 35.3671 32.9869 34.9643C32.6969 34.7938 32.3563 34.7304 32.0243 34.7849C17.1371 37.2327 8.14742 41.1394 5.05511 46.5053C1.8614 52.047 6.9973 57.1264 20.4628 61.7433C21.2046 61.9976 22.0135 61.6111 22.2816 60.8742C23.9808 56.2043 25.7992 51.8331 27.7369 47.7607Z" fill="#FF4154"/>
<path fill-rule="evenodd" clip-rule="evenodd" d="M43.4745 33.7764H55.8088C57.6126 33.7764 59.2787 34.7412 60.1766 36.3056L66.3698 47.097C67.2607 48.6494 67.2607 50.558 66.3698 52.1104L60.1766 62.9018C59.2787 64.4663 57.6126 65.431 55.8088 65.431H43.4745C41.6706 65.431 40.0045 64.4663 39.1067 62.9018L32.9135 52.1104C32.0225 50.558 32.0225 48.6494 32.9135 47.097L39.1067 36.3056C40.0045 34.7412 41.6706 33.7764 43.4745 33.7764ZM53.9289 37.0334C55.7337 37.0334 57.4005 37.9992 58.298 39.565L62.6167 47.0993C63.5059 48.6505 63.5059 50.5569 62.6167 52.1081L58.298 59.6424C57.4005 61.2082 55.7337 62.174 53.9289 62.174H45.3543C43.5495 62.174 41.8827 61.2082 40.9852 59.6424L36.6666 52.1081C35.7774 50.5569 35.7774 48.6505 36.6666 47.0993L40.9852 39.565C41.8827 37.9992 43.5495 37.0334 45.3543 37.0334H53.9289ZM51.9027 40.5959H47.3805C45.5776 40.5959 43.9122 41.5597 43.014 43.123L40.7319 47.0948C39.8393 48.6483 39.8393 50.5591 40.7319 52.1126L43.014 56.0845C43.9122 57.6477 45.5776 58.6115 47.3805 58.6115H51.9027C53.7057 58.6115 55.3711 57.6477 56.2693 56.0845L58.5514 52.1126C59.444 50.5591 59.444 48.6483 58.5514 47.0948L56.2693 43.123C55.3711 41.5597 53.7057 40.5959 51.9027 40.5959ZM49.9517 44.0056C51.7533 44.0056 53.4176 44.968 54.3164 46.5294L54.6399 47.0916C55.535 48.6467 55.535 50.5607 54.6399 52.1159L54.3164 52.678C53.4176 54.2394 51.7533 55.2018 49.9517 55.2018H49.3316C47.53 55.2018 45.8656 54.2394 44.9669 52.678L44.6434 52.1159C43.7483 50.5607 43.7483 48.6467 44.6434 47.0916L44.9669 46.5294C45.8656 44.968 47.53 44.0056 49.3316 44.0056H49.9517ZM49.6424 47.3645C48.8406 47.3645 48.1011 47.7912 47.7008 48.4841C47.3005 49.1768 47.3005 50.0306 47.7008 50.7233C48.1011 51.4162 48.8406 51.8429 49.6408 51.8429C50.4427 51.8429 51.1821 51.4162 51.5825 50.7233C51.9828 50.0306 51.9828 49.1768 51.5825 48.4841C51.1821 47.7912 50.4427 47.3645 49.6424 47.3645ZM31.4749 49.6037H35.5064H31.4749Z" fill="#FFD94C"/>
</svg>
