<svg width="100" height="100" viewBox="0 0 100 100" fill="none" xmlns="http://www.w3.org/2000/svg">
<path d="M66.7034 55.5982C73.2755 55.5982 82.7843 54.2428 82.7843 46.4256C82.804 45.8223 82.7493 45.2188 82.6215 44.6289L78.7076 27.6286C77.804 23.8881 77.0108 22.1913 70.4439 18.9078C65.348 16.3021 54.2474 11.9995 50.964 11.9995C47.9065 11.9995 47.0186 15.9396 43.3727 15.9396C39.8634 15.9396 37.2577 12.9977 33.9743 12.9977C30.8222 12.9977 28.7681 15.1463 27.1815 19.5645C27.1815 19.5645 22.7633 32.0258 22.196 33.833C22.1058 34.1648 22.0668 34.5085 22.0804 34.8522C22.0804 39.6959 41.1505 55.5771 66.7034 55.5771M83.793 49.5987C84.7019 53.9013 84.7019 54.3531 84.7019 54.9205C84.7019 62.2753 76.4329 66.3573 65.5634 66.3573C40.9982 66.373 19.4799 51.9785 19.4799 42.4645C19.4785 41.1401 19.7485 39.8296 20.2732 38.6136C11.4368 39.0549 0 40.631 0 50.7282C0 67.2661 39.1857 87.6496 70.2128 87.6496C94.0005 87.6496 100 76.8905 100 68.3956C100 61.7132 94.2212 54.1272 83.8035 49.5987" fill="#EE0000"/>
<path d="M83.793 49.5987C84.7019 53.9013 84.7019 54.3531 84.7019 54.9205C84.7019 62.2753 76.4329 66.3573 65.5634 66.3573C40.9982 66.3731 19.4799 51.9785 19.4799 42.4645C19.4785 41.1401 19.7485 39.8296 20.2732 38.6137L22.196 33.854C22.1079 34.1791 22.0689 34.5155 22.0804 34.8522C22.0804 39.6959 41.1505 55.5771 66.7035 55.5771C73.2756 55.5771 82.7844 54.2217 82.7844 46.4046C82.804 45.8013 82.7493 45.1978 82.6215 44.6079L83.793 49.5987Z" fill="black"/>
</svg>
