<svg width="100" height="100" viewBox="0 0 100 100" fill="none" xmlns="http://www.w3.org/2000/svg">
<path d="M96.082 72.7656C90.7453 75.5472 63.1 86.914 57.2145 89.9824C51.3289 93.0511 48.0594 93.0215 43.4098 90.7988C38.7605 88.5761 9.34102 76.6925 4.04141 74.1593C1.39297 72.8937 0 71.825 0 70.8156V60.7078C0 60.7078 38.3008 52.3699 44.484 50.1515C50.6668 47.9332 52.8121 47.8531 58.0738 49.7804C63.3363 51.7086 94.7996 57.3851 100 59.2898L99.9977 69.2547C99.9984 70.2539 98.7984 71.35 96.082 72.7656Z" fill="#912626"/>
<path d="M96.0801 62.7178C90.7438 65.4983 63.0993 76.8654 57.2137 79.9334C51.3285 83.0025 48.059 82.9725 43.4098 80.7498C38.7602 78.5287 9.34183 66.6432 4.04261 64.1116C-1.25661 61.5784 -1.36754 59.835 3.83792 57.7967C9.04339 55.7577 38.3004 44.2792 44.4844 42.0608C50.6672 39.8432 52.8121 39.7624 58.0739 41.6905C63.336 43.6178 90.8157 54.5557 96.0153 56.46C101.217 58.3666 101.416 59.9366 96.0801 62.7178Z" fill="#C6302B"/>
<path d="M96.082 56.4106C90.7453 59.1926 63.1 70.5591 57.2145 73.6286C51.3289 76.6962 48.0594 76.6665 43.4098 74.4438C38.7602 72.2223 9.34102 60.3376 4.04141 57.8044C1.39297 56.5387 0 55.4716 0 54.4618V44.3528C0 44.3528 38.3008 36.0153 44.484 33.7969C50.6668 31.5786 52.8121 31.4981 58.0738 33.4259C63.3367 35.3536 94.8 41.029 100 42.9341L99.9977 52.9001C99.9984 53.8989 98.7984 54.995 96.082 56.4106Z" fill="#912626"/>
<path d="M96.0801 46.3627C90.7438 49.1439 63.0993 60.5103 57.2137 63.5795C51.3285 66.6474 48.059 66.6173 43.4098 64.3947C38.7602 62.1736 9.34183 50.2884 4.04261 47.7564C-1.25661 45.224 -1.36754 43.4802 3.83792 41.4412C9.04339 39.4033 38.3008 27.924 44.4844 25.706C50.6672 23.4881 52.8121 23.4076 58.0739 25.3353C63.336 27.2627 90.8157 38.1998 96.0153 40.1049C101.217 42.0111 101.416 43.5814 96.0801 46.3627Z" fill="#C6302B"/>
<path d="M96.082 39.4492C90.7453 42.2304 63.1 53.5976 57.2145 56.6672C51.3289 59.7351 48.0594 59.7051 43.4098 57.4824C38.7602 55.2609 9.34102 43.3757 4.04141 40.8437C1.39297 39.5769 0 38.5093 0 37.5007V27.3913C0 27.3913 38.3008 19.0542 44.484 16.8362C50.6668 14.6175 52.8121 14.5378 58.0738 16.4651C63.3367 18.3929 94.8 24.0683 100 25.9734L99.9977 35.939C99.9984 36.937 98.7984 38.0331 96.082 39.4492Z" fill="#912626"/>
<path d="M96.08 29.4013C90.7437 32.1825 63.0992 43.5497 57.2136 46.6177C51.3285 49.6857 48.0589 49.6556 43.4097 47.4341C38.7605 45.2114 9.34176 33.3271 4.04293 30.7946C-1.25668 28.2626 -1.36723 26.5185 3.83785 24.4798C9.04332 22.4415 38.3007 10.9638 44.4843 8.74501C50.6671 6.52665 52.8121 6.44696 58.0738 8.3747C63.3359 10.3024 90.8156 21.2395 96.0152 23.1446C101.217 25.0493 101.416 26.62 96.08 29.4013Z" fill="#C6302B"/>
<path d="M62.22 19.5679L53.6223 20.4604L51.6977 25.0917L48.5891 19.9237L38.6613 19.0315L46.0692 16.3601L43.8465 12.2593L50.7821 14.9718L57.3204 12.8312L55.5532 17.0714L62.22 19.5679ZM51.1844 42.0358L35.1387 35.3807L58.1309 31.8514L51.1844 42.0358ZM28.9383 22.1421C35.7254 22.1421 41.2273 24.2749 41.2273 26.9053C41.2273 29.5366 35.7254 31.669 28.9383 31.669C22.1511 31.669 16.6492 29.5362 16.6492 26.9053C16.6492 24.2749 22.1511 22.1421 28.9383 22.1421Z" fill="white"/>
<path d="M72.3809 20.8339L85.9887 26.2112L72.3926 31.5835L72.3809 20.8335" fill="#621B1C"/>
<path d="M57.3262 26.7891L72.3809 20.834L72.3926 31.5836L70.9164 32.161L57.3262 26.7891Z" fill="#9A2928"/>
</svg>
