<svg width="100" height="100" viewBox="0 0 100 100" fill="none" xmlns="http://www.w3.org/2000/svg">
<g clip-path="url(#clip0_33_3310)">
<path d="M50.7835 56.5884C50.7835 58.6474 49.2519 60.3475 47.2661 60.6145C44.912 66.1022 40.117 71.4563 33.5475 75.2492C28.0338 78.4324 22.1909 79.9857 16.9498 79.9857C10.2844 79.9857 4.5919 77.4744 1.78333 72.6098C-2.77792 64.7095 1.66645 53.6862 12.2003 46.2374C12.2007 47.9389 12.3338 49.4992 12.6319 50.8836C11.7819 51.6002 11.0094 52.2139 10.2556 53.0043C8.31581 55.0378 6.76504 57.1447 5.70405 59.3944C3.72502 63.5905 3.59126 67.557 5.32719 70.5637C7.28282 73.951 11.5191 75.8937 16.9498 75.8937C21.6555 75.8937 26.8234 74.4062 31.5015 71.7053C34.2255 70.1327 36.6477 68.2439 38.7008 66.0914C40.6406 64.0577 42.1621 61.8859 43.2232 59.6361C43.3157 59.4401 43.4029 59.2448 43.4869 59.0501C42.9659 58.3668 42.6558 57.514 42.6558 56.5884C42.6558 54.3441 44.4753 52.5247 46.7196 52.5247C48.964 52.5247 50.7835 54.3441 50.7835 56.5884ZM32.6477 18.9995C41.7209 18.9995 49.2406 28.5869 50.5974 41.1169C49.1821 40.2664 47.7004 39.5576 46.1489 38.9976C45.964 38.0292 45.7347 37.078 45.4614 36.1467C44.6701 33.45 43.55 31.0464 42.1321 29.0026C39.4879 25.1908 36.1195 23.0916 32.6477 23.0916C29.176 23.0916 25.8076 25.1908 23.1633 29.0026C21.7454 31.0464 20.6254 33.45 19.8341 36.1467C18.9966 39.001 18.5719 42.0431 18.5719 45.1885C18.5719 48.3339 18.9966 51.376 19.8341 54.2302C20.6254 56.9269 21.7454 59.3305 23.1633 61.3744C23.3103 61.5861 23.4595 61.7922 23.6108 61.9932C23.853 61.9482 24.1023 61.9237 24.3575 61.9237C26.602 61.9237 28.4213 63.7431 28.4213 65.9874C28.4213 68.2317 26.602 70.0512 24.3575 70.0512C22.1132 70.0512 20.2938 68.2317 20.2938 65.9874C20.2938 65.5279 20.3711 65.0866 20.5118 64.6747C16.8095 59.8803 14.4798 52.9273 14.4798 45.1885C14.4798 30.7247 22.6139 18.9995 32.6477 18.9995ZM48.3068 75.8929C53.29 75.8929 57.2676 74.2571 59.4001 71.3704C60.64 72.0256 62.0182 72.4242 63.4729 72.6264C60.6482 77.4369 54.934 79.985 48.3068 79.985C44.2086 79.985 39.7436 79.0356 35.3549 77.0998C37.0627 76.1567 38.5757 75.2453 39.6964 74.3979C42.5972 75.3758 45.5322 75.8929 48.3068 75.8929ZM55.0301 52.9384C52.9769 50.7859 50.5548 48.8971 47.8309 47.3245C43.1528 44.6235 37.9852 43.136 33.2805 43.136H33.2799C32.2517 43.1361 31.2663 43.2058 30.3312 43.3416C30.3074 43.3451 30.2844 43.3496 30.2607 43.3531C29.8359 45.1434 28.2278 46.4756 26.3076 46.4756C24.0633 46.4756 22.2439 44.6562 22.2439 42.412C22.2439 40.1676 24.0633 38.3482 26.3076 38.3482C27.3615 38.3482 28.3214 38.7493 29.0436 39.4072C29.0491 39.4062 29.0544 39.4049 29.0601 39.4039C30.4063 39.1647 31.8195 39.0441 33.2791 39.0439C38.5207 39.0437 44.3624 40.5967 49.8768 43.7806C58.9494 49.0187 64.6443 57.234 65.1884 64.6676C63.5406 64.4822 62.1464 63.9354 60.8645 63.2283C60.6069 61.9872 60.1693 60.7016 59.5525 59.3937C58.4914 57.1438 56.9699 54.9719 55.0301 52.9384Z" fill="#999999"/>
<path d="M96.488 46.766C98.2883 49.477 94.6226 51.5976 92.9809 48.8716C91.9801 47.1634 90.4451 45.5657 88.4329 44.1698C86.3891 42.7519 83.9854 41.6319 81.2888 40.8407C78.4345 40.0031 75.3924 39.5784 72.2471 39.5784C69.1017 39.5784 66.0596 40.0031 63.2053 40.8407C62.7141 40.9848 62.2338 41.1411 61.7625 41.3069C61.7041 43.5003 59.909 45.2608 57.7015 45.2608C55.4572 45.2608 53.6377 43.4414 53.6377 41.1971C53.6377 38.9527 55.4572 37.1333 57.7015 37.1333C58.4483 37.1333 59.1474 37.3357 59.7487 37.6871C63.4635 36.2848 67.7204 35.4863 72.2471 35.4863C83.1964 35.4863 92.5761 40.1478 96.488 46.766ZM99.9046 56.5884C99.9046 58.6262 98.4048 60.3131 96.4491 60.6067C92.5145 67.1907 83.1608 71.8222 72.2471 71.8222C63.7245 71.8222 56.1527 68.998 51.3704 64.6253C49.0571 62.2998 51.8416 59.5979 53.9991 61.4855C54.6172 62.0618 55.3054 62.6145 56.0612 63.1387C58.105 64.5566 60.5086 65.6767 63.2053 66.468C66.0596 67.3054 69.1017 67.7301 72.2471 67.7301C75.3924 67.7301 78.4346 67.3054 81.2888 66.468C83.9855 65.6767 86.3892 64.5566 88.4329 63.1387C90.2062 61.9085 91.6074 60.5214 92.6005 59.0404C92.084 58.3588 91.777 57.5097 91.777 56.5884C91.777 54.3441 93.5964 52.5248 95.841 52.5248C98.0852 52.5248 99.9046 54.3441 99.9046 56.5884Z" fill="#89D96D"/>
</g>
<defs>
<clipPath id="clip0_33_3310">
<rect width="100" height="61.3281" fill="white" transform="translate(0.00012207 18.9995)"/>
</clipPath>
</defs>
</svg>
