<svg width="100" height="100" viewBox="0 0 100 100" fill="none" xmlns="http://www.w3.org/2000/svg">
<path d="M0.000244141 60.6204H4.41902V53.6977H8.13082L11.6069 60.6204H16.497L12.4318 52.6667C14.5822 51.6356 15.9667 49.5146 15.9667 46.8633C15.9667 42.6802 12.9325 39.9995 8.39592 39.9995H0.000244141V60.6204ZM8.04241 43.6818C10.134 43.6818 11.4596 44.9191 11.4596 46.8633C11.4596 48.7782 10.134 50.0154 8.04241 50.0154H4.41902V43.6818H8.04241ZM25.2825 60.7972C29.3184 60.7972 31.9402 58.4405 32.4115 55.4947H28.3167C27.9633 56.9087 26.7849 57.6451 25.1058 57.6451C23.0143 57.6451 21.6297 56.349 21.5413 54.1985V53.9923H32.5293C32.6177 53.521 32.6472 53.0202 32.6472 52.5783C32.5883 48.1301 29.5246 45.302 24.9879 45.302C20.3041 45.302 17.2109 48.3657 17.2109 53.0791C17.2109 57.763 20.2451 60.7972 25.2825 60.7972ZM21.6297 51.2821C21.8654 49.4851 23.2204 48.3952 25.0174 48.3952C26.9028 48.3952 28.1695 49.4262 28.4641 51.2821H21.6297ZM34.095 55.5831C34.2718 58.8235 37.1293 60.7972 41.3418 60.7972C45.4071 60.7972 48.2351 58.8824 48.2351 55.8777C48.2351 52.4604 45.3482 51.6651 41.8721 51.3115C39.6921 51.0464 38.396 50.9286 38.396 49.7797C38.396 48.8076 39.4564 48.2184 41.0767 48.2184C42.7558 48.2184 43.9047 48.9549 44.0226 50.1627H47.9994C47.7932 47.0695 44.9947 45.2726 40.9294 45.2726C37.0408 45.2431 34.4191 47.2169 34.4191 50.2216C34.4191 53.3442 37.1587 54.1396 40.6937 54.552C43.1388 54.876 44.1698 54.9644 44.1698 56.2017C44.1698 57.2622 43.1093 57.8219 41.3713 57.8219C39.3386 57.8219 38.1897 56.9087 38.0425 55.5831H34.095ZM57.9056 60.7972C61.9414 60.7972 64.5632 58.4405 65.0345 55.4947H60.9398C60.5863 56.9087 59.408 57.6451 57.7288 57.6451C55.6372 57.6451 54.2527 56.349 54.1643 54.1985V53.9923H65.1524C65.2407 53.521 65.2702 53.0202 65.2702 52.5783C65.2113 48.1301 62.1476 45.302 57.611 45.302C52.9271 45.302 49.8339 48.3657 49.8339 53.0791C49.8339 57.763 52.8682 60.7972 57.9056 60.7972ZM54.2527 51.2821C54.4883 49.4851 55.8435 48.3952 57.6404 48.3952C59.5258 48.3952 60.7925 49.4262 61.087 51.2821H54.2527ZM76.2303 45.302C73.9035 45.302 72.5185 46.1858 71.5467 47.3641L71.1634 45.4788H67.5401V60.6204H71.6935V52.8729C71.6935 50.2511 72.931 48.7193 75.0811 48.7193C77.1729 48.7193 78.1453 50.0743 78.1453 52.6372V60.6204H82.2989V52.2248C82.2989 47.0401 79.5004 45.302 76.2303 45.302ZM95.8467 47.3641C94.8742 46.1269 93.3717 45.302 91.2807 45.302C87.2447 45.302 84.2695 48.3362 84.2695 53.0202C84.2695 57.8219 87.2447 60.7972 91.3099 60.7972C93.49 60.7972 94.9626 59.8251 95.9643 58.5289L96.3768 60.6204H100V39.9995H95.8467V47.3641ZM92.2232 57.4095C89.9548 57.4095 88.5114 55.642 88.5114 53.0496C88.5114 50.4573 89.9548 48.6898 92.2232 48.6898C94.4917 48.6898 95.9051 50.4868 95.9051 53.0791C95.9051 55.642 94.4917 57.4095 92.2232 57.4095Z" fill="white"/>
</svg>
