<svg width="100" height="100" viewBox="0 0 100 100" fill="none" xmlns="http://www.w3.org/2000/svg">
<g clip-path="url(#clip0_33_3321)">
<path d="M88.2594 32.9223C88.2594 27.035 86.7175 21.5156 84.0016 16.7323C76.8002 9.32054 61.1357 7.60341 57.246 16.6971C53.251 26.0188 63.9567 36.3916 68.6351 35.568C74.5925 34.5168 67.5837 20.8498 67.5837 20.8498C76.695 38.0211 74.5925 32.7646 58.122 48.5341C41.6516 64.3036 24.8307 97.5774 22.3777 98.9791C22.2726 99.0493 22.1675 99.1019 22.0447 99.1544H86.6474C87.7862 99.1544 88.5222 97.9454 88.0141 96.9291L71.1231 63.4977C70.7552 62.7793 71.018 61.8856 71.7189 61.4826C81.6011 55.8056 88.2594 45.1524 88.2594 32.9223Z" fill="url(#paint0_linear_33_3321)"/>
<path d="M88.2594 32.9223C88.2594 27.035 86.7175 21.5156 84.0016 16.7323C76.8002 9.32054 61.1357 7.60341 57.246 16.6971C53.251 26.0188 63.9567 36.3916 68.6351 35.568C74.5925 34.5168 67.5837 20.8498 67.5837 20.8498C76.695 38.0211 74.5925 32.7646 58.122 48.5341C41.6516 64.3036 24.8307 97.5774 22.3777 98.9791C22.2726 99.0493 22.1675 99.1019 22.0447 99.1544H86.6474C87.7862 99.1544 88.5222 97.9454 88.0141 96.9291L71.1231 63.4977C70.7552 62.7793 71.018 61.8856 71.7189 61.4826C81.6011 55.8056 88.2594 45.1524 88.2594 32.9223Z" fill="url(#paint1_linear_33_3321)"/>
<path d="M22.3777 98.9794C24.8309 97.5777 41.6517 64.2864 58.1221 48.5169C74.5925 32.7473 76.6951 38.0038 67.5839 20.8325C67.5839 20.8325 32.7156 69.7181 20.1 93.8981" fill="url(#paint2_linear_33_3321)"/>
<path d="M27.2839 55.1749C50.8331 11.8787 53.9169 7.51584 66.1821 7.51584C72.6301 7.51584 79.1306 10.4244 83.3359 15.5934C77.6063 6.35941 67.4611 0.174236 55.8442 -0.000976562H15.8422C15.0011 -0.000976562 14.3177 0.682373 14.3177 1.52341V82.1584C16.7007 76.0083 20.7482 67.2124 27.2839 55.1749Z" fill="url(#paint3_linear_33_3321)"/>
<path d="M58.1221 48.5167C41.6516 64.2863 24.8308 97.5775 22.3778 98.9793C19.9248 100.381 15.8071 100.556 13.6169 98.1032C11.2865 95.4924 7.65953 91.2697 27.2839 55.1749C50.833 11.8788 53.9169 7.51587 66.1821 7.51587C72.6301 7.51587 79.1306 10.4245 83.3359 15.5934C83.5636 15.9614 83.7914 16.3468 84.0193 16.7323C76.8178 9.32062 61.1534 7.60348 57.2635 16.6973C53.2685 26.0188 63.9744 36.3917 68.6526 35.5682C74.61 34.5169 67.6014 20.8499 67.6014 20.8499C76.6951 38.0037 74.5925 32.7472 58.1221 48.5167Z" fill="url(#paint4_linear_33_3321)"/>
<path opacity="0.3" d="M29.2113 57.1024C52.7604 13.8062 55.8443 9.44327 68.1095 9.44327C73.4185 9.44327 78.7626 11.4232 82.8278 14.9977C78.6225 10.1967 72.3848 7.51587 66.1821 7.51587C53.9169 7.51587 50.833 11.8788 27.2839 55.1749C7.65953 91.2697 11.2865 95.4924 13.6169 98.1032C13.9499 98.4712 14.3353 98.7865 14.7383 99.0494C12.6883 96.0707 11.7771 89.1495 29.2113 57.1024Z" fill="url(#paint5_linear_33_3321)"/>
</g>
<defs>
<linearGradient id="paint0_linear_33_3321" x1="39.8064" y1="53.2564" x2="66.7899" y2="59.5643" gradientUnits="userSpaceOnUse">
<stop stop-color="#FF6533"/>
<stop offset="0.157" stop-color="#FF5633"/>
<stop offset="0.434" stop-color="#FF4333"/>
<stop offset="0.714" stop-color="#FF3733"/>
<stop offset="1" stop-color="#FF3333"/>
</linearGradient>
<linearGradient id="paint1_linear_33_3321" x1="35.586" y1="44.3118" x2="83.9461" y2="81.8083" gradientUnits="userSpaceOnUse">
<stop stop-color="#BF3338"/>
<stop offset="1" stop-color="#FF3333"/>
</linearGradient>
<linearGradient id="paint2_linear_33_3321" x1="37.1636" y1="51.6981" x2="44.1724" y2="59.0573" gradientUnits="userSpaceOnUse">
<stop stop-color="#FF6533"/>
<stop offset="0.157" stop-color="#FF5633"/>
<stop offset="0.434" stop-color="#FF4333"/>
<stop offset="0.714" stop-color="#FF3733"/>
<stop offset="1" stop-color="#FF3333"/>
</linearGradient>
<linearGradient id="paint3_linear_33_3321" x1="49.9064" y1="64.3663" x2="47.8037" y2="34.2289" gradientUnits="userSpaceOnUse">
<stop stop-color="#FF6533"/>
<stop offset="0.157" stop-color="#FF5633"/>
<stop offset="0.434" stop-color="#FF4333"/>
<stop offset="0.714" stop-color="#FF3733"/>
<stop offset="1" stop-color="#FF3333"/>
</linearGradient>
<linearGradient id="paint4_linear_33_3321" x1="40.7975" y1="51.1815" x2="50.753" y2="57.9514" gradientUnits="userSpaceOnUse">
<stop stop-color="#FBB040"/>
<stop offset="1" stop-color="#FB8840"/>
</linearGradient>
<linearGradient id="paint5_linear_33_3321" x1="50.9965" y1="12.9052" x2="40.8339" y2="124.694" gradientUnits="userSpaceOnUse">
<stop stop-color="white"/>
<stop offset="1" stop-color="white" stop-opacity="0"/>
</linearGradient>
<clipPath id="clip0_33_3321">
<rect width="100" height="100" fill="white" transform="translate(0 -0.000976562)"/>
</clipPath>
</defs>
</svg>
