<svg width="100" height="100" viewBox="0 0 100 100" fill="none" xmlns="http://www.w3.org/2000/svg">
<g clip-path="url(#clip0_33_3352)">
<g opacity="0.53" filter="url(#filter0_f_33_3352)">
<path d="M95.6094 51.3071C95.6094 57.0744 94.4297 62.7852 92.1378 68.1134C89.8458 73.4417 86.4864 78.2831 82.2514 82.3611C78.0164 86.4392 72.9887 89.6741 67.4554 91.8811C61.9221 94.0882 55.9915 95.2241 50.0023 95.2241C44.0131 95.2241 38.0825 94.0882 32.5492 91.8811C27.0159 89.6741 21.9882 86.4392 17.7532 82.3611C13.5181 78.2831 10.1588 73.4417 7.86678 68.1134C5.57481 62.7852 4.39514 57.0744 4.39514 51.3071C4.39514 39.6596 9.20017 28.4892 17.7532 20.2531C26.3062 12.0171 37.9065 7.39014 50.0023 7.39014C55.9915 7.39014 61.9221 8.52608 67.4554 10.7331C72.9887 12.9402 78.0164 16.1751 82.2514 20.2531C86.4864 24.3312 89.8458 29.1726 92.1378 34.5008C94.4297 39.8291 95.6094 45.5399 95.6094 51.3071Z" fill="black"/>
</g>
<path d="M97.3435 47.4294C97.3435 53.6466 96.1189 59.803 93.7397 65.5469C91.3605 71.2909 87.8732 76.51 83.4769 80.9063C79.0807 85.3025 73.8616 88.7898 68.1176 91.1691C62.3736 93.5483 56.2173 94.7728 50 94.7728C37.4438 94.7728 25.4018 89.7849 16.5232 80.9063C7.64456 72.0277 2.65662 59.9857 2.65662 47.4294C2.65662 34.8731 7.64456 22.8311 16.5232 13.9525C25.4018 5.0739 37.4438 0.0859407 50 0.0859375C56.2173 0.0859371 62.3736 1.31052 68.1176 3.68975C73.8616 6.06898 79.0807 9.55628 83.4769 13.9525C87.8732 18.3488 91.3605 23.5679 93.7397 29.3118C96.1189 35.0558 97.3435 41.2122 97.3435 47.4294Z" fill="url(#paint0_linear_33_3352)" stroke="#CDCDCD" stroke-width="0.140575" stroke-linecap="round" stroke-linejoin="round"/>
<path d="M93.6337 47.4293C93.6337 59.0017 89.0365 70.1001 80.8537 78.283C72.6708 86.4658 61.5724 91.063 50 91.063C38.4276 91.063 27.3292 86.4658 19.1463 78.283C10.9634 70.1001 6.36633 59.0017 6.36633 47.4293C6.36633 35.8569 10.9634 24.7586 19.1463 16.5757C27.3292 8.39276 38.4276 3.79565 50 3.79565C61.5724 3.79565 72.6708 8.39276 80.8537 16.5757C89.0365 24.7586 93.6337 35.8569 93.6337 47.4293Z" fill="url(#paint1_radial_33_3352)"/>
<path d="M50 6.07104C49.6475 6.07104 49.3638 6.35476 49.3638 6.7072V14.0451C49.3638 14.3975 49.6475 14.6812 50 14.6812C50.3524 14.6812 50.6361 14.3975 50.6361 14.0451V6.7072C50.6361 6.35476 50.3524 6.07104 50 6.07104ZM45.8382 6.33408C45.796 6.32955 45.7527 6.32955 45.7088 6.33461C45.3583 6.37119 45.1055 6.68283 45.1422 7.03337L45.4628 10.1032C45.4994 10.4538 45.8111 10.7065 46.1616 10.6699C46.5121 10.6333 46.7649 10.3217 46.7283 9.97115L46.4079 6.90132C46.3758 6.59459 46.1332 6.36272 45.8382 6.33408ZM54.1909 6.3371C53.8959 6.36552 53.6531 6.59737 53.6209 6.90406L53.298 9.97365C53.2611 10.3242 53.5139 10.6361 53.8644 10.673C54.2149 10.7098 54.5266 10.4573 54.5634 10.1068L54.8863 7.03695C54.9232 6.68644 54.6704 6.37477 54.3199 6.33792C54.2761 6.33339 54.233 6.33336 54.1909 6.3371ZM41.563 6.95404C41.5207 6.95437 41.4776 6.95857 41.4346 6.96764C41.0898 7.04064 40.8709 7.37705 40.9439 7.72185L42.4636 14.9005C42.5366 15.2453 42.873 15.4641 43.2178 15.3911C43.5626 15.3181 43.7815 14.982 43.7085 14.6372L42.1888 7.45829C42.1249 7.15657 41.8594 6.95173 41.563 6.95404ZM58.4657 6.96008C58.1694 6.95706 57.9038 7.16251 57.8398 7.46417L56.3149 14.642C56.2416 14.9867 56.4602 15.3232 56.8049 15.3965C57.1497 15.4698 57.4862 15.2511 57.5594 14.9064L59.0843 7.72855C59.1576 7.38381 58.9389 7.04729 58.5942 6.97406C58.5512 6.965 58.5081 6.96008 58.4657 6.96008ZM37.4831 8.10444C37.4007 8.09688 37.3157 8.10595 37.2318 8.13376C36.8967 8.24272 36.7144 8.60001 36.8233 8.9352L37.7771 11.8708C37.8861 12.206 38.2437 12.3882 38.5788 12.2793C38.914 12.1704 39.096 11.8128 38.9871 11.4776L38.0333 8.54203C37.9517 8.29063 37.7301 8.12544 37.4831 8.10444ZM62.5226 8.10595C62.2756 8.12696 62.0541 8.29221 61.9724 8.54359L61.018 11.4789C60.9091 11.8141 61.0912 12.1717 61.4263 12.2806C61.7615 12.3896 62.1191 12.2075 62.2281 11.8724L63.1824 8.93677C63.2914 8.60158 63.1093 8.24401 62.7741 8.13506C62.6904 8.10785 62.605 8.099 62.5226 8.10595ZM33.4484 9.58088C33.3657 9.58239 33.2821 9.60053 33.2016 9.63634C32.8797 9.77947 32.7355 10.1539 32.8787 10.4759L35.8591 17.1813C36.0022 17.5033 36.3766 17.6473 36.6987 17.5041C37.0205 17.361 37.165 16.9866 37.0218 16.6645L34.0412 9.95923C33.9339 9.71767 33.6963 9.57607 33.4484 9.58088ZM66.6029 9.6034C66.355 9.59886 66.1173 9.73957 66.0096 9.98092L63.0201 16.6821C62.8766 17.004 63.0201 17.3787 63.3419 17.5223C63.6638 17.6658 64.0385 17.5223 64.1821 17.2005L67.1715 10.4993C67.3151 10.1774 67.1716 9.80273 66.8497 9.65914C66.7693 9.62332 66.6855 9.60521 66.6029 9.6034ZM29.7034 11.5624C29.5813 11.5533 29.4555 11.5805 29.341 11.6467C29.0358 11.8229 28.932 12.2105 29.1082 12.5157L30.6515 15.1888C30.8277 15.494 31.2152 15.5979 31.5205 15.4216C31.8257 15.2454 31.9295 14.8579 31.7533 14.5527L30.21 11.8796C30.0998 11.6888 29.907 11.5766 29.7034 11.5624ZM70.2965 11.5624C70.093 11.576 69.9004 11.6887 69.7902 11.8795L68.2467 14.5526C68.0704 14.8578 68.1746 15.2454 68.4798 15.4216C68.785 15.5978 69.1725 15.494 69.3488 15.1888L70.8921 12.5157C71.0683 12.2104 70.9645 11.8229 70.6592 11.6467C70.5448 11.5806 70.4187 11.5539 70.2965 11.5624ZM26.0669 13.8305C25.9445 13.8351 25.8219 13.8743 25.7149 13.9519C25.4296 14.1588 25.3666 14.5551 25.5736 14.8404L29.8822 20.7799C30.0892 21.0652 30.4857 21.1283 30.771 20.9214C31.0563 20.7144 31.1193 20.3182 30.9123 20.0329L26.6034 14.0933C26.474 13.915 26.2708 13.8236 26.0669 13.8305ZM73.9786 13.8629C73.7747 13.8553 73.5715 13.9467 73.4419 14.1248L69.125 20.0586C68.9176 20.3436 68.9802 20.74 69.2652 20.9473C69.5503 21.1547 69.9467 21.0923 70.154 20.8074L74.4706 14.8736C74.678 14.5886 74.6153 14.1922 74.3304 13.9848C74.2235 13.9072 74.101 13.8672 73.9786 13.8629ZM22.8164 16.5566C22.654 16.5475 22.4883 16.6018 22.3573 16.7197C22.0953 16.9555 22.0743 17.3561 22.3101 17.618L24.3754 19.9122C24.6112 20.1742 25.0118 20.1953 25.2737 19.9594C25.5357 19.7236 25.5568 19.3227 25.3209 19.0608L23.2559 16.7668C23.138 16.6358 22.9788 16.5651 22.8164 16.5566ZM77.1883 16.5611C77.0259 16.5702 76.8666 16.6404 76.7487 16.7714L74.6835 19.0651C74.4476 19.327 74.4685 19.7279 74.7305 19.9637C74.9924 20.1995 75.393 20.1784 75.6288 19.9166L77.6943 17.6229C77.9302 17.361 77.909 16.9601 77.6472 16.7243C77.5161 16.6064 77.3507 16.5526 77.1883 16.5611ZM19.7009 19.5491C19.5385 19.5582 19.3795 19.6285 19.2616 19.7594C19.0258 20.0214 19.0469 20.422 19.3088 20.6578L24.7624 25.5672C25.0243 25.803 25.4249 25.7819 25.6607 25.52C25.8965 25.2581 25.8757 24.8575 25.6137 24.6217L20.1599 19.7123C20.0288 19.5944 19.8633 19.5406 19.7009 19.5491ZM80.3188 19.5706C80.1564 19.5615 79.9905 19.6156 79.8595 19.7334L74.4026 24.639C74.1405 24.8746 74.1189 25.2752 74.3545 25.5373C74.5901 25.7994 74.991 25.8207 75.2531 25.5851L80.7103 20.6795C80.9724 20.4439 80.9937 20.0433 80.7581 19.7812C80.6402 19.6501 80.4812 19.5792 80.3188 19.5706ZM17.1102 22.8804C16.9062 22.8729 16.7029 22.9647 16.5734 23.1429C16.3663 23.428 16.4291 23.8242 16.7143 24.0314L19.2114 25.8457C19.4965 26.0528 19.8927 25.9903 20.0999 25.7051C20.3071 25.42 20.2444 25.0235 19.9593 24.8164L17.4622 23.0021C17.3553 22.9244 17.2326 22.8848 17.1102 22.8804ZM82.9071 22.9035C82.7846 22.9081 82.6621 22.9472 82.5551 23.0249L80.0569 24.8376C79.7716 25.0445 79.7085 25.441 79.9154 25.7263C80.1224 26.0116 80.5186 26.0744 80.8039 25.8675L83.3024 24.0548C83.5877 23.8479 83.6505 23.4516 83.4436 23.1663C83.3142 22.9881 83.111 22.8966 82.9071 22.9035ZM14.6891 26.4338C14.4856 26.4474 14.293 26.5602 14.1828 26.7509C14.0066 27.0562 14.1104 27.4437 14.4157 27.6199L20.7703 31.2889C21.0756 31.4651 21.4631 31.3613 21.6393 31.056C21.8155 30.7508 21.7117 30.3633 21.4065 30.1871L15.0518 26.5181C14.9374 26.4521 14.8113 26.4254 14.6891 26.4338ZM85.3108 26.4338C85.1887 26.4248 85.0626 26.452 84.9481 26.5182L78.5935 30.1871C78.2882 30.3633 78.1844 30.7509 78.3606 31.0561C78.5368 31.3613 78.9244 31.4651 79.2296 31.2889L85.5846 27.62C85.8898 27.4438 85.9936 27.0562 85.8174 26.751C85.7072 26.5602 85.5144 26.4481 85.3108 26.4338ZM12.8586 30.2214C12.6107 30.2153 12.373 30.3573 12.2653 30.5986C12.1217 30.9205 12.2652 31.2952 12.5871 31.4388L15.4063 32.6962C15.7281 32.8398 16.1029 32.6964 16.2464 32.3745C16.39 32.0526 16.2462 31.6779 15.9244 31.5343L13.1055 30.2768C13.0251 30.2409 12.9413 30.223 12.8586 30.2214ZM87.1537 30.2475C87.071 30.249 86.9871 30.2672 86.9066 30.303L84.0868 31.5583C83.7649 31.7017 83.6209 32.0762 83.7642 32.3982C83.9077 32.7201 84.2824 32.8641 84.6044 32.7208L87.4241 31.4652C87.7461 31.3219 87.8898 30.9473 87.7465 30.6253C87.639 30.3838 87.4016 30.2426 87.1537 30.2475ZM11.2272 34.1801C10.9801 34.2008 10.7586 34.3658 10.6767 34.6172C10.5676 34.9522 10.7492 35.3099 11.0844 35.4191L18.0613 37.6925C18.3964 37.8016 18.7541 37.6198 18.8633 37.2848C18.9724 36.9497 18.7907 36.592 18.4555 36.4828L11.4787 34.2094C11.395 34.1821 11.3096 34.1731 11.2272 34.1801ZM88.7821 34.2073C88.6997 34.1997 88.6147 34.2088 88.5309 34.2366L81.5524 36.505C81.2172 36.614 81.0352 36.9715 81.1441 37.3067C81.2531 37.6419 81.6106 37.8239 81.9458 37.715L88.924 35.4466C89.2592 35.3376 89.4415 34.98 89.3326 34.6449C89.2508 34.3935 89.0292 34.2282 88.7821 34.2073ZM10.2108 38.3355C9.91441 38.3325 9.64862 38.5383 9.58451 38.8399C9.51121 39.1846 9.7299 39.5211 10.0746 39.5944L13.0939 40.236C13.4387 40.3093 13.7751 40.0907 13.8484 39.746C13.9217 39.4012 13.703 39.0647 13.3583 38.9915L10.3393 38.3498C10.2962 38.3407 10.2531 38.3355 10.2108 38.3355ZM89.7906 38.3416C89.7482 38.3419 89.7055 38.3476 89.6624 38.3552L86.643 38.9966C86.2983 39.0699 86.0797 39.406 86.153 39.7508C86.2263 40.0955 86.5627 40.3144 86.9075 40.2412L89.9265 39.5998C90.2713 39.5265 90.4901 39.19 90.4169 38.8453C90.3528 38.5436 90.0869 38.3391 89.7906 38.3416ZM9.44146 42.5155C9.14644 42.5437 8.90361 42.7752 8.87121 43.0819C8.83418 43.4324 9.08631 43.7444 9.43679 43.7814L16.734 44.553C17.0845 44.59 17.3966 44.3376 17.4336 43.9871C17.4706 43.6366 17.2183 43.3245 16.8678 43.2875L9.57051 42.516C9.52669 42.5115 9.48363 42.5115 9.44146 42.5155ZM90.5654 42.5703C90.5232 42.5658 90.4798 42.5658 90.436 42.5708L83.1379 43.3325C82.7874 43.3691 82.5347 43.6807 82.5712 44.0312C82.6078 44.3818 82.9194 44.6345 83.27 44.5979L90.568 43.8363C90.9186 43.7997 91.1713 43.4881 91.1347 43.1375C91.1027 42.8308 90.8603 42.599 90.5654 42.5703ZM9.31791 46.7941C8.96546 46.7941 8.68176 47.0779 8.68176 47.4303C8.68176 47.7827 8.96546 48.0664 9.31791 48.0664H12.4045C12.7569 48.0664 13.0409 47.7827 13.0409 47.4303C13.0409 47.0779 12.7569 46.7941 12.4045 46.7941H9.31791ZM87.5954 46.7941C87.243 46.7941 86.9593 47.0779 86.9593 47.4303C86.9593 47.7827 87.243 48.0664 87.5954 48.0664H90.682C91.0345 48.0664 91.3182 47.7827 91.3182 47.4303C91.3182 47.0779 91.0345 46.7941 90.682 46.7941H87.5954ZM16.8592 50.2621C16.8171 50.2576 16.774 50.2576 16.7302 50.2626L9.43182 51.0243C9.08127 51.0608 8.82859 51.3725 8.86513 51.723C8.90171 52.0736 9.21335 52.3263 9.56388 52.2897L16.8622 51.5281C17.2128 51.4915 17.4655 51.1799 17.4289 50.8293C17.3969 50.5226 17.1542 50.2908 16.8592 50.2621ZM83.1369 50.3072C82.8418 50.3354 82.599 50.5669 82.5666 50.8736C82.5296 51.2241 82.7817 51.5361 83.1322 51.5732L90.4295 52.3447C90.78 52.3817 91.092 52.1293 91.129 51.7788C91.1661 51.4283 90.9136 51.1163 90.5632 51.0792L83.2662 50.3077C83.2224 50.3032 83.179 50.3031 83.1369 50.3072ZM13.2213 54.6048C13.179 54.6052 13.1359 54.6094 13.0929 54.6184L10.0735 55.2598C9.72877 55.3331 9.51023 55.6695 9.58344 56.0143C9.65674 56.3591 9.99318 56.5776 10.3379 56.5044L13.3573 55.8633C13.702 55.79 13.9206 55.4535 13.8473 55.1088C13.7833 54.8071 13.5177 54.6023 13.2213 54.6048ZM86.7778 54.6109C86.4814 54.6079 86.2159 54.8133 86.1518 55.115C86.0785 55.4597 86.2969 55.7962 86.6416 55.8695L89.661 56.5111C90.0057 56.5844 90.3422 56.366 90.4154 56.0213C90.4887 55.6766 90.2701 55.3398 89.9254 55.2665L86.9063 54.6249C86.8632 54.6158 86.8201 54.6109 86.7778 54.6109ZM18.3056 57.1165C18.2232 57.109 18.1382 57.118 18.0544 57.1458L11.0759 59.4142C10.7407 59.5232 10.5587 59.8808 10.6677 60.216C10.7766 60.5511 11.1342 60.7332 11.4694 60.6242L18.4476 58.3558C18.7828 58.2468 18.9651 57.8893 18.8561 57.5541C18.7744 57.3027 18.5527 57.1375 18.3056 57.1165ZM81.6875 57.139C81.4404 57.1597 81.2189 57.3248 81.137 57.5761C81.0279 57.9112 81.2095 58.2689 81.5447 58.3781L88.5215 60.6515C88.8566 60.7606 89.2143 60.5788 89.3235 60.2438C89.4328 59.9087 89.251 59.551 88.9158 59.4418L81.939 57.1684C81.8552 57.1411 81.7698 57.1321 81.6875 57.139ZM15.6427 62.085C15.56 62.0865 15.4763 62.1043 15.3958 62.1401L12.5758 63.3957C12.2539 63.539 12.1102 63.9136 12.2535 64.2355C12.3969 64.5575 12.7714 64.7012 13.0934 64.5579L15.9134 63.3026C16.2354 63.1593 16.3791 62.7847 16.2357 62.4627C16.1283 62.2212 15.8906 62.08 15.6427 62.085ZM84.3471 62.1091C84.0992 62.1031 83.8615 62.245 83.7538 62.4864C83.6102 62.8083 83.7537 63.183 84.0756 63.3265L86.8945 64.584C87.2164 64.7276 87.5911 64.5841 87.7346 64.2622C87.8782 63.9404 87.7347 63.5656 87.4129 63.4221L84.594 62.1646C84.5136 62.1286 84.4298 62.1108 84.3471 62.1091ZM21.133 63.4877C21.0109 63.4786 20.8848 63.5058 20.7703 63.572L14.4157 67.241C14.1104 67.4172 14.0066 67.8047 14.1828 68.11C14.3591 68.4152 14.7466 68.519 15.0518 68.3428L21.4065 64.6741C21.7117 64.4979 21.8155 64.1101 21.6393 63.8049C21.5291 63.6141 21.3366 63.5019 21.133 63.4877ZM78.8672 63.4877C78.6636 63.5013 78.4708 63.6141 78.3606 63.8048C78.1844 64.11 78.2882 64.4978 78.5935 64.6741L84.9481 68.3427C85.2534 68.519 85.6412 68.4151 85.8174 68.1099C85.9936 67.8047 85.8898 67.4171 85.5846 67.2409L79.2296 63.572C79.1152 63.5059 78.9893 63.4792 78.8672 63.4877ZM19.548 68.8718C19.4256 68.8763 19.303 68.9158 19.196 68.9935L16.6978 70.8061C16.4125 71.0131 16.3494 71.4093 16.5563 71.6946C16.7633 71.9799 17.1596 72.043 17.4448 71.8359L19.9433 70.0233C20.2286 69.8163 20.2917 69.4201 20.0848 69.1348C19.9554 68.9565 19.7519 68.8648 19.548 68.8718ZM80.4368 68.8933C80.2329 68.8857 80.0296 68.9776 79.9001 69.1557C79.6929 69.4409 79.7558 69.8373 80.041 70.0445L82.5381 71.8588C82.8232 72.0659 83.2194 72.0031 83.4266 71.7179C83.6337 71.4328 83.571 71.0366 83.286 70.8295L80.7889 69.0152C80.682 68.9375 80.5592 68.8977 80.4368 68.8933ZM25.2061 69.1129C25.0438 69.1038 24.8781 69.158 24.7471 69.2757L19.2899 74.1813C19.0278 74.4169 19.0065 74.8175 19.2422 75.0797C19.4778 75.3418 19.8784 75.363 20.1405 75.1274L25.5977 70.2219C25.8598 69.9863 25.8811 69.5856 25.6454 69.3235C25.5277 69.1925 25.3685 69.1216 25.2061 69.1129ZM74.7787 69.1304C74.6163 69.1395 74.4571 69.2098 74.3392 69.3408C74.1033 69.6027 74.1244 70.0033 74.3863 70.2391L79.8399 75.1485C80.1018 75.3843 80.5027 75.3632 80.7385 75.1013C80.9743 74.8394 80.9532 74.4388 80.6914 74.203L75.2375 69.2936C75.1065 69.1757 74.9411 69.1219 74.7787 69.1304ZM30.3832 73.7908C30.1793 73.7833 29.9758 73.8746 29.8462 74.0527L25.5296 79.9865C25.3222 80.2715 25.3846 80.668 25.6695 80.8753C25.9545 81.0826 26.3509 81.0202 26.5583 80.7352L30.8749 74.8014C31.0822 74.5164 31.0198 74.12 30.7349 73.9126C30.6281 73.835 30.5056 73.7951 30.3832 73.7908ZM69.5813 73.8174C69.4589 73.822 69.3363 73.8611 69.2293 73.9388C68.944 74.1458 68.881 74.542 69.0878 74.8273L73.3965 80.7668C73.6035 81.0521 73.9997 81.1152 74.285 80.9083C74.5703 80.7013 74.6333 80.3051 74.4265 80.0198L70.1178 74.0803C69.9884 73.902 69.7852 73.8105 69.5813 73.8174ZM24.8108 74.7339C24.6484 74.743 24.4891 74.8133 24.3712 74.9442L22.306 77.2379C22.0701 77.4998 22.091 77.9007 22.353 78.1365C22.6149 78.3724 23.0155 78.3512 23.2513 78.0892L25.3168 75.7956C25.5527 75.5336 25.5315 75.1327 25.2697 74.8969C25.1386 74.779 24.9732 74.7254 24.8108 74.7339ZM75.1853 74.7369C75.0229 74.7279 74.8575 74.7821 74.7266 74.9C74.4646 75.1358 74.4435 75.5364 74.6793 75.7984L76.7442 78.0926C76.98 78.3546 77.3806 78.3756 77.6426 78.1397C77.9045 77.904 77.9256 77.5031 77.6898 77.2411L75.6248 74.9472C75.5069 74.8161 75.3477 74.7455 75.1853 74.7369ZM36.4112 77.2815C36.1633 77.2755 35.9258 77.4174 35.8182 77.6588L32.8285 84.36C32.6849 84.6818 32.8284 85.0565 33.1503 85.2001C33.4721 85.3437 33.8468 85.2002 33.9904 84.8783L36.9801 78.1772C37.1237 77.8553 36.9802 77.4806 36.6583 77.337C36.5779 77.301 36.4938 77.2832 36.4112 77.2815ZM63.5484 77.3C63.4657 77.3015 63.3818 77.3193 63.3013 77.3551C62.9794 77.4983 62.8353 77.8727 62.9784 78.1947L65.9588 84.9C66.1019 85.2219 66.4766 85.3661 66.7986 85.2229C67.1205 85.0798 67.2647 84.7054 67.1215 84.3833L64.1412 77.678C64.0339 77.4366 63.7963 77.2952 63.5484 77.3ZM31.1578 79.3534C30.9542 79.367 30.7616 79.4798 30.6515 79.6705L29.1082 82.3436C28.932 82.6489 29.0358 83.0364 29.341 83.2126C29.6462 83.3888 30.0338 83.285 30.21 82.9798L31.7533 80.3067C31.9295 80.0015 31.8257 79.6139 31.5205 79.4377C31.406 79.3717 31.2799 79.3449 31.1578 79.3534ZM68.8422 79.3534C68.7201 79.3443 68.5942 79.3717 68.4798 79.4377C68.1746 79.614 68.0707 80.0015 68.2469 80.3067L69.7902 82.9798C69.9665 83.2851 70.354 83.3889 70.6592 83.2127C70.9645 83.0364 71.0683 82.6489 70.8921 82.3437L69.3488 79.6706C69.2386 79.4798 69.0457 79.3676 68.8422 79.3534ZM43.0668 79.4492C42.7704 79.4462 42.5049 79.6517 42.4408 79.9533L40.9159 87.1311C40.8426 87.4759 41.0613 87.8124 41.406 87.8856C41.7507 87.9589 42.0872 87.7402 42.1605 87.3955L43.6854 80.2177C43.7587 79.873 43.54 79.5365 43.1953 79.4632C43.1522 79.4542 43.1091 79.4492 43.0668 79.4492ZM56.9106 79.4538C56.8683 79.4541 56.8256 79.4583 56.7825 79.4674C56.4377 79.5404 56.2188 79.8765 56.2918 80.2213L57.8115 87.4002C57.8845 87.745 58.2209 87.9639 58.5657 87.8909C58.9105 87.8179 59.1294 87.4815 59.0564 87.1367L57.5364 79.9583C57.4725 79.6565 57.207 79.4515 56.9106 79.4538ZM50 80.1778C49.6475 80.1778 49.3638 80.4615 49.3638 80.8139V88.1518C49.3638 88.5043 49.6475 88.788 50 88.788C50.3524 88.788 50.6361 88.5043 50.6361 88.1518V80.8139C50.6361 80.4615 50.3524 80.1778 50 80.1778ZM38.3224 82.5489C38.0753 82.5699 37.8536 82.7351 37.7719 82.9865L36.8178 85.9221C36.7088 86.2573 36.891 86.6149 37.2261 86.7238C37.5613 86.8328 37.9188 86.6504 38.0278 86.3153L38.9819 83.38C39.0909 83.0448 38.9087 82.6872 38.5736 82.5783C38.4899 82.5511 38.4048 82.5419 38.3224 82.5489ZM61.6726 82.5504C61.5902 82.5428 61.5052 82.5519 61.4214 82.5796C61.0862 82.6885 60.9039 83.0461 61.0128 83.3813L61.9667 86.3169C62.0756 86.6521 62.4332 86.8341 62.7684 86.7252C63.1036 86.6162 63.2858 86.2589 63.1769 85.9237L62.2228 82.9881C62.1411 82.7367 61.9197 82.5714 61.6726 82.5504ZM46.0068 84.1854C45.7118 84.2138 45.4687 84.4454 45.4365 84.7521L45.1139 87.8219C45.077 88.1724 45.3295 88.4841 45.6801 88.521C46.0306 88.5578 46.3425 88.3053 46.3794 87.9548L46.702 84.8852C46.7388 84.5347 46.4863 84.2228 46.1358 84.1859C46.092 84.1814 46.049 84.1814 46.0068 84.1854ZM53.9676 84.1884C53.9255 84.1839 53.8821 84.1839 53.8383 84.1889C53.4877 84.2255 53.235 84.5372 53.2716 84.8877L53.5923 87.9578C53.6288 88.3083 53.9405 88.5609 54.291 88.5242C54.6415 88.4877 54.8943 88.176 54.8577 87.8255L54.5373 84.7556C54.5053 84.4489 54.2626 84.2171 53.9676 84.1884Z" fill="#F4F2F3"/>
<g opacity="0.409" filter="url(#filter1_f_33_3352)">
<path d="M79.8156 21.9829L45.0103 42.2049L23.0039 76.8492L55.1975 53.0038L79.8156 21.9829Z" fill="black"/>
</g>
<path d="M54.9882 52.6531L45.0118 42.2055L80.4018 18.3987L54.9882 52.6531Z" fill="#FF5150"/>
<path d="M54.9881 52.6531L45.0118 42.2056L19.5981 76.46L54.9881 52.6531Z" fill="#F1F1F1"/>
<path opacity="0.243" d="M19.5983 76.46L54.9882 52.6531L80.4019 18.3987L19.5983 76.46Z" fill="black"/>
</g>
<defs>
<filter id="filter0_f_33_3352" x="0.814814" y="3.80981" width="98.3749" height="94.9946" filterUnits="userSpaceOnUse" color-interpolation-filters="sRGB">
<feFlood flood-opacity="0" result="BackgroundImageFix"/>
<feBlend mode="normal" in="SourceGraphic" in2="BackgroundImageFix" result="shape"/>
<feGaussianBlur stdDeviation="1.79016" result="effect1_foregroundBlur_33_3352"/>
</filter>
<filter id="filter1_f_33_3352" x="21.9863" y="20.9653" width="58.847" height="56.9015" filterUnits="userSpaceOnUse" color-interpolation-filters="sRGB">
<feFlood flood-opacity="0" result="BackgroundImageFix"/>
<feBlend mode="normal" in="SourceGraphic" in2="BackgroundImageFix" result="shape"/>
<feGaussianBlur stdDeviation="0.508813" result="effect1_foregroundBlur_33_3352"/>
</filter>
<linearGradient id="paint0_linear_33_3352" x1="49.9983" y1="94.7718" x2="49.9983" y2="0.0856892" gradientUnits="userSpaceOnUse">
<stop stop-color="#BDBDBD"/>
<stop offset="1" stop-color="white"/>
</linearGradient>
<radialGradient id="paint1_radial_33_3352" cx="0" cy="0" r="1" gradientUnits="userSpaceOnUse" gradientTransform="translate(50.1967 41.0669) scale(47.3433 47.3433)">
<stop stop-color="#06C2E7"/>
<stop offset="0.25" stop-color="#0DB8EC"/>
<stop offset="0.5" stop-color="#12AEF1"/>
<stop offset="0.75" stop-color="#1F86F9"/>
<stop offset="1" stop-color="#107DDD"/>
</radialGradient>
<clipPath id="clip0_33_3352">
<rect width="100" height="99.4528" fill="white" transform="translate(0 0.000488281)"/>
</clipPath>
</defs>
</svg>
