<svg width="100" height="100" viewBox="0 0 100 100" fill="none" xmlns="http://www.w3.org/2000/svg">
<path fill-rule="evenodd" clip-rule="evenodd" d="M18.0933 37.2103C18.9655 38.4126 26.3209 40.6805 37.2927 43.0427C48.2644 45.1456 59.6747 53.4487 68.5482 50.8884C74.5504 49.1533 81.0618 33.6929 81.0618 31.3967V31.161C81.0618 29.5579 79.8595 28.2707 77.8179 27.2004C69.4488 22.9239 67.8646 21.3491 64.7621 22.2025C48.6558 26.6487 20.2197 24.3761 18.0933 37.2103Z" fill="#380D09"/>
<path fill-rule="evenodd" clip-rule="evenodd" d="M18.0933 68.6025C18.9655 69.8236 26.3209 72.0727 37.2927 74.4396C49.5516 76.6745 60.2122 83.9591 69.0905 81.3942C75.0926 79.6591 81.0618 65.0898 81.0618 62.7889V62.5626C81.0618 60.9642 79.8595 59.6723 77.8179 58.6067C71.4338 55.2119 62.9987 51.4729 59.901 52.3264C43.7663 56.7632 22.2 57.7392 18.0933 68.6025Z" fill="#380D09"/>
<path fill-rule="evenodd" clip-rule="evenodd" d="M18.0036 43.9573V44.1836C17.9988 44.1082 17.9988 44.0326 18.0036 43.9573Z" fill="#555555"/>
<path fill-rule="evenodd" clip-rule="evenodd" d="M69.0668 6.06769C54.2335 10.3536 30.701 12.7724 18.0225 12.7724V36.9838C18.0265 37.0671 18.058 37.1467 18.112 37.2101C26.764 37.2101 53.4744 34.3811 69.5902 29.9491C72.4008 29.2337 75.1567 28.3182 77.8367 27.2097C79.8075 26.3232 81.0806 25.3897 81.0806 24.4184V-0.000488281C81.0617 2.30042 75.069 4.33729 69.0668 6.06769Z" fill="#DE3423"/>
<path fill-rule="evenodd" clip-rule="evenodd" d="M69.0668 37.4647C60.1885 40.0249 48.2078 41.9297 37.2926 43.0425C29.9655 43.7922 23.1194 44.1835 18.0225 44.1835V68.3761C18.0265 68.4593 18.058 68.5389 18.112 68.6024C26.764 68.6024 53.4744 65.7734 69.5902 61.346C72.4002 60.6286 75.1559 59.7131 77.8367 58.6066C79.8075 57.7155 81.0806 56.7866 81.0806 55.8154V31.3965C81.0617 33.6927 75.069 35.7296 69.0668 37.4647Z" fill="#DE3423"/>
<path fill-rule="evenodd" clip-rule="evenodd" d="M69.0669 68.8806C60.1886 71.4408 48.2078 73.3409 37.2926 74.4584C29.9561 75.2081 23.1006 75.5994 18.0037 75.5994V99.9994C26.5661 99.9994 53.4131 97.194 69.5714 92.7431C75.5264 91.1023 81.0618 89.2351 81.0618 87.2077V62.7888C81.0618 65.1086 75.069 67.1266 69.0669 68.8806Z" fill="#DE3423"/>
</svg>
