<svg width="100" height="100" viewBox="0 0 100 100" fill="none" xmlns="http://www.w3.org/2000/svg">
<path d="M0 0.000488281H100V100H0V0.000488281Z" fill="#34BDB2"/>
<path d="M65.8051 34.001C60.5254 30.9377 55.8387 28.5287 49.7075 28.635C46.1997 28.6959 43.1879 30.6025 42.5547 34.092C41.9653 37.3385 44.8512 39.1393 47.8536 40.2447C52.8329 42.0783 57.1676 44.0143 62.0602 46.0529C70.9543 49.7596 75.5149 55.7623 74.9758 63.4642C74.2899 73.2638 68.3922 80.2924 59.0192 82.6096C46.7715 85.6377 34.8782 81.0252 24.8293 74.5861C27.3657 70.7224 30.3083 68.0849 32.8293 64.2447C38.6348 66.7158 43.1958 70.0549 49.2692 70.5756C53.5516 70.9428 58.404 70.7385 59.3661 65.7084C60.2333 61.1725 56.2856 58.7408 52.4352 57.3826C47.8512 55.7658 43.2758 53.7881 38.7805 51.9521C30.4708 48.558 27.0895 41.9193 27.6586 34.0986C27.6586 29.5131 31.4633 20.2447 40.7918 17.3619C55.1247 12.9322 63.0215 17.4682 73.4149 24.1475C70.6543 27.7983 68.5321 30.394 65.8051 34.001Z" fill="white"/>
</svg>
