<svg width="100" height="100" viewBox="0 0 100 100" fill="none" xmlns="http://www.w3.org/2000/svg">
<path fill-rule="evenodd" clip-rule="evenodd" d="M36.5913 -0.000732422C31.0745 0.00334505 26.6097 4.48041 26.6138 9.99722C26.6097 15.514 31.0786 19.9911 36.5954 19.9952H46.5771V10.0013C46.5811 4.48448 42.1122 0.00742252 36.5913 -0.000732422C36.5954 -0.000732422 36.5954 -0.000732422 36.5913 -0.000732422ZM36.5913 26.6659H9.98178C4.46496 26.67 -0.00394426 31.1471 0.000133214 36.6639C-0.00802173 42.1807 4.46088 46.6578 9.9777 46.6659H36.5913C42.1082 46.6618 46.5771 42.1848 46.573 36.6679C46.5771 31.1471 42.1082 26.67 36.5913 26.6659Z" fill="#36C5F0"/>
<path fill-rule="evenodd" clip-rule="evenodd" d="M99.8003 36.6639C99.8044 31.1471 95.3355 26.67 89.8186 26.6659C84.3018 26.67 79.8329 31.1471 79.837 36.6639V46.6659H89.8186C95.3355 46.6618 99.8044 42.1848 99.8003 36.6639ZM73.1866 36.6639V9.99722C73.1907 4.48448 68.7259 0.00742252 63.2091 -0.000732422C57.6923 0.00334505 53.2234 4.48041 53.2274 9.99722V36.6639C53.2193 42.1807 57.6882 46.6578 63.205 46.6659C68.7218 46.6618 73.1907 42.1848 73.1866 36.6639Z" fill="#2EB67D"/>
<path fill-rule="evenodd" clip-rule="evenodd" d="M63.205 99.9993C68.7219 99.9952 73.1908 95.5182 73.1867 90.0014C73.1908 84.4846 68.7219 80.0075 63.205 80.0034H53.2234V90.0014C53.2193 95.5141 57.6882 99.9912 63.205 99.9993ZM63.205 73.3286H89.8187C95.3355 73.3245 99.8044 68.8475 99.8003 63.3306C99.8085 57.8138 95.3396 53.3368 89.8228 53.3286H63.2091C57.6923 53.3327 53.2234 57.8097 53.2275 63.3266C53.2234 68.8475 57.6882 73.3245 63.205 73.3286Z" fill="#ECB22E"/>
<path fill-rule="evenodd" clip-rule="evenodd" d="M0.000124858 63.3305C-0.00395261 68.8473 4.46495 73.3244 9.98177 73.3284C15.4986 73.3244 19.9675 68.8473 19.9634 63.3305V53.3325H9.98177C4.46495 53.3366 -0.00395261 57.8137 0.000124858 63.3305ZM26.6138 63.3305V89.9971C26.6056 95.5139 31.0745 99.991 36.5913 99.9992C42.1082 99.9951 46.5771 95.518 46.573 90.0012V63.3386C46.5811 57.8218 42.1122 53.3448 36.5954 53.3366C31.0745 53.3366 26.6097 57.8137 26.6138 63.3305Z" fill="#E01E5A"/>
</svg>
