<svg width="100" height="100" viewBox="0 0 100 100" fill="none" xmlns="http://www.w3.org/2000/svg">
<path d="M100 22.7155C100 22.7155 66.6666 -1.81282 40.8805 3.84756L38.9937 4.47649C35.2201 5.73435 32.0754 7.62114 30.1887 10.1369L28.9308 12.0237L19.4968 28.3759L35.849 31.5205C42.7673 35.923 51.5723 37.8098 59.7484 35.923L88.6792 41.5834L100 22.7155Z" fill="#76B3E1"/>
<path opacity="0.3" d="M100 22.7155C100 22.7155 66.6666 -1.81282 40.8805 3.84756L38.9937 4.47649C35.2201 5.73435 32.0754 7.62114 30.1887 10.1369L28.9308 12.0237L19.4968 28.3759L35.849 31.5205C42.7673 35.923 51.5723 37.8098 59.7484 35.923L88.6792 41.5834L100 22.7155Z" fill="url(#paint0_linear_33_3412)"/>
<path d="M30.1886 22.7155L27.6729 23.3444C16.981 26.4891 13.8364 36.552 19.4968 45.357C25.7861 53.5331 38.9936 57.9356 49.6854 54.791L88.6792 41.5834C88.6792 41.5834 55.3458 17.0551 30.1886 22.7155Z" fill="#518AC8"/>
<path opacity="0.3" d="M30.1886 22.7155L27.6729 23.3444C16.981 26.4891 13.8364 36.552 19.4968 45.357C25.7861 53.5331 38.9936 57.9356 49.6854 54.791L88.6792 41.5834C88.6792 41.5834 55.3458 17.0551 30.1886 22.7155Z" fill="url(#paint1_linear_33_3412)"/>
<path d="M81.761 51.0172C78.2398 46.6182 73.4857 43.3704 68.1075 41.6897C62.7293 40.009 56.9718 39.9719 51.5723 41.5833L12.5786 54.1619L0 76.1745L70.4403 88.1242L83.0189 65.4826C85.5346 61.0801 84.9057 56.0487 81.761 51.0172Z" fill="url(#paint2_linear_33_3412)"/>
<path d="M69.1824 73.0299C65.6612 68.6309 60.9071 65.3831 55.5289 63.7024C50.1506 62.0217 44.3931 61.9846 38.9937 63.596L0 76.1746C0 76.1746 33.3333 101.332 59.1195 95.0425L61.0063 94.4136C71.6981 91.2689 75.4717 81.206 69.1824 73.0299Z" fill="url(#paint3_linear_33_3412)"/>
<defs>
<linearGradient id="paint0_linear_33_3412" x1="14.7798" y1="2.5897" x2="93.0817" y2="40.64" gradientUnits="userSpaceOnUse">
<stop offset="0.1" stop-color="#76B3E1"/>
<stop offset="0.3" stop-color="#DCF2FD"/>
<stop offset="1" stop-color="#76B3E1"/>
</linearGradient>
<linearGradient id="paint1_linear_33_3412" x1="57.7358" y1="21.206" x2="44.0251" y2="66.8664" gradientUnits="userSpaceOnUse">
<stop stop-color="#76B3E1"/>
<stop offset="0.5" stop-color="#4377BB"/>
<stop offset="1" stop-color="#1F3B77"/>
</linearGradient>
<linearGradient id="paint2_linear_33_3412" x1="9.05661" y1="41.0801" x2="88.239" y2="94.9166" gradientUnits="userSpaceOnUse">
<stop stop-color="#315AA9"/>
<stop offset="0.5" stop-color="#518AC8"/>
<stop offset="1" stop-color="#315AA9"/>
</linearGradient>
<linearGradient id="paint3_linear_33_3412" x1="44.7799" y1="47.5582" x2="12.8302" y2="164.728" gradientUnits="userSpaceOnUse">
<stop stop-color="#4377BB"/>
<stop offset="0.5" stop-color="#1A336B"/>
<stop offset="1" stop-color="#1A336B"/>
</linearGradient>
</defs>
</svg>
