<svg width="100" height="100" viewBox="0 0 100 100" fill="none" xmlns="http://www.w3.org/2000/svg">
<path d="M91.0588 5.74642C89.6221 9.23916 87.7643 12.3356 85.7083 15.1099C76.642 5.87028 63.9592 -0.000488281 49.9635 -0.000488281C22.4675 -0.000488281 0 22.3431 0 49.9382C0 64.355 6.16802 77.3351 15.9526 86.5005L17.8105 88.1601C26.4556 95.4676 37.7017 99.9017 49.9387 99.9017C76.1961 99.9017 97.8214 79.4159 99.6792 53.5548C101.165 40.9958 97.3507 24.9193 91.0588 5.74642ZM23.1858 86.9216C21.7491 88.7794 19.0738 88.9776 17.216 87.5409C15.3581 86.1041 15.16 83.4288 16.5967 81.571C18.0334 79.7132 20.7087 79.515 22.5665 80.9517C24.3253 82.3885 24.6225 85.0637 23.1858 86.9216ZM90.7616 71.9846C78.4999 88.3583 52.1433 82.8096 35.3485 83.627C35.3485 83.627 32.3512 83.8252 29.3786 84.2463C29.3786 84.2463 30.5181 83.7261 31.9548 83.2059C43.7954 79.0939 49.369 78.2517 56.5774 74.5608C70.0777 67.6496 83.5532 52.5144 86.2532 36.859C81.1008 51.8951 65.4454 64.8752 51.2268 70.1267C41.4422 73.7433 23.8299 77.236 23.8299 77.236L23.1115 76.8149C11.1718 70.9442 10.7507 44.984 32.5989 36.6361C42.1853 32.9204 51.2516 34.9764 61.6555 32.5241C72.6786 29.9479 85.4606 21.6991 90.5882 10.8988C96.3103 28.313 103.321 55.2888 90.7616 71.9846Z" fill="#6CB52D"/>
<path d="M23.1858 86.9215C21.7491 88.7794 19.0738 88.9775 17.216 87.5408C15.3581 86.1041 15.16 83.4288 16.5967 81.571C18.0334 79.7131 20.7087 79.515 22.5666 80.9517C24.3253 82.3884 24.6226 85.0637 23.1858 86.9215Z" fill="#6CB52D"/>
</svg>
