<svg width="100" height="100" viewBox="0 0 100 100" fill="none" xmlns="http://www.w3.org/2000/svg">
<path d="M13.1032 92.1495L10.0032 9.59969C9.95642 8.28858 10.4237 7.01108 11.3055 6.03964C12.1873 5.0682 13.4137 4.47972 14.7232 4.3997L84.923 0.00971165C85.6089 -0.034056 86.2965 0.0633429 86.9432 0.295886C87.59 0.528429 88.1822 0.891171 88.6831 1.36168C89.1841 1.8322 89.5832 2.40048 89.8558 3.03139C90.1284 3.66229 90.2687 4.34242 90.268 5.0297V94.9745C90.2673 95.6536 90.1292 96.3255 89.8618 96.9497C89.5945 97.5739 89.2035 98.1376 88.7125 98.6067C88.2215 99.0757 87.6405 99.4405 87.0047 99.679C86.3689 99.9175 85.6914 100.025 85.013 99.9945L17.9032 96.9795C16.6424 96.9227 15.4491 96.394 14.56 95.4984C13.6708 94.6028 13.1508 93.4106 13.1032 92.1495Z" fill="#FF4785"/>
<path fill-rule="evenodd" clip-rule="evenodd" d="M79.4035 0.354736L69.7436 0.954735L69.2736 12.2897C69.2678 12.4315 69.3024 12.5721 69.3733 12.695C69.4443 12.818 69.5486 12.9182 69.6743 12.9842C69.8 13.0502 69.9418 13.0792 70.0833 13.0677C70.2248 13.0563 70.3601 13.005 70.4736 12.9197L74.8735 9.57971L78.5935 12.5097C78.7058 12.5986 78.8413 12.6535 78.9838 12.6679C79.1263 12.6822 79.2699 12.6555 79.3977 12.5908C79.5255 12.5261 79.6321 12.4262 79.7049 12.3028C79.7777 12.1795 79.8137 12.0379 79.8085 11.8947L79.4035 0.354736ZM71.8836 38.3046C70.1186 39.6796 56.9386 40.6146 56.9386 38.6596C57.2186 31.1947 53.8786 30.8697 52.0186 30.8697C50.2586 30.8697 47.2886 31.3997 47.2886 35.3997C47.2886 39.4746 51.6286 41.7746 56.7236 44.4746C63.9586 48.3096 72.7235 52.9546 72.7235 64.6346C72.7235 75.8346 63.6236 82.0145 52.0236 82.0145C40.0486 82.0145 29.5837 77.1695 30.7636 60.3746C31.2286 58.4046 46.4536 58.8746 46.4536 60.3746C46.2636 67.3046 47.8436 69.3446 51.8336 69.3446C54.8986 69.3446 56.2886 67.6546 56.2886 64.8146C56.2886 60.5096 51.7686 57.9696 46.5636 55.0496C39.5186 51.0946 31.2286 46.4396 31.2286 35.7547C31.2286 25.0947 38.5586 17.9847 51.6486 17.9847C64.7386 17.9847 71.8836 24.9847 71.8836 38.3046Z" fill="white"/>
</svg>
