<svg width="100" height="100" viewBox="0 0 100 100" fill="none" xmlns="http://www.w3.org/2000/svg">
<path fill-rule="evenodd" clip-rule="evenodd" d="M20.1211 12.1206H80.7272V72.7267H20.1211V12.1206Z" fill="white"/>
<path d="M57.3273 46.0996H37.7364V55.3177H56.8576C57.9879 55.3177 59.0243 54.8571 59.8728 54.1208C60.6243 53.3814 61.097 52.2753 61.097 50.8935C61.1232 49.7039 60.7592 48.5385 60.0607 47.5753C59.3061 46.6511 58.4576 46.0996 57.3273 46.0996ZM57.9879 34.942C58.8364 34.3905 59.2122 33.1905 59.2122 31.6238C59.2122 30.242 58.8364 29.2268 58.1758 28.5814C57.4939 27.9951 56.6266 27.6688 55.7273 27.6602H37.7334V35.9571H55.3516C56.291 35.9571 57.2334 35.4965 57.9879 34.942Z" fill="#0AB3AF"/>
<path d="M89.1424 -0.000488281H12.4C9.95455 -0.000488281 8 1.948 8 4.28739V80.8934C8 83.2359 9.95455 84.6965 12.303 84.6965H23.6424V99.9995L37.7212 84.7934H89.1455C91.4909 84.7934 92.9576 83.3328 92.9576 80.8965V4.38436C92.9576 2.04497 91.4909 0.0964814 89.0485 0.0964814L89.1394 -0.000488281H89.1424ZM76.2424 62.0844C75.2351 63.8533 73.7872 65.3316 72.0394 66.3753C70.1818 67.5419 68.1303 68.6177 65.7818 69.1025C63.4364 69.6874 60.8939 70.1753 58.2545 70.1753H23.6424V15.5935H62.9455C64.9 15.5935 66.5606 15.9844 68.1273 16.8601C69.5909 17.6419 70.9606 18.7116 72.0364 19.9813C74.226 22.6415 75.4036 25.9907 75.3606 29.4359C75.3606 31.9692 74.6758 34.4056 73.403 36.745C72.0841 39.0995 70.0221 40.9505 67.5394 42.0086C70.6667 42.8844 73.1121 44.445 74.9667 46.6844C76.7273 49.0238 77.6091 52.048 77.6091 55.848C77.6091 58.2844 77.1182 60.3328 76.1424 62.0844H76.2394H76.2424Z" fill="#0AB3AF"/>
</svg>
