<svg width="100" height="100" viewBox="0 0 100 100" fill="none" xmlns="http://www.w3.org/2000/svg">
<path d="M2.94118 -0.000976562C1.31681 -0.000976562 0 1.31583 0 2.9402V26.927C0 28.3907 0 29.1223 0.288421 29.5122C0.54605 29.8603 0.914989 30.0663 1.34658 30.1028C1.82977 30.1438 2.47005 29.7488 3.7506 28.9592C17.1987 20.666 33.0406 15.8814 50 15.8814C66.9593 15.8814 82.8013 20.666 96.2492 28.9592C97.5299 29.7488 98.1701 30.1438 98.6534 30.1028C99.0849 30.0663 99.4539 29.8603 99.7116 29.5122C99.9999 29.1223 99.9999 28.3907 99.9999 26.927V2.9402C99.9999 1.31583 98.6831 -0.000976562 97.0587 -0.000976562H2.94118Z" fill="#E76057"/>
<path d="M10.5882 99.999C11.4118 99.999 11.8236 99.999 12.1382 99.8386C12.4149 99.6977 12.6399 99.4728 12.7809 99.196C12.9411 98.8815 12.9411 98.4697 12.9411 97.646V43.994C12.9411 42.6707 12.9411 42.009 12.6456 41.6162C12.3949 41.283 11.983 41.0604 11.567 41.033C11.0765 41.0009 10.5404 41.3517 9.46799 42.0534C6.40355 44.0589 3.49668 46.285 0.769979 48.7095C0.492331 48.9564 0.353507 49.0799 0.249244 49.2354C0.15837 49.3707 0.0877256 49.5282 0.0468586 49.686C-3.05176e-05 49.8672 -3.05176e-05 50.0584 -3.05176e-05 50.4407V97.0578C-3.05176e-05 98.6821 1.31678 99.999 2.94115 99.999H10.5882Z" fill="#E76057"/>
<path d="M32.3526 99.9992C33.1761 99.9992 33.5879 99.9992 33.9026 99.8388C34.1793 99.6978 34.4043 99.473 34.5453 99.1962C34.7054 98.8817 34.7054 98.4698 34.7054 97.6462V34.4767C34.7054 33.4889 34.7054 32.9949 34.4924 32.6434C34.3098 32.3422 34.0046 32.1042 33.6679 32.0006C33.2753 31.8796 32.8108 31.9962 31.8818 32.2296C28.9221 32.9732 26.0329 33.8947 23.2266 34.9824C22.7114 35.1821 22.4538 35.2819 22.2541 35.4604C22.0809 35.6154 21.9406 35.8202 21.8588 36.0377C21.7643 36.2884 21.7643 36.5729 21.7643 37.1419V97.6462C21.7643 98.4698 21.7643 98.8817 21.9246 99.1962C22.0656 99.473 22.2906 99.6978 22.5673 99.8388C22.8818 99.9992 23.2936 99.9992 24.1173 99.9992H32.3526Z" fill="#E76057"/>
<path d="M54.1177 99.999C54.9414 99.999 55.353 99.999 55.6677 99.8386C55.9444 99.6976 56.1694 99.4728 56.3104 99.196C56.4707 98.8815 56.4707 98.4696 56.4707 97.646V32.4359C56.4707 31.6754 56.4707 31.2952 56.3217 30.9899C56.193 30.7264 55.9755 30.496 55.7197 30.3525C55.4235 30.1862 55.055 30.165 54.318 30.1227C52.8892 30.0407 51.4495 29.999 50.0001 29.999C48.5506 29.999 47.1109 30.0407 45.6821 30.1227C44.9451 30.165 44.5766 30.1862 44.2804 30.3525C44.0246 30.496 43.8071 30.7264 43.6784 30.9899C43.5294 31.2952 43.5294 31.6754 43.5294 32.4359V97.646C43.5294 98.4696 43.5294 98.8815 43.6897 99.196C43.8307 99.4728 44.0557 99.6976 44.3324 99.8386C44.6471 99.999 45.0587 99.999 45.8824 99.999H54.1177Z" fill="#E76057"/>
<path d="M75.8819 99.9992C76.7055 99.9992 77.1174 99.9992 77.4319 99.8388C77.7085 99.6978 77.9335 99.473 78.0745 99.1962C78.2349 98.8817 78.2349 98.4698 78.2349 97.6462V37.1419C78.2349 36.5729 78.2349 36.2884 78.1404 36.0377C78.0584 35.8202 77.9182 35.6154 77.745 35.4604C77.5454 35.2819 77.2877 35.1821 76.7725 34.9824C73.9662 33.8947 71.077 32.9732 68.1174 32.2296C67.1884 31.9962 66.7239 31.8796 66.3312 32.0006C65.9945 32.1042 65.6894 32.3422 65.5067 32.6434C65.2937 32.9949 65.2937 33.4889 65.2937 34.4767V97.6462C65.2937 98.4698 65.2937 98.8817 65.4539 99.1962C65.5949 99.473 65.8199 99.6978 66.0965 99.8388C66.4112 99.9992 66.823 99.9992 67.6465 99.9992H75.8819Z" fill="#E76057"/>
<path d="M100 50.4407C100 50.0584 100 49.8672 99.9531 49.686C99.9121 49.5282 99.8416 49.3707 99.7506 49.2354C99.6465 49.0799 99.5076 48.9564 99.23 48.7095C96.5033 46.285 93.5963 44.0589 90.532 42.0534C89.4596 41.3517 88.9235 41.0009 88.433 41.033C88.017 41.0604 87.605 41.283 87.3543 41.6162C87.0588 42.009 87.0588 42.6707 87.0588 43.994V97.646C87.0588 98.4697 87.0588 98.8815 87.2191 99.196C87.3601 99.4728 87.585 99.6977 87.8618 99.8386C88.1763 99.999 88.5881 99.999 89.4118 99.999H97.0588C98.6831 99.999 100 98.6821 100 97.0578V50.4407Z" fill="#E76057"/>
</svg>
