<svg width="100" height="100" viewBox="0 0 100 100" fill="none" xmlns="http://www.w3.org/2000/svg">
<path fill-rule="evenodd" clip-rule="evenodd" d="M50.6794 97.7944C61.6193 58.432 61.3027 58.2561 69.2068 30.1959L71.1064 31.3005C72.1405 31.8985 72.9848 31.406 72.9848 30.21V16.8325C75.0813 9.43838 76.7275 3.72574 77.2059 2.00562H85.7714L100 15.2741L90.6574 23.3999L97.7278 31.0894L51.1473 97.7944C50.9186 98.1707 50.6021 98.0863 50.6724 97.7944H50.6794Z" fill="white"/>
<path fill-rule="evenodd" clip-rule="evenodd" d="M55.7696 12.9643C56.1917 12.9643 56.5329 13.1965 56.5329 13.492V20.3514C56.5329 20.6328 56.2163 20.872 55.7942 20.872H44.2915C43.8694 20.872 43.5177 20.6363 43.5177 20.3443V13.4849C43.5177 13.1965 43.8694 12.9643 44.2915 12.9643H55.7942H55.7696ZM69.9668 5.36623L57.3103 12.7181C57.458 12.9467 57.546 13.2106 57.546 13.492V20.3514C57.546 20.7031 57.4053 21.0197 57.159 21.2835L69.9281 28.7058C70.7723 29.2158 71.511 28.8007 71.511 27.7912V6.29137C71.511 5.27829 70.7723 4.86321 69.9281 5.36975L69.9668 5.36623ZM42.4835 20.3514V13.492C42.4835 13.2106 42.5714 12.9467 42.7156 12.7181L30.0592 5.36623C29.1903 4.86321 28.4762 5.27829 28.4762 6.28785V27.7806C28.4762 28.8007 29.1868 29.1877 30.0592 28.6952L42.8458 21.273C42.6171 20.9916 42.48 20.675 42.48 20.3232L42.4835 20.3514Z" fill="white"/>
<path fill-rule="evenodd" clip-rule="evenodd" d="M48.8461 97.7946H49.3175C38.3776 58.4322 38.6942 58.2563 30.7936 30.1962L28.8941 31.3007C27.8599 31.8987 27.0122 31.4062 27.0122 30.2102V16.8327C24.9051 9.43506 23.2518 3.72242 22.7593 1.99878H14.2115L0.000228882 15.2708L9.33955 23.3966L2.2691 31.0861L48.8426 97.7805L48.8461 97.7946Z" fill="white"/>
<path d="M49.651 35.1877C51.5588 35.1877 53.1053 33.6317 53.1053 31.7122C53.1053 29.7928 51.5588 28.2368 49.651 28.2368C47.7432 28.2368 46.1967 29.7928 46.1967 31.7122C46.1967 33.6317 47.7432 35.1877 49.651 35.1877Z" fill="white"/>
<path d="M49.651 55.8605C51.5588 55.8605 53.1053 54.3045 53.1053 52.3851C53.1053 50.4657 51.5588 48.9097 49.651 48.9097C47.7432 48.9097 46.1967 50.4657 46.1967 52.3851C46.1967 54.3045 47.7432 55.8605 49.651 55.8605Z" fill="white"/>
<path d="M49.651 76.5336C51.5588 76.5336 53.1053 74.9776 53.1053 73.0582C53.1053 71.1388 51.5588 69.5828 49.651 69.5828C47.7432 69.5828 46.1967 71.1388 46.1967 73.0582C46.1967 74.9776 47.7432 76.5336 49.651 76.5336Z" fill="white"/>
</svg>
