<svg width="100" height="100" viewBox="0 0 100 100" fill="none" xmlns="http://www.w3.org/2000/svg">
<path d="M96.128 99.9771H3.87198C1.74575 99.9771 0 98.2314 0 96.1051V3.87149C0 1.74526 1.74575 -0.000488281 3.87198 -0.000488281H96.128C98.2542 -0.000488281 100 1.74526 100 3.87149V96.1275C99.9776 98.2538 98.2542 99.9771 96.128 99.9771Z" fill="#4D4D4E"/>
<path d="M23.0529 30.1919L75.3805 13.5849C75.3805 13.5849 79.0958 11.6377 78.2006 15.2411L78.3349 31.2438C78.3349 31.2438 78.9839 33.5938 75.761 34.1757L54.4987 40.823L23.0529 30.1919Z" fill="#F89820"/>
<path d="M23.0528 30.1919C23.0528 30.1919 20.9937 30.6843 21.598 34.1982L21.4861 49.6189C21.4861 49.6189 21.3071 51.5661 25 52.3495L76.8577 69.046C76.8577 69.046 78.6034 69.7398 78.402 67.5912L78.4244 50.4023C78.4244 50.4023 78.9168 48.6341 75.6938 47.4703L54.4987 40.823L23.0528 30.1919Z" fill="#F89820"/>
<path d="M45.9043 59.064L23.8362 65.8008C23.8362 65.8008 21.1729 65.8903 21.4862 70.8813C21.7995 75.8724 21.4638 85.9216 21.4638 85.9216C21.4638 85.9216 21.6876 87.7793 24.2391 86.705L76.5668 70.0085C76.5668 70.0085 78.4244 69.5384 76.8577 69.0237C75.291 68.5313 45.9043 59.064 45.9043 59.064Z" fill="url(#paint0_linear_33_3452)"/>
<defs>
<linearGradient id="paint0_linear_33_3452" x1="24.5251" y1="76.7761" x2="77.4578" y2="58.4619" gradientUnits="userSpaceOnUse">
<stop offset="0.233" stop-color="#F89822"/>
<stop offset="1" stop-color="#C27818"/>
</linearGradient>
</defs>
</svg>
