<svg width="100" height="100" viewBox="0 0 100 100" fill="none" xmlns="http://www.w3.org/2000/svg">
<path d="M57.8941 98.3382C55.3395 101.555 50.1596 99.7927 50.0981 95.6848L49.198 35.6028H89.5971C96.9144 35.6028 100.995 44.0544 96.4454 49.7852L57.8941 98.3382Z" fill="url(#paint0_linear_33_3458)"/>
<path d="M57.8941 98.3382C55.3395 101.555 50.1596 99.7927 50.0981 95.6848L49.198 35.6028H89.5971C96.9144 35.6028 100.995 44.0544 96.4454 49.7852L57.8941 98.3382Z" fill="url(#paint1_linear_33_3458)" fill-opacity="0.2"/>
<path d="M41.464 1.66109C44.0187 -1.55638 49.1986 0.206562 49.2601 4.31445L49.6546 64.3964H9.76106C2.44348 64.3964 -1.63767 55.9448 2.91262 50.214L41.464 1.66109Z" fill="#3ECF8E"/>
<defs>
<linearGradient id="paint0_linear_33_3458" x1="49.198" y1="48.9245" x2="85.1033" y2="63.9831" gradientUnits="userSpaceOnUse">
<stop stop-color="#249361"/>
<stop offset="1" stop-color="#3ECF8E"/>
</linearGradient>
<linearGradient id="paint1_linear_33_3458" x1="33.2795" y1="27.1292" x2="49.6542" y2="57.9537" gradientUnits="userSpaceOnUse">
<stop/>
<stop offset="1" stop-opacity="0"/>
</linearGradient>
</defs>
</svg>
