<svg width="101" height="101" viewBox="0 0 101 101" fill="none" xmlns="http://www.w3.org/2000/svg">
<path d="M50.6169 98.2311C24.3613 98.2311 3.00006 76.8719 3.00006 50.6153C3.00006 24.3588 24.3613 2.99951 50.6169 2.99951C76.8724 2.99951 98.2337 24.3608 98.2337 50.6163C98.2337 76.8719 76.8724 98.2311 50.6169 98.2311Z" fill="#85EA2D"/>
<path d="M49.9995 5.76589C74.9818 5.76589 95.2326 26.0168 95.2326 50.999C95.2326 75.9803 74.9818 96.2321 49.9995 96.2321C25.0182 96.2321 4.76638 75.9803 4.76638 50.999C4.76638 26.0177 25.0182 5.76589 49.9995 5.76589ZM49.9995 0.999512C22.4297 0.999512 0 23.4292 0 50.999C0 78.5688 22.4297 100.999 49.9995 100.999C77.5693 100.999 100 78.5688 100 50.999C100 23.4292 77.5693 0.999512 49.9995 0.999512Z" fill="#173647"/>
<path d="M31.9194 34.3881C31.7655 36.0992 31.9764 37.8682 31.8625 39.5983C31.7276 41.3293 31.5157 43.0404 31.1699 44.7514C30.6891 47.1931 29.17 49.0391 27.0751 50.5772C31.1519 53.2308 31.6126 57.3445 31.8815 61.5172C32.0164 63.767 31.9584 66.0357 32.1893 68.2655C32.3622 69.9955 33.0348 70.4383 34.8238 70.4953C35.5544 70.5143 36.303 70.4953 37.1506 70.4953V75.8403C31.8635 76.7438 27.4989 75.2447 26.4215 70.7651C26.0747 69.131 25.8438 67.4579 25.7678 65.7659C25.6519 63.9779 25.8438 62.1898 25.7099 60.4018C25.3251 55.4985 24.6904 53.8454 20 53.6146V47.5199C20.3458 47.4429 20.6726 47.385 21.0184 47.347C23.595 47.2121 24.6904 46.4235 25.2481 43.8859C25.518 42.4637 25.6719 41.0215 25.7288 39.5603C25.9217 36.7728 25.8448 33.9274 26.3245 31.1589C26.9972 27.1791 29.4588 25.2561 33.5545 25.0253C34.7079 24.9673 35.8813 25.0253 37.2075 25.0253V30.4863C36.6498 30.5253 36.1691 30.6012 35.6694 30.6012C32.3432 30.4853 32.1693 31.6196 31.9194 34.3881ZM38.3219 47.0392H38.245C36.322 46.9432 34.6689 48.4424 34.572 50.3653C34.476 52.3073 35.9752 53.9614 37.8982 54.0563H38.129C40.033 54.1722 41.6661 52.7101 41.782 50.8071V50.6152C41.821 48.6733 40.2639 47.0781 38.3219 47.0392ZM50.3773 47.0392C48.5123 46.9812 46.9542 48.4424 46.8972 50.2884C46.8972 50.4043 46.8972 50.5003 46.9172 50.6152C46.9172 52.711 48.3394 54.0573 50.4932 54.0573C52.6081 54.0573 53.9353 52.6731 53.9353 50.5003C53.9153 48.4044 52.5111 47.0202 50.3773 47.0392ZM62.7215 47.0392C60.7606 47.0002 59.1255 48.5583 59.0685 50.5193C59.0685 52.4802 60.6446 54.0563 62.6056 54.0563H62.6445C64.4136 54.3641 66.2016 52.6531 66.3175 50.5962C66.4125 48.6923 64.6824 47.0392 62.7215 47.0392ZM79.6602 47.327C77.4294 47.2311 76.314 46.4815 75.7573 44.3656C75.4105 43.0204 75.1996 41.6162 75.1227 40.2319C74.9688 37.6553 74.9878 35.0598 74.8148 32.4832C74.4111 26.3695 69.9895 24.2357 63.567 25.2921V30.5992C64.5855 30.5992 65.374 30.5992 66.1626 30.6182C67.5279 30.6372 68.5663 31.1569 68.7002 32.6761C68.8351 34.0603 68.8351 35.4635 68.9701 36.8678C69.2399 39.6562 69.3928 42.4817 69.8736 45.2312C70.2973 47.4999 71.8545 49.192 73.7954 50.5762C70.3933 52.864 69.3928 56.1322 69.2199 59.8051C69.124 62.3238 69.066 64.8614 68.9321 67.4C68.8162 69.7067 68.0096 70.4563 65.6829 70.5143C65.0292 70.5332 64.3946 70.5912 63.664 70.6302V76.0712C65.0292 76.0712 66.2785 76.1482 67.5279 76.0712C71.4117 75.8403 73.7574 73.9564 74.527 70.1874C74.8538 68.1106 75.0457 66.0157 75.1037 63.9199C75.2376 61.9969 75.2196 60.055 75.4115 58.1521C75.6994 55.1717 77.0646 53.9414 80.045 53.7495C80.3338 53.7105 80.6027 53.6535 80.8725 53.5576V47.4619C80.3718 47.404 80.025 47.347 79.6602 47.327Z" fill="#173647"/>
</svg>
