<svg width="101" height="100" viewBox="0 0 101 100" fill="none" xmlns="http://www.w3.org/2000/svg">
<g clip-path="url(#clip0_33_3492)">
<path fill-rule="evenodd" clip-rule="evenodd" d="M8.44262 52.9884H12.4182L14.8646 38.5134H10.8891L8.44262 52.9884ZM13.2337 36.6785C14.4569 36.6785 15.5782 35.7611 15.6801 34.6398C15.7821 33.5185 14.9666 32.6011 13.7433 32.6011C12.5201 32.6011 11.5007 33.5185 11.2969 34.6398C11.1949 35.7611 12.1123 36.6785 13.2337 36.6785ZM9.97168 38.5134H7.21938L7.831 35.0476H3.75353L3.24385 38.5134H1.30705L0.797363 41.5715H2.73416L1.51092 49.1148C1.00124 51.8671 2.63223 53.2942 5.58839 53.1923C6.60776 53.1923 7.42326 52.9884 7.831 52.7846L7.72907 49.8284H7.62713L6.7097 49.9303C5.8942 49.9303 5.38452 49.6245 5.58839 48.5032L6.7097 41.5715H9.46199L9.97168 38.5134ZM22.6118 41.6734C20.9809 41.6734 19.6557 42.7948 19.3499 44.6296L17.9227 52.9884H13.9472L16.3937 38.5134H20.1654L19.7576 41.0618H19.9615C20.8789 39.4308 22.6118 38.3095 24.7525 38.3095C27.7087 38.3095 29.4416 40.4502 28.83 43.8141L27.3009 52.9884H23.3254L24.7525 44.5277C24.9564 42.6928 24.2428 41.6734 22.6118 41.6734ZM35.7617 54.5175C35.252 55.6388 34.5384 56.5562 33.7229 57.1678H73.2744L76.3325 38.5134H80.3081L79.9003 40.9599H80.1042C80.8178 39.7366 82.2449 38.3095 84.6914 38.3095C87.8514 38.3095 90.094 40.858 89.2785 45.7509C88.463 50.6439 85.5068 53.1923 82.1429 53.1923C79.7984 53.1923 78.881 51.8671 78.4732 50.6439H78.3713L77.25 57.1678H93.9676L89.5843 52.7846L92.1327 50.2361L100.593 58.6969L100.492 58.9008L100.593 59.0027L92.1327 67.4635L89.5843 64.915L93.7637 60.7356H0.8993V57.1678H27.7087L28.728 54.9252C30.0532 55.4349 30.9707 55.333 31.7862 54.0078L32.1939 53.3962L29.4416 38.5134H33.5191L34.7423 49.2168H34.8443L39.6353 38.5134H44.1205L35.7617 54.5175ZM50.6445 41.6734C49.0135 41.6734 47.6883 42.7948 47.3825 44.6296L46.0573 52.9884H41.9798L45.2418 33.7224H49.1154L47.8922 41.0618H48.096C49.0135 39.3289 50.6445 38.3095 52.8871 38.3095C55.8432 38.3095 57.4742 40.3483 56.9645 43.8141L55.4355 52.9884H51.358L52.7851 44.5277C53.0909 42.6928 52.2754 41.6734 50.6445 41.6734ZM66.7505 38.5134H64.2021L64.7117 35.0476H60.7362L60.1246 38.5134H58.1878L57.6781 41.5715H59.7168L58.3917 49.1148C57.882 51.8671 59.6149 53.2942 62.5711 53.1923C63.5904 53.1923 64.4059 52.9884 64.8137 52.7846L64.7117 49.8284H64.6098L63.6924 49.9303C62.8769 49.9303 62.3672 49.6245 62.4691 48.5032L63.6924 41.5715H68.2795L67.0563 49.1148C66.5466 51.8671 68.1776 53.2942 71.1338 53.1923C72.1531 53.1923 72.9686 52.9884 73.3764 52.7846L73.2744 49.8284H73.1725L72.2551 49.9303C71.4396 49.9303 70.9299 49.6245 71.1338 48.5032L72.2551 41.5715H75.0074L75.517 38.5134H72.7647L73.3764 35.0476H69.2989L68.7892 38.5134H66.7505ZM79.0848 45.7509C79.4926 43.2025 80.9197 41.5715 82.8565 41.5715C84.7933 41.5715 85.6088 43.3044 85.201 45.7509C84.6914 48.2993 83.3662 50.0323 81.4294 50.0323C79.4926 50.0323 78.6771 48.2993 79.0848 45.7509Z" fill="url(#paint0_linear_33_3492)"/>
</g>
<defs>
<linearGradient id="paint0_linear_33_3492" x1="50.6852" y1="32.5909" x2="50.6852" y2="67.4838" gradientUnits="userSpaceOnUse">
<stop stop-color="#C75975"/>
<stop offset="1" stop-color="#9A84CD"/>
</linearGradient>
<clipPath id="clip0_33_3492">
<rect width="100" height="35.0663" fill="white" transform="translate(0.695435 32.499)"/>
</clipPath>
</defs>
</svg>
