<svg width="100" height="100" viewBox="0 0 100 100" fill="none" xmlns="http://www.w3.org/2000/svg">
<path d="M70.7031 -0.000488281H29.2969C13.1166 -0.000488281 0 13.1162 0 29.2964V70.7026C0 86.8831 13.1166 99.9995 29.2969 99.9995H70.7031C86.8836 99.9995 100 86.8831 100 70.7026V29.2964C100 13.1162 86.8836 -0.000488281 70.7031 -0.000488281Z" fill="#398CCB"/>
<path fill-rule="evenodd" clip-rule="evenodd" d="M49.8917 14.6479L63.7739 22.6573V27.0612L80.5765 36.7647V53.3636L85.0843 55.9655V71.9933L71.2109 80.0026L65.0517 76.4405L50.0765 85.087L35.191 76.4905L29.1182 80.0026L15.2449 71.9796V55.9655L19.5764 53.465V36.7647L36.0185 27.2726L36.0277 27.2722V22.6573L49.8917 14.6479ZM63.7739 31.2259V38.6759L49.9007 46.6853L36.0277 38.6759V31.4323L36.0185 31.4327L23.182 38.8472V51.3831L29.1182 47.9562L42.9912 55.9655V71.9796L38.7941 74.4068L50.0765 80.9222L61.4488 74.3573L57.3376 71.9796V55.9655L71.2109 47.9562L76.9711 51.2818V38.8472L63.7739 31.2259ZM60.9435 69.9154V60.1392L69.4079 65.0251V74.8013L60.9435 69.9154ZM81.4781 60.1257L73.0138 65.0116V74.8013L81.4781 69.9019V60.1257ZM18.8507 69.9019V60.1257L27.3152 65.0116V74.7876L18.8507 69.9019ZM39.3855 60.1257L30.9209 65.0116V74.7876L39.3855 69.9019V60.1257ZM62.7464 57.0158L71.2109 52.13L79.675 57.0158L71.2109 61.9062L62.7464 57.0158ZM29.1182 52.1163L20.6535 57.0158L29.1182 61.8925L37.5826 57.0158L29.1182 52.1163ZM39.6334 36.5937V26.8175L48.0888 31.7077V41.4794L39.6334 36.5937ZM60.1592 26.8175L51.7036 31.7077V41.4749L60.1592 36.5937V26.8175ZM41.4363 23.6983L49.8917 18.8126L58.3564 23.6983L49.8917 28.5843L41.4363 23.6983Z" fill="white"/>
</svg>
