<svg width="100" height="100" viewBox="0 0 100 100" fill="none" xmlns="http://www.w3.org/2000/svg">
<path d="M11.7281 59.7361C17.1008 59.7361 21.4562 55.3807 21.4562 50.008C21.4562 44.6352 17.1008 40.2798 11.7281 40.2798C6.35542 40.2798 2 44.6352 2 50.008C2 55.3807 6.35542 59.7361 11.7281 59.7361Z" fill="#FF6309"/>
<path d="M81.4846 100.001C86.8576 100.001 91.2133 95.6449 91.2133 90.2718C91.2133 84.8987 86.8576 80.543 81.4846 80.543C76.1116 80.543 71.7559 84.8987 71.7559 90.2718C71.7559 95.6449 76.1116 100.001 81.4846 100.001Z" fill="#FFB515"/>
<path d="M81.4763 19.4567C86.849 19.4567 91.2044 15.1013 91.2044 9.7286C91.2044 4.35591 86.849 0.000488281 81.4763 0.000488281C76.1037 0.000488281 71.7483 4.35591 71.7483 9.7286C71.7483 15.1013 76.1037 19.4567 81.4763 19.4567Z" fill="#C90016"/>
<path d="M58.2309 25.936C70.3445 25.936 80.3946 34.9306 82.0591 46.5916H98.7256C97.9676 37.4287 94.17 28.888 87.8181 22.153C83.7502 24.2244 78.748 24.2641 74.4992 21.8117C70.2471 19.356 67.7801 15.0018 67.5435 10.4383C64.4899 9.72717 61.3649 9.36878 58.2296 9.37012C52.1479 9.37012 46.2711 10.6974 40.9263 13.2147L49.2721 27.6674C52.1198 26.5213 55.1612 25.9335 58.2309 25.936Z" fill="#FF6309"/>
<path d="M34.1601 50.0082C34.1601 42.3388 37.7648 35.4971 43.368 31.086L35.0255 16.6353C33.0493 18.0162 31.1981 19.5678 29.4931 21.2724C24.6652 26.1003 21.2029 31.9295 19.2979 38.2915C23.1365 40.7777 25.6784 45.0941 25.6784 50.0082C25.6784 54.9209 23.1365 59.238 19.2979 61.7235C21.2029 68.0855 24.6652 73.914 29.4931 78.7433C31.1968 80.447 33.0464 81.9982 35.0208 83.3791L43.3647 68.9264C37.7628 64.5159 34.1601 57.6748 34.1601 50.0082Z" fill="#FFB515"/>
<path d="M82.0601 53.4136C80.4002 65.0785 70.3481 74.079 58.2312 74.079C55.0651 74.079 52.0395 73.4627 49.269 72.3462L40.9238 86.7995C46.2673 89.3181 52.1475 90.646 58.2305 90.646C61.4085 90.646 64.5315 90.2796 67.5511 89.5765C67.7837 85.007 70.2507 80.645 74.5061 78.1879C78.7562 75.7342 83.7605 75.7727 87.8284 77.8487C94.1744 71.1124 97.9693 62.5731 98.7241 53.4136H82.0601Z" fill="#C90016"/>
</svg>
