<svg width="100" height="100" viewBox="0 0 100 100" fill="none" xmlns="http://www.w3.org/2000/svg">
<path d="M99.9357 -0.000488281H0V99.9352H99.9357V-0.000488281Z" fill="black"/>
<path d="M99.9357 -0.000488281H0V99.9352H99.9357V-0.000488281Z" fill="white"/>
<path d="M99.6677 100.004C66.4464 100.004 33.2617 100.004 0.0770294 100.004C0.0743832 99.9954 0.0694179 99.9864 0.0694179 99.9776C0.06909 66.6775 0.0690918 33.3774 0.0690918 0.072998C33.3777 0.072998 66.6864 0.072998 100 0.072998C100 33.3769 100 66.6852 100 100.004C99.9047 100.004 99.8044 100.004 99.6677 100.004ZM82.4847 65.3773C82.3252 65.1953 82.1744 65.0049 82.0052 64.8327C80.1286 62.9247 77.7658 62.527 75.25 62.7542C73.0681 62.9512 71.1993 63.9116 69.5837 65.3772C69.4964 65.4563 69.4011 65.5266 69.2754 65.6288C69.2754 65.4246 69.2836 65.2757 69.2741 65.1278C69.2271 64.4028 68.8865 63.8533 68.2416 63.5229C67.6096 63.1992 66.9634 63.23 66.3673 63.611C65.7044 64.0345 65.478 64.6854 65.4788 65.4506C65.4835 71.1823 65.4813 76.9139 65.4813 82.6456C65.4813 83.0032 65.4742 83.3609 65.483 83.7182C65.505 84.6383 65.9928 85.3671 66.7337 85.6005C68.0334 86.0096 69.2732 85.1085 69.2751 83.7377C69.2802 79.805 69.2792 75.8724 69.2754 71.9398C69.2744 70.8322 69.5544 69.8166 70.2609 68.952C71.9069 66.9373 74.0385 66.0864 76.6168 66.38C77.8727 66.5233 78.8874 67.1061 79.5836 68.1824C80.2367 69.1924 80.4604 70.3325 80.4694 71.5066C80.494 74.7468 80.4845 77.9876 80.488 81.228C80.489 82.1159 80.4744 83.0043 80.4915 83.8919C80.5187 85.2805 82.0112 86.14 83.2334 85.4802C84.0106 85.0608 84.2867 84.3748 84.2857 83.5277C84.2809 79.8487 84.2917 76.1697 84.2777 72.4909C84.2744 71.6173 84.2449 70.7382 84.1435 69.8714C83.9553 68.2641 83.5091 66.7365 82.4847 65.3773ZM58.562 63.3232C58.3336 63.3395 58.0959 63.3205 57.8787 63.3781C56.9735 63.619 56.4746 64.3385 56.474 65.3837C56.4718 69.1319 56.4795 72.8803 56.4668 76.6286C56.4648 77.2484 56.4323 77.8776 56.3229 78.4859C56.0342 80.0915 55.1733 81.2943 53.6285 81.9035C52.1233 82.4972 50.5736 82.5176 49.0153 82.0947C47.8332 81.7739 46.9268 81.0956 46.335 80.0181C45.9106 79.2456 45.7041 78.4033 45.6887 77.5322C45.6578 75.7681 45.6682 74.0033 45.6662 72.2387C45.6637 69.9552 45.6692 67.6715 45.6639 65.388C45.6614 64.2634 44.9144 63.3801 43.9372 63.323C42.7266 63.2522 41.8732 64.0765 41.8719 65.3387C41.8677 69.1907 41.8627 73.0427 41.8745 76.8949C41.8789 78.272 42.0268 79.6303 42.5511 80.9267C43.5456 83.3861 45.4018 84.8706 47.892 85.5932C49.4593 86.0479 51.0739 86.0754 52.6916 85.8851C53.9414 85.7381 55.1362 85.397 56.2246 84.7644C58.7951 83.2707 60.1028 80.9478 60.1857 78.0475C60.3073 73.7952 60.2577 69.5377 60.2624 65.2824C60.2635 64.2144 59.6356 63.506 58.562 63.3232Z" fill="#ECDC5A"/>
<path d="M82.4983 65.3979C83.5092 66.7364 83.9555 68.2641 84.1436 69.8714C84.245 70.7383 84.2745 71.6173 84.2778 72.491C84.2918 76.1698 84.2812 79.8488 84.2857 83.5276C84.2868 84.3749 84.0108 85.0608 83.2333 85.4803C82.0113 86.1399 80.5188 85.2805 80.4918 83.892C80.4743 83.0043 80.4891 82.116 80.4881 81.2279C80.4846 77.9875 80.4941 74.7469 80.4694 71.5065C80.4606 70.3326 80.2369 69.1925 79.5837 68.1823C78.8876 67.106 77.8728 66.5232 76.6169 66.3803C74.0386 66.0865 71.907 66.9373 70.2609 68.952C69.5546 69.8168 69.2743 70.8323 69.2755 71.9399C69.2793 75.8724 69.2803 79.805 69.2752 83.7376C69.2733 85.1084 68.0336 86.0097 66.734 85.6004C65.9929 85.3672 65.5052 84.6384 65.4829 83.7181C65.4744 83.3609 65.4816 83.0033 65.4816 82.6457C65.4816 76.914 65.4838 71.1822 65.4788 65.4506C65.4783 64.6854 65.7046 64.0345 66.3672 63.6111C66.9636 63.2302 67.6097 63.1993 68.2416 63.523C68.8866 63.8533 69.2272 64.4027 69.2742 65.1278C69.2836 65.2757 69.2755 65.4247 69.2755 65.6289C69.4012 65.5267 69.4965 65.4562 69.5838 65.3771C71.1992 63.9117 73.0684 62.9513 75.2501 62.7543C77.7659 62.5269 80.1288 62.9247 82.0051 64.8328C82.1745 65.005 82.3253 65.1954 82.4983 65.3979Z" fill="#111827"/>
<path d="M58.5928 63.325C59.6356 63.5062 60.2635 64.2148 60.2622 65.2826C60.2577 69.538 60.3074 73.7954 60.1858 78.0477C60.1028 80.9482 58.7952 83.2708 56.2246 84.7645C55.1362 85.3971 53.9415 85.7383 52.6916 85.8853C51.074 86.0757 49.4593 86.0481 47.892 85.5933C45.4018 84.8708 43.5456 83.3863 42.5511 80.927C42.0268 79.6305 41.8789 78.2724 41.8745 76.8951C41.8627 73.0431 41.8677 69.1909 41.8719 65.3389C41.8732 64.0769 42.7267 63.2524 43.9372 63.3233C44.9144 63.3805 45.6614 64.2637 45.6639 65.3882C45.6693 67.6717 45.6636 69.9554 45.6663 72.2389C45.6683 74.0035 45.6576 75.7683 45.6888 77.5324C45.7041 78.4035 45.9106 79.2459 46.335 80.0183C46.9268 81.0959 47.8332 81.7741 49.0153 82.0951C50.5736 82.518 52.1233 82.4975 53.6285 81.9037C55.1733 81.2946 56.0343 80.0917 56.3229 78.4862C56.4323 77.8778 56.4647 77.2487 56.4668 76.6288C56.4795 72.8805 56.4718 69.1323 56.474 65.384C56.4747 64.3389 56.9735 63.6191 57.8787 63.3785C58.0959 63.3207 58.3336 63.3398 58.5928 63.325Z" fill="#111827"/>
</svg>
