<svg width="100" height="100" viewBox="0 0 100 100" fill="none" xmlns="http://www.w3.org/2000/svg">
<path d="M7.05859 48.0815C7.01953 48.7847 7 50.4448 7 51.1675C7 75.562 26.1602 95.3276 49.793 95.3276C73.4258 95.3276 92.5859 75.562 92.5859 51.1675C92.5859 50.4448 92.5664 49.7417 92.5274 49.019L7.05859 48.0815Z" fill="url(#paint0_linear_33_3514)"/>
<path d="M53.7969 90.0151C75.2411 90.0151 92.625 72.6312 92.625 51.187C92.625 29.7428 75.2411 12.3589 53.7969 12.3589C32.3527 12.3589 14.9688 29.7428 14.9688 51.187C14.9688 72.6312 32.3527 90.0151 53.7969 90.0151Z" fill="#007AFF"/>
<path d="M76.4531 12.6128C69.3438 7.43701 60.0469 3.99951 50.6719 3.99951C26.5508 3.99951 7.01953 24.1753 7.01953 49.0386H15.0469C15.7695 31.0698 30.6328 16.3042 48.9922 16.3042C56.6289 16.3042 63.6797 18.8237 69.3633 23.062C72.2148 24.9565 76.082 24.2339 78.0547 21.4019C80.0273 18.5112 79.3242 14.5855 76.4531 12.6128Z" fill="url(#paint1_linear_33_3514)"/>
<path opacity="0.5" d="M92.1172 57.398L74.1875 39.4683L62.7227 38.4917H52.2344L51.1797 52.1245L36.3164 37.2612L32.7031 42.4565L34.0508 64.8198L58.875 89.644C75.8867 87.437 89.4023 74.2144 92.1172 57.398Z" fill="url(#paint2_linear_33_3514)"/>
<path d="M50.1641 35.8354V55.6792H50.1445C50.1445 59.312 47.1953 62.2612 43.5625 62.2612C39.9297 62.2612 36.9805 59.312 36.9805 55.6792V39.2144C36.9805 37.3979 35.4961 35.9136 33.6797 35.9136C31.8633 35.9136 30.3789 37.3784 30.3789 39.2144V55.7183C30.3789 62.9839 36.2773 68.8823 43.5625 68.8823C50.8477 68.8823 56.7461 62.9839 56.7461 55.7183V42.5151H66.6289C68.4258 42.5151 69.8906 43.98 69.8906 45.7769C69.8906 47.5737 68.4258 49.0386 66.6289 49.0386H63.4844C61.6484 49.0386 60.1445 50.5229 60.1445 52.3589C60.1445 54.1558 61.5703 55.6206 63.3672 55.6792L70.3789 67.2808C70.9648 68.2573 72.0195 68.9214 73.25 68.9214C75.0859 68.9214 76.5898 67.437 76.5898 65.6011C76.5898 64.8589 76.3359 64.1558 75.9258 63.6089L70.6328 54.8589C74.1094 53.3159 76.5312 49.8394 76.5312 45.7964C76.5312 40.3081 72.0781 35.8745 66.5898 35.8745L50.1641 35.8354Z" fill="white"/>
<path d="M72.8398 21.0698C74.7815 21.0698 76.3555 19.4958 76.3555 17.5542C76.3555 15.6126 74.7815 14.0386 72.8398 14.0386C70.8982 14.0386 69.3242 15.6126 69.3242 17.5542C69.3242 19.4958 70.8982 21.0698 72.8398 21.0698Z" fill="white"/>
<path d="M70.8672 20.4838C70.8672 20.4838 58.7383 9.7807 43.3867 11.8315C37.5664 12.769 32.8984 14.5268 28.3672 17.2416C23.8359 19.9565 30.3984 15.3471 32.3516 14.2924C34.3242 13.2377 43.5039 7.53461 58.7578 9.8393C74.0117 12.144 75.6914 15.5424 75.6914 15.5424L70.8672 20.4838Z" fill="white"/>
<defs>
<linearGradient id="paint0_linear_33_3514" x1="7" y1="71.7046" x2="92.5859" y2="71.7046" gradientUnits="userSpaceOnUse">
<stop stop-color="#FF3B30"/>
<stop offset="1" stop-color="#F7951E"/>
</linearGradient>
<linearGradient id="paint1_linear_33_3514" x1="7.01953" y1="26.519" x2="79.1719" y2="26.519" gradientUnits="userSpaceOnUse">
<stop stop-color="#FF3B30"/>
<stop offset="1" stop-color="#F7951E"/>
</linearGradient>
<linearGradient id="paint2_linear_33_3514" x1="42.3555" y1="40.3804" x2="81.2793" y2="79.3042" gradientUnits="userSpaceOnUse">
<stop/>
<stop offset="1" stop-opacity="0"/>
</linearGradient>
</defs>
</svg>
