<svg width="102" height="102" viewBox="0 0 102 102" fill="none" xmlns="http://www.w3.org/2000/svg">
<path d="M51.3917 99.9995C79.006 99.9995 101.392 77.6138 101.392 49.9995C101.392 22.3853 79.006 -0.000488281 51.3917 -0.000488281C23.7775 -0.000488281 1.39172 22.3853 1.39172 49.9995C1.39172 77.6138 23.7775 99.9995 51.3917 99.9995Z" fill="#004E8C"/>
<path opacity="0.1" d="M16.7355 14.062C11.6526 18.5914 7.54833 24.1111 4.67414 30.2828C1.79995 36.4546 0.216439 43.1482 0.0206758 49.9536C-0.175088 56.7589 1.02102 63.5325 3.53568 69.8593C6.05034 76.186 9.83057 81.9325 14.6447 86.7466C19.4588 91.5607 25.2053 95.3409 31.532 97.8556C37.8587 100.37 44.6324 101.566 51.4377 101.371C58.2431 101.175 64.9367 99.5913 71.1084 96.7171C77.2802 93.8429 82.7999 89.7386 87.3293 84.6558L16.7355 14.062Z" fill="white"/>
<path d="M53.4073 30.312L38.8917 69.687H33.7511L19.4698 30.312H24.6105L35.548 61.562C35.9252 62.6951 36.192 63.862 36.3448 65.0464H36.4542C36.618 63.8311 36.9113 62.6368 37.3292 61.4839L48.4542 30.2339L53.4073 30.312Z" fill="white"/>
<path d="M59.0792 69.6869V30.3119H70.2824C73.1917 30.1563 76.0613 31.0426 78.3761 32.8119C79.3442 33.5936 80.1186 34.5883 80.639 35.7185C81.1593 36.8487 81.4116 38.0838 81.3761 39.3276C81.4066 41.416 80.7537 43.4571 79.5167 45.1401C78.2684 46.816 76.5161 48.048 74.5167 48.6557V48.7651C76.9349 48.96 79.2002 50.026 80.8917 51.7651C82.5272 53.5679 83.3861 55.9426 83.2824 58.3744C83.3335 59.924 83.0341 61.4652 82.4064 62.8829C81.7787 64.3005 80.839 65.5582 79.6574 66.5619C77.1002 68.6954 73.8448 69.8084 70.5167 69.6869H59.0792ZM63.7667 34.4682V47.1869H68.4542C70.5885 47.2873 72.6885 46.6224 74.3761 45.3119C75.1073 44.675 75.6831 43.8792 76.0596 42.9855C76.436 42.0918 76.6031 41.1239 76.548 40.1557C76.548 36.3328 74.0324 34.4213 69.0011 34.4213L63.7667 34.4682ZM63.7667 51.3276V65.4994H70.0167C72.2632 65.6297 74.4816 64.9475 76.2667 63.5776C77.0115 62.9247 77.5993 62.1121 77.9862 61.2003C78.3731 60.2886 78.5491 59.3012 78.5011 58.3119C78.5011 53.6661 75.3344 51.3432 69.0011 51.3432L63.7667 51.3276Z" fill="white"/>
</svg>
