<svg width="100" height="100" viewBox="0 0 100 100" fill="none" xmlns="http://www.w3.org/2000/svg">
<path d="M75.0449 31.659L51.1384 66.2246C50.885 66.5911 50.5184 66.8656 50.0944 67.0065C49.6704 67.1475 49.212 67.1461 48.7888 67.0046C48.3656 66.8623 48.0008 66.5865 47.7495 66.2193C47.4983 65.8515 47.3744 65.4123 47.3968 64.9684L48.3536 45.8846L32.9074 42.6088C32.5773 42.5389 32.2698 42.3889 32.012 42.1722C31.7542 41.9557 31.5541 41.679 31.4294 41.3668C31.3048 41.0547 31.2595 40.7166 31.2975 40.3826C31.3354 40.0487 31.4555 39.729 31.6471 39.452L55.5538 4.88637C55.8073 4.51968 56.1739 4.24521 56.5979 4.1045C57.0221 3.96379 57.4804 3.96452 57.9037 4.10668C58.3269 4.24878 58.6918 4.52451 58.9429 4.89206C59.1941 5.25954 59.318 5.69873 59.2955 6.14302L58.3388 25.227L73.7847 28.5025C74.1148 28.5724 74.4224 28.7224 74.6804 28.939C74.9384 29.1557 75.1382 29.4323 75.2626 29.7445C75.3876 30.0567 75.4326 30.3947 75.3949 30.7286C75.3572 31.0627 75.2368 31.382 75.0449 31.659Z" fill="#FCC72B"/>
<path d="M50.0096 95.2249C49.3737 95.2256 48.744 95.1012 48.1565 94.8578C47.5691 94.6143 47.0355 94.2571 46.5865 93.8073L23.9975 71.2199C23.0939 70.3116 22.5873 69.0818 22.589 67.8004C22.5907 66.519 23.1005 65.2899 24.0067 64.3842C24.9128 63.4779 26.1413 62.9679 27.4228 62.9659C28.7043 62.9646 29.9342 63.4707 30.8428 64.3743L50.0096 83.5389L91.7645 41.786C92.6748 40.8904 93.9019 40.3908 95.1787 40.396C96.4561 40.4012 97.6793 40.9108 98.5816 41.8137C99.4846 42.7167 99.9946 43.9398 99.9999 45.2168C100.005 46.4937 99.5051 47.721 98.6094 48.6312L53.4317 93.8073C52.9828 94.2578 52.4494 94.6143 51.8621 94.8578C51.2748 95.1012 50.6452 95.2256 50.0096 95.2249Z" fill="#729B1B"/>
<path d="M49.9901 95.2249C50.626 95.2256 51.2557 95.1012 51.8431 94.8578C52.4306 94.6143 52.9641 94.2571 53.4132 93.8073L76.0021 71.2199C76.9058 70.3116 77.4125 69.0818 77.4105 67.8004C77.4092 66.519 76.8992 65.2899 75.9929 64.3842C75.0866 63.4779 73.8581 62.9679 72.5767 62.9659C71.2953 62.9646 70.0655 63.4707 69.1566 64.3743L49.9901 83.5389L8.23524 41.786C7.32497 40.8904 6.09769 40.3908 4.8208 40.396C3.54384 40.4012 2.32067 40.9108 1.41775 41.8137C0.514806 42.7167 0.00523984 43.9398 4.01847e-05 45.2168C-0.00515947 46.4937 0.494431 47.721 1.38999 48.6312L46.5679 93.8073C47.0168 94.2578 47.5503 94.6143 48.1376 94.8578C48.7249 95.1012 49.3544 95.2256 49.9901 95.2249Z" fill="#729B1B" fill-opacity="0.5"/>
</svg>
