<svg width="100" height="100" viewBox="0 0 100 100" fill="none" xmlns="http://www.w3.org/2000/svg">
<path d="M61.4384 -0.000488281C61.4384 0.176059 61.4384 0.352606 61.4384 0.538445C61.4384 3.57949 60.2303 6.49598 58.08 8.64632C55.9297 10.7967 53.0132 12.0047 49.9721 12.0047C46.9311 12.0047 44.0146 10.7967 41.8643 8.64632C39.7139 6.49598 38.5059 3.57949 38.5059 0.538445C38.5059 0.352606 38.5059 0.176059 38.5059 -0.000488281H0V99.9995H100V-0.000488281H61.4384ZM47.7235 89.2952L42.8545 65.2011H42.7709L37.5023 89.2952H30.7935L23.1927 53.8928H29.8179L34.3524 77.9869H34.436L39.8997 53.8928H46.0974L51.0035 78.2842H51.0872L56.2628 53.8928H62.7671L54.3208 89.2952H47.7235ZM84.2037 89.2952L81.9457 81.4156H70.0242L68.2866 89.2952H61.6614L70.2286 53.8928H80.682L91.0983 89.2952H84.2037Z" fill="#654FF0"/>
<path d="M74.2148 62.6179L71.325 75.6081H80.3196L77.0024 62.6179H74.2148Z" fill="#654FF0"/>
</svg>
