<svg width="100" height="100" viewBox="0 0 100 100" fill="none" xmlns="http://www.w3.org/2000/svg">
<path fill-rule="evenodd" clip-rule="evenodd" d="M28.854 4.99951C26.1532 5.00525 23.5095 6.54244 22.1499 8.88748L1.00382 45.7194C-0.334605 48.0707 -0.334605 51.144 1.00382 53.4953L22.1499 90.3272C23.5096 92.6723 26.1532 94.2099 28.854 94.2152H71.146C73.8468 94.2094 76.4904 92.6723 77.8502 90.3272L98.9962 53.4953C100.335 51.144 100.335 48.0707 98.9962 45.7194L77.8502 8.88748C76.4904 6.54244 73.8468 5.00482 71.146 4.99951H28.854ZM29.2378 26.5466C29.2959 26.5409 29.3569 26.5409 29.4151 26.5466H36.7099C37.0328 26.5533 37.346 26.7404 37.5073 27.0215L49.8819 49.1325C49.9442 49.2418 49.9843 49.3636 49.9995 49.4886C50.0148 49.3636 50.0549 49.2418 50.1172 49.1325L62.4622 27.0215C62.6286 26.7319 62.9565 26.5438 63.2891 26.5466H70.5838C71.2298 26.5524 71.7135 27.3681 71.4108 27.9415L59.3317 49.6074L71.4108 71.2435C71.7421 71.8202 71.2465 72.6738 70.5838 72.6681H63.2891C62.9507 72.6652 62.6208 72.4641 62.4622 72.1636L50.1172 50.0525C50.0549 49.9432 50.0148 49.8214 49.9995 49.6964C49.9843 49.8214 49.9442 49.9433 49.8819 50.0525L37.5073 72.1636C37.3533 72.4556 37.0385 72.6548 36.7099 72.6681H29.4151C28.7524 72.6738 28.2569 71.8202 28.5883 71.2435L40.6674 49.6074L28.5883 27.9415C28.2987 27.4184 28.652 26.6583 29.2378 26.5466Z" fill="#3498DB"/>
</svg>
