<svg width="100" height="100" viewBox="0 0 100 100" fill="none" xmlns="http://www.w3.org/2000/svg">
<path d="M17.7083 1.00049H82.2917C92.0833 1.00049 100 8.91715 100 18.7088V80.7922C100 90.5838 92.0833 98.5005 82.2917 98.5005H17.7083C7.91667 98.5005 0 90.5838 0 80.7922V18.7088C0 8.91715 7.91667 1.00049 17.7083 1.00049Z" fill="#470137"/>
<path d="M52.5833 26.6255L40.0833 47.2505L53.4166 69.1255C53.5 69.2922 53.5416 69.4588 53.5 69.6255C53.4583 69.7922 53.2916 69.6672 53.0416 69.7088H43.5C42.8333 69.7088 42.375 69.6672 42.0833 69.2505C41.2083 67.5005 40.2916 65.7922 39.4166 64.0422C38.5416 62.3338 37.5833 60.5838 36.5833 58.7922C35.5833 57.0005 34.5833 55.2088 33.5833 53.3755H33.5C32.625 55.1672 31.6666 56.9588 30.7083 58.7505C29.75 60.5422 28.7916 62.3338 27.875 64.0838C26.9166 65.8338 25.9583 67.6255 25 69.3338C24.8333 69.7505 24.5 69.7922 24.0416 69.7922H14.875C14.7083 69.7922 14.5833 69.8755 14.5833 69.6672C14.5416 69.5005 14.5833 69.3338 14.6666 69.2088L27.625 47.9588L15 26.5838C14.875 26.4172 14.8333 26.2505 14.9166 26.1672C15 26.0422 15.1666 26.0005 15.3333 26.0005H24.7916C25 26.0005 25.2083 26.0422 25.375 26.0838C25.5416 26.1672 25.6666 26.2922 25.7916 26.4588C26.5833 28.2505 27.5 30.0422 28.4583 31.8338C29.4583 33.6255 30.4166 35.3755 31.4583 37.1255C32.4583 38.8755 33.375 40.6255 34.25 42.4172H34.3333C35.2083 40.5838 36.125 38.7922 37.0416 37.0422C37.9583 35.2922 38.9166 33.5422 39.875 31.7922C40.8333 30.0422 41.75 28.2505 42.6666 26.5422C42.7083 26.3755 42.7916 26.2088 42.9166 26.1255C43.0833 26.0422 43.25 26.0005 43.4583 26.0422H52.25C52.4583 26.0005 52.6666 26.1255 52.7083 26.3338C52.75 26.3755 52.6666 26.5422 52.5833 26.6255Z" fill="#FF61F6"/>
<path d="M71.8333 70.5837C68.7499 70.6254 65.6666 70.0004 62.8749 68.7087C60.2499 67.5004 58.0833 65.5004 56.5833 63.042C55.0416 60.5004 54.2916 57.3337 54.2916 53.542C54.2499 50.4587 55.0416 47.417 56.5833 44.7504C58.1666 42.042 60.4583 39.792 63.2083 38.292C66.1249 36.667 69.6249 35.8754 73.7499 35.8754C73.9583 35.8754 74.2499 35.8754 74.6249 35.917C74.9999 35.9587 75.4166 35.9587 75.9166 36.0004V22.8337C75.9166 22.542 76.0416 22.3754 76.3333 22.3754H84.7916C84.9999 22.3337 85.1666 22.5004 85.2083 22.667C85.2083 22.7087 85.2083 22.7504 85.2083 22.7504V62.417C85.2083 63.167 85.2499 64.0004 85.2916 64.917C85.3749 65.792 85.4166 66.6254 85.4583 67.3337C85.4583 67.6254 85.3333 67.8754 85.0416 68.0004C82.8749 68.917 80.5833 69.5837 78.2499 70.0004C76.1249 70.3754 73.9999 70.5837 71.8333 70.5837ZM75.9166 62.2504V43.917C75.5416 43.8337 75.1666 43.7504 74.7916 43.7087C74.3333 43.667 73.8749 43.6254 73.4166 43.6254C71.7916 43.6254 70.1666 43.9587 68.7083 44.7087C67.2916 45.417 66.0833 46.4587 65.1666 47.792C64.2499 49.1254 63.7916 50.917 63.7916 53.0837C63.7499 54.542 63.9999 56.0004 64.4999 57.3754C64.9166 58.5004 65.5416 59.5004 66.3749 60.3337C67.1666 61.0837 68.1249 61.667 69.2083 62.0004C70.3333 62.3754 71.4999 62.542 72.6666 62.542C73.2916 62.542 73.8749 62.5004 74.4166 62.4587C74.9583 62.5004 75.4166 62.417 75.9166 62.2504Z" fill="#FF61F6"/>
</svg>
