<svg width="100" height="100" viewBox="0 0 100 100" fill="none" xmlns="http://www.w3.org/2000/svg">
<path d="M50 99.999C77.6142 99.999 100 77.6133 100 49.999C100 22.3848 77.6142 -0.000976562 50 -0.000976562C22.3858 -0.000976562 0 22.3848 0 49.999C0 77.6133 22.3858 99.999 50 99.999Z" fill="#303846"/>
<path d="M50.4054 70.6748C54.3919 63.7153 54.6622 54.9316 50.4054 47.4991C46.1486 40.0667 38.3108 35.9451 30.3378 35.9451C26.3513 42.9045 26.0811 51.6883 30.3378 59.1207C34.5946 66.4856 42.3649 70.6748 50.4054 70.6748Z" stroke="#97DCCF" stroke-width="3.37838" stroke-miterlimit="10"/>
<path d="M49.5949 70.6748C57.5678 70.6748 65.3381 66.5532 69.6624 59.1207C73.9192 51.6883 73.6489 42.9045 69.6624 35.9451C61.6895 35.9451 53.9192 40.0667 49.5949 47.4991C45.3381 54.9316 45.6084 63.7153 49.5949 70.6748Z" stroke="#97DCCF" stroke-width="3.37838" stroke-miterlimit="10"/>
<path d="M49.9999 69.8639C56.8918 65.8774 61.554 58.3774 61.554 49.7963C61.554 41.2152 56.8918 33.7152 49.9999 29.7288C43.108 33.7152 38.4459 41.2152 38.4459 49.7963C38.4459 58.3774 43.108 65.8774 49.9999 69.8639Z" stroke="#97DCCF" stroke-width="3.37838" stroke-miterlimit="10"/>
</svg>
